<svg width="145" height="49" viewBox="0 0 145 49" fill="none" xmlns="http://www.w3.org/2000/svg">
<rect opacity="0.5" width="145" height="49" rx="10" transform="matrix(-1 0 0 1 145 0)" fill="#6E0392"/>
<path d="M51.825 33.95L52.225 27.95C53.6 28.6 56.2 29.2 57.925 29.2C58.75 29.2 58.75 28.15 58.025 28.075L55.325 27.725C52.8 27.4 51.925 25.85 51.925 23.5C51.925 20.15 53.525 18.7 57.325 18.65C59.1 18.625 61.75 18.85 63.9 19.05L63.5 24.95C62.1 24.525 59.575 23.95 58.7 23.95C57.925 23.95 57.825 25 58.65 25.125L60.75 25.35C63.375 25.7 64.3 26.975 64.3 29.5C64.3 33.25 62.05 34.275 59.025 34.3C56.375 34.325 54 34.2 51.825 33.95ZM79.7154 29.95C79.7404 31.3 79.7904 32.775 79.8904 34H73.5904C73.6904 32.775 73.7404 31.3 73.7654 29.95V25.85C73.7654 24.925 73.5904 24.6 72.9654 24.625C72.6904 24.65 72.3904 24.725 72.1154 24.85L72.0904 29.95C72.1154 31.3 72.1654 32.775 72.2654 34H65.9904C66.0904 32.775 66.1404 31.3 66.1654 29.95L66.1404 23C66.1404 21.65 66.0904 20.175 65.9904 18.95H66.1654L72.1154 18.725H72.2904C72.2654 19.225 72.2154 19.8 72.1904 20.35C73.3654 19.175 74.8154 18.625 76.1904 18.625C78.4904 18.625 79.7404 19.7 79.7404 23.325C79.7404 25.55 79.7404 27.75 79.7154 29.95ZM81.6346 33.95L82.0346 27.95C83.4096 28.6 86.0096 29.2 87.7346 29.2C88.5596 29.2 88.5596 28.15 87.8346 28.075L85.1346 27.725C82.6096 27.4 81.7346 25.85 81.7346 23.5C81.7346 20.15 83.3346 18.7 87.1346 18.65C88.9096 18.625 91.5596 18.85 93.7096 19.05L93.3096 24.95C91.9096 24.525 89.3846 23.95 88.5096 23.95C87.7346 23.95 87.6346 25 88.4596 25.125L90.5596 25.35C93.1846 25.7 94.1096 26.975 94.1096 29.5C94.1096 33.25 91.8596 34.275 88.8346 34.3C86.1846 34.325 83.8096 34.2 81.6346 33.95Z" fill="white"/>
</svg>
