<svg width="145" height="49" viewBox="0 0 145 49" fill="none" xmlns="http://www.w3.org/2000/svg">
<rect opacity="0.5" width="145" height="49" rx="10" transform="matrix(-1 0 0 1 145 0)" fill="#6E0392"/>
<path d="M52.3 29.95C52.325 31.3 52.375 32.775 52.475 34H46.175C46.275 32.775 46.325 31.3 46.35 29.95V25.85C46.35 24.925 46.175 24.6 45.55 24.625C45.25 24.65 44.925 24.725 44.65 24.875V29.95C44.675 31.3 44.7 32.775 44.825 34H38.5C38.625 32.775 38.65 31.3 38.675 29.95V25.85C38.675 24.925 38.525 24.6 37.875 24.625C37.65 24.65 37.4 24.7 37.175 24.8L37.15 29.95C37.175 31.3 37.225 32.775 37.325 34H31.05C31.15 32.775 31.2 31.3 31.225 29.95L31.2 23C31.2 21.65 31.15 20.175 31.05 18.95H31.225L37.175 18.725H37.35C37.325 19.2 37.3 19.7 37.25 20.225C38.4 19.125 39.8 18.625 41.125 18.625C42.775 18.625 43.875 19.175 44.35 20.825C45.6 19.3 47.225 18.625 48.775 18.625C51.075 18.625 52.325 19.7 52.325 23.325C52.325 25.55 52.325 27.75 52.3 29.95ZM61.3887 34.3C56.3887 34.3 54.0637 32 54.0637 26.45C54.0637 20.925 56.3887 18.625 61.3887 18.625C66.3637 18.625 68.6637 20.925 68.6637 26.45C68.6637 32 66.3637 34.3 61.3887 34.3ZM61.3887 29.075C62.2137 29.075 62.5887 28.45 62.5887 26.45C62.5887 24.45 62.2137 23.825 61.3887 23.825C60.5387 23.825 60.1637 24.45 60.1637 26.45C60.1637 28.45 60.5387 29.075 61.3887 29.075ZM84.1305 29.95C84.1555 31.3 84.2055 32.775 84.3055 34H78.0055C78.1055 32.775 78.1555 31.3 78.1805 29.95V25.85C78.1805 24.925 78.0055 24.6 77.3805 24.625C77.1055 24.65 76.8055 24.725 76.5305 24.85L76.5055 29.95C76.5305 31.3 76.5805 32.775 76.6805 34H70.4055C70.5055 32.775 70.5555 31.3 70.5805 29.95L70.5555 23C70.5555 21.65 70.5055 20.175 70.4055 18.95H70.5805L76.5305 18.725H76.7055C76.6805 19.225 76.6305 19.8 76.6055 20.35C77.7805 19.175 79.2305 18.625 80.6055 18.625C82.9055 18.625 84.1555 19.7 84.1555 23.325C84.1555 25.55 84.1555 27.75 84.1305 29.95ZM91.7996 28.075C91.9746 29.075 92.4496 29.325 93.6996 29.35C95.6246 29.35 97.7996 29.125 99.3996 28.6L99.2246 33.475C97.8246 33.95 95.7996 34.3 93.3996 34.3C88.0496 34.3 85.8996 32.325 85.8996 26.425C85.8996 20.575 88.6246 18.625 93.1996 18.625C97.4996 18.625 99.3996 21.125 99.3996 24.65C99.3996 25.6 99.3246 27.125 99.1996 27.975C97.0246 28.075 93.7496 28.125 91.7996 28.075ZM92.8746 23.25C92.2496 23.25 91.8996 23.6 91.7496 24.875C92.2996 24.9 93.1496 24.9 93.7996 24.875C93.7996 23.775 93.5746 23.25 92.8746 23.25ZM100.643 38.25L100.818 33.325C102.543 33.825 105.343 33.475 105.893 32H103.193C102.218 28.5 100.843 22.525 100.093 18.95H106.518C106.768 21.1 107.343 24.55 107.718 27.075H107.793C108.318 24.55 108.893 21.1 109.168 18.95H114.268C113.518 22.65 111.543 30.525 110.668 32.5C109.118 36.2 107.568 37.775 104.968 38.125C103.818 38.3 101.868 38.325 100.643 38.25Z" fill="white"/>
</svg>
