<svg width="145" height="49" viewBox="0 0 145 49" fill="none" xmlns="http://www.w3.org/2000/svg">
<rect opacity="0.5" width="145" height="49" rx="10" transform="matrix(-1 0 0 1 145 0)" fill="#6E0392"/>
<path d="M15.675 19.625C17.8 19.625 18.675 21 18.675 24.075C18.675 25.35 18.575 27.075 18.45 28.35C16.675 28.4 14.9 28.5 13.175 28.675C13.4 27.725 13.625 26.125 12.775 26.125C12.475 26.125 12.25 26.325 12.175 26.675L12.15 30.95C12.175 32.3 12.225 33.775 12.325 35H6.05C6.15 33.775 6.2 32.3 6.225 30.95L6.2 24C6.2 22.65 6.15 21.175 6.05 19.95H6.225L12.175 19.725H12.35C12.275 20.775 12.2 22 12.175 23.175C12.9 20.5 14.175 19.625 15.675 19.625ZM25.491 29.075C25.666 30.075 26.141 30.325 27.391 30.35C29.316 30.35 31.491 30.125 33.091 29.6L32.916 34.475C31.516 34.95 29.491 35.3 27.091 35.3C21.741 35.3 19.591 33.325 19.591 27.425C19.591 21.575 22.316 19.625 26.891 19.625C31.191 19.625 33.091 22.125 33.091 25.65C33.091 26.6 33.016 28.125 32.891 28.975C30.716 29.075 27.441 29.125 25.491 29.075ZM26.566 24.25C25.941 24.25 25.591 24.6 25.441 25.875C25.991 25.9 26.841 25.9 27.491 25.875C27.491 24.775 27.266 24.25 26.566 24.25ZM34.6092 34.95L35.0092 28.95C36.3842 29.6 38.9842 30.2 40.7092 30.2C41.5342 30.2 41.5342 29.15 40.8092 29.075L38.1092 28.725C35.5842 28.4 34.7092 26.85 34.7092 24.5C34.7092 21.15 36.3092 19.7 40.1092 19.65C41.8842 19.625 44.5342 19.85 46.6842 20.05L46.2842 25.95C44.8842 25.525 42.3592 24.95 41.4842 24.95C40.7092 24.95 40.6092 26 41.4342 26.125L43.5342 26.35C46.1592 26.7 47.0842 27.975 47.0842 30.5C47.0842 34.25 44.8342 35.275 41.8092 35.3C39.1592 35.325 36.7842 35.2 34.6092 34.95ZM55.7246 35.3C50.7246 35.3 48.3996 33 48.3996 27.45C48.3996 21.925 50.7246 19.625 55.7246 19.625C60.6996 19.625 62.9996 21.925 62.9996 27.45C62.9996 33 60.6996 35.3 55.7246 35.3ZM55.7246 30.075C56.5496 30.075 56.9246 29.45 56.9246 27.45C56.9246 25.45 56.5496 24.825 55.7246 24.825C54.8746 24.825 54.4996 25.45 54.4996 27.45C54.4996 29.45 54.8746 30.075 55.7246 30.075ZM64.7414 35C64.8664 33.775 64.8914 32.3 64.9164 30.95V19.475C64.8914 18.125 64.8664 16.65 64.7414 15.425H64.9414L70.9664 15.2H71.1664C71.0914 16.425 71.0164 17.9 70.9914 19.25V30.95C71.0164 32.3 71.0414 33.775 71.1664 35H64.7414ZM87.0102 23.775V30.95C87.0352 32.3 87.0602 33.775 87.1852 35H81.0602V33.6C80.0602 34.8 78.5352 35.3 77.4602 35.3C74.5852 35.3 73.3602 34.2 73.3602 30.075V23.975C73.3352 22.625 73.3352 21.15 73.1852 19.925H73.3852L79.2852 19.825H79.4852C79.3852 21.05 79.3352 22.525 79.3102 23.875V27.725C79.3102 28.925 79.4852 29.425 80.2352 29.4C80.5352 29.375 80.8102 29.3 81.0602 29.15V24C81.0352 22.65 81.0102 21.175 80.8852 19.95H81.0852L87.0352 19.725H87.2102C87.1352 20.95 87.0352 22.425 87.0102 23.775ZM98.627 29.3C98.652 31.25 98.727 33.025 98.927 34.95C97.902 35.15 96.252 35.3 94.352 35.3C91.077 35.3 89.902 34.375 89.902 30.8L89.927 24.775L88.502 24.875V19.75L89.952 19.825C89.927 18.65 89.877 17.425 89.802 16.375H89.977L96.102 16.15L95.977 19.85L98.777 19.7V24.875L95.952 24.75V28.325C95.952 29.4 96.202 29.65 97.102 29.65C97.677 29.65 98.252 29.5 98.627 29.3ZM103.365 19.85C100.915 19.85 99.69 18.9 99.69 17C99.69 15.15 100.915 14.25 103.365 14.25C105.79 14.25 106.99 15.15 106.99 17C106.99 18.9 105.79 19.825 103.365 19.85ZM100.165 35.05C100.265 33.825 100.315 32.35 100.34 31L100.315 24.85C100.315 23.5 100.265 22.025 100.165 20.8H106.565C106.465 22.025 106.415 23.5 106.39 24.85V31C106.415 32.35 106.465 33.825 106.565 35.05H100.165ZM115.539 35.3C110.539 35.3 108.214 33 108.214 27.45C108.214 21.925 110.539 19.625 115.539 19.625C120.514 19.625 122.814 21.925 122.814 27.45C122.814 33 120.514 35.3 115.539 35.3ZM115.539 30.075C116.364 30.075 116.739 29.45 116.739 27.45C116.739 25.45 116.364 24.825 115.539 24.825C114.689 24.825 114.314 25.45 114.314 27.45C114.314 29.45 114.689 30.075 115.539 30.075ZM138.281 30.95C138.306 32.3 138.356 33.775 138.456 35H132.156C132.256 33.775 132.306 32.3 132.331 30.95V26.85C132.331 25.925 132.156 25.6 131.531 25.625C131.256 25.65 130.956 25.725 130.681 25.85L130.656 30.95C130.681 32.3 130.731 33.775 130.831 35H124.556C124.656 33.775 124.706 32.3 124.731 30.95L124.706 24C124.706 22.65 124.656 21.175 124.556 19.95H124.731L130.681 19.725H130.856C130.831 20.225 130.781 20.8 130.756 21.35C131.931 20.175 133.381 19.625 134.756 19.625C137.056 19.625 138.306 20.7 138.306 24.325C138.306 26.55 138.306 28.75 138.281 30.95Z" fill="white"/>
</svg>
