<svg width="145" height="49" viewBox="0 0 145 49" fill="none" xmlns="http://www.w3.org/2000/svg">
<rect opacity="0.5" width="145" height="49" rx="10" transform="matrix(-1 0 0 1 145 0)" fill="#6E0392"/>
<path d="M13.2 18.85C10.75 18.85 9.525 17.9 9.525 16C9.525 14.15 10.75 13.25 13.2 13.25C15.625 13.25 16.825 14.15 16.825 16C16.825 17.9 15.625 18.825 13.2 18.85ZM10 34.05C10.1 32.825 10.15 31.35 10.175 30L10.15 23.85C10.15 22.5 10.1 21.025 10 19.8H16.4C16.3 21.025 16.25 22.5 16.225 23.85V30C16.25 31.35 16.3 32.825 16.4 34.05H10ZM32.149 29.95C32.174 31.3 32.224 32.775 32.324 34H26.024C26.124 32.775 26.174 31.3 26.199 29.95V25.85C26.199 24.925 26.024 24.6 25.399 24.625C25.124 24.65 24.824 24.725 24.549 24.85L24.524 29.95C24.549 31.3 24.599 32.775 24.699 34H18.424C18.524 32.775 18.574 31.3 18.599 29.95L18.574 23C18.574 21.65 18.524 20.175 18.424 18.95H18.599L24.549 18.725H24.724C24.699 19.225 24.649 19.8 24.624 20.35C25.799 19.175 27.249 18.625 28.624 18.625C30.924 18.625 32.174 19.7 32.174 23.325C32.174 25.55 32.174 27.75 32.149 29.95ZM43.6182 28.3C43.6432 30.25 43.7182 32.025 43.9182 33.95C42.8932 34.15 41.2432 34.3 39.3432 34.3C36.0682 34.3 34.8932 33.375 34.8932 29.8L34.9182 23.775L33.4932 23.875V18.75L34.9432 18.825C34.9182 17.65 34.8682 16.425 34.7932 15.375H34.9682L41.0932 15.15L40.9682 18.85L43.7682 18.7V23.875L40.9432 23.75V27.325C40.9432 28.4 41.1932 28.65 42.0932 28.65C42.6682 28.65 43.2432 28.5 43.6182 28.3ZM54.8313 18.625C56.9563 18.625 57.8313 20 57.8313 23.075C57.8313 24.35 57.7313 26.075 57.6063 27.35C55.8313 27.4 54.0563 27.5 52.3313 27.675C52.5563 26.725 52.7813 25.125 51.9313 25.125C51.6313 25.125 51.4063 25.325 51.3313 25.675L51.3063 29.95C51.3313 31.3 51.3813 32.775 51.4813 34H45.2063C45.3063 32.775 45.3563 31.3 45.3813 29.95L45.3563 23C45.3563 21.65 45.3063 20.175 45.2063 18.95H45.3813L51.3313 18.725H51.5062C51.4313 19.775 51.3563 21 51.3313 22.175C52.0563 19.5 53.3313 18.625 54.8313 18.625ZM66.0723 34.3C61.0723 34.3 58.7473 32 58.7473 26.45C58.7473 20.925 61.0723 18.625 66.0723 18.625C71.0473 18.625 73.3473 20.925 73.3473 26.45C73.3473 32 71.0473 34.3 66.0723 34.3ZM66.0723 29.075C66.8973 29.075 67.2723 28.45 67.2723 26.45C67.2723 24.45 66.8973 23.825 66.0723 23.825C65.2223 23.825 64.8473 24.45 64.8473 26.45C64.8473 28.45 65.2223 29.075 66.0723 29.075ZM88.7141 18.475V29.95C88.7391 31.3 88.7641 32.775 88.8891 34H82.7641V32.8C82.0641 33.625 80.9141 34.3 79.2391 34.3C76.1391 34.3 74.7141 32 74.7141 26.675C74.7141 20.95 76.1391 18.6 79.6141 18.6C81.0141 18.6 82.1391 19.225 82.7641 20.1V18.7C82.7391 17.35 82.7141 15.875 82.5891 14.65H82.7891L88.6891 14.425H88.8891C88.8141 15.65 88.7391 17.125 88.7141 18.475ZM81.9641 28.925C82.2641 28.925 82.5141 28.85 82.7641 28.675V24.4C82.4891 24.225 82.2391 24.15 81.9641 24.125C81.2141 24.1 80.8391 24.575 80.8391 26.6C80.8391 28.125 81.0141 28.925 81.9641 28.925ZM104.731 22.775V29.95C104.756 31.3 104.781 32.775 104.906 34H98.7809V32.6C97.7809 33.8 96.2559 34.3 95.1809 34.3C92.3059 34.3 91.0809 33.2 91.0809 29.075V22.975C91.0559 21.625 91.0559 20.15 90.9059 18.925H91.1059L97.0059 18.825H97.2059C97.1059 20.05 97.0559 21.525 97.0309 22.875V26.725C97.0309 27.925 97.2059 28.425 97.9559 28.4C98.2559 28.375 98.5309 28.3 98.7809 28.15V23C98.7559 21.65 98.7309 20.175 98.6059 18.95H98.8059L104.756 18.725H104.931C104.856 19.95 104.756 21.425 104.731 22.775ZM114.573 34.3C108.998 34.3 106.648 32.425 106.648 26.425C106.648 20.925 109.448 18.625 113.923 18.625C116.173 18.625 118.023 19.1 119.373 20.575C120.098 21.375 120.273 22.95 120.273 23.9C120.273 24.65 120.048 25.925 119.748 26.7L114.273 26.825C114.348 26.125 114.423 25.475 114.423 24.925C114.423 24.3 114.173 23.95 113.548 23.95C112.823 23.95 112.623 24.5 112.623 26.225C112.623 28.3 113.348 28.975 115.473 28.975C117.023 28.975 118.998 28.65 120.348 28.1V33.15C119.223 33.75 116.748 34.3 114.573 34.3ZM127.611 28.075C127.786 29.075 128.261 29.325 129.511 29.35C131.436 29.35 133.611 29.125 135.211 28.6L135.036 33.475C133.636 33.95 131.611 34.3 129.211 34.3C123.861 34.3 121.711 32.325 121.711 26.425C121.711 20.575 124.436 18.625 129.011 18.625C133.311 18.625 135.211 21.125 135.211 24.65C135.211 25.6 135.136 27.125 135.011 27.975C132.836 28.075 129.561 28.125 127.611 28.075ZM128.686 23.25C128.061 23.25 127.711 23.6 127.561 24.875C128.111 24.9 128.961 24.9 129.611 24.875C129.611 23.775 129.386 23.25 128.686 23.25Z" fill="white"/>
</svg>
