<svg width="145" height="49" viewBox="0 0 145 49" fill="none" xmlns="http://www.w3.org/2000/svg">
<rect opacity="0.5" width="145" height="49" rx="10" transform="matrix(-1 0 0 1 145 0)" fill="#6E0392"/>
<path d="M56.3 30.95C56.325 32.3 56.375 33.775 56.475 35H50.175C50.275 33.775 50.325 32.3 50.35 30.95V26.85C50.35 25.925 50.175 25.6 49.55 25.625C49.25 25.65 48.925 25.725 48.65 25.875V30.95C48.675 32.3 48.7 33.775 48.825 35H42.5C42.625 33.775 42.65 32.3 42.675 30.95V26.85C42.675 25.925 42.525 25.6 41.875 25.625C41.65 25.65 41.4 25.7 41.175 25.8L41.15 30.95C41.175 32.3 41.225 33.775 41.325 35H35.05C35.15 33.775 35.2 32.3 35.225 30.95L35.2 24C35.2 22.65 35.15 21.175 35.05 19.95H35.225L41.175 19.725H41.35C41.325 20.2 41.3 20.7 41.25 21.225C42.4 20.125 43.8 19.625 45.125 19.625C46.775 19.625 47.875 20.175 48.35 21.825C49.6 20.3 51.225 19.625 52.775 19.625C55.075 19.625 56.325 20.7 56.325 24.325C56.325 26.55 56.325 28.75 56.3 30.95ZM71.2887 25.2V30.925C71.2887 32.275 71.3387 33.75 71.4387 34.975H65.6387L65.3887 33.525C64.6387 34.55 63.4637 35.3 61.9137 35.325C59.6387 35.375 57.9887 33.7 57.9637 30.45C57.9887 27.375 59.2137 26.35 61.8387 26.075C62.7637 25.975 64.1137 25.975 65.2637 26C65.2637 25.15 64.8887 24.675 64.0637 24.7C62.4637 24.775 60.4387 25.1 58.8637 25.45L58.6637 20.025C61.1387 19.85 64.1637 19.625 65.9387 19.625C70.2887 19.675 71.2887 21.075 71.2887 25.2ZM64.3387 30.175C64.7137 30.175 64.9887 30.075 65.2637 29.825V28.425L64.7137 28.45C63.9137 28.525 63.5887 28.825 63.5887 29.35C63.5887 29.85 63.7637 30.175 64.3387 30.175ZM83.0051 19.625C85.1301 19.625 86.0051 21 86.0051 24.075C86.0051 25.35 85.9051 27.075 85.7801 28.35C84.0051 28.4 82.2301 28.5 80.5051 28.675C80.7301 27.725 80.9551 26.125 80.1051 26.125C79.8051 26.125 79.5801 26.325 79.5051 26.675L79.4801 30.95C79.5051 32.3 79.5551 33.775 79.6551 35H73.3801C73.4801 33.775 73.5301 32.3 73.5551 30.95L73.5301 24C73.5301 22.65 73.4801 21.175 73.3801 19.95H73.5551L79.5051 19.725H79.6801C79.6051 20.775 79.5301 22 79.5051 23.175C80.2301 20.5 81.5051 19.625 83.0051 19.625ZM96.9211 19.625C99.0461 19.625 99.9211 21 99.9211 24.075C99.9211 25.35 99.8211 27.075 99.6961 28.35C97.9211 28.4 96.1461 28.5 94.4211 28.675C94.6461 27.725 94.8711 26.125 94.0211 26.125C93.7211 26.125 93.4961 26.325 93.4211 26.675L93.3961 30.95C93.4211 32.3 93.4711 33.775 93.5711 35H87.2961C87.3961 33.775 87.4461 32.3 87.4711 30.95L87.4461 24C87.4461 22.65 87.3961 21.175 87.2961 19.95H87.4711L93.4211 19.725H93.5961C93.5211 20.775 93.4461 22 93.4211 23.175C94.1461 20.5 95.4211 19.625 96.9211 19.625ZM100.712 39.25L100.887 34.325C102.612 34.825 105.412 34.475 105.962 33H103.262C102.287 29.5 100.912 23.525 100.162 19.95H106.587C106.837 22.1 107.412 25.55 107.787 28.075H107.862C108.387 25.55 108.962 22.1 109.237 19.95H114.337C113.587 23.65 111.612 31.525 110.737 33.5C109.187 37.2 107.637 38.775 105.037 39.125C103.887 39.3 101.937 39.325 100.712 39.25Z" fill="white"/>
</svg>
