<svg width="239" height="258" viewBox="0 0 239 258" fill="none" xmlns="http://www.w3.org/2000/svg">
<g clip-path="url(#clip0_8_754)">
<path d="M56.8367 97.0007C56.8367 97.0007 41.6539 16.4707 100.651 1.73214C159.648 -13.0064 163.208 70.6233 163.208 70.6233C163.208 70.6233 227.408 82.8092 227.833 145.167C228.351 223.114 152.923 209.986 152.923 209.986L81.4821 180.934C81.4821 180.934 9.94947 142.006 56.8367 96.9703V97.0007Z" fill="black"/>
<path d="M233.827 197.557C215.328 224.025 187.944 243.778 156.057 252.743C155.388 252.925 154.688 253.107 154.019 253.29C142.426 256.359 130.225 258 117.659 258C68.6421 258 25.4061 233.172 0 195.399C19.047 169.387 42.9318 149.695 59.1795 142.705C83.2164 132.373 121.341 125.445 156.544 135.503C156.636 135.534 156.757 135.534 156.879 135.564C167.467 138.603 177.751 143.161 187.336 149.634C208.056 163.613 223.148 179.84 233.827 197.557Z" fill="#F7734F"/>
<path d="M89.7885 111.04V111.891L90.5187 128.119L91.036 140.852C91.036 140.852 89.9406 143.799 104.789 142.857C124.657 141.49 131.077 132.981 131.077 132.981L131.929 103.139L125.905 104.294L89.8189 111.071L89.7885 111.04Z" fill="#FCA397"/>
<path d="M89.7885 111.891L90.5187 128.119C100.164 126.934 117.75 122.77 124.87 107.606C125.418 106.36 125.783 105.266 125.905 104.355L89.8798 111.678L89.8189 111.922L89.7885 111.891Z" fill="black"/>
<path d="M83.4902 34.2481C83.4902 34.2481 65.0214 76.4883 71.6543 100.252C78.3177 123.986 99.9814 120.248 112.913 115.659C125.844 111.071 131.899 103.139 131.899 103.139C131.899 103.139 144.009 107.242 152.102 95.9979C160.195 84.7541 155.205 71.8389 148.299 68.8912C141.392 65.9435 133.177 70.9272 133.177 70.9272L139.627 58.6502C139.627 58.6502 112.517 -3.79859 83.4902 34.2481Z" fill="#FCA397"/>
<path d="M89.2409 27.988C89.2409 27.988 87.9021 50.4756 110.539 60.6862C133.177 70.8968 148.299 68.8608 148.299 68.8608L146.838 39.5357L118.481 8.78232L93.1355 16.8353L89.2104 27.9576L89.2409 27.988Z" fill="black"/>
<path d="M131.655 64.3936L131.747 77.2177L143.126 65.9739L131.655 64.3936Z" fill="black"/>
<path d="M239 189.686C237.874 191.57 236.688 193.454 235.44 195.278C234.923 196.037 234.406 196.797 233.827 197.557C215.328 224.025 187.944 243.778 156.057 252.743C155.388 252.925 154.688 253.107 154.019 253.29L155.966 135.412C155.966 135.412 156.179 135.442 156.544 135.503C156.635 135.534 156.757 135.534 156.879 135.564C163.877 136.749 209.73 145.805 234.345 181.846C236.018 184.247 237.539 186.89 239 189.686Z" fill="#F7734F"/>
<path d="M100.499 144.589C91.5533 144.589 84.8595 142.979 84.3118 142.857C83.4903 142.645 83.0034 141.824 83.186 141.004C83.399 140.183 84.2205 139.697 85.0116 139.879C85.2854 139.94 112.091 146.322 130.499 132.92C131.169 132.434 132.142 132.586 132.629 133.254C133.116 133.923 132.964 134.895 132.294 135.382C122.193 142.736 110.022 144.559 100.468 144.559L100.499 144.589Z" fill="#7772D3"/>
<path d="M78.2569 49.6551C77.6179 49.6551 77.0094 49.2297 76.7964 48.5915C76.553 47.8014 76.979 46.9505 77.8005 46.677L86.2286 44.0332C87.0197 43.7901 87.8716 44.2156 88.1455 45.0361C88.3889 45.8262 87.9629 46.677 87.1414 46.9505L78.7133 49.5944C78.7133 49.5944 78.409 49.6551 78.2569 49.6551Z" fill="black"/>
<path d="M134.059 90.6191C133.664 90.6191 133.238 90.4671 132.933 90.1329C132.355 89.5251 132.416 88.5526 133.025 87.9753L146.078 76.0021C146.686 75.4247 147.66 75.4855 148.238 76.0933C148.816 76.7011 148.755 77.6735 148.147 78.2509L135.094 90.224C134.789 90.4975 134.424 90.6191 134.059 90.6191Z" fill="black"/>
<path d="M147.264 89.0389C147.051 89.0389 146.869 89.0085 146.656 88.9173L138.866 85.5138C138.106 85.1795 137.741 84.2678 138.075 83.5081C138.41 82.7484 139.323 82.3837 140.084 82.718L147.873 86.1216C148.633 86.4558 148.998 87.3675 148.664 88.1272C148.42 88.7046 147.842 89.0389 147.264 89.0389Z" fill="black"/>
<path d="M80.8432 70.988C80.8432 70.988 80.6302 70.988 80.5389 70.9576C79.7174 70.7753 79.2001 69.9851 79.3523 69.1647L80.904 61.689L77.8309 58.1639C77.2833 57.5258 77.3441 56.5837 77.9831 56.0063C78.622 55.4594 79.5652 55.5201 80.1434 56.1583L83.7032 60.2608C84.0075 60.6254 84.1292 61.1116 84.0379 61.5675L82.3341 69.7724C82.1819 70.5018 81.543 70.988 80.8432 70.988Z" fill="black"/>
<path d="M106.371 72.2643C106.371 72.2643 106.158 72.2643 106.067 72.2339C105.245 72.0516 104.728 71.2615 104.88 70.441L106.432 62.9654L103.359 59.4403C102.811 58.8021 102.872 57.8601 103.511 57.2827C104.15 56.7357 105.093 56.7965 105.671 57.4346L109.231 61.5371C109.535 61.9018 109.657 62.388 109.566 62.8438L107.862 71.0488C107.71 71.7781 107.071 72.2643 106.371 72.2643Z" fill="black"/>
<path d="M85.894 89.5251C85.1942 89.5251 84.5552 89.0389 84.4031 88.3095C81.5734 74.7866 88.1151 67.9795 88.3889 67.706C88.967 67.0982 89.9407 67.0982 90.5492 67.706C91.1577 68.2834 91.1577 69.2558 90.5492 69.8636C90.3058 70.1371 84.8899 75.911 87.3544 87.7018C87.537 88.5223 86.9893 89.3428 86.1678 89.4947C86.0765 89.4947 85.9548 89.5251 85.8635 89.5251H85.894Z" fill="black"/>
<path d="M99.6467 102.531C98.7339 102.531 96.5736 102.106 92.0705 97.1223C91.5533 96.5449 91.3707 95.7548 91.5533 95.0254C91.7662 94.2657 92.3748 93.658 93.1659 93.4148C104.028 90.1633 105.489 91.2876 106.128 91.7435C106.675 92.1385 107.497 93.1413 106.888 95.147C106.067 97.9124 102.598 102.319 99.9205 102.501C99.8597 102.501 99.7684 102.501 99.6467 102.501V102.531ZM95.174 95.9979C97.6081 98.5201 99.3424 99.4318 99.7076 99.4622C99.9814 99.4318 100.985 98.8544 102.233 97.2742C103.298 95.9371 103.846 94.7519 103.998 94.1442C103.115 94.2353 100.438 94.4784 95.174 95.9675V95.9979Z" fill="black"/>
<path d="M48.9562 189.018C48.8041 189.2 34.2602 204.759 37.029 232.747C36.1467 232.2 35.3252 231.592 34.4732 230.984C34.2298 230.832 34.0168 230.65 33.7734 230.468C31.9782 202.693 46.583 187.164 46.7655 186.951C47.3436 186.343 48.2868 186.343 48.9258 186.89C49.5343 187.468 49.5343 188.44 48.9258 189.048L48.9562 189.018Z" fill="#7772D3"/>
</g>
<defs>
<clipPath id="clip0_8_754">
<rect width="239" height="258" fill="white"/>
</clipPath>
</defs>
</svg>
