<svg width="190" height="190" viewBox="0 0 190 190" fill="none" xmlns="http://www.w3.org/2000/svg">
<g clip-path="url(#clip0_7_30)">
<path d="M190 108.836C177.635 155.58 135.082 190 84.4731 190C50.4215 190 20.0234 174.419 0 150.004C31.9438 110.898 66.3934 106.727 66.3934 106.727C66.3934 106.727 65.5738 100.823 66.3934 99.2293C66.9789 98.1046 69.1335 97.0736 70.3279 96.5816C70.7963 96.3941 71.1007 96.277 71.1007 96.277C71.1007 96.277 72.8337 95.9724 75.5503 95.5506C81.007 94.6837 90.4215 93.3013 97.7283 92.7624C99.9532 92.5749 101.991 92.4812 103.653 92.5046C105.457 92.5281 106.838 92.6921 107.588 93.0435C108.501 93.4653 109.555 96.277 109.555 96.277C109.555 96.277 123.068 94.1917 141.733 96.277C149.578 97.1674 169.087 100.776 190 108.836Z" fill="#7C6053"/>
<path d="M65.9953 47.541C65.9953 47.541 46.9086 41.4022 46.7915 55.7652C46.6744 72.4011 66.37 70.7141 66.37 70.7141L65.9719 47.541H65.9953Z" fill="#F27E64"/>
<path d="M58.1498 63.3099C57.7751 63.3099 57.4239 63.1459 57.1897 62.8178L50.0702 52.8832C49.6955 52.3677 49.8126 51.618 50.3513 51.2431C50.8899 50.8682 51.6159 50.9853 51.9906 51.5242L59.11 61.4589C59.4847 61.9743 59.3677 62.7241 58.829 63.099C58.6182 63.2396 58.384 63.3099 58.1498 63.3099Z" fill="black"/>
<path d="M50.726 60.8262C50.1406 60.8262 49.6253 60.381 49.5551 59.7953C49.4848 59.1626 49.9532 58.5769 50.5855 58.5066L55.808 57.9208C56.4637 57.8505 57.0258 58.3191 57.0961 58.9518C57.1663 59.5844 56.6979 60.1702 56.0656 60.2404L50.8431 60.8262C50.8431 60.8262 50.7495 60.8262 50.7026 60.8262H50.726Z" fill="black"/>
<path d="M102.763 83.6244L104.707 102.908C104.707 102.908 97.6346 107.618 88.3372 108.648C75.7845 110.031 70.8665 102.978 70.8665 102.978L68.8524 80.3676L102.74 83.6479L102.763 83.6244Z" fill="#F27E64"/>
<path d="M102.763 83.601C102.763 83.601 98.1967 99.7682 83.747 98.9715C72.0843 98.3155 67.2833 82.3357 67.2833 82.3357L102.763 83.601Z" fill="black"/>
<path d="M58.7119 32.311C58.7119 32.311 53.9578 68.3709 65.5035 83.062C77.9157 98.8075 94.8946 92.1765 100.96 86.5532C109.133 78.9616 110.07 69.3784 110.07 69.3784C110.07 69.3784 122.412 70.6671 125.527 60.4044C128.806 49.6263 120.468 41.941 114.379 42.0347C108.267 42.105 107.681 43.2766 107.681 43.2766L108.431 32.0298C108.431 32.0298 67.7752 -5.48286 58.7353 32.3344L58.7119 32.311Z" fill="#F27E64"/>
<path d="M111.031 59.1393C110.749 59.1393 110.445 59.0221 110.211 58.8112C109.742 58.3661 109.742 57.6163 110.187 57.1477L118.782 48.244C119.227 47.7754 119.977 47.7754 120.445 48.2205C120.913 48.6657 120.913 49.4155 120.468 49.8841L111.874 58.7878C111.639 59.0221 111.335 59.1393 111.031 59.1393Z" fill="black"/>
<path d="M119.813 59.8187C119.602 59.8187 119.391 59.7719 119.204 59.6547L113.302 56.023C112.74 55.6949 112.576 54.9686 112.927 54.4062C113.279 53.8439 113.981 53.6799 114.543 54.0313L120.445 57.6631C121.007 57.9911 121.171 58.7175 120.82 59.2798C120.609 59.6313 120.211 59.8422 119.836 59.8422L119.813 59.8187Z" fill="black"/>
<path d="M91.8969 51.079C91.2646 51.079 90.7494 50.587 90.7259 49.9543L90.5152 43.9795C90.4918 43.3234 91.007 42.7845 91.6393 42.7611C92.295 42.6908 92.8337 43.2531 92.8571 43.8858L93.0679 49.8606C93.0913 50.5167 92.5761 51.0556 91.9437 51.079C91.9437 51.079 91.9203 51.079 91.8969 51.079Z" fill="black"/>
<path d="M69.0633 51.9694C68.431 51.9694 67.9157 51.4774 67.8923 50.8448L67.6816 44.8699C67.6581 44.2139 68.1734 43.675 68.8057 43.6515C69.4614 43.6281 70.0001 44.1436 70.0235 44.7762L70.2342 50.751C70.2577 51.4071 69.7424 51.946 69.1101 51.9694C69.1101 51.9694 69.0867 51.9694 69.0633 51.9694Z" fill="black"/>
<path d="M81.0305 66.7307C80.5153 66.7307 80.0469 66.4027 79.9064 65.8872C77.1663 56.679 79.4614 48.7594 79.5551 48.4313C79.7424 47.8221 80.3982 47.4472 81.0071 47.6347C81.616 47.8221 81.9907 48.4782 81.8033 49.0874C81.8033 49.1577 79.6253 56.679 82.1546 65.2078C82.342 65.8169 81.9907 66.473 81.3584 66.6605C81.2413 66.6839 81.1242 66.7073 81.0305 66.7073V66.7307Z" fill="black"/>
<path d="M65.0117 39.762C64.7306 39.762 64.4262 39.6448 64.192 39.4339C63.7236 38.9887 63.7002 38.239 64.1452 37.7704C66.5105 35.2867 70.8196 34.9118 71.007 34.9118C71.6627 34.8649 72.2014 35.3335 72.2716 35.9896C72.3419 36.6457 71.8501 37.208 71.1943 37.2549C71.1709 37.2549 67.6112 37.5595 65.8548 39.4105C65.6206 39.6448 65.3161 39.7854 65.0117 39.7854V39.762Z" fill="black"/>
<path d="M94.356 39.2934C94.1452 39.2934 93.9579 39.2465 93.7705 39.1294C91.5691 37.8407 88.0797 38.5436 88.0328 38.5436C87.4005 38.6607 86.7916 38.2624 86.6511 37.6298C86.5106 36.9972 86.9321 36.388 87.5644 36.2474C87.7518 36.2239 91.9673 35.357 94.9415 37.1143C95.5036 37.4423 95.6909 38.1453 95.363 38.7076C95.1523 39.0825 94.7541 39.2934 94.356 39.2934Z" fill="black"/>
<path d="M110.468 43.0423C110.468 43.0423 107.681 54.289 106.229 53.961C104.777 53.6564 105.55 36.2473 109.578 35.193C113.607 34.1386 110.468 43.0423 110.468 43.0423Z" fill="black"/>
<path d="M82.7869 76.9231C82.1546 76.9231 81.6393 76.4311 81.6159 75.7985C81.5925 75.1424 82.0843 74.6035 82.74 74.5801C82.9742 74.5801 88.7119 74.2755 90.9368 69.355C91.1944 68.7692 91.897 68.5115 92.4824 68.7692C93.0679 69.027 93.3255 69.7299 93.0679 70.3157C90.2342 76.5482 83.1382 76.8997 82.8337 76.8997C82.8337 76.8997 82.8103 76.8997 82.7869 76.8997V76.9231Z" fill="black"/>
<path d="M108.571 41.5896C108.571 41.5896 96.2764 41.0975 87.7752 35.0993C80.609 30.0382 77.5879 22.4935 77.5879 22.4935C77.5879 22.4935 72.2951 22.0483 64.9883 26.9922C57.6816 31.9361 57.705 46.2523 57.705 46.2523C57.705 46.2523 42.7635 22.681 49.0165 13.8241C55.2694 4.96732 66.3701 11.6217 66.3701 11.6217C66.3701 11.6217 63.7706 -4.10038 85.9017 1.05439C108.056 6.20915 113.864 24.8835 113.864 24.8835C113.864 24.8835 121.312 23.8994 122.529 30.788C123.747 37.6767 121.241 44.823 121.241 44.823C121.241 44.823 117.869 41.8708 112.951 43.9561L108.033 46.018L108.548 41.5896H108.571Z" fill="black"/>
<path d="M71.1008 96.277C71.1008 96.277 75.3631 100.307 85.1991 100.565C95.0352 100.823 103.677 92.8561 103.677 92.8561L110.023 104.501L94.3326 114.084L68.0328 111.882V100.096L71.0773 96.3004L71.1008 96.277Z" fill="#7C6053"/>
<path d="M81.9672 115.279C71.3349 115.279 65.5035 107.5 65.4567 107.407C65.082 106.891 65.199 106.141 65.7143 105.766C66.2295 105.392 66.9789 105.509 67.3536 106.024C67.6581 106.446 74.8946 116.053 88.4309 111.929C89.0632 111.741 89.6955 112.093 89.8829 112.702C90.0702 113.311 89.719 113.967 89.1101 114.155C86.5339 114.951 84.1452 115.256 81.9672 115.256V115.279Z" fill="#FF6F61"/>
</g>
<defs>
<clipPath id="clip0_7_30">
<rect width="190" height="190" fill="white"/>
</clipPath>
</defs>
</svg>
