<svg width="248" height="278" viewBox="0 0 248 278" fill="none" xmlns="http://www.w3.org/2000/svg">
<g clip-path="url(#clip0_11_23)">
<path d="M130.101 22.6953C130.101 22.6953 108.366 -7.77332 52.6922 22.383C-2.98126 52.5393 20.6609 191.001 20.6609 191.001L125.387 177.502L130.101 22.6953Z" fill="black"/>
<path d="M111.867 103.586L109.406 143.459C109.406 143.459 115.611 155.327 137.866 158.589C154.471 161.019 160.295 152.412 160.295 152.412L158.423 117.294L118.557 105.599L111.867 103.621V103.586Z" fill="#FCA397"/>
<path d="M112.075 101.157C112.075 102.268 112.422 103.552 112.942 105.078C120.256 125.518 149.895 135.616 159.498 137.074L158.423 117.259L112.075 101.157Z" fill="black"/>
<path d="M172.602 26.8943C172.602 26.8943 189.588 78.0801 179.951 105.391C170.314 132.702 146.256 126.42 132.077 119.931C117.899 113.442 111.832 103.586 111.832 103.586C111.832 103.586 97.8272 107.369 89.7501 93.4532C81.6729 79.5376 88.4328 64.8586 96.4753 61.9783C104.518 59.098 113.323 65.6567 113.323 65.6567L107.187 50.7C107.187 50.7 143.378 -20.2314 172.602 26.8943Z" fill="#FCA397"/>
<path d="M165.703 89.9136C166.396 89.9136 167.055 89.4972 167.332 88.8032C171.388 78.4272 165.079 67.0101 164.802 66.5243C164.316 65.6914 163.276 65.3791 162.445 65.865C161.613 66.3161 161.301 67.3919 161.786 68.2247C161.855 68.3288 167.54 78.7048 164.108 87.5539C163.762 88.4561 164.212 89.4625 165.079 89.8095C165.287 89.8789 165.495 89.9483 165.703 89.9483V89.9136Z" fill="black"/>
<path d="M109.51 88.9073C109.891 88.9073 110.238 88.8032 110.55 88.5603C111.312 87.9703 111.451 86.8946 110.862 86.1311L99.1099 70.7927C98.5205 70.0293 97.4459 69.8904 96.6832 70.4804C95.9206 71.0703 95.7819 72.1461 96.3713 72.9096L108.123 88.248C108.47 88.6991 108.99 88.942 109.51 88.942V88.9073Z" fill="black"/>
<path d="M96.1633 83.9448L105.35 83.2854C106.32 83.216 107.014 82.3832 106.944 81.4115C106.875 80.4398 105.974 79.7111 105.107 79.8152L96.0593 80.4746C95.0886 80.544 94.3953 81.3768 94.4646 82.3485C94.534 83.2507 95.2966 83.9448 96.1979 83.9448H96.1633Z" fill="black"/>
<path d="M178.356 50.1101C179.119 50.1101 179.812 49.5896 180.02 48.8261C180.263 47.8892 179.708 46.9522 178.807 46.7093L170.487 44.4536C169.551 44.2107 168.615 44.766 168.372 45.6682C168.13 46.6052 168.684 47.5421 169.586 47.7851L177.906 50.0407C177.906 50.0407 178.217 50.1101 178.356 50.1101Z" fill="black"/>
<path d="M142.72 52.8516C142.72 52.8516 142.997 52.8516 143.136 52.7822L154.922 49.7284C155.858 49.4855 156.413 48.5486 156.17 47.6116C155.927 46.6746 154.991 46.1194 154.055 46.3623L142.269 49.4161C141.333 49.659 140.778 50.596 141.021 51.533C141.229 52.3311 141.922 52.8169 142.685 52.8169L142.72 52.8516Z" fill="black"/>
<path d="M176.588 70.4457C176.588 70.4457 176.831 70.4457 176.935 70.4457C177.871 70.2722 178.495 69.3352 178.287 68.3983L176.588 60.1044L178.911 57.6406C179.569 56.9465 179.535 55.836 178.842 55.1767C178.148 54.5174 177.039 54.5521 176.38 55.2461L173.468 58.3693C173.087 58.7857 172.914 59.341 173.052 59.8962L174.924 69.0576C175.098 69.8905 175.791 70.4457 176.623 70.4457H176.588Z" fill="black"/>
<path d="M150.346 70.7927C150.346 70.7927 150.589 70.7927 150.693 70.7927C151.629 70.6192 152.253 69.6822 152.045 68.7452L150.346 60.4861L153.743 57.0159C154.402 56.3218 154.402 55.246 153.743 54.552C153.05 53.8927 151.941 53.8927 151.282 54.552L147.261 58.6816C146.845 59.098 146.671 59.6879 146.81 60.2432L148.682 69.4046C148.855 70.2374 149.549 70.7927 150.381 70.7927H150.346Z" fill="black"/>
<path d="M160.815 159.526C160.815 159.526 165.079 138.358 159.533 137.074C153.951 135.79 147.365 139.434 134.33 136.206C121.331 132.979 114.536 128.086 110.376 127.878C106.216 127.635 107.499 154.321 107.499 154.321L139.634 167.924L160.781 159.596L160.815 159.526Z" fill="#507849"/>
<path d="M94.222 63.1928C94.222 63.1928 100.496 60.9372 105.176 61.8741C109.891 62.7764 113.358 65.6914 113.358 65.6914L119.112 73.6729L115.888 57.2934C115.888 57.2934 120.083 55.0378 126.323 52.4698L124.173 38.346L129.928 51.0817C135.89 48.8608 143.066 46.7092 150.173 45.9458C154.021 45.4946 157.453 45.3211 160.434 45.2864L158.527 29.9133L164.282 45.3211C171.943 45.5293 175.826 46.6398 175.826 46.6398L180.991 62.4988C180.991 62.4988 182.273 19.7455 163.762 8.01618C145.25 -3.7132 111.555 -3.7826 95.9899 16.4488C80.4249 36.6803 94.222 63.2275 94.222 63.2275V63.1928Z" fill="black"/>
<path d="M152.495 100.498C153.362 100.498 154.125 99.8385 154.229 98.9362C154.333 97.9992 153.639 97.1317 152.703 97.0276C152.461 97.0276 147.746 96.2988 144.28 89.6013C143.829 88.7684 142.789 88.4214 141.957 88.8725C141.125 89.3237 140.778 90.3647 141.229 91.2323C145.632 99.6649 152.079 100.463 152.357 100.498C152.426 100.498 152.495 100.498 152.565 100.498H152.495Z" fill="black"/>
<path d="M0 226.988C29.466 258.393 71.3425 278 117.76 278C171.215 278 218.603 252.043 248 212.031C233.44 193.986 201.964 161.123 160.33 152.412C105.904 140.995 28.6687 153.384 0 226.988Z" fill="#507849"/>
<path d="M128.299 149.602C129.269 149.602 130.032 148.838 130.032 147.867C130.032 146.895 129.269 146.131 128.299 146.131C128.195 146.131 119.112 146.062 110.134 141.863C109.267 141.447 108.227 141.863 107.846 142.696C107.43 143.563 107.846 144.605 108.678 144.986C118.349 149.532 127.917 149.567 128.299 149.567V149.602Z" fill="white"/>
</g>
<defs>
<clipPath id="clip0_11_23">
<rect width="248" height="278" fill="white" transform="matrix(-1 0 0 1 248 0)"/>
</clipPath>
</defs>
</svg>
