<svg width="263" height="252" viewBox="0 0 263 252" fill="none" xmlns="http://www.w3.org/2000/svg">
<g clip-path="url(#clip0_69_10)">
<path d="M167.307 246.69C154.798 250.126 141.664 252 128.216 252C114.769 252 111.329 251.375 103.199 249.813C98.8205 249.189 94.7551 248.251 90.6897 247.002C85.0607 245.44 79.7444 243.566 74.4281 241.691L84.748 137.668L141.038 124.235L163.554 130.795L167.307 246.377V246.69Z" fill="#F7734F"/>
<path d="M92.8787 32.0819C92.8787 32.0819 71.6135 5.84164 77.2425 2.09303C82.8715 -1.65557 88.5005 3.96733 88.5005 3.96733C88.5005 3.96733 132.282 -2.90511 148.231 1.46826C164.18 5.84164 174.812 32.0819 174.812 32.0819C174.812 32.0819 182.943 31.4571 186.07 42.0782C189.51 53.0116 166.056 106.429 151.045 103.618C136.034 100.806 92.8787 31.7695 92.8787 31.7695V32.0819Z" fill="black"/>
<path d="M150.732 95.1833L151.358 131.732C151.358 131.732 145.103 142.353 123.838 144.54C107.889 146.102 102.26 142.666 102.26 142.666L104.137 124.235L106.013 106.117L144.478 96.7453L151.045 95.1833H150.732Z" fill="#FCA397"/>
<path d="M144.478 96.7452C144.478 97.6824 144.165 98.9319 143.54 100.181C135.722 118.612 113.518 122.985 104.449 123.923L106.326 105.804L144.791 96.4329L144.478 96.7452Z" fill="black"/>
<path d="M96.3187 23.3352C96.3187 23.3352 78.1807 69.2556 86.3115 94.5587C94.4423 119.862 117.584 114.864 131.031 109.553C144.791 104.243 151.045 95.4958 151.045 95.4958C151.045 95.4958 164.18 99.5568 172.31 87.0615C180.441 74.5661 174.812 61.1336 167.307 58.0098C159.801 55.1983 151.045 60.8212 151.045 60.8212L157.612 47.3887C157.612 47.3887 126.027 -18.5243 96.3187 23.3352Z" fill="#FCA397"/>
<path d="M96.3186 23.3352C96.3186 23.3352 110.391 17.7123 116.646 22.7104C122.587 27.7085 129.78 69.8803 151.045 60.8212C172.31 51.7621 161.365 24.5847 161.365 24.5847C161.365 24.5847 107.889 -21.3357 96.3186 23.3352Z" fill="black"/>
<path d="M104.137 124.235C104.137 124.235 97.5696 185.775 90.3769 247.314C51.2866 237.006 18.7634 210.765 0 176.403C11.5707 164.22 30.0214 143.915 45.9703 137.668C73.8026 126.422 104.137 124.547 104.137 124.547V124.235Z" fill="#507849"/>
<path d="M119.46 146.414C110.078 146.414 102.573 144.228 101.948 144.228C101.009 144.228 100.697 142.978 101.009 142.353C101.009 141.416 102.26 141.104 102.886 141.416C103.199 141.416 134.158 150.163 150.42 131.107C151.045 130.483 151.983 130.483 152.609 131.107C153.234 131.732 153.234 132.669 152.609 133.294C143.227 144.228 129.78 147.039 119.147 147.039L119.46 146.414Z" fill="white"/>
<path d="M263 161.721C246.113 202.956 210.775 234.819 167.307 246.69C164.18 247.627 161.365 248.251 158.238 248.876C153.86 200.769 151.358 116.738 151.358 116.738C151.358 116.738 214.528 113.302 263 161.721Z" fill="#507849"/>
<path d="M152.609 81.1261C152.296 81.1261 151.983 81.1261 151.671 80.8137C151.045 80.1889 151.045 79.2518 151.671 78.627L163.241 66.7564C163.867 66.1316 164.805 66.1316 165.43 66.7564C166.056 67.3812 166.056 68.3183 165.43 68.9431L153.86 80.8137C153.86 81.1261 153.234 81.4385 152.609 81.4385V81.1261Z" fill="black"/>
<path d="M168.245 78.0023H167.932L157.925 75.5032C156.987 75.5032 156.674 74.5661 156.674 73.6289C156.674 72.6918 157.612 72.3794 158.551 72.3794L168.558 74.8785C169.496 74.8785 169.809 75.8156 169.809 76.7528C169.809 77.3775 168.87 78.0023 168.245 78.0023Z" fill="black"/>
<path d="M93.1914 43.9523C92.8787 43.9523 92.566 43.9523 92.2532 43.6399C91.6278 43.0151 91.3151 42.078 92.2532 41.4532C92.2532 41.4532 95.3805 37.3922 102.886 38.3294C103.824 38.3294 104.449 39.2665 104.137 40.2037C104.137 41.1408 103.199 41.7656 102.26 41.4532C96.6314 40.5161 94.755 43.0151 94.4423 43.3275C94.4423 43.6399 93.8169 43.9523 93.1914 43.9523Z" fill="black"/>
<path d="M127.591 44.2648C127.278 44.2648 126.966 44.2648 126.653 43.9524C122.587 40.5162 117.897 41.7657 117.897 41.7657C116.958 41.7657 116.333 41.7657 116.02 40.8286C116.02 39.8914 116.02 39.2667 116.958 38.9543C116.958 38.9543 123.213 37.3924 128.529 41.7657C129.155 42.3905 129.155 43.3276 128.529 43.9524C128.529 44.2648 127.904 44.5772 127.278 44.5772L127.591 44.2648Z" fill="black"/>
<path d="M94.755 62.0707C93.8169 62.0707 93.1914 61.1335 93.1914 60.5087L93.8169 52.0744C93.8169 51.1372 94.755 50.5125 95.3805 50.5125C96.3186 50.5125 96.9441 51.4496 96.9441 52.0744L96.3186 60.5087C96.3186 61.4459 95.6932 62.0707 94.755 62.0707Z" fill="black"/>
<path d="M119.773 63.0079C118.835 63.0079 118.209 62.0708 118.209 61.446L118.835 53.0116C118.835 52.0745 119.773 51.4497 120.398 51.4497C121.336 51.4497 121.962 52.3869 121.962 53.0116L121.336 61.446C121.336 62.3831 120.711 63.0079 119.773 63.0079Z" fill="black"/>
<path d="M100.697 82.3756C100.071 82.3756 99.4459 82.0632 99.1332 81.4385C93.8169 69.5679 101.948 59.884 102.26 59.5716C102.886 58.9468 103.824 58.9468 104.449 59.5716C105.075 60.1964 105.075 61.1335 104.449 61.7583C104.449 62.0707 97.5696 70.1927 101.948 80.5013C102.26 81.4385 101.948 82.0632 101.01 82.688H100.384L100.697 82.3756Z" fill="black"/>
<path d="M110.704 89.8729C109.766 89.8729 109.14 89.2482 109.14 88.311C109.14 87.3739 109.766 86.7491 110.704 86.7491C110.704 86.7491 116.333 86.7491 118.209 82.0633C118.522 81.1262 119.46 80.8138 120.398 81.1262C121.336 81.4386 121.649 82.3757 121.336 83.3129C118.522 89.8729 111.329 89.8729 111.017 89.8729H110.704Z" fill="black"/>
</g>
<defs>
<clipPath id="clip0_69_10">
<rect width="263" height="252" fill="white"/>
</clipPath>
</defs>
</svg>
