<svg width="299" height="232" viewBox="0 0 299 232" fill="none" xmlns="http://www.w3.org/2000/svg">
<g clip-path="url(#clip0_79_247)">
<path d="M277.153 113.073C273.07 105.587 266.718 100.595 259.685 99.2341C242.671 95.831 219.078 93.1086 199.795 94.4698C184.595 95.6042 170.984 103.998 162.817 116.703C155.784 127.82 146.71 143.247 142.626 155.272C143.375 156.156 144.214 157.019 145.076 157.881L146.959 232.023H299L297.117 154.16V153.479C291.446 139.413 283.052 123.532 277.153 113.096V113.073Z" fill="#F7734F"/>
<path d="M245.393 6.21623C245.393 6.21623 244.486 0.317543 250.157 2.58627C255.829 5.08187 253.333 10.9806 250.157 10.2999C246.981 9.39245 245.393 6.21623 245.393 6.21623Z" fill="#7772D3"/>
<path d="M256.282 43.8771C256.282 43.8771 255.375 59.9851 248.116 60.6657C240.856 61.3463 230.194 52.2714 230.194 52.2714L235.185 34.1216L256.282 43.8771Z" fill="black"/>
<path d="M200.929 39.3397C200.929 39.3397 177.336 31.6261 173.706 21.6437C170.076 11.6613 214.994 26.8617 214.994 26.8617L200.929 39.3397Z" fill="#5C5CC6"/>
<path d="M235.185 73.8245L233.37 99.4611C233.37 99.4611 228.833 106.721 213.86 107.855C202.744 108.763 198.887 106.04 198.887 106.04L200.475 93.3355L202.063 80.8575L228.833 75.1857L234.958 73.8245H235.185Z" fill="#F49282"/>
<path d="M229.059 74.9587C229.059 75.6394 228.606 76.5468 228.379 77.4543C222.707 89.9323 207.054 92.6548 200.702 93.1086L202.29 80.6306L229.059 74.9587Z" fill="black"/>
<path d="M197.299 23.0049C197.299 23.0049 183.688 54.5402 188.905 72.2363C194.123 89.9324 210.003 86.983 219.758 83.5799C229.286 80.1768 233.823 74.0513 233.823 74.0513C233.823 74.0513 242.898 77.0006 248.796 68.6063C254.694 60.2121 251.065 50.6834 245.847 48.4147C240.629 46.146 234.504 50.0028 234.504 50.0028L239.268 40.9279C239.268 40.9279 218.851 -5.35414 197.299 23.0049Z" fill="#F49282"/>
<path d="M235.185 63.8419C234.731 63.8419 234.504 63.8419 234.277 63.3881C233.823 62.9344 234.05 62.2537 234.504 61.8L246.074 53.6326C246.528 53.1788 247.208 53.4057 247.662 53.8595C248.116 54.3132 247.889 54.9938 247.435 55.4476L235.865 63.615H235.185V63.8419Z" fill="black"/>
<path d="M245.62 63.8421H245.393L237.907 61.8002C237.226 61.8002 236.999 61.1196 236.999 60.439C236.999 59.7584 237.68 59.5315 238.361 59.5315L245.847 61.5733C246.528 61.5733 246.754 62.254 246.754 62.9346C246.754 63.3883 246.074 63.8421 245.62 63.8421Z" fill="black"/>
<path d="M218.397 38.2053C217.943 38.2053 217.716 38.2053 217.49 37.7516C216.582 36.3903 215.448 35.7097 214.314 35.4828C212.499 35.256 211.138 36.3903 211.138 36.3903C210.684 36.8441 210.003 36.6172 209.55 36.3903C209.096 35.9366 209.323 35.256 209.55 34.8022C209.55 34.8022 211.818 32.9872 214.54 33.441C216.355 33.6679 217.943 34.8022 219.304 36.6172C219.758 37.0709 219.531 37.7516 219.304 38.2053C219.304 38.2053 218.851 38.4322 218.624 38.4322L218.397 38.2053Z" fill="black"/>
<path d="M193.896 35.9366C193.669 35.9366 193.216 35.9366 192.989 35.4829C192.535 35.0291 192.762 34.3485 192.989 33.8948C194.577 32.7604 195.938 32.0798 197.299 32.3067C198.66 32.5335 199.341 33.6679 199.341 33.6679C199.568 34.1216 199.341 34.8023 198.887 35.256C198.433 35.4829 197.753 35.256 197.299 34.8023C197.299 34.8023 197.299 34.5754 196.845 34.5754C196.619 34.5754 195.711 34.5754 194.577 35.7097C194.577 35.7097 194.123 35.9366 193.896 35.9366Z" fill="black"/>
<path d="M198.207 62.2539C197.753 62.2539 197.299 62.027 197.072 61.3464C195.257 54.5402 197.753 47.734 197.98 47.5072C197.98 46.8265 198.887 46.5997 199.341 46.8265C200.021 46.8265 200.248 47.734 200.021 48.1878C200.021 48.1878 197.753 54.7671 199.341 60.6658C199.341 61.3464 199.341 61.8001 198.433 62.027H198.207V62.2539Z" fill="black"/>
<path d="M193.896 47.9609H193.669C192.989 47.9609 192.762 47.0534 192.989 46.5996L194.577 40.9278C194.577 40.2472 195.484 40.0203 195.938 40.2472C196.619 40.2472 196.845 41.1547 196.619 41.6084L195.031 47.2802C195.031 47.734 194.35 48.1877 193.896 48.1877V47.9609Z" fill="black"/>
<path d="M212.272 48.6415H212.045C211.364 48.6415 211.138 47.734 211.364 47.2803L212.952 41.6085C212.952 40.9278 213.86 40.701 214.314 40.9279C214.994 40.9279 215.221 41.8353 214.994 42.2891L213.406 47.9609C213.406 48.4146 212.726 48.8684 212.272 48.8684V48.6415Z" fill="black"/>
<path d="M195.484 27.5424C195.484 27.5424 197.299 25.0468 203.651 25.0468C210.003 25.0468 213.633 29.5842 213.633 29.5842C213.633 29.5842 214.087 40.9279 222.707 46.8265C231.328 52.4984 234.504 50.2296 234.504 50.2296L240.856 47.9609L245.393 38.886L227.471 19.375L206.147 10.3L195.484 22.0974V27.7692V27.5424Z" fill="black"/>
<path d="M204.559 69.5138H203.878C203.197 69.5138 202.744 68.8332 202.971 68.3795C202.971 67.6989 203.651 67.2451 204.105 67.472C204.105 67.472 209.323 67.9257 211.364 63.3883C211.591 62.9345 212.272 62.4808 212.952 62.9345C213.406 63.1614 213.86 63.842 213.406 64.5226C211.138 69.287 206.374 69.7407 204.559 69.7407V69.5138Z" fill="black"/>
<path d="M194.577 20.736C194.577 20.736 203.424 -4.6737 235.185 0.771246C266.945 6.21619 256.282 46.3727 256.282 46.3727L241.763 41.6083L194.577 20.5092V20.736Z" fill="#7772D3"/>
<path d="M185.503 18.9211C185.503 18.9211 196.619 19.3749 225.203 32.5335C234.958 37.071 243.578 42.5159 243.578 42.5159C243.578 42.5159 210.684 28.6767 197.98 28.9035C192.989 28.9035 189.813 30.7185 189.813 30.7185L185.503 18.9211Z" fill="#5C5CC6"/>
<path d="M208.869 108.536C203.197 108.536 199.341 107.628 198.887 107.628C198.207 107.628 197.98 106.948 197.98 106.267C197.98 105.587 198.66 105.36 199.341 105.36C199.341 105.36 218.17 109.67 232.689 99.0073C233.143 98.5536 233.823 98.7805 234.277 99.2342C234.731 99.688 234.504 100.369 234.05 100.822C225.43 107.175 215.902 108.536 208.642 108.536H208.869Z" fill="#46467F"/>
<path d="M73.3661 35.5282C73.3661 35.5282 52.9488 21.6889 28.9018 35.0744C4.85477 48.4599 12.3411 73.189 12.3411 73.189C12.3411 73.189 -6.48817 96.7838 2.35932 120.379C11.2068 143.973 50.4534 150.553 67.9215 124.009C85.3897 97.4644 57.7129 73.8697 57.7129 73.8697C57.7129 73.8697 80.1719 73.8697 73.593 35.3013L73.3661 35.5282Z" fill="#E56445"/>
<path d="M171.369 159.446C168.647 162.849 165.698 165.753 162.522 168.702C156.396 174.601 149.364 179.819 141.878 184.13C141.878 153.275 150.271 125.075 150.271 125.075C151.179 126.663 164.79 135.919 171.188 158.017L171.369 159.446Z" fill="#FCA397"/>
<path d="M129.4 56.4004C129.4 56.4004 138.021 29.4026 136.887 22.5964C135.752 15.7902 107.168 6.94219 84.4822 17.6052C61.7964 28.2682 60.2083 57.9885 65.4261 70.2397C78.5839 102.002 106.034 87.482 106.034 87.482C106.034 87.482 149.591 74.0965 129.4 56.4004Z" fill="#E56445"/>
<path d="M162.522 168.476C156.396 174.374 149.364 179.592 141.878 183.903C126.451 192.751 108.529 197.742 89.4731 197.742C70.417 197.742 76.9959 197.288 70.8707 196.154C66.1067 195.247 61.3426 194.112 56.8055 192.751C57.9397 170.291 59.5278 147.15 61.3426 131.495C62.4769 121.513 63.8381 114.707 65.4261 113.119C66.7872 111.757 69.5095 110.396 73.3661 109.262C79.2645 107.447 87.4314 106.312 96.5058 106.312C105.58 106.312 116.016 107.22 125.544 110.169C134.164 112.665 142.104 116.749 148.23 122.647C150.498 124.916 152.54 128.319 154.355 132.403C158.211 141.478 160.934 154.41 162.522 168.702V168.476Z" fill="#507849"/>
<path d="M125.317 91.5656V114.707C125.317 114.707 126.224 116.975 115.335 116.748C100.589 116.295 95.5983 109.942 95.5983 109.942L94.0103 86.8013L98.5475 87.4819L125.317 91.5656Z" fill="#FCA397"/>
<path d="M125.317 92.927V104.498C118.284 104.044 105.58 101.548 100.135 90.8852C99.6818 89.9777 99.4549 89.2971 99.2281 88.6165L125.09 92.7002L125.317 92.927Z" fill="black"/>
<path d="M127.585 37.343C127.585 37.343 142.104 67.0633 138.021 84.0788C133.937 101.321 118.511 99.2793 108.983 96.3299C99.6818 93.3806 95.1446 87.9356 95.1446 87.9356C95.1446 87.9356 86.524 91.3387 80.6256 83.3982C74.7273 75.4576 77.6765 66.1558 82.4405 63.8871C87.2046 61.6184 93.3297 64.7946 93.3297 64.7946L88.3388 56.1735C88.3388 56.1735 105.807 10.7989 127.585 37.1161V37.343Z" fill="#FCA397"/>
<path d="M127.812 75.9114H127.585C126.905 75.9114 126.678 75.2308 126.678 74.5502C128.266 69.1052 123.956 63.2065 123.729 63.2065C123.275 62.7528 123.502 62.0722 123.729 61.6184C124.183 61.1647 124.863 61.3915 125.317 61.6184C125.317 61.8453 130.308 68.4246 128.493 75.0039C128.493 75.4577 127.812 75.9114 127.359 75.9114H127.812Z" fill="black"/>
<path d="M92.4223 79.3145C92.1954 79.3145 91.7417 79.3145 91.5148 79.0876L82.8942 70.6933C82.4405 70.2396 82.4405 69.5589 82.8942 69.1052C83.3479 68.6515 84.0285 68.6515 84.4822 69.1052L93.1029 77.4995C93.5566 77.9532 93.5566 78.6339 93.1029 79.0876C93.1029 79.0876 92.6491 79.3145 92.1954 79.3145H92.4223Z" fill="black"/>
<path d="M83.5748 77.2727C83.1211 77.2727 82.6673 76.819 82.4405 76.3652C82.4405 75.6846 82.6674 75.2309 83.3479 75.004L89.0194 73.8696C89.7 73.8696 90.1537 74.0965 90.3806 74.7771C90.3806 75.4577 90.1537 75.9115 89.4731 76.1384L83.8016 77.2727H83.5748Z" fill="black"/>
<path d="M118.284 85.4401C117.604 85.4401 116.696 85.4401 115.789 84.9864C111.705 83.1714 110.344 78.8608 110.344 78.6339C110.344 78.1802 110.344 77.7264 110.571 77.4996C110.798 77.2727 111.252 77.0458 111.705 77.2727L123.729 80.6758C124.183 80.6758 124.409 81.1295 124.409 81.3564C124.409 81.8101 124.409 82.037 124.183 82.4908C124.183 82.4908 121.46 85.4401 118.284 85.4401ZM113.747 80.222C114.428 81.1295 115.562 82.2639 116.923 82.9445C118.511 83.6251 120.099 82.9445 121.007 82.2639L113.747 80.222Z" fill="black"/>
<path d="M108.076 54.3585H107.622C107.168 54.1317 106.714 53.4511 107.168 52.7704C109.21 48.6867 114.428 49.5942 114.654 49.5942C115.335 49.5942 115.789 50.2748 115.562 50.9554C115.562 51.6361 114.881 52.0898 114.201 51.8629C114.201 51.8629 110.571 51.1823 109.21 53.9048C109.21 54.3585 108.529 54.5854 108.076 54.5854V54.3585Z" fill="black"/>
<path d="M124.183 50.5018H123.502C123.048 50.2749 122.821 49.3674 123.048 48.9136C123.956 47.5524 125.09 46.8718 126.224 46.6449C128.947 46.1912 131.442 48.233 131.669 48.4599C132.123 48.9136 132.123 49.5943 131.669 50.048C131.215 50.5017 130.535 50.5017 130.081 50.048C129.627 49.5943 127.812 48.4599 126.451 48.6868C125.771 48.6868 125.317 49.1405 124.863 50.048C124.863 50.5017 124.183 50.5018 123.956 50.5018H124.183Z" fill="black"/>
<path d="M130.308 63.2067C129.854 63.2067 129.4 62.753 129.173 62.2992L128.039 56.6274V55.7199L130.081 52.9974C130.535 52.5437 131.215 52.3168 131.669 52.9974C132.123 53.4512 132.349 54.1318 131.896 54.5855L130.081 56.8543L130.988 61.8455C130.988 62.5261 130.761 62.9798 130.081 63.2067H130.308Z" fill="black"/>
<path d="M111.252 65.0216C110.798 65.0216 110.117 64.5679 110.117 64.1141L109.21 58.4423C109.21 57.9886 109.21 57.7617 109.437 57.5348L112.386 54.3586C112.84 53.9049 113.52 53.9049 113.974 54.3586C114.428 54.8124 114.428 55.493 113.974 55.9467L111.252 58.6692L112.159 63.6604C112.159 64.341 111.932 64.7948 111.252 65.0216Z" fill="black"/>
<path d="M93.1029 65.0216C93.1029 65.0216 106.034 57.7617 110.571 48.233C115.108 38.7044 115.108 33.7132 115.108 33.7132C115.108 33.7132 117.15 39.8387 122.141 41.2C126.905 42.5612 130.081 42.5612 130.081 42.5612L133.484 51.4092L130.761 30.3101C130.761 30.3101 117.377 23.7308 115.789 23.9576C114.201 24.1845 92.1954 28.722 91.0611 30.0832C89.9268 31.4444 83.5748 48.6868 83.5748 48.6868V56.4004L93.5566 65.0216H93.1029Z" fill="#E56445"/>
<path d="M114.881 117.883C101.723 117.883 93.3297 109.942 93.1029 109.716C92.6491 109.262 92.6491 108.581 93.1029 108.127C93.5566 107.674 94.2372 107.674 94.6909 108.127C95.1446 108.581 108.076 120.832 127.132 113.119C127.812 112.892 128.266 113.119 128.72 113.799C128.947 114.48 128.72 114.934 128.039 115.387C123.275 117.429 118.738 118.11 114.881 118.11V117.883Z" fill="white"/>
<path d="M70.6438 167.523V157.586C70.6438 144.654 69.2827 131.722 66.5604 119.244L65.4261 113.572C65.4261 113.572 52.0414 124.235 38.4299 141.478C37.5225 142.635 36.5923 143.814 35.6849 145.04C24.9998 159.287 19.3737 176.711 19.3737 194.52V232.022H171.369V159.446L70.6438 167.545V167.523Z" fill="#FCA397"/>
<path d="M70.6439 167.523C70.6439 167.523 64.0196 227.712 62.9533 232H156.623C156.623 232 163.225 165.186 161.41 160.24" fill="#507849"/>
</g>
<defs>
<clipPath id="clip0_79_247">
<rect width="299" height="232" fill="white"/>
</clipPath>
</defs>
</svg>
