<svg width="111" height="111" viewBox="0 0 111 111" fill="none" xmlns="http://www.w3.org/2000/svg">
<g clip-path="url(#clip0_12_69)">
<path d="M72.9964 99.0678L65.8931 67.0298C68.8031 66.3846 71.5651 65.8886 74.2518 65.1119C75.03 64.8876 76.1635 63.8733 76.1528 63.2419C76.0687 59.3031 75.7147 55.3723 75.4183 51.1184L62.3234 54.0217C61.8999 49.4856 60.5885 45.1463 61.3441 41.2024C62.3552 35.9602 68.1697 37.0378 72.4406 35.2373C71.7218 31.9953 71.0332 28.656 70.187 25.3647C70.0763 24.9236 69.0561 24.348 68.5574 24.4327C64.2419 25.1567 59.7061 25.4122 55.6956 26.9869C47.8294 30.0759 44.4639 37.1851 46.1128 45.614C46.8258 49.297 47.7239 52.939 48.6039 56.9083L37.2106 59.4343L40.1542 72.7106L51.3255 70.2337L58.4479 102.358C57.423 102.637 56.3776 102.998 55.2994 103.211C48.326 104.55 41.3728 106.506 34.3396 106.992C25.8296 107.585 19.0925 102.638 17.0147 94.4339C12.8974 78.1976 9.34738 61.8356 5.62743 45.5241C5.00562 42.7779 4.55371 39.9811 4.19085 37.1775C2.90864 27.0766 7.79666 18.9573 17.7844 16.5101C36.2049 12.0122 54.7196 7.88134 73.3081 4.19974C83.893 2.11161 92.2489 7.82481 94.7185 18.322C99.0183 36.5484 103.034 54.8376 106.853 73.1705C108.848 82.7513 103.943 91.2623 94.6678 94.1206C87.6912 96.2624 80.4138 97.3973 72.9786 99.0458L72.9964 99.0678Z" fill="#BF00FF"/>
</g>
<defs>
<clipPath id="clip0_12_69">
<rect width="93.0565" height="93.0565" fill="white" transform="translate(0 20.1427) rotate(-12.501)"/>
</clipPath>
</defs>
</svg>
