<?xml version="1.0" encoding="UTF-8"?>
<svg id="_레이어_1" data-name="레이어 1" xmlns="http://www.w3.org/2000/svg" xmlns:xlink="http://www.w3.org/1999/xlink" viewBox="0 0 1469 4966">
  <defs>
    <style>
      .cls-1 {
        fill: none;
      }

      .cls-2 {
        fill: #ffcb2e;
      }

      .cls-3 {
        fill: #fff59d;
      }

      .cls-4 {
        fill: #5c5cc6;
      }

      .cls-5 {
        fill: #e56445;
      }

      .cls-6 {
        fill: #f27e64;
      }

      .cls-7 {
        fill: #7c6053;
      }

      .cls-8 {
        fill: #f0b910;
      }

      .cls-9 {
        fill: #ffe138;
      }

      .cls-10 {
        fill: #6fa634;
      }

      .cls-11 {
        fill: #f49282;
      }

      .cls-12 {
        fill: #90d14f;
      }

      .cls-13 {
        fill: #ff6f61;
      }

      .cls-14 {
        fill: #c73939;
      }

      .cls-14, .cls-15, .cls-16, .cls-17 {
        opacity: .5;
      }

      .cls-14, .cls-15, .cls-16, .cls-17, .cls-18 {
        isolation: isolate;
      }

      .cls-19 {
        fill: #ffcf43;
      }

      .cls-20 {
        fill: #568c1f;
      }

      .cls-21 {
        fill: #7772d3;
      }

      .cls-22 {
        fill: #7fba43;
      }

      .cls-23 {
        clip-path: url(#clippath-10);
      }

      .cls-24 {
        clip-path: url(#clippath-14);
      }

      .cls-25 {
        fill: #edbb21;
      }

      .cls-26 {
        fill: #507849;
      }

      .cls-27 {
        fill: #578724;
      }

      .cls-28 {
        clip-path: url(#clippath-1);
      }

      .cls-29 {
        clip-path: url(#clippath-3);
      }

      .cls-30 {
        clip-path: url(#clippath-4);
      }

      .cls-31 {
        clip-path: url(#clippath-2);
      }

      .cls-32 {
        clip-path: url(#clippath-9);
      }

      .cls-33 {
        clip-path: url(#clippath-5);
      }

      .cls-34 {
        fill: #69a12f;
      }

      .cls-35, .cls-17, .cls-18 {
        fill: #fff;
      }

      .cls-36 {
        fill: #77b836;
      }

      .cls-37 {
        fill: #bf00ff;
      }

      .cls-38 {
        fill: #63a61f;
      }

      .cls-39 {
        fill: #46467f;
      }

      .cls-40 {
        fill: #5f8f2d;
      }

      .cls-41 {
        fill: #d4a50f;
      }

      .cls-42 {
        fill: #aee677;
      }

      .cls-43 {
        fill: #f5bd11;
      }

      .cls-44 {
        opacity: .55;
      }

      .cls-45 {
        opacity: .33;
      }

      .cls-46 {
        fill: #ffeb3b;
      }

      .cls-47 {
        fill: #f7734f;
      }

      .cls-48 {
        fill: #fca397;
      }

      .cls-49 {
        fill: #89d4ff;
      }

      .cls-15 {
        fill: #ab2a1d;
      }

      .cls-50 {
        fill: #76ba32;
      }

      .cls-16 {
        fill: #6e0392;
      }

      .cls-51 {
        fill: #90c758;
      }

      .cls-52 {
        fill: #f0ab76;
      }

      .cls-53 {
        fill: #dadada;
      }

      .cls-54 {
        clip-path: url(#clippath);
      }

      .cls-55 {
        fill: #ffed87;
      }

      .cls-56 {
        fill: #8bc94b;
      }

      .cls-57 {
        fill: #ffe4d4;
      }

      .cls-18 {
        opacity: .4;
      }
    </style>
    <clipPath id="clippath">
      <rect class="cls-1" x="722" y="1423" width="434" height="344"/>
    </clipPath>
    <clipPath id="clippath-1">
      <rect class="cls-1" x="114" y="1899" width="248" height="278"/>
    </clipPath>
    <clipPath id="clippath-2">
      <rect class="cls-1" x="1187.4" y="2193.4" width="123.6" height="123.6" transform="translate(-1259.62 2848.71) rotate(-74.33)"/>
    </clipPath>
    <clipPath id="clippath-3">
      <rect class="cls-1" x="645" y="299" width="239" height="258"/>
    </clipPath>
    <clipPath id="clippath-4">
      <rect class="cls-1" x="1203.97" y="1961.97" width="93.06" height="93.06" transform="translate(-405.11 318.3) rotate(-12.5)"/>
    </clipPath>
    <clipPath id="clippath-5">
      <rect class="cls-1" x="1099" y="2868" width="263" height="252"/>
    </clipPath>
    <clipPath id="clippath-6">
      <path class="cls-1" d="M823,3261c22.64,0,41,18.36,41,41v339c0,22.64-18.36,41-41,41h-321v239h353c22.64,0,41,18.36,41,41v119c0,22.64-18.36,41-41,41H123c-22.64,0-41-18.36-41-41v-119c0-3.64.48-7.16,1.37-10.52-.24-1.79-.37-3.62-.37-5.48v-644c0-22.64,18.36-41,41-41h699Z"/>
    </clipPath>
    <clipPath id="clippath-9">
      <rect class="cls-1" x="108" y="2980" width="299" height="232"/>
    </clipPath>
    <clipPath id="clippath-10">
      <rect class="cls-1" x="91" y="2593" width="348" height="164"/>
    </clipPath>
    <clipPath id="clippath-11">
      <ellipse class="cls-1" cx="361" cy="2461" rx="155" ry="59"/>
    </clipPath>
    <clipPath id="clippath-14">
      <rect class="cls-1" x="1176" y="1439" width="190" height="190"/>
    </clipPath>
  </defs>
  <g>
    <path class="cls-37" d="M408,1838.07c0,16.57,13.43,30,30,30h396c16.57,0,30-13.43,30-30v-18.5h-456v18.5Z"/>
    <path class="cls-37" d="M1328.35,10H414.35c-16.57,0-30,13.43-30,30v22.19c0,16.57-13.43,30-30,30H80.17c-16.57,0-30,13.43-30,30v429.96s0,.02,0,.03c0,0-.01.02-.01.02v790.97c0,1.09.06,2.16.17,3.22-.21,1.17-.33,2.38-.33,3.61v76c0,11.05,8.95,20,20,20h205c11.05,0,20-8.95,20-20v-52.83h113v446.4h456v-832.5c0-16.57-13.43-30-30-30h-182.85v-328.88c0-16.57,13.43-30,30-30h204.95c16.57,0,30-13.43,30-30V118.51c0-16.57,13.43-30,30-30h384.99c11.18,0,25.17.18,26.89-10.86.24-1.52.36-3.07.36-4.65v-33c0-16.57-13.43-30-30-30Z"/>
  </g>
  <g>
    <path class="cls-13" d="M151.89,2392h-67.89c-16.57,0-30,13.43-30,30v348c0,16.57,13.43,30,30,30h885c16.57,0,30-13.43,30-30v-348c0-16.57-13.43-30-30-30h-235.11v-572.43H151.89v572.43Z"/>
    <path class="cls-13" d="M1364.89,120h-385c-16.57,0-30,13.43-30,30v538h-51.89c-11.05,0-20,8.95-20,20v179c0,11.05,8.95,20,20,20h51.89v560.01l-126.88-45.53c-4.79-1.72-10.05-1.6-14.75.34l-84.09,34.73c-7.67,3.17-12.67,10.65-12.67,18.95v39.89c0,6.44,3.03,12.51,8.17,16.38l3.08,2.32c4.89,3.68,7.77,9.45,7.77,15.57v28.34H171.89c-11.05,0-20,8.95-20,20v221.57h582v-126.57h33.13l116.57,49.56c3.28,1.39,5.41,4.62,5.41,8.18s1.78,6.63,4.71,8.43l38.46,23.65c5.51,3.39,12.29,3.98,18.3,1.59l74.13-29.41h340.28c16.57,0,30-13.43,30-30V150c0-16.57-13.43-30-30-30Z"/>
  </g>
  <rect class="cls-37" x="407" y="2121" width="972" height="236" rx="30" ry="30"/>
  <rect class="cls-16" x="77" y="114" width="820" height="137" rx="30" ry="30"/>
  <rect class="cls-16" x="67" y="1376" width="212" height="58" rx="10" ry="10"/>
  <rect class="cls-46" x="50" y="1643" width="532" height="118" rx="30" ry="30"/>
  <path class="cls-46" d="M1117,1842c19.33,0,35,15.67,35,35v352c0,19.33-15.67,35-35,35h-257.02c-26.72,0-43.59,28.74-30.56,52.07l82.1,147c6.18,11.07,17.87,17.93,30.56,17.93h439.93c19.33,0,35,15.67,35,35v622c0,19.33-15.67,35-35,35h-831c-19.33,0-35-15.67-35-35v-404h-46c-11.05,0-20-8.95-20-20v-177c0-11.05,8.95-20,20-20h46v-1c0-19.33,15.67-35,35-35h114.05c26.72,0,43.59-28.74,30.56-52.07l-82.1-147c-6.18-11.07-17.88-17.93-30.56-17.93H85c-19.33,0-35-15.67-35-35v-352c0-19.33,15.67-35,35-35h1032Z"/>
  <rect class="cls-17" x="88" y="1880" width="1025" height="349" rx="30" ry="30"/>
  <g class="cls-54">
    <g>
      <path class="cls-22" d="M722,1618.44l.02,7.59v3.15s.02,6.6.02,6.6v2.82s.01,4.55.01,4.55v3.6s.03,8.28.03,8.28l39.52,16.61,12.4,5.21,93.79,39.4,12.41,5.21,51.93,21.82.41-8.63.26-5.42.21-4.32.15-3.37.31-6.41.23-4.83.42-8.72-49.61-19.45-14.81-5.8-93.92-36.82-13.52-5.29-40.24-15.78Z"/>
      <path class="cls-38" d="M1002.29,1693.39c-.35-2.12-.5-4.41-.51-6.77,0-1.8.08-3.63.22-5.47.17-2.17.42-4.34.74-6.46.32-2.25.71-4.44,1.12-6.5,1.59-8.03,3.51-14.15,3.51-14.15l-73.26,47.53-.42,8.72-.22,4.83-.31,6.42-.15,3.36-.21,4.33-.26,5.41-.41,8.64,70.16-49.89h0Z"/>
      <path class="cls-42" d="M1007.35,1654.04c-69.09-21.13-134.82-50.31-202.88-74.32-28,11.91-55.2,25.21-82.47,38.72,70.51,28.24,140.79,56.9,212.1,83.15,24.44-15.81,48.22-32.67,73.25-47.54h0Z"/>
      <path class="cls-10" d="M989.25,1654.44c-61.64-19.58-120.71-45.4-181.45-67.43-22.04,9.65-43.53,20.26-65.04,31.03,63.37,24.9,126.5,50.22,190.57,73.29,18.65-12.24,36.79-25.39,55.92-36.89Z"/>
      <path class="cls-42" d="M965.32,1664.98c2.19-1.69,3.41-3.56,3.66-5.65.33-2.86-1.36-6.21-12.56-9.99-16.58-5.59-33.05-11.53-49.36-17.83-3.12-1.2,6.87,4.27-.53,11.2-7.07,6.59-16.5,10.39-25.95,12.25-2.34.46-4.42.87-6.13,1.26-2.47.55-3.69,2.29-1.99,2.94,15.98,6.11,32.17,12.63,48.25,17.63,10.84,3.37,23.35.68,33.26-4.49,5.08-2.65,8.92-5.44,11.35-7.31h0Z"/>
      <path class="cls-42" d="M869.3,1618.49c1.65-.01,2.52-.93,1.23-1.45-17.48-7-35.03-13.8-52.66-20.41-9.4-3.51-17.56-2.76-26.24,1.45-7.21,3.49-15.33,6.53-22.12,10.75-3.7,2.3-11.25,5.62,6.78,13.1,16.57,6.86,33.42,13.23,50.23,19.6,1.29.5,3.69-.32,3.71-1.22.02-1.86.74-4.64,2.81-8.05,7.7-12.68,23.33-13.66,36.26-13.77Z"/>
      <path class="cls-56" d="M842.23,1628.55c-4.08,3.53-8.08,9.1-8.74,14.05-.19,1.39-.12,2.89.47,3.92,4.79,8.26,19.42,10.43,28.96,9.58.21-.02.42-.04.64-.07,12.31-1.62,30.88-5.98,38.3-16.09,1.59-2.17,3.32-7.27-.3-11.14-6.48-6.93-17.66-8.12-26.71-9.02-10.4-1.04-24.52,1.76-32.62,8.77h0Z"/>
      <path class="cls-40" d="M892.21,1641.38c-.48-1-.87-5.77-.42-7.77.44-1.99-3.39-6.49-5.95-7.12-2.56-.64-13.29-2.62-18.48-.59-5.18,2.03-11.39,4.27-15.02,3.67-3.63-.6-10.62,7.44-11,9.93-.38,2.49,5.42.49,9.3.02,3.88-.48,14.9,2.39,16.74,2.64,1.83.24.97,1.68-1.96,3.01-2.93,1.33-4.75,3.35-4.48,4.57.27,1.21-.23,3.37,1.3,3.37,1.53-.01,6.6.6,11.23-1.34,4.62-1.95,6.36-4.92,9.99-4.88,3.63.06,10.28-2.33,8.75-5.52h0Z"/>
      <path class="cls-42" d="M833.49,1642.61c-.19,1.39-.12,2.89.47,3.92,4.79,8.25,19.24,10.27,28.96,9.58-.44-1.92.08-5.69,3.25-8.66,4.26-3.99,10.83-7.03,12.58-6.77,1.77.27,6.03-1.17,5.43-2.14-.6-.98,5.35-3.63,5.32-6.17-.02-1.38-2.6-3.58-5.21-4.6-2.61-1.03-8.94-1.67-12.26-1.5-3.33.17-12.51,3.1-15.35,5.15-4.38,3.18-6.2,6.81-4.35,8.07,3.44,2.35-2.52,5.68-6.28,4.55-1.38-.41-9.95-1.13-12.57-1.43h0Z"/>
      <path class="cls-40" d="M944.19,1657.02c-.95-3.1-5.62-6.26-14.84-7.97-9.22-1.7-15.26.74-17.59,3.2-2.33,2.46-2.79,6.94,5.51,10.03,6.89,2.56,15.51,2.17,19.45,1.25,4.68-1.09,8.58-2.91,7.48-6.5h0Z"/>
      <path class="cls-40" d="M837.64,1617.14c.16-2.97-3.3-6.08-13.28-8.2-9.98-2.12-17.79-.1-20.64,2.25-2.85,2.35-3.13,6.93,5.2,10.27,6.92,2.78,15.28,2.55,19.33,1.74,4.83-.96,9.19-2.62,9.38-6.06h0Z"/>
      <path class="cls-50" d="M858.98,1613.35s-2.06,1.58-2.96,1.48c-12.46-1.33-43.43-12.81-45.68-17.42-.09-.18,2.46-1.7,3.62-1.28,15.01,5.51,30.3,10.83,45.02,17.22Z"/>
      <path class="cls-50" d="M804.14,1623.5s-5.1,3.38-6.52,3.45c-6.48.38-27.64-9.72-27.66-10.47,0-.29,6.26-3.51,6.9-3.27,8.96,3.29,18.63,6,27.27,10.29h0Z"/>
      <path class="cls-50" d="M927.5,1669.51s-6.32,4.87-8.07,5.1c-5.56.72-24.8-8.44-24.8-9.42,0-.46,7.68-5.07,8.18-4.89,8.02,2.95,16.9,5.33,24.68,9.21Z"/>
      <path class="cls-50" d="M849.59,1613.71s-2.06,1.51-2.85,1.44c-9.28-.75-34.08-10.9-34.9-13.27-.04-.14,2.49-1.61,3.35-1.3,11.45,4.24,23.14,8.28,34.4,13.13Z"/>
      <path class="cls-12" d="M961.38,1655.18s-1.54,1.57-2.34,1.52c-9.6-.5-34.54-9.38-35.72-12.28-.06-.14,1.97-1.66,2.67-1.41,11.7,4.17,23.68,7.89,35.4,12.17h0Z"/>
      <path class="cls-57" d="M865.67,1676.06l.61,39.55,2.73,1.15,13.27,5.58,2.59,1.09,2.58-38.98,72.53-45.94c-.46-.63-1.64-1.35-3.28-2.14-4.54-2.16-12.42-4.66-16.8-5.99-1.91-.58-3.16-.93-3.16-.93l-71.06,46.61h0Z"/>
      <path class="cls-34" d="M892.48,1697.57c9.42,3.97,18.62,8.54,28.1,12.43,4.28,1.76,8.56,3.46,12.87,5.12l.23-4.83c-3.51-1.26-7.02-2.48-10.55-3.7-10.09-3.44-20.4-6.1-30.5-9.4-.21-.07-.37.29-.16.38h0Z"/>
      <path class="cls-34" d="M919.7,1717.96c4.1,2.31,8.63,4.89,13.29,6.95l.16-3.36c-.18-.06-.36-.11-.54-.17-4.24-1.31-8.47-2.6-12.71-3.89-.28-.08-.46.33-.21.47h0Z"/>
      <path class="cls-34" d="M891.99,1715.13c6.67,5.2,15.08,8.3,22.73,11.76,4.25,1.91,8.53,3.78,12.81,5.63,1.63.69,3.3,1.63,5.02,2.12l.26-5.41c-.85-.35-1.73-.67-2.6-1.03-4.07-1.67-8.15-3.35-12.25-4.96-8.25-3.22-16.82-7.39-25.66-8.6-.25-.03-.55.29-.29.49h-.01Z"/>
      <path class="cls-34" d="M859.58,1684.21c-12.46-4.93-24.83-9.88-37.13-15.2-6.22-2.7-12.42-5.45-18.63-8.19-3.1-1.37-6.21-2.74-9.31-4.1-2.85-1.26-6.22-2.21-8.47-4.38-.45-.44-.13-1.33.53-1.28,2.83.17,5.25,1.64,7.82,2.77,2.87,1.25,5.74,2.52,8.6,3.77,6.45,2.83,12.91,5.63,19.34,8.51,12.62,5.64,25.02,11.56,37.44,17.6.28.13.08.61-.21.5Z"/>
      <path class="cls-34" d="M862.48,1696.76c-5.32-1.23-10.39-3.47-15.39-5.62-4.77-2.04-10.66-3.99-14.52-7.53-.41-.37.03-1,.52-.89,4.91,1.17,9.65,4.47,14.18,6.66,5.06,2.44,10.37,4.47,15.3,7.17.12.07.03.23-.08.21h0Z"/>
      <path class="cls-34" d="M844.15,1695.32c-5.56-.96-11.01-3.35-16.27-5.35-5.61-2.12-11.17-4.35-16.74-6.56-5.33-2.12-10.65-4.29-15.96-6.45-3.84-1.56-9.98-2.67-12.4-6.22-.19-.28,0-.74.33-.81,4.23-.87,9.73,2.74,13.63,4.3,5.57,2.24,11.14,4.48,16.69,6.76,4.95,2.03,9.89,4.05,14.8,6.16,5.4,2.32,11.24,4.44,16.1,7.76.21.15.08.44-.17.4h0Z"/>
      <path class="cls-34" d="M722.02,1626.03v3.15c1.32.5,2.65.98,3.96,1.47,8.22,3,16.47,6.54,25.04,8.38.33.07.56-.39.24-.57-7.02-4.03-14.84-6.7-22.34-9.71-2.3-.93-4.6-1.83-6.91-2.72Z"/>
      <path class="cls-34" d="M722.04,1635.78v2.82c2.79.85,5.54,1.83,8.43,2.19.14.02.22-.2.11-.29-2.45-1.97-5.36-3.2-8.19-4.55-.11-.05-.24-.11-.36-.17Z"/>
      <path class="cls-34" d="M722.05,1643.15v3.6c.46.18.89.36,1.32.56,3.76,1.67,7.52,3.32,11.3,4.95,7.39,3.2,15.31,7.49,23.29,8.76.25.05.37-.25.17-.4-6.76-5.11-15.67-8.05-23.36-11.57-3.96-1.81-7.92-3.64-11.87-5.49-.28-.14-.57-.26-.85-.41Z"/>
      <path class="cls-27" d="M945.56,1711.01c11.29-7.81,23.35-14.55,34.79-22.15,5.85-3.89,11.76-7.67,17.74-11.35,1.53-.95,3.08-1.88,4.64-2.82.32-2.25.71-4.44,1.12-6.5-.27.17-.54.33-.82.5-2.92,1.72-5.82,3.47-8.71,5.25-5.78,3.56-11.5,7.19-17.13,10.95-11.45,7.66-21.53,16.79-31.95,25.69-.24.2.08.6.33.43Z"/>
      <path class="cls-27" d="M983.35,1695.87c5.5-2.74,10.9-5.82,16.49-8.37.65-.29,1.29-.59,1.94-.88,0-1.8.08-3.63.22-5.47-1.78,1.24-3.43,2.57-4.7,3.47-4.95,3.49-9.75,6.79-14.32,10.76-.28.25.08.64.38.49h0Z"/>
      <path class="cls-27" d="M937.91,1729.38c2.08-2.86,5.2-4.87,8.04-6.9,3.83-2.74,7.77-5.31,11.76-7.82,3.76-2.38,7.6-4.65,11.42-6.95,3.62-2.18,7.2-4.75,11.38-5.73.35-.08.57.32.34.59-2.62,3.09-6.28,5.02-9.68,7.14-3.79,2.34-7.56,4.72-11.37,7.02-3.6,2.17-7.18,4.37-10.77,6.57-3.52,2.17-6.99,4.96-10.92,6.32-.13.05-.27-.13-.19-.24h0Z"/>
      <path class="cls-57" d="M757.21,1632.92l.64,37.14,2.6,1.09,10.44,4.39,3.12,1.32,1.7-35.98,71.97-45.8c-1-.85-2.4-1.66-3.96-2.37-3.25-1.5-7.23-2.65-9.98-3.35-1.95-.49-3.28-.76-3.28-.76l-73.26,44.31h0Z"/>
      <path class="cls-52" d="M882.28,1722.34l2.59,1.09,2.58-38.98,72.53-45.94c-.46-.63-1.64-1.35-3.28-2.14l-72.19,45.76-2.22,40.21Z"/>
      <path class="cls-52" d="M865.67,1676.06l.61,39.55,2.73,1.15.67-40.43,70.25-45.81-.05-.13c-1.91-.58-3.16-.93-3.16-.93l-71.06,46.6h0Z"/>
      <path class="cls-52" d="M770.88,1675.55l3.12,1.31,1.7-35.97,71.97-45.8c-1-.86-2.4-1.66-3.96-2.37l-72.09,46.59-.75,36.24Z"/>
      <path class="cls-52" d="M757.21,1632.92l.64,37.14,2.6,1.09.77-35.84,72.54-45.93c-1.95-.51-3.28-.78-3.28-.78l-73.26,44.32Z"/>
      <g class="cls-44">
        <path class="cls-53" d="M887.45,1684.45l-21.78-8.39.61,39.56,18.59,7.81,2.58-38.98Z"/>
      </g>
      <g class="cls-44">
        <path class="cls-53" d="M757.21,1632.92l.64,37.14,16.16,6.8,1.7-35.97-18.5-7.97Z"/>
      </g>
      <path class="cls-22" d="M749.65,1580.09v7.59s.03,3.15.03,3.15v6.6s.02,2.82.02,2.82v4.56s.02,3.59.02,3.59v8.29s39.53,16.6,39.53,16.6l12.4,5.21,93.79,39.4,12.41,5.22,51.93,21.82.41-8.64.26-5.41.21-4.33.15-3.36.31-6.41.23-4.84.42-8.71-49.61-19.45-14.82-5.8-93.92-36.82-13.52-5.3-40.24-15.78Z"/>
      <path class="cls-38" d="M1029.93,1655.05c-.35-2.12-.49-4.42-.5-6.78,0-1.79.08-3.63.22-5.47.16-2.16.41-4.34.73-6.46.32-2.25.71-4.44,1.12-6.5,1.59-8.02,3.51-14.14,3.51-14.14l-73.26,47.53-.42,8.72-.22,4.83-.31,6.42-.15,3.36-.21,4.33-.26,5.41-.41,8.64,70.16-49.89h0Z"/>
      <path class="cls-42" d="M1035,1615.7c-69.09-21.14-134.82-50.32-202.88-74.32-28,11.9-55.2,25.2-82.47,38.71,70.51,28.24,140.79,56.9,212.1,83.15,24.44-15.81,48.22-32.67,73.25-47.54Z"/>
      <path class="cls-10" d="M1016.9,1616.09c-61.64-19.59-120.71-45.4-181.45-67.43-22.03,9.65-43.53,20.26-65.04,31.03,63.37,24.9,126.5,50.22,190.57,73.29,18.65-12.24,36.79-25.39,55.92-36.89Z"/>
      <path class="cls-42" d="M992.97,1626.64c2.19-1.69,3.41-3.57,3.65-5.65.33-2.87-1.36-6.22-12.56-9.99-16.58-5.59-33.05-11.53-49.36-17.83-3.12-1.21,6.87,4.27-.53,11.19-7.07,6.6-16.5,10.4-25.95,12.25-2.34.46-4.42.88-6.13,1.26-2.47.55-3.69,2.3-1.99,2.95,15.98,6.1,32.17,12.63,48.25,17.63,10.84,3.37,23.35.67,33.26-4.5,5.08-2.64,8.92-5.43,11.35-7.3h0Z"/>
      <path class="cls-42" d="M896.94,1580.14c1.65-.01,2.52-.92,1.23-1.44-17.48-7-35.02-13.8-52.66-20.41-9.41-3.51-17.56-2.76-26.24,1.45-7.21,3.49-15.33,6.53-22.12,10.75-3.7,2.3-11.25,5.62,6.78,13.09,16.57,6.87,33.43,13.23,50.23,19.61,1.29.49,3.69-.32,3.71-1.23.02-1.85.74-4.64,2.81-8.05,7.7-12.67,23.33-13.66,36.26-13.77Z"/>
      <path class="cls-56" d="M869.88,1590.21c-4.08,3.53-8.08,9.09-8.74,14.05-.19,1.39-.12,2.89.47,3.92,4.79,8.25,19.42,10.42,28.96,9.58.21-.02.42-.05.64-.07,12.31-1.62,30.88-5.98,38.3-16.09,1.59-2.18,3.32-7.27-.3-11.14-6.47-6.94-17.66-8.12-26.71-9.02-10.4-1.04-24.52,1.76-32.62,8.76h0Z"/>
      <path class="cls-40" d="M919.86,1603.04c-.48-1.01-.87-5.78-.42-7.78.45-2-3.39-6.48-5.95-7.12-2.56-.63-13.29-2.61-18.48-.59-5.18,2.03-11.39,4.27-15.02,3.67s-10.62,7.44-11,9.93c-.37,2.49,5.42.49,9.3.02,3.87-.48,14.9,2.39,16.73,2.63,1.83.25.97,1.69-1.96,3.02-2.93,1.33-4.75,3.35-4.48,4.57.27,1.21-.23,3.37,1.3,3.37,1.54-.01,6.61.6,11.23-1.34,4.63-1.95,6.36-4.92,9.99-4.88,3.63.05,10.28-2.33,8.75-5.52v.02Z"/>
      <path class="cls-42" d="M861.14,1604.27c-.19,1.39-.12,2.88.47,3.91,4.79,8.26,19.24,10.28,28.96,9.58-.44-1.92.08-5.69,3.25-8.65,4.26-3.99,10.82-7.03,12.58-6.77,1.77.27,6.03-1.17,5.43-2.15-.6-.98,5.35-3.61,5.32-6.16-.02-1.39-2.6-3.58-5.21-4.61-2.61-1.02-8.94-1.66-12.26-1.5-3.33.17-12.51,3.11-15.35,5.16-4.38,3.18-6.2,6.81-4.35,8.07,3.44,2.35-2.52,5.67-6.28,4.54-1.38-.41-9.95-1.13-12.57-1.42h0Z"/>
      <path class="cls-40" d="M971.84,1618.68c-.95-3.11-5.62-6.27-14.84-7.97-9.22-1.71-15.26.73-17.59,3.19-2.33,2.46-2.79,6.94,5.51,10.03,6.89,2.56,15.52,2.17,19.45,1.25,4.68-1.1,8.58-2.91,7.48-6.5h0Z"/>
      <path class="cls-40" d="M865.29,1578.79c.16-2.97-3.3-6.07-13.28-8.19-9.98-2.12-17.79-.1-20.64,2.25-2.85,2.35-3.13,6.92,5.2,10.26,6.92,2.78,15.28,2.55,19.33,1.75,4.83-.96,9.19-2.63,9.38-6.07h0Z"/>
      <path class="cls-50" d="M886.63,1575s-2.06,1.58-2.96,1.49c-12.46-1.33-43.43-12.82-45.68-17.42-.09-.18,2.46-1.7,3.62-1.28,15.01,5.51,30.3,10.82,45.02,17.21Z"/>
      <path class="cls-50" d="M831.78,1585.15s-5.11,3.38-6.52,3.46c-6.48.37-27.64-9.73-27.66-10.47,0-.3,6.26-3.52,6.9-3.28,8.96,3.29,18.63,6,27.27,10.29h0Z"/>
      <path class="cls-50" d="M955.15,1631.17s-6.32,4.86-8.07,5.09c-5.56.73-24.8-8.44-24.8-9.42,0-.46,7.68-5.07,8.18-4.88,8.02,2.94,16.9,5.32,24.68,9.21Z"/>
      <path class="cls-50" d="M877.24,1575.37s-2.05,1.5-2.85,1.44c-9.28-.75-34.08-10.9-34.9-13.28-.04-.14,2.49-1.6,3.35-1.29,11.45,4.23,23.14,8.27,34.39,13.13Z"/>
      <path class="cls-12" d="M989.03,1616.84s-1.54,1.57-2.34,1.52c-9.6-.51-34.54-9.39-35.73-12.28-.06-.15,1.97-1.67,2.67-1.42,11.7,4.18,23.68,7.9,35.4,12.18h0Z"/>
      <path class="cls-57" d="M893.32,1637.71l.61,39.56,2.73,1.15,13.27,5.58,2.59,1.09,2.58-38.99,72.53-45.93c-.46-.63-1.64-1.35-3.28-2.13-4.54-2.17-12.42-4.67-16.8-6-1.91-.57-3.16-.93-3.16-.93l-71.06,46.61h0Z"/>
      <path class="cls-34" d="M920.13,1659.22c9.42,3.98,18.62,8.54,28.1,12.44,4.28,1.76,8.56,3.46,12.87,5.12l.22-4.83c-3.51-1.27-7.02-2.5-10.55-3.7-10.09-3.44-20.4-6.11-30.5-9.4-.21-.07-.37.28-.15.37h0Z"/>
      <path class="cls-34" d="M947.35,1679.62c4.1,2.3,8.64,4.89,13.29,6.94l.15-3.36c-.18-.05-.36-.11-.54-.16-4.24-1.31-8.47-2.6-12.71-3.89-.28-.09-.46.33-.21.47h0Z"/>
      <path class="cls-34" d="M919.64,1676.79c6.67,5.2,15.08,8.3,22.73,11.75,4.25,1.92,8.53,3.79,12.81,5.63,1.62.7,3.29,1.64,5.02,2.13l.26-5.41c-.85-.36-1.73-.68-2.6-1.03-4.07-1.68-8.15-3.35-12.25-4.96-8.25-3.23-16.82-7.39-25.66-8.61-.25-.03-.55.29-.29.5h-.01Z"/>
      <path class="cls-34" d="M887.23,1645.86c-12.46-4.92-24.83-9.88-37.13-15.2-6.22-2.69-12.42-5.45-18.63-8.19-3.1-1.37-6.21-2.73-9.31-4.1-2.85-1.26-6.22-2.21-8.47-4.38-.45-.44-.13-1.33.53-1.28,2.83.17,5.25,1.64,7.83,2.77,2.86,1.25,5.74,2.52,8.6,3.77,6.45,2.83,12.91,5.63,19.34,8.5,12.62,5.65,25.02,11.57,37.44,17.61.28.13.08.61-.21.5h0Z"/>
      <path class="cls-34" d="M890.13,1658.41c-5.32-1.22-10.39-3.47-15.39-5.61-4.77-2.04-10.66-3.99-14.52-7.53-.41-.37.03-1.01.52-.89,4.91,1.16,9.65,4.46,14.18,6.65,5.06,2.45,10.37,4.48,15.3,7.18.11.06.03.23-.08.2h0Z"/>
      <path class="cls-34" d="M871.8,1656.97c-5.56-.95-11.01-3.35-16.27-5.34-5.61-2.13-11.17-4.35-16.74-6.56-5.33-2.12-10.65-4.29-15.96-6.46-3.84-1.56-9.98-2.67-12.39-6.21-.19-.28,0-.74.33-.81,4.23-.88,9.73,2.73,13.63,4.3,5.57,2.23,11.14,4.47,16.69,6.75,4.95,2.04,9.89,4.06,14.8,6.17,5.4,2.32,11.24,4.44,16.1,7.75.21.15.08.45-.17.41h0Z"/>
      <path class="cls-34" d="M749.66,1587.68v3.15c1.32.5,2.65.99,3.96,1.47,8.22,3,16.46,6.55,25.04,8.39.33.07.56-.39.24-.57-7.02-4.03-14.84-6.7-22.34-9.71-2.3-.92-4.6-1.83-6.91-2.72h0Z"/>
      <path class="cls-34" d="M749.69,1597.43v2.82c2.79.86,5.54,1.84,8.43,2.19.14.03.22-.19.12-.28-2.45-1.97-5.36-3.21-8.19-4.55-.12-.06-.24-.12-.36-.18Z"/>
      <path class="cls-34" d="M749.7,1604.81v3.59c.46.19.89.37,1.32.57,3.76,1.66,7.52,3.31,11.3,4.95,7.39,3.2,15.31,7.48,23.29,8.76.25.04.37-.25.17-.4-6.76-5.12-15.67-8.06-23.36-11.57-3.96-1.81-7.91-3.65-11.87-5.5-.28-.13-.57-.27-.85-.41h0Z"/>
      <path class="cls-27" d="M973.21,1672.66c11.29-7.8,23.35-14.55,34.79-22.15,5.84-3.88,11.76-7.67,17.74-11.34,1.54-.95,3.08-1.89,4.64-2.82.32-2.25.71-4.44,1.12-6.5-.27.16-.54.32-.82.49-2.92,1.72-5.82,3.47-8.71,5.25-5.78,3.56-11.5,7.2-17.13,10.96-11.45,7.65-21.53,16.78-31.96,25.68-.24.21.08.61.33.43Z"/>
      <path class="cls-27" d="M1011,1657.52c5.5-2.74,10.91-5.82,16.49-8.37.65-.28,1.29-.58,1.94-.88,0-1.79.08-3.63.22-5.47-1.78,1.24-3.43,2.58-4.7,3.47-4.95,3.5-9.75,6.8-14.32,10.77-.28.24.08.63.38.48h-.01Z"/>
      <path class="cls-27" d="M965.57,1691.03c2.08-2.85,5.2-4.87,8.04-6.9,3.83-2.74,7.77-5.3,11.76-7.82,3.77-2.38,7.6-4.64,11.42-6.94,3.62-2.18,7.2-4.75,11.38-5.72.35-.09.56.32.34.58-2.62,3.09-6.28,5.03-9.68,7.14-3.79,2.34-7.56,4.72-11.37,7.02-3.6,2.17-7.18,4.37-10.77,6.57-3.52,2.17-6.99,4.97-10.92,6.32-.13.05-.27-.12-.19-.24h0Z"/>
      <path class="cls-57" d="M784.86,1594.57l.64,37.14,2.59,1.1,10.44,4.39,3.12,1.31,1.7-35.97,71.97-45.8c-1-.86-2.4-1.66-3.96-2.37-3.25-1.51-7.23-2.65-9.98-3.35-1.95-.5-3.28-.77-3.28-.77l-73.26,44.31h0Z"/>
      <path class="cls-52" d="M909.93,1684l2.59,1.09,2.58-38.99,72.53-45.93c-.46-.63-1.64-1.35-3.28-2.13l-72.19,45.76-2.22,40.2h0Z"/>
      <path class="cls-52" d="M893.32,1637.71l.61,39.56,2.73,1.15.67-40.43,70.25-45.82-.04-.13c-1.91-.58-3.16-.93-3.16-.93l-71.06,46.6Z"/>
      <path class="cls-52" d="M798.53,1637.21l3.12,1.31,1.7-35.98,71.97-45.79c-1-.86-2.4-1.66-3.96-2.37l-72.09,46.59-.75,36.24Z"/>
      <path class="cls-52" d="M784.85,1594.57l.64,37.14,2.6,1.1.77-35.84,72.54-45.94c-1.95-.5-3.28-.77-3.28-.77l-73.26,44.31Z"/>
      <g class="cls-44">
        <path class="cls-53" d="M915.09,1646.1l-21.77-8.39.61,39.56,18.59,7.82,2.57-38.99Z"/>
      </g>
      <g class="cls-44">
        <path class="cls-53" d="M784.85,1594.57l.64,37.14,16.16,6.81,1.7-35.98-18.5-7.97Z"/>
      </g>
      <path class="cls-22" d="M747.25,1532.16v7.59s.02,3.15.02,3.15l.02,6.6v2.82s.01,4.56.01,4.56v3.59s.03,8.28.03,8.28l39.52,16.61,12.4,5.21,93.78,39.4,12.42,5.22,51.93,21.82.4-8.64.26-5.41.2-4.33.16-3.36.3-6.42.23-4.83.42-8.71-49.61-19.45-14.82-5.8-93.92-36.82-13.52-5.3-40.24-15.78Z"/>
      <path class="cls-38" d="M1027.53,1607.12c-.35-2.12-.5-4.42-.5-6.78,0-1.79.07-3.63.21-5.47.17-2.16.42-4.34.74-6.46.32-2.25.71-4.44,1.12-6.5,1.59-8.02,3.51-14.14,3.51-14.14l-73.26,47.53-.42,8.71-.22,4.84-.31,6.42-.15,3.36-.21,4.33-.26,5.41-.41,8.64,70.16-49.89h0Z"/>
      <path class="cls-42" d="M1032.6,1567.77c-69.1-21.14-134.82-50.32-202.88-74.32-28,11.9-55.2,25.2-82.47,38.71,70.51,28.24,140.8,56.9,212.1,83.15,24.44-15.81,48.22-32.68,73.25-47.54Z"/>
      <path class="cls-10" d="M1014.5,1568.16c-61.64-19.59-120.71-45.4-181.45-67.43-22.03,9.65-43.53,20.26-65.04,31.03,63.37,24.9,126.5,50.22,190.57,73.29,18.65-12.24,36.79-25.39,55.91-36.89h.01Z"/>
      <path class="cls-42" d="M990.57,1578.71c2.19-1.69,3.41-3.57,3.66-5.66.33-2.86-1.36-6.21-12.56-9.98-16.58-5.59-33.05-11.53-49.36-17.83-3.12-1.21,6.87,4.27-.53,11.19-7.07,6.6-16.5,10.39-25.95,12.25-2.34.46-4.42.88-6.13,1.26-2.47.55-3.69,2.3-1.98,2.95,15.98,6.1,32.17,12.63,48.25,17.62,10.84,3.37,23.35.67,33.27-4.49,5.07-2.65,8.92-5.44,11.34-7.32h0Z"/>
      <path class="cls-42" d="M894.54,1532.21c1.65-.01,2.52-.93,1.23-1.44-17.48-7-35.02-13.8-52.66-20.41-9.41-3.51-17.56-2.76-26.24,1.44-7.21,3.49-15.33,6.54-22.12,10.76-3.7,2.3-11.25,5.62,6.78,13.09,16.57,6.87,33.42,13.23,50.22,19.61,1.29.49,3.69-.32,3.71-1.23.02-1.85.74-4.64,2.81-8.05,7.7-12.67,23.33-13.66,36.26-13.77Z"/>
      <path class="cls-56" d="M867.48,1542.28c-4.08,3.53-8.08,9.09-8.74,14.05-.19,1.39-.12,2.89.47,3.92,4.79,8.25,19.42,10.42,28.96,9.58.21-.02.42-.05.64-.07,12.31-1.62,30.88-5.98,38.29-16.1,1.59-2.17,3.32-7.26-.3-11.13-6.47-6.94-17.66-8.12-26.71-9.02-10.4-1.04-24.52,1.76-32.62,8.76h0Z"/>
      <path class="cls-40" d="M917.45,1555.11c-.48-1.01-.87-5.78-.42-7.78.44-1.99-3.39-6.49-5.95-7.12s-13.29-2.61-18.48-.59c-5.18,2.03-11.39,4.27-15.02,3.67-3.63-.6-10.62,7.44-11,9.93-.37,2.49,5.42.49,9.3.02,3.88-.48,14.91,2.38,16.74,2.63s.97,1.69-1.96,3.02c-2.93,1.33-4.75,3.35-4.48,4.57.27,1.21-.23,3.37,1.3,3.36,1.54,0,6.6.61,11.23-1.33,4.62-1.95,6.36-4.92,9.99-4.88,3.63.05,10.28-2.33,8.75-5.52v.02Z"/>
      <path class="cls-42" d="M858.74,1556.34c-.19,1.38-.12,2.88.47,3.91,4.79,8.26,19.24,10.28,28.96,9.58-.44-1.92.08-5.69,3.25-8.65,4.26-3.99,10.83-7.03,12.59-6.77,1.77.27,6.03-1.17,5.43-2.15-.6-.98,5.35-3.62,5.32-6.16-.02-1.39-2.6-3.58-5.21-4.61-2.61-1.02-8.94-1.66-12.26-1.5-3.33.17-12.52,3.11-15.35,5.16-4.38,3.17-6.2,6.81-4.35,8.07,3.44,2.35-2.52,5.67-6.28,4.54-1.38-.41-9.95-1.13-12.57-1.42h0Z"/>
      <path class="cls-40" d="M969.43,1570.75c-.95-3.11-5.62-6.27-14.84-7.97-9.22-1.71-15.26.73-17.59,3.19-2.33,2.46-2.8,6.94,5.51,10.03,6.89,2.56,15.51,2.17,19.45,1.25,4.68-1.1,8.58-2.91,7.48-6.5h0Z"/>
      <path class="cls-40" d="M862.88,1530.86c.16-2.97-3.3-6.08-13.28-8.19-9.98-2.12-17.79-.1-20.64,2.25-2.85,2.35-3.13,6.92,5.2,10.26,6.92,2.78,15.28,2.55,19.33,1.75,4.83-.96,9.19-2.63,9.38-6.07h0Z"/>
      <path class="cls-50" d="M884.23,1527.07s-2.06,1.58-2.96,1.49c-12.46-1.34-43.43-12.82-45.68-17.42-.09-.18,2.46-1.7,3.62-1.28,15.01,5.51,30.3,10.82,45.02,17.21Z"/>
      <path class="cls-50" d="M829.38,1537.22s-5.1,3.38-6.52,3.46c-6.48.37-27.64-9.73-27.66-10.47,0-.3,6.26-3.52,6.9-3.28,8.96,3.29,18.63,6,27.27,10.29h0Z"/>
      <path class="cls-50" d="M952.75,1583.24s-6.32,4.86-8.07,5.09c-5.56.73-24.8-8.44-24.8-9.42,0-.46,7.68-5.07,8.18-4.88,8.02,2.94,16.9,5.32,24.68,9.21Z"/>
      <path class="cls-50" d="M874.84,1527.44s-2.06,1.5-2.85,1.44c-9.28-.75-34.08-10.9-34.9-13.28-.05-.14,2.49-1.61,3.35-1.29,11.45,4.23,23.14,8.27,34.4,13.13Z"/>
      <path class="cls-12" d="M986.62,1568.9s-1.54,1.57-2.34,1.52c-9.6-.5-34.54-9.38-35.73-12.28-.06-.15,1.97-1.66,2.67-1.41,11.7,4.17,23.68,7.89,35.4,12.17h0Z"/>
      <path class="cls-57" d="M890.91,1589.78l.61,39.56,2.73,1.15,13.27,5.58,2.59,1.08,2.58-38.98,72.53-45.93c-.46-.63-1.65-1.35-3.28-2.14-4.54-2.16-12.42-4.66-16.8-5.99-1.91-.58-3.16-.93-3.16-.93l-71.06,46.61h0Z"/>
      <path class="cls-34" d="M917.73,1611.29c9.42,3.97,18.62,8.54,28.1,12.44,4.28,1.76,8.56,3.45,12.88,5.12l.22-4.84c-3.51-1.26-7.02-2.49-10.55-3.69-10.09-3.45-20.4-6.11-30.5-9.4-.21-.07-.37.28-.15.37h0Z"/>
      <path class="cls-34" d="M944.95,1631.69c4.1,2.3,8.63,4.89,13.29,6.94l.15-3.36c-.18-.06-.36-.11-.54-.16-4.24-1.31-8.47-2.6-12.71-3.89-.28-.08-.46.33-.21.47h0Z"/>
      <path class="cls-34" d="M917.23,1628.85c6.67,5.2,15.08,8.3,22.73,11.76,4.25,1.91,8.53,3.78,12.81,5.63,1.62.69,3.29,1.63,5.02,2.12l.26-5.41c-.85-.35-1.73-.67-2.6-1.03-4.07-1.67-8.15-3.35-12.25-4.96-8.25-3.22-16.82-7.39-25.66-8.6-.25-.04-.55.28-.29.49h-.01Z"/>
      <path class="cls-34" d="M884.83,1597.93c-12.46-4.92-24.83-9.88-37.13-15.2-6.22-2.7-12.42-5.45-18.63-8.19-3.1-1.37-6.21-2.73-9.31-4.1-2.85-1.26-6.22-2.21-8.47-4.38-.45-.44-.13-1.33.53-1.28,2.83.17,5.25,1.63,7.83,2.77,2.86,1.25,5.74,2.51,8.6,3.77,6.45,2.83,12.91,5.63,19.34,8.5,12.62,5.65,25.02,11.57,37.44,17.61.28.13.08.61-.21.5h0Z"/>
      <path class="cls-34" d="M887.72,1610.48c-5.32-1.23-10.39-3.47-15.39-5.61-4.77-2.04-10.66-3.99-14.52-7.53-.41-.37.03-1.01.52-.89,4.91,1.16,9.65,4.46,14.18,6.65,5.06,2.45,10.37,4.48,15.3,7.18.11.06.03.23-.08.2h0Z"/>
      <path class="cls-34" d="M869.4,1609.04c-5.56-.95-11.01-3.35-16.27-5.34-5.61-2.13-11.17-4.35-16.74-6.56-5.33-2.12-10.65-4.29-15.97-6.46-3.84-1.56-9.98-2.67-12.39-6.21-.19-.29,0-.74.33-.81,4.23-.88,9.73,2.73,13.63,4.3,5.57,2.23,11.14,4.47,16.69,6.76,4.95,2.03,9.89,4.05,14.8,6.16,5.4,2.32,11.24,4.44,16.1,7.76.21.15.08.44-.17.4h0Z"/>
      <path class="cls-34" d="M747.26,1539.75v3.15c1.32.5,2.65.99,3.96,1.47,8.22,3,16.47,6.55,25.04,8.39.33.07.56-.39.24-.57-7.02-4.03-14.84-6.7-22.34-9.71-2.3-.92-4.6-1.83-6.91-2.72h0Z"/>
      <path class="cls-34" d="M747.29,1549.5v2.82c2.79.86,5.54,1.84,8.43,2.19.14.03.22-.19.12-.28-2.45-1.97-5.36-3.21-8.19-4.55-.12-.06-.24-.12-.36-.18Z"/>
      <path class="cls-34" d="M747.3,1556.88v3.59c.46.19.89.37,1.32.57,3.76,1.66,7.52,3.31,11.3,4.95,7.39,3.2,15.31,7.48,23.29,8.76.25.04.37-.25.17-.4-6.76-5.12-15.67-8.06-23.36-11.57-3.96-1.82-7.91-3.65-11.87-5.5-.28-.13-.57-.26-.85-.4Z"/>
      <path class="cls-27" d="M970.81,1624.73c11.29-7.8,23.35-14.55,34.78-22.15,5.85-3.89,11.77-7.67,17.75-11.35,1.53-.94,3.08-1.88,4.64-2.81.32-2.25.71-4.44,1.12-6.5-.28.16-.55.32-.82.49-2.92,1.72-5.82,3.47-8.71,5.25-5.78,3.56-11.5,7.2-17.14,10.96-11.45,7.65-21.52,16.78-31.95,25.68-.24.21.08.6.33.43Z"/>
      <path class="cls-27" d="M1008.6,1609.59c5.5-2.73,10.9-5.82,16.49-8.37.64-.28,1.29-.58,1.94-.88,0-1.79.08-3.63.22-5.47-1.79,1.24-3.43,2.58-4.7,3.47-4.95,3.5-9.75,6.8-14.32,10.77-.28.24.08.63.38.48h-.01Z"/>
      <path class="cls-27" d="M963.16,1643.1c2.08-2.85,5.2-4.87,8.04-6.9,3.83-2.74,7.77-5.3,11.76-7.82,3.77-2.38,7.6-4.64,11.42-6.95,3.62-2.18,7.21-4.75,11.37-5.72.36-.08.57.32.35.58-2.63,3.09-6.28,5.03-9.69,7.14-3.79,2.35-7.56,4.72-11.37,7.02-3.6,2.18-7.18,4.37-10.77,6.58-3.52,2.16-6.99,4.96-10.92,6.32-.13.04-.27-.13-.19-.25h0Z"/>
      <path class="cls-57" d="M782.45,1546.64l.64,37.14,2.6,1.1,10.44,4.39,3.12,1.31,1.7-35.97,71.97-45.8c-1-.86-2.4-1.66-3.96-2.37-3.25-1.51-7.23-2.65-9.98-3.35-1.95-.5-3.28-.77-3.28-.77l-73.26,44.31h0Z"/>
      <path class="cls-52" d="M907.52,1636.07l2.59,1.08,2.58-38.98,72.53-45.93c-.46-.63-1.64-1.35-3.28-2.14l-72.19,45.76-2.22,40.21h0Z"/>
      <path class="cls-52" d="M890.91,1589.78l.61,39.56,2.73,1.15.67-40.43,70.25-45.82-.05-.14c-1.91-.57-3.16-.92-3.16-.92l-71.06,46.6Z"/>
      <path class="cls-52" d="M796.12,1589.27l3.12,1.31,1.7-35.97,71.97-45.8c-1-.86-2.4-1.66-3.96-2.37l-72.09,46.59-.75,36.24Z"/>
      <path class="cls-52" d="M782.45,1546.64l.64,37.14,2.6,1.1.77-35.84,72.54-45.94c-1.95-.5-3.28-.77-3.28-.77l-73.26,44.31Z"/>
      <g class="cls-44">
        <path class="cls-53" d="M912.69,1598.16l-21.77-8.38.61,39.56,18.59,7.81,2.57-38.99Z"/>
      </g>
      <g class="cls-44">
        <path class="cls-53" d="M782.45,1546.64l.64,37.14,16.16,6.81,1.7-35.98-18.5-7.97Z"/>
      </g>
      <path class="cls-22" d="M734.02,1478.24l.02,7.59v3.15s.02,6.6.02,6.6v2.82s.02,4.55.02,4.55v3.6s.02,8.28.02,8.28l39.52,16.61,12.4,5.2,93.79,39.41,12.41,5.21,51.93,21.82.41-8.64.26-5.41.21-4.32.15-3.37.31-6.41.22-4.83.42-8.72-49.6-19.45-14.82-5.8-93.92-36.82-13.52-5.29-40.24-15.78Z"/>
      <path class="cls-38" d="M1014.31,1553.19c-.35-2.12-.5-4.41-.51-6.77,0-1.8.08-3.63.22-5.47.17-2.17.42-4.34.74-6.46.32-2.25.71-4.44,1.12-6.5,1.59-8.03,3.51-14.15,3.51-14.15l-73.26,47.53-.42,8.72-.22,4.83-.31,6.42-.15,3.36-.21,4.33-.26,5.41-.41,8.64,70.16-49.89Z"/>
      <path class="cls-42" d="M1019.38,1513.84c-69.1-21.13-134.83-50.31-202.89-74.31-28,11.9-55.2,25.2-82.47,38.71,70.51,28.24,140.79,56.9,212.1,83.15,24.44-15.81,48.22-32.67,73.25-47.54h.01Z"/>
      <path class="cls-10" d="M1001.27,1514.23c-61.64-19.58-120.71-45.39-181.45-67.42-22.04,9.65-43.53,20.25-65.04,31.02,63.37,24.9,126.5,50.22,190.57,73.29,18.65-12.23,36.79-25.39,55.91-36.89h.01Z"/>
      <path class="cls-42" d="M977.35,1524.78c2.19-1.69,3.41-3.56,3.66-5.65.33-2.87-1.36-6.21-12.56-9.99-16.58-5.59-33.05-11.53-49.36-17.83-3.12-1.2,6.87,4.27-.53,11.2-7.07,6.59-16.5,10.39-25.95,12.25-2.34.46-4.42.87-6.13,1.26-2.47.55-3.69,2.29-1.98,2.94,15.98,6.11,32.17,12.63,48.25,17.63,10.84,3.36,23.35.67,33.27-4.5,5.08-2.64,8.92-5.44,11.34-7.31h0Z"/>
      <path class="cls-42" d="M881.32,1478.29c1.65-.01,2.52-.93,1.23-1.45-17.48-7-35.03-13.8-52.66-20.41-9.4-3.51-17.56-2.76-26.24,1.45-7.21,3.49-15.33,6.53-22.12,10.75-3.7,2.3-11.25,5.62,6.78,13.1,16.57,6.86,33.42,13.23,50.22,19.6,1.29.5,3.7-.32,3.71-1.22.02-1.86.74-4.64,2.81-8.05,7.7-12.68,23.33-13.66,36.26-13.77Z"/>
      <path class="cls-56" d="M854.25,1488.35c-4.08,3.53-8.08,9.1-8.74,14.05-.19,1.39-.12,2.89.47,3.92,4.79,8.26,19.42,10.43,28.96,9.58.21-.02.42-.04.64-.07,12.31-1.62,30.88-5.98,38.29-16.09,1.59-2.17,3.32-7.27-.29-11.14-6.48-6.93-17.66-8.12-26.71-9.02-10.4-1.04-24.52,1.76-32.62,8.77h0Z"/>
      <path class="cls-40" d="M904.23,1501.18c-.48-1-.87-5.77-.42-7.77.44-1.99-3.39-6.49-5.95-7.12-2.56-.64-13.29-2.62-18.48-.59-5.18,2.03-11.39,4.27-15.02,3.67-3.63-.61-10.62,7.43-11,9.92-.38,2.49,5.42.5,9.3.02,3.88-.47,14.91,2.39,16.74,2.64,1.83.24.97,1.68-1.96,3.02-2.93,1.33-4.75,3.34-4.48,4.56.27,1.22-.23,3.38,1.3,3.37,1.54-.01,6.6.61,11.23-1.34,4.62-1.95,6.36-4.92,9.99-4.87,3.63.05,10.28-2.34,8.75-5.52h0Z"/>
      <path class="cls-42" d="M845.51,1502.41c-.19,1.39-.12,2.89.47,3.92,4.79,8.25,19.24,10.27,28.96,9.58-.44-1.92.08-5.69,3.25-8.66,4.26-3.99,10.83-7.03,12.59-6.77,1.77.27,6.03-1.17,5.43-2.14-.6-.98,5.35-3.62,5.32-6.17-.02-1.38-2.6-3.57-5.21-4.6-2.61-1.03-8.94-1.67-12.26-1.5-3.33.17-12.51,3.1-15.35,5.15-4.38,3.18-6.2,6.81-4.35,8.07,3.44,2.35-2.52,5.68-6.28,4.55-1.38-.41-9.95-1.13-12.57-1.43h0Z"/>
      <path class="cls-40" d="M956.21,1516.83c-.95-3.11-5.62-6.27-14.84-7.98-9.22-1.7-15.26.74-17.59,3.2-2.33,2.46-2.79,6.94,5.51,10.03,6.89,2.56,15.51,2.17,19.45,1.24,4.68-1.09,8.58-2.9,7.48-6.49h0Z"/>
      <path class="cls-40" d="M849.66,1476.94c.16-2.97-3.3-6.08-13.28-8.2-9.98-2.12-17.79-.1-20.64,2.25-2.86,2.35-3.13,6.93,5.2,10.27,6.92,2.78,15.28,2.55,19.33,1.74,4.83-.96,9.19-2.62,9.38-6.06h0Z"/>
      <path class="cls-50" d="M871.01,1473.15s-2.05,1.58-2.96,1.48c-12.46-1.33-43.43-12.82-45.68-17.42-.09-.17,2.46-1.7,3.62-1.28,15.01,5.51,30.3,10.83,45.02,17.22Z"/>
      <path class="cls-50" d="M816.16,1483.3s-5.1,3.38-6.52,3.45c-6.48.38-27.64-9.72-27.66-10.47,0-.29,6.26-3.51,6.9-3.27,8.96,3.29,18.63,6,27.27,10.29h0Z"/>
      <path class="cls-50" d="M939.52,1529.31s-6.32,4.87-8.07,5.1c-5.56.72-24.81-8.44-24.8-9.42,0-.46,7.68-5.07,8.18-4.89,8.02,2.95,16.9,5.33,24.68,9.21Z"/>
      <path class="cls-50" d="M861.61,1473.51s-2.06,1.51-2.85,1.44c-9.28-.75-34.08-10.9-34.9-13.27-.04-.14,2.49-1.61,3.35-1.3,11.46,4.24,23.14,8.28,34.4,13.13Z"/>
      <path class="cls-12" d="M973.4,1514.97s-1.54,1.57-2.34,1.53c-9.6-.5-34.54-9.38-35.73-12.28-.06-.14,1.97-1.66,2.67-1.41,11.7,4.17,23.68,7.89,35.4,12.17h0Z"/>
      <path class="cls-57" d="M877.69,1535.86l.61,39.55,2.73,1.15,13.27,5.58,2.59,1.09,2.58-38.98,72.53-45.94c-.46-.63-1.64-1.35-3.28-2.13-4.54-2.16-12.42-4.67-16.8-5.99-1.92-.58-3.16-.93-3.16-.93l-71.06,46.6h0Z"/>
      <path class="cls-34" d="M904.5,1557.37c9.43,3.97,18.62,8.54,28.1,12.43,4.28,1.76,8.56,3.46,12.88,5.12l.22-4.83c-3.51-1.26-7.02-2.49-10.55-3.69-10.09-3.45-20.4-6.11-30.5-9.41-.21-.07-.37.29-.15.38h0Z"/>
      <path class="cls-34" d="M931.73,1577.76c4.1,2.31,8.63,4.89,13.29,6.95l.15-3.36c-.18-.05-.36-.11-.54-.17-4.24-1.31-8.47-2.6-12.71-3.89-.28-.08-.46.33-.21.47h0Z"/>
      <path class="cls-34" d="M904.01,1574.93c6.67,5.2,15.08,8.3,22.73,11.76,4.25,1.91,8.52,3.78,12.81,5.63,1.63.7,3.3,1.64,5.02,2.13l.26-5.41c-.85-.35-1.73-.67-2.6-1.03-4.07-1.67-8.15-3.35-12.25-4.96-8.25-3.23-16.82-7.39-25.66-8.61-.25-.03-.55.29-.29.5h-.01Z"/>
      <path class="cls-34" d="M871.6,1544.01c-12.46-4.93-24.83-9.88-37.13-15.2-6.22-2.7-12.42-5.45-18.63-8.19-3.1-1.37-6.21-2.74-9.31-4.11-2.85-1.25-6.22-2.2-8.47-4.38-.45-.43-.13-1.32.53-1.28,2.83.17,5.25,1.64,7.82,2.77,2.87,1.26,5.74,2.52,8.6,3.78,6.45,2.83,12.91,5.62,19.34,8.5,12.62,5.64,25.02,11.56,37.44,17.6.28.14.08.62-.21.5h0Z"/>
      <path class="cls-34" d="M874.5,1556.56c-5.32-1.23-10.39-3.47-15.39-5.62-4.77-2.04-10.66-3.99-14.52-7.53-.41-.37.03-1,.52-.89,4.91,1.17,9.65,4.47,14.18,6.66,5.06,2.44,10.37,4.47,15.3,7.17.11.07.03.23-.08.2h0Z"/>
      <path class="cls-34" d="M856.17,1555.12c-5.56-.96-11.01-3.35-16.27-5.35-5.61-2.12-11.17-4.35-16.74-6.56-5.33-2.12-10.65-4.29-15.96-6.45-3.84-1.56-9.98-2.67-12.4-6.22-.19-.28,0-.73.33-.81,4.23-.87,9.73,2.74,13.63,4.3,5.57,2.24,11.14,4.48,16.69,6.76,4.95,2.03,9.89,4.05,14.8,6.16,5.4,2.32,11.24,4.44,16.1,7.76.21.15.08.45-.17.4h0Z"/>
      <path class="cls-34" d="M734.04,1485.83v3.15c1.32.5,2.65.98,3.96,1.47,8.22,3,16.47,6.54,25.04,8.39.33.07.56-.39.24-.57-7.02-4.03-14.84-6.71-22.34-9.72-2.3-.92-4.6-1.82-6.91-2.72h0Z"/>
      <path class="cls-34" d="M734.06,1495.58v2.82c2.79.85,5.54,1.83,8.43,2.19.14.02.22-.2.11-.29-2.45-1.97-5.36-3.2-8.19-4.55-.12-.06-.24-.11-.36-.17Z"/>
      <path class="cls-34" d="M734.08,1502.95v3.6c.46.18.89.36,1.32.56,3.76,1.67,7.53,3.32,11.3,4.95,7.39,3.2,15.31,7.49,23.29,8.76.25.05.37-.25.17-.4-6.76-5.11-15.67-8.05-23.36-11.57-3.96-1.81-7.92-3.64-11.87-5.49-.28-.14-.57-.26-.85-.41Z"/>
      <path class="cls-27" d="M957.59,1570.81c11.29-7.81,23.35-14.55,34.79-22.15,5.85-3.89,11.77-7.67,17.75-11.35,1.53-.95,3.08-1.88,4.64-2.82.32-2.25.71-4.44,1.12-6.5-.28.17-.55.33-.82.5-2.92,1.72-5.82,3.47-8.71,5.25-5.78,3.56-11.5,7.19-17.14,10.95-11.45,7.66-21.53,16.79-31.95,25.69-.24.2.08.6.33.43Z"/>
      <path class="cls-27" d="M995.38,1555.67c5.5-2.74,10.9-5.82,16.49-8.37.64-.29,1.29-.59,1.94-.88,0-1.8.08-3.63.22-5.47-1.79,1.24-3.43,2.57-4.7,3.47-4.95,3.49-9.75,6.79-14.32,10.76-.28.25.08.64.38.49h0Z"/>
      <path class="cls-27" d="M949.93,1589.18c2.07-2.86,5.2-4.87,8.04-6.9,3.83-2.74,7.77-5.3,11.76-7.82,3.77-2.38,7.6-4.65,11.42-6.95,3.62-2.18,7.2-4.75,11.38-5.73.35-.08.57.32.34.59-2.62,3.09-6.28,5.02-9.68,7.14-3.79,2.34-7.56,4.72-11.37,7.02-3.6,2.17-7.18,4.37-10.77,6.57-3.52,2.17-6.99,4.96-10.92,6.32-.13.05-.27-.13-.19-.24h0Z"/>
      <path class="cls-57" d="M769.22,1492.72l.64,37.14,2.6,1.09,10.44,4.39,3.12,1.32,1.7-35.98,71.97-45.8c-1-.85-2.4-1.66-3.96-2.37-3.25-1.5-7.23-2.65-9.98-3.35-1.95-.49-3.28-.76-3.28-.76l-73.26,44.31h0Z"/>
      <path class="cls-52" d="M894.3,1582.14l2.59,1.09,2.58-38.98,72.53-45.94c-.46-.63-1.64-1.35-3.28-2.13l-72.19,45.76-2.22,40.21h0Z"/>
      <path class="cls-52" d="M877.69,1535.86l.61,39.55,2.73,1.15.68-40.43,70.25-45.82-.04-.13c-1.91-.58-3.16-.93-3.16-.93l-71.06,46.61Z"/>
      <path class="cls-52" d="M782.9,1535.35l3.12,1.31,1.7-35.97,71.97-45.8c-1-.86-2.4-1.66-3.96-2.37l-72.09,46.59-.75,36.23h0Z"/>
      <path class="cls-52" d="M769.22,1492.72l.64,37.14,2.6,1.09.77-35.84,72.54-45.93c-1.95-.51-3.28-.78-3.28-.78l-73.26,44.32Z"/>
      <g class="cls-44">
        <path class="cls-53" d="M899.47,1544.25l-21.78-8.39.61,39.55,18.59,7.82,2.58-38.98Z"/>
      </g>
      <g class="cls-44">
        <path class="cls-53" d="M769.22,1492.72l.64,37.14,16.16,6.8,1.7-35.97-18.5-7.97Z"/>
      </g>
      <path class="cls-51" d="M1156,1594.32c-7.41,5.09-21.09,11.05-38.09,17.31-1.27.47-2.54.93-3.85,1.41-3.27,1.17-6.65,2.36-10.12,3.55-1.44.5-2.91,1-4.38,1.49-31.06,10.49-68.37,21.21-98.9,29.56-1.02.27-2.05.55-3.05.83-4.41,1.19-8.65,2.34-12.7,3.42-1.57.42-3.12.83-4.62,1.24-22.83,6.07-38.39,9.94-38.39,9.94l-11.38-5.31-2.81-1.31-10.44-4.86-4.79-2.24-2.49-1.16c4.34-1.04,21.23-5.99,43.77-12.73,1.55-.46,3.11-.93,4.71-1.41,3.6-1.07,7.31-2.18,11.13-3.34,1.1-.33,2.22-.66,3.34-1,35.14-10.57,77.74-23.51,108.76-32.96l.11-.03c1.53-.47,3.04-.93,4.51-1.37,1.01-.31,2.01-.61,2.99-.91,20.86-6.36,34.85-10.64,34.85-10.64,2.08,1.04,5.26,2.25,8.82,3.48,1.98.69,4.06,1.37,6.13,2.03,8.49,2.7,16.87,5,16.87,5h.01Z"/>
      <path class="cls-42" d="M941.68,1663.08c71.62-22.16,142.45-46.72,214.11-68.75-1.68,30.01-2.17,59.93-2.17,89.99-71.07,26.62-140.19,57.76-211.94,82.69v-103.93h0Z"/>
      <path class="cls-10" d="M953.27,1668.92c63.78-19.76,126.89-41.55,190.68-61.27-.46,24.05.07,48.01.8,72.05-64.25,24.35-127.01,52.2-191.8,75.18.09-28.66.19-57.31.33-85.96Z"/>
      <path class="cls-42" d="M958.2,1702.58c.23-4.8,1.43-9.87,3.39-14.84,3.34-8.5,10.47-14.8,19.23-17.47,17.31-5.28,52.23-17.02,52.23-17.02.18.27-10.4,15.32-11.09,24.34-.77,10.17-1.66,23.4,6.03,31.23,1.13,1.15,2.2,2.16,3,3.01,1.17,1.23.23,3.97-1.64,4.72-17.31,6.95-35.19,13.66-52.37,19.88-10.39,3.76-17.69-4.74-18.42-14.32-.49-6.45-.62-14.21-.36-19.52h0Z"/>
      <path class="cls-42" d="M1071.44,1643.54c-1.12-.63-.66-2.92.7-3.38,18.04-6.02,36.13-11.87,54.26-17.62,11.14-5.75,13.05,5.99,12.86,13.37-.19,7.81.73,17.18.82,25.19.1,8.85-7.69,14.08-15.37,17.2-15.55,6.3-31.33,12.5-47,18.72-1.29.5-2.07-1.02-1.22-2.35,1.73-2.71,3.84-6.92,5.65-12.82,4.06-13.22,2.7-30.79-10.71-38.32h0Z"/>
      <path class="cls-56" d="M1079.57,1673.28c-.69,7.91-3.26,17.31-7.36,24.24-1.2,2.04-2.55,3.93-4.06,5.54-6.66,7.12-20.27,13.56-29.04,10.17-.12-.05-.26-.12-.37-.19-11.96-7.51-12.95-26.49-10.78-39.42,1.38-8.17,5.54-17.18,11.57-23.51,6.74-7.08,18.4-10.6,26.97-6.41,9.24,4.51,14,19.09,13.08,29.58h-.01Z"/>
      <path class="cls-40" d="M1033.28,1680.65c1.33-1.88,6.27-11.73,7.95-16.13,1.68-4.41,8.81-12.02,11.17-12.18,2.36-.15,11.44.64,12.95,6.87,1.52,6.24,3.63,12.66,6.61,12.75,2.98.09.15,15.62-1.95,19.57-2.1,3.94-4.05-.26-6.2-1.88-2.16-1.63-12.43.52-13.93.48-1.51-.05-2.3,2.75-1.57,5.62.73,2.86-.01,6.34-1.41,8.19-1.4,1.84-3.22,5.17-4.28,4.94-1.04-.23-5.17.1-6.45-3.91-1.27-4.01.45-9.74-2.15-10.66-2.61-.91-4.93-7.69-.74-13.64v-.02Z"/>
      <path class="cls-42" d="M1072.2,1697.52c-1.19,2.04-2.55,3.93-4.05,5.54-6.67,7.12-19.3,13.11-29.05,10.17,2.27-2.75,5.71-8.41,6.45-13.89.98-7.37-.68-15.19-2.17-15.26-1.5-.06-3.08-4.41-1.71-6.15,1.36-1.75-.2-9.68,2.35-15.02,1.39-2.9,5.34-6.31,8.12-7.27,2.79-.95,7.66.55,9.72,2.31,2.07,1.77,5.47,11.25,5.46,15.97,0,7.29-2.18,13.62-4.63,15.29-4.54,3.1-3.73,9.52-.13,8.43,1.32-.4,7.66-.09,9.64-.13h0Z"/>
      <path class="cls-40" d="M981.06,1693.31c3.87-6.69,10.39-11.95,18.54-11.7,8.15.26,9.93,8.3,9.09,14.14-.83,5.84-5.09,14.19-14.12,17.67-7.5,2.9-13.15-.09-14.96-3.22-2.16-3.72-3.03-9.16,1.45-16.9h0Z"/>
      <path class="cls-40" d="M1093.11,1654.04c2.72-5.67,8.04-10.26,16.16-10.35,8.12-.09,10.56,6.54,9.98,11.48-.58,4.94-4.51,12.19-12.47,15.37-6.6,2.63-11.57.18-13.38-2.39-2.16-3.06-3.45-7.55-.3-14.1h.01Z"/>
      <path class="cls-50" d="M1083.35,1637.88s-.05,4.03.34,4.17c6.72,2.28,38.61-7.93,46.04-14.89.59-.55.6-4.35-.55-3.99-15.2,4.71-30.92,8.92-45.83,14.71h0Z"/>
      <path class="cls-50" d="M1107.79,1674.79s.33,6.21.68,6.41c2.31,1.3,21.95-5.24,24.36-9.11.49-.78-.06-6.48-.63-6.29-7.98,2.8-16.72,5.17-24.42,8.99h.01Z"/>
      <path class="cls-50" d="M979.86,1723.76s-.11,9.33.3,9.59c2.28,1.48,24.69-6.03,27.31-10.73.66-1.17-.13-9.52-.68-9.31-8.71,3.33-18.52,5.98-26.93,10.45h0Z"/>
      <path class="cls-50" d="M1088.9,1642.58s.04,3.89.36,4.01c4.49,1.77,29.76-6.11,34.66-11.4.46-.49.33-4.11-.5-3.84-11.46,3.6-23.25,6.89-34.52,11.23h0Z"/>
      <path class="cls-12" d="M971.18,1681.37s-.37,4.46-.03,4.61c4.63,1.98,32.43-6.31,37.4-12.11.47-.56.39-4.64-.36-4.4-12.21,3.95-24.93,7.3-37.01,11.9Z"/>
      <path class="cls-38" d="M941.67,1663.07v103.93l-5.91-3.51-4.57-2.73-3.71-2.2-4.39-2.62-13.3-7.91v-99.84l2.54,1.2,4.81,2.23,10.48,4.89,2.72,1.27,11.33,5.29Z"/>
      <path class="cls-57" d="M1000.72,1642.93l-1.39,102.69-2.99,1.16-11.43,4.45-5.13,2,.51-102.42-26.87-15.54,4.77-1.39,11.22-3.26h.01l3.38-.97,27.92,13.28Z"/>
      <path class="cls-57" d="M1118.03,1606.15l-2.05,92.69-2.32.95-10.11,4.15-4.12,1.69.15-93.57-26.36-12.48,3.63-1.2,9.32-3.1,2.87-.96,28.99,11.83Z"/>
      <path class="cls-52" d="M984.91,1649.28v101.95l-5.13,2,.51-102.42-26.87-15.54,4.77-1.39,26.72,15.4Z"/>
      <path class="cls-52" d="M1000.72,1642.93l-1.39,102.69-2.99,1.16,1.31-101.88-28.23-14.28,3.38-.97,27.92,13.28Z"/>
      <path class="cls-52" d="M1103.98,1610.31l-.43,93.63-4.12,1.69.15-93.57-26.36-12.48,3.63-1.2,27.13,11.93Z"/>
      <path class="cls-52" d="M1118.03,1606.15l-2.05,92.69-2.32.95.42-92.11-27.91-12.4,2.87-.96,28.99,11.83Z"/>
      <g class="cls-44">
        <path class="cls-53" d="M980.29,1650.81l20.42-7.88-1.39,102.69-2.99,1.16-11.43,4.45-5.13,2,.51-102.42Z"/>
      </g>
      <g class="cls-44">
        <path class="cls-53" d="M1118.03,1606.15l-2.05,92.69-2.32.95-10.11,4.15-4.12,1.69.15-93.57,18.45-5.91Z"/>
      </g>
      <path class="cls-36" d="M989.74,1630.8c5.89.39,12.79-2.34,18.43-3.92,6.82-1.91,13.57-4.08,20.35-6.11,6.51-1.95,13.02-3.9,19.53-5.85,3.26-.98,6.52-1.94,9.76-2.94,2.77-.86,5.48-1.4,7.51-3.54.54-.57.35-1.63-.48-1.81-5.29-1.19-12.08,2.36-17.13,3.89-6.77,2.07-13.54,4.13-20.32,6.2-6.5,1.99-13.02,3.91-19.5,5.95-3.24,1.02-6.44,2.22-9.64,3.36-3.04,1.08-6.17,1.89-8.76,3.86-.38.29-.26.87.24.9h0Z"/>
      <path class="cls-36" d="M1024.87,1629.11c10.1-1.42,20.08-5.08,29.79-8.09,4.8-1.48,9.52-3.13,14.26-4.79,3.47-1.21,8.98-1.76,10.69-5.31.28-.57.2-1.39-.44-1.7-3.62-1.75-8.02,1.03-11.57,2.25-5.02,1.73-10.01,3.46-14.96,5.37-9.32,3.59-19.29,6.85-27.93,11.91-.22.12-.06.4.15.37h.01Z"/>
      <path class="cls-36" d="M950.08,1641.98c-6.49,3.82-15.19,5.08-22.45,6.98-3.45.9-6.91,1.77-10.36,2.63l-4.79-2.24c1.02-.21,2.05-.39,3.01-.63,3.77-.94,7.53-1.9,11.28-2.88,7.3-1.9,15.34-5.25,22.88-5.44.86-.02,1.14,1.16.43,1.58h0Z"/>
      <path class="cls-36" d="M960.28,1648.64c-5.18,2.64-10.89,3.79-16.45,5.42-4.29,1.27-8.78,3.16-13.31,3.69l-2.81-1.31c4.23-2.88,9.59-3.94,14.45-5.34,5.84-1.68,11.69-3.69,17.82-3.58.58,0,.86.83.3,1.12Z"/>
      <path class="cls-36" d="M1139.13,1589.31c-2.21.43-4.43.75-6.31,1.21-6.05,1.5-12.14,2.76-18.21,4.19-.21.05-.37-.27-.15-.36,5.53-2.34,11.06-4.65,16.79-6.45.56-.17,1.15-.38,1.75-.6,1.97.68,4.05,1.36,6.13,2.02h0Z"/>
      <path class="cls-20" d="M931.19,1760.76c-.03-2.57.12-5.15.04-7.38-.21-6.24-.39-12.48-.47-18.72-.17-12.04-.18-23.94,1.65-35.85.07-.43.67-.26.71.1,1.39,11.9,1.31,23.77,1.5,35.75.1,5.96.22,11.91.4,17.86.1,3.22.8,7.26.74,10.97l-4.57-2.73Z"/>
      <path class="cls-20" d="M927.47,1758.56l-4.39-2.62c.02-2.65.03-5.3.1-7.95.23-8.24.77-16.34,1.48-24.55.07-.78,1.14-.76,1.21,0,.85,8.21,1.43,16.29,1.6,24.55.07,3.53.03,7.05,0,10.57Z"/>
      <path class="cls-20" d="M915.54,1720.52c.56-9.37,1.3-18.65,1.55-28.04.12-4.53.29-9.06.5-13.59.22-4.74.94-9.69.57-14.42-.13-1.61-2.64-2.2-3.01-.4-1.81,8.79-1.24,18.6-1.45,27.57-.23,9.74.39,19.19,1.2,28.88.03.41.62.42.64,0h0Z"/>
      <path class="cls-8" d="M1152.43,1446.45c4.66,10.66-15.52,29.7-45.06,42.54-.84.37-1.69.73-2.54,1.07-7.03,2.92-13.92,5.2-20.39,6.82h0c-3.35.86-6.59,1.53-9.68,2.02-2.74.44-5.36.73-7.82.89-2.38.14-4.62.16-6.68.03-3.43-.19-6.4-.76-8.79-1.71-1.27-.5-2.4-1.11-3.33-1.83-1.18-.91-2.07-1.98-2.63-3.22l-.06-.12c-3.06-6.99,4.57-17.58,18.51-27.68,6.85-4.95,15.22-9.78,24.59-14,.64-.29,1.29-.58,1.95-.87,5.28-2.29,10.5-4.23,15.54-5.81,1.44-.45,2.87-.88,4.29-1.27,2.14-.59,4.24-1.12,6.29-1.58h.03c.96-.22,1.91-.43,2.84-.61,2.23-.44,4.39-.79,6.47-1.05,4.06-.52,7.8-.7,11.13-.54,7.9.36,13.47,2.64,15.34,6.9v.02Z"/>
      <path class="cls-43" d="M1145.21,1429.95l7.22,16.49c.92,2.11.87,4.56-.03,7.21-.51,1.48-1.28,3.03-2.3,4.63-1.04,1.64-2.34,3.32-3.87,5.03-.95,1.06-1.99,2.14-3.11,3.22-1.99,1.9-4.25,3.83-6.75,5.75-1.27.99-2.6,1.96-3.99,2.93-1.98,1.38-4.07,2.75-6.27,4.09-1.4.86-2.83,1.7-4.31,2.53-1.7.96-3.45,1.9-5.25,2.82-1.33.68-2.69,1.35-4.07,2.01-1.66.79-3.37,1.57-5.11,2.33l-.5.22c-.68.28-1.36.57-2.04.85-.6.25-1.2.5-1.8.73-2.3.93-4.59,1.78-6.85,2.57-1.4.49-2.79.95-4.18,1.39-1.91.6-3.8,1.15-5.67,1.65-.64.17-1.27.34-1.9.49h0c-.79.21-1.58.4-2.35.58-1.64.38-3.25.71-4.82,1-.85.16-1.69.3-2.52.43-.55.09-1.11.17-1.65.25-1.98.28-3.89.48-5.71.61-.15.01-.31.03-.45.03-1.38.09-2.71.13-4,.12-.92,0-1.82-.03-2.69-.08-1.02-.06-2.01-.15-2.95-.28-1.3-.17-2.52-.41-3.64-.72-.77-.2-1.51-.44-2.19-.71l-5.97-5.06h-.01l-7.26-16.6,106.99-46.51Z"/>
      <path class="cls-19" d="M1057.3,1499.55c-1.31-.17-2.52-.41-3.65-.72-1.2-3.04-2.4-6.09-3.63-9.12-.99-2.48-1.99-4.93-2.94-7.42-.66-1.7-1.83-3.43-1.31-5.26.03-.12.21-.19.33-.14,1.8.89,2.38,3.22,3.22,4.94,1.11,2.24,2.14,4.51,3.18,6.79,1.64,3.63,3.24,7.27,4.8,10.93Z"/>
      <path class="cls-19" d="M1067.38,1499.76c-.14.01-.3.03-.44.03-1.38.09-2.72.13-4,.12-.33-.95-.64-1.87-.96-2.68-1.15-2.87-2.29-5.75-3.42-8.63-1.2-3.04-2.3-6.09-3.39-9.16-.73-2.04-2.51-4.78-1.81-6.95.03-.09.15-.14.24-.11,2.13,1.06,2.93,4.51,3.96,6.53,1.47,2.9,2.87,5.83,4.24,8.79,1.36,2.95,2.7,5.91,4.03,8.87.46,1.03,1.03,2.1,1.55,3.2h0Z"/>
      <path class="cls-19" d="M1077.15,1498.22l.11.25c-.84.16-1.69.3-2.51.43-.56.09-1.11.17-1.65.25-1.43-3.32-2.83-6.66-4.19-10.01-1.48-3.58-2.97-7.15-4.35-10.77-1.21-3.19-2.77-6.5-3.36-9.87-.13-.68.81-1.08,1.23-.54,2.16,2.84,3.59,6.41,5.17,9.6,1.65,3.33,3.19,6.72,4.76,10.08,1.63,3.51,3.23,7.04,4.81,10.57h-.02Z"/>
      <path class="cls-19" d="M1086.34,1496.4c-.64.17-1.27.34-1.9.49h0c-.79.21-1.57.4-2.35.58-1.79-3.95-3.43-7.99-5.1-11.93-1.46-3.45-2.86-6.91-4.12-10.43-1.17-3.27-2.54-6.64-3.08-10.06-.1-.63.81-1.08,1.19-.52,1.94,2.87,3.29,6.19,4.78,9.32,1.61,3.38,3.15,6.78,4.69,10.19,1.88,4.14,3.95,8.23,5.91,12.36h-.01Z"/>
      <path class="cls-19" d="M1096.19,1493.36c-1.41.49-2.79.95-4.18,1.39-.21-.52-.41-1.03-.62-1.52-1.5-3.43-2.96-6.91-4.43-10.36-1.53-3.6-3.06-7.21-4.46-10.86-1.23-3.22-2.85-6.64-3.29-10.07-.1-.79.91-1.23,1.43-.62,2.32,2.77,3.78,6.46,5.36,9.67,1.66,3.38,3.2,6.81,4.74,10.24,1.6,3.57,3.22,7.13,4.79,10.72.2.46.42.93.66,1.41Z"/>
      <path class="cls-19" d="M1106.87,1489.21c-.68.28-1.36.57-2.04.85-.6.25-1.2.5-1.8.73-1.72-3.43-3.42-6.87-5.05-10.35-3.28-7.02-7.31-14.28-9.32-21.78-.18-.66.85-1.07,1.23-.54,2.18,3.03,3.85,6.55,5.59,9.85,1.88,3.54,3.75,7.07,5.66,10.6,1.91,3.52,3.79,7.06,5.7,10.58.01.02.03.04.03.06h0Z"/>
      <path class="cls-19" d="M1116.55,1484.65c-1.33.69-2.69,1.35-4.07,2.01-.38-.8-.75-1.61-1.12-2.42-1.62-3.51-3.23-7.01-4.81-10.54-3.22-7.21-6.28-14.45-8.67-21.99-.2-.64.69-1.35,1.12-.68,4.22,6.61,7.79,13.54,11.23,20.57,1.76,3.61,3.49,7.24,5.2,10.87.33.71.72,1.44,1.11,2.19h.01Z"/>
      <path class="cls-19" d="M1126.11,1479.3c-1.4.86-2.83,1.7-4.31,2.53-2.12-4.91-4-9.95-6.12-14.82-1.53-3.53-3.06-7.05-4.55-10.58-.78-1.84-1.54-3.69-2.3-5.54-.59-1.44-1.37-2.91-1.52-4.47-.01-.15-.03-.3-.03-.46,0-.25.26-.47.49-.29.16.11.3.24.44.36,1.06.98,1.73,2.33,2.46,3.56.95,1.6,1.9,3.19,2.8,4.81,1.95,3.49,3.82,7.05,5.62,10.62,2.34,4.67,4.85,9.42,7.02,14.27h0Z"/>
      <path class="cls-19" d="M1132.38,1475.21l-.16-.35c-.76-1.71-1.54-3.4-2.28-5.12-1.47-3.43-2.86-6.92-4.2-10.4-2.29-5.92-4.76-11.97-6.37-18.15-.29-1.11-.55-2.22-.79-3.34-.13-.65.74-.75,1.01-.29.57.93,1.11,1.87,1.63,2.83,3.15,5.71,5.68,11.86,8.44,17.75,1.65,3.53,3.32,7.05,4.93,10.6.49,1.1,1.16,2.3,1.79,3.54-1.27.98-2.6,1.95-4,2.93h0Z"/>
      <path class="cls-19" d="M1146.22,1463.32c-.95,1.06-1.98,2.13-3.11,3.21-1.53-1.74-2.58-4.37-3.54-6.1-1.8-3.22-3.43-6.55-4.96-9.9-1.94-4.23-4.08-8.88-5.47-13.59-.67-2.24-1.16-4.5-1.39-6.73-.05-.46.62-.86.91-.4,1.2,1.9,2.16,3.94,3.08,6,.49,1.08.97,2.17,1.47,3.24,1.51,3.21,3.08,6.38,4.7,9.54,1.61,3.16,3.35,6.25,5.11,9.34.97,1.7,1.98,3.38,3,5.07.07.11.14.21.2.32h0Z"/>
      <path class="cls-19" d="M1152.4,1453.66c-.51,1.48-1.28,3.03-2.3,4.63-2.18-4.01-3.98-8.32-5.84-12.37-1.98-4.34-3.76-8.74-5.32-13.24-.59-1.7-1.14-3.42-1.66-5.16-.23-.75.74-1.19,1.13-.49.87,1.58,1.73,3.17,2.58,4.77,2.16,4.07,4.25,8.18,6.3,12.31,1.59,3.19,3.4,6.35,5.1,9.55h.01Z"/>
      <path class="cls-8" d="M1145.21,1429.95c4.66,10.66-15.51,29.7-45.05,42.54-.85.37-1.7.73-2.54,1.08-7.04,2.92-13.93,5.2-20.39,6.82h-.01c-3.35.85-6.6,1.52-9.69,2.02-2.74.43-5.35.73-7.81.88-2.38.15-4.62.16-6.69.04-5.25-.31-9.43-1.48-12.11-3.54-1.22-.93-2.12-2.05-2.69-3.34-4.55-10.42,14.63-28.86,43.11-41.67.64-.29,1.29-.58,1.95-.87,5.27-2.29,10.5-4.23,15.53-5.81,1.45-.46,2.88-.88,4.3-1.27,2.13-.6,4.24-1.13,6.28-1.58l.04-.02c3.25-.72,6.36-1.27,9.31-1.64,4.06-.52,7.8-.7,11.13-.55,7.9.36,13.46,2.64,15.33,6.91h0Z"/>
      <path class="cls-9" d="M1138.15,1447.76c-3.63,3.92-7.88,7.28-12.26,10.35-16.21,11.37-34.75,19.44-54.15,23.47-7.57,1.57-15.41,2.54-23.03,1.22-4.63-.79-9.73-3.06-10.89-7.6-.51-1.98-.15-4.08.51-6.01,1.62-4.7,4.95-8.58,8.45-12.01,13.62-13.33,31.17-21.95,49.07-28.06,11.53-3.93,23.69-6.73,35.95-5.87,2.74.19,5.52.58,8.02,1.73s4.71,3.15,5.58,5.76c1.21,3.66-.4,7.65-2.49,10.91-1.4,2.18-3,4.21-4.76,6.11h0Z"/>
      <path class="cls-2" d="M1098.65,1468.81c27.65-12.02,46.78-29.3,42.71-38.6-4.07-9.3-29.79-7.1-57.45,4.92-27.66,12.02-46.78,29.31-42.71,38.61,4.07,9.3,29.79,7.1,57.45-4.93Z"/>
      <path class="cls-9" d="M1096.12,1463.04c22.66-9.85,38.63-23.31,35.68-30.07-2.96-6.75-23.73-4.24-46.39,5.61-22.66,9.85-38.63,23.31-35.68,30.06,2.96,6.76,23.72,4.25,46.39-5.6Z"/>
      <path class="cls-25" d="M1075.6,1447.61c-.51-.72-1.75-.69-2.54-.78-1.01-.1-2-.11-3-.1s-1.88.75-1.91,1.78c-.03.9.78,1.97,1.78,1.9,1.18-.09,7.49-.3,5.68-2.8h-.01Z"/>
      <path class="cls-25" d="M1111.65,1450.02c-5.04,5.49-14.97,10.84-16.97,11.29-1.01.23-1.82-.42-2.33-1.19-.49-.76-.68-1.65-.48-1.98.43-.66,13.02-5.56,15.02-9.42.2-.41.34-.77.43-1.09.72-2.71-2.73-2.43-4.83-1.53-2.35,1-12.76,5.89-17.07,8.74-3.94,2.62-9.94,6.84-13.65,5.84h-.01c-.34-.09-.67-.23-.97-.42-3.55-2.25-2.6-6.68-.48-9.53,2.12-2.84,9.95-8.44,13.64-9.83,2.76-1.05,4.09-.81,4.72-.35.2.16.34.34.42.51.53,1.04.37,1.57-1.53,1.98-1.9.41-5.73,2.42-10.01,6.69-2.57,2.57-3.97,4.14-4.2,4.95-.17.53.18.73,1.04.65,2.14-.2,7.03-3,11.23-5.93,2.4-1.68,14.53-8.18,18.96-8.8,3.15-.43,7.95,1.75,8.64,5.01.28,1.33-.11,2.83-1.57,4.41h0Z"/>
      <path class="cls-41" d="M1080.65,1444.31c-6.52,4.02-8.29,6.62-9.13,7.95-.84,1.32-2.43,6.02.25,8.41h.01c-.35-.09-.68-.23-.99-.43-3.55-2.24-2.59-6.68-.47-9.52,2.12-2.84,9.95-8.44,13.63-9.83,2.77-1.05,4.09-.81,4.72-.35-.77.1-3.02.68-8.02,3.77Z"/>
      <path class="cls-41" d="M1113.23,1445.6l-.09.06s-2-2.9-5.86-3.24c-3.86-.35-11.59,3.37-15.34,5.41-3.76,2.05-11.07,6.96-12.75,7.76-1.68.8-4.86,1.59-5.77,1-.85-.53-.52-1.34-.07-1.93-.16.53.19.73,1.04.65,2.15-.2,7.04-3,11.23-5.93,2.41-1.68,14.53-8.18,18.97-8.8,3.15-.43,7.95,1.75,8.64,5.02h0Z"/>
      <path class="cls-41" d="M1105.53,1451.77c-2.79,2.86-10.54,7.26-13.17,8.35-.49-.76-.69-1.65-.48-1.98.42-.66,13.02-5.56,15.01-9.42.21-.41.35-.77.43-1.09.25.41.62,1.67-1.79,4.14Z"/>
      <path class="cls-55" d="M1106.8,1446.39c-1.77-1.43-3.7-.95-5.77-.36-3.38.96-6.61,2.44-9.62,4.22-3.14,1.85-6.18,3.89-9.15,6-3.51,2.49-6.49,5.15-11.04,4.56-.33-.04-.43.4-.25.61,1.35,1.47,3.3,1.28,5.11.62,3.32-1.23,6.51-3.68,9.46-5.59,3.06-1.98,6.12-3.94,9.29-5.74,2.69-1.52,8.61-5.71,11.71-3.98.21.12.46-.18.26-.34h0Z"/>
      <path class="cls-25" d="M1107.05,1452.98c.72.57,1.92.47,2.8.48,1.05.01,2.1,0,3.15-.02,2.22-.04,1.97-3.38-.29-3.06-1.03.15-2.07.31-3.09.48-.88.15-2.04.24-2.68.92-.36.38-.3.88.11,1.2h0Z"/>
      <path class="cls-55" d="M1074.31,1453.83c2.51-1.97,4.75-4.13,7.51-5.75,2.54-1.49,5.22-2.65,7.86-3.93.89-.43.26-1.98-.68-1.61-5.38,2.07-12.31,5.66-14.87,11.15-.05.12.08.23.19.14h0Z"/>
      <g class="cls-45">
        <path class="cls-35" d="M1138.15,1447.77l-85.08,3.8c3.6-2.87,7.75-5.74,12.33-8.49l80.48-9.62c-.08,4.16-2.86,9.12-7.73,14.31Z"/>
      </g>
      <g class="cls-45">
        <path class="cls-35" d="M1125.04,1458.82c-4.8,3.34-10.29,6.6-16.29,9.65l-64.7-8.44c1.24-1.43,2.65-2.86,4.2-4.31l76.8,3.1h-.01Z"/>
      </g>
    </g>
  </g>
  <path class="cls-14" d="M1226.77,204c0,16.57,13.43,30,30,30h89.23c16.57,0,30,13.43,30,30v37c0,16.57-13.43,30-30,30h-347c-16.57,0-30-13.43-30-30v-116c0-16.57,13.43-30,30-30h197.77c16.57,0,30,13.43,30,30v19Z"/>
  <g class="cls-28">
    <g>
      <path d="M244.1,1921.7s-21.74-30.47-77.41-.32c-55.67,30.16-32.03,168.62-32.03,168.62l104.73-13.5,4.71-154.8Z"/>
      <path class="cls-48" d="M225.87,2002.59l-2.46,39.87s6.2,11.87,28.46,15.13c16.6,2.43,22.43-6.18,22.43-6.18l-1.87-35.12-39.87-11.69-6.69-1.98v-.03Z"/>
      <path d="M226.07,2000.16c0,1.11.35,2.39.87,3.92,7.31,20.44,36.95,30.54,46.56,31.99l-1.07-19.81-46.35-16.1Z"/>
      <path class="cls-48" d="M286.6,1925.89s16.99,51.19,7.35,78.5c-9.64,27.31-33.69,21.03-47.87,14.54-14.18-6.49-20.24-16.34-20.24-16.34,0,0-14.01,3.78-22.08-10.14-8.08-13.91-1.32-28.59,6.73-31.47,8.04-2.88,16.85,3.68,16.85,3.68l-6.14-14.96s36.19-70.93,65.41-23.81Z"/>
      <path d="M279.7,1988.91c.69,0,1.35-.41,1.63-1.11,4.05-10.37-2.25-21.79-2.53-22.28-.49-.83-1.52-1.14-2.36-.66-.83.46-1.14,1.53-.66,2.36.07.11,5.75,10.48,2.32,19.33-.35.91.1,1.91.97,2.26.21.07.42.14.62.14v-.04Z"/>
      <path d="M223.51,1987.91c.38,0,.73-.11,1.04-.35.76-.59.9-1.67.31-2.43l-11.75-15.34c-.59-.76-1.66-.9-2.43-.31-.76.59-.9,1.67-.31,2.43l11.75,15.34c.35.45.87.69,1.39.69v-.03Z"/>
      <path d="M210.16,1982.94l9.19-.65c.97-.07,1.66-.91,1.59-1.88-.07-.97-.97-1.7-1.84-1.59l-9.05.65c-.97.07-1.66.91-1.59,1.88.07.9.83,1.59,1.73,1.59h-.04Z"/>
      <path d="M292.36,1949.11c.76,0,1.46-.52,1.66-1.28.24-.94-.31-1.88-1.21-2.12l-8.32-2.26c-.94-.24-1.87.32-2.11,1.22-.24.94.31,1.87,1.21,2.12l8.32,2.25s.31.07.45.07Z"/>
      <path d="M256.72,1951.85s.28,0,.42-.07l11.79-3.05c.94-.24,1.49-1.18,1.25-2.12-.24-.94-1.18-1.49-2.12-1.25l-11.79,3.06c-.94.24-1.49,1.18-1.25,2.11.21.8.9,1.29,1.66,1.29l.04.03Z"/>
      <path d="M290.59,1969.45h.35c.94-.18,1.56-1.11,1.35-2.05l-1.7-8.3,2.32-2.46c.66-.69.62-1.8-.07-2.46-.69-.66-1.8-.63-2.46.07l-2.91,3.12c-.38.42-.55.97-.42,1.53l1.87,9.16c.17.83.87,1.39,1.7,1.39h-.03Z"/>
      <path d="M264.35,1969.79h.35c.94-.17,1.56-1.11,1.35-2.04l-1.7-8.26,3.4-3.47c.66-.7.66-1.77,0-2.47-.69-.66-1.8-.66-2.46,0l-4.02,4.13c-.42.42-.59,1.01-.45,1.56l1.87,9.16c.17.84.87,1.39,1.7,1.39h-.04Z"/>
      <path class="cls-26" d="M274.82,2058.53s4.26-21.17-1.28-22.46c-5.58-1.28-12.17,2.36-25.2-.86-13-3.23-19.79-8.12-23.95-8.33-4.16-.25-2.88,26.44-2.88,26.44l32.14,13.6,21.15-8.32.04-.07Z"/>
      <path d="M208.22,1962.19s6.27-2.25,10.95-1.32c4.72.91,8.18,3.82,8.18,3.82l5.75,7.98-3.22-16.38s4.19-2.25,10.43-4.82l-2.15-14.12,5.75,12.73c5.96-2.22,13.14-4.37,20.25-5.13,3.85-.46,7.28-.63,10.26-.66l-1.91-15.38,5.76,15.41c7.66.21,11.54,1.32,11.54,1.32l5.17,15.86s1.28-42.75-17.23-54.48c-18.51-11.73-52.21-11.8-67.77,8.43-15.57,20.23-1.77,46.78-1.77,46.78v-.04Z"/>
      <path d="M266.5,1999.5c.87,0,1.63-.66,1.73-1.56.1-.94-.59-1.81-1.52-1.91-.24,0-4.96-.73-8.42-7.43-.45-.83-1.49-1.18-2.32-.73s-1.18,1.49-.73,2.36c4.4,8.43,10.85,9.23,11.13,9.27h.21-.07Z"/>
      <path class="cls-26" d="M114,2125.99c29.47,31.4,71.34,51.01,117.76,51.01,53.46,0,100.84-25.96,130.24-65.97-14.56-18.04-46.04-50.91-87.67-59.62-54.43-11.41-131.66.97-160.33,74.58Z"/>
      <path class="cls-35" d="M242.3,2048.6c.97,0,1.73-.76,1.73-1.73s-.76-1.74-1.73-1.74c-.1,0-9.19-.07-18.17-4.27-.87-.41-1.91,0-2.29.84-.42.86,0,1.9.83,2.29,9.67,4.54,19.24,4.58,19.62,4.58v.03Z"/>
    </g>
  </g>
  <rect class="cls-15" x="890" y="706" width="57" height="181" rx="10" ry="10"/>
  <path class="cls-49" d="M438,2963c16.57,0,30,13.43,30,30v236h501c16.57,0,30,13.43,30,30v82h62c11.05,0,20,8.95,20,20v158c0,11.05-8.95,20-20,20h-62v209.05l83.37-77.93c11.82-11.41,43.13-27.39,73.88,0l36.75,34.36c7.71,7.2,20.3,1.74,20.3-8.82,0-6.66,5.41-12.06,12.07-12.06h41.21c11.04,0,20,8.95,20,20v76.28c0,5.54,2.3,10.83,6.34,14.62l67.94,63.49c1.33,1.24,2.49,2.64,3.38,4.22,12.99,23.02,24.86,69.32-20.46,91.36-2.43,1.19-5.14,1.71-7.85,1.71h-5.33c-11.04,0-20,8.96-20,20v105.91c0,1.01.09,2.01.19,3.02,1.3,13.49-6.04,37.79-45.83,37.79h-265.96v3c0,16.57-13.43,30-30,30H84c-16.57,0-30-13.43-30-30v-1132c0-16.57,13.43-30,30-30h354Z"/>
  <g class="cls-31">
    <g>
      <path class="cls-46" d="M1189.77,2238.49c2.72-9.7,5.27-19.45,8.2-29.08,3.91-12.87,16.75-22.34,30.2-22.66,3.62-.08,7.14.36,10.63,1.34,18.14,5.11,36.3,10.18,54.44,15.28,14.51,4.07,24.43,17.07,24.36,32.12-.01,2.79-.37,5.66-1.11,8.35-5.15,18.71-10.39,37.4-15.69,56.07-3.97,13.98-17.43,23.92-31.93,23.76-3.06-.03-6.06-.46-9-1.29-18.27-5.13-36.55-10.25-54.82-15.39-15.08-4.24-25.03-18.13-24.25-33.8.16-3.2.91-6.27,1.78-9.33,2.39-8.46,4.76-16.92,7.13-25.39.02.01.04.01.06.02h0ZM1299.86,2269.47c2.54-9.02,5.1-18.03,7.57-27.06.53-1.94.94-3.95,1.02-5.95.46-11.47-6.77-21.28-17.84-24.38-14.23-3.99-28.45-8-42.68-11.97-4.66-1.3-9.28-2.82-14.02-3.75-12.45-2.45-24.28,5.02-27.72,17.24-5.14,18.28-10.26,36.57-15.38,54.85-.36,1.29-.62,2.63-.75,3.96-1.2,11.84,5.99,22.6,17.35,25.81,18.35,5.19,36.72,10.33,55.09,15.46,3.5.98,7.08,1.23,10.65.48,9.69-2.03,16.17-7.74,18.99-17.27,2.69-9.11,5.15-18.28,7.72-27.42h0Z"/>
      <path class="cls-46" d="M1217.79,2246.39c4.86-17.34,22.92-27.45,40.31-22.57,17.23,4.84,27.32,22.88,22.46,40.19-4.88,17.38-22.9,27.48-40.28,22.6-17.2-4.84-27.33-22.95-22.49-40.22h0ZM1226.63,2248.81c-3.53,12.48,3.68,25.47,16.07,28.97,12.54,3.56,25.56-3.69,29.09-16.17,3.52-12.47-3.75-25.5-16.19-29.01-12.48-3.53-25.45,3.73-28.97,16.21Z"/>
      <path class="cls-46" d="M1285.35,2230.21c1.23-4.01,5.25-6.1,9.3-4.85,3.79,1.17,5.92,5.26,4.75,9.14-1.18,3.9-5.3,6.04-9.27,4.81-3.83-1.19-5.96-5.25-4.78-9.1Z"/>
    </g>
  </g>
  <rect class="cls-17" x="463" y="2529" width="52" height="190" rx="10" ry="10"/>
  <g class="cls-29">
    <g>
      <path d="M701.84,396s-15.18-80.53,43.81-95.27c59-14.74,62.56,68.89,62.56,68.89,0,0,64.2,12.19,64.62,74.54.52,77.95-74.91,64.82-74.91,64.82l-71.44-29.05s-71.53-38.93-24.65-83.96v.03Z"/>
      <path class="cls-47" d="M878.83,496.56c-18.5,26.47-45.88,46.22-77.77,55.19-.67.18-1.37.36-2.04.55-11.59,3.07-23.79,4.71-36.36,4.71-49.02,0-92.25-24.83-117.66-62.6,19.05-26.01,42.93-45.7,59.18-52.69,24.04-10.33,62.16-17.26,97.36-7.2.09.03.21.03.34.06,10.59,3.04,20.87,7.6,30.46,14.07,20.72,13.98,35.81,30.21,46.49,47.92Z"/>
      <path class="cls-48" d="M734.79,410.04v.85l.73,16.23.52,12.73s-1.1,2.95,13.75,2.01c19.87-1.37,26.29-9.88,26.29-9.88l.85-29.84-6.02,1.15-36.09,6.78-.03-.03Z"/>
      <path d="M734.79,410.89l.73,16.23c9.65-1.18,27.23-5.35,34.35-20.51.55-1.25.91-2.34,1.04-3.25l-36.03,7.32-.06.24-.03-.03Z"/>
      <path class="cls-48" d="M728.49,333.25s-18.47,42.24-11.83,66c6.66,23.73,28.33,20,41.26,15.41,12.93-4.59,18.99-12.52,18.99-12.52,0,0,12.11,4.1,20.2-7.14,8.09-11.24,3.1-24.16-3.8-27.11s-15.12,2.04-15.12,2.04l6.45-12.28s-27.11-62.45-56.14-24.4Z"/>
      <path d="M734.24,326.99s-1.34,22.49,21.3,32.7c22.64,10.21,37.76,8.17,37.76,8.17l-1.46-29.32-28.36-30.75-25.35,8.05-3.92,11.12.03.03Z"/>
      <path d="M776.66,363.39l.09,12.82,11.38-11.24-11.47-1.58Z"/>
      <path class="cls-47" d="M884,488.69c-1.13,1.88-2.31,3.77-3.56,5.59-.52.76-1.03,1.52-1.61,2.28-18.5,26.47-45.88,46.22-77.77,55.19-.67.18-1.37.36-2.04.55l1.95-117.88s.21.03.58.09c.09.03.21.03.34.06,7,1.18,52.85,10.24,77.47,46.28,1.67,2.4,3.2,5.04,4.66,7.84Z"/>
      <path class="cls-21" d="M745.5,443.59c-8.95,0-15.64-1.61-16.19-1.73-.82-.21-1.31-1.03-1.13-1.85.21-.82,1.04-1.31,1.83-1.12.27.06,27.08,6.44,45.49-6.96.67-.49,1.64-.33,2.13.33.49.67.33,1.64-.33,2.13-10.1,7.35-22.27,9.18-31.83,9.18l.03.03Z"/>
      <path d="M723.26,348.65c-.64,0-1.25-.42-1.46-1.06-.24-.79.18-1.64,1-1.92l8.43-2.64c.79-.24,1.64.18,1.92,1,.24.79-.18,1.64-1,1.91l-8.43,2.64s-.3.06-.46.06Z"/>
      <path d="M779.06,389.62c-.4,0-.82-.15-1.13-.49-.58-.61-.52-1.58.09-2.16l13.05-11.97c.61-.58,1.58-.52,2.16.09.58.61.52,1.58-.09,2.16l-13.05,11.97c-.3.27-.67.39-1.03.39Z"/>
      <path d="M792.26,388.04c-.21,0-.39-.03-.61-.12l-7.79-3.4c-.76-.33-1.12-1.25-.79-2.01.33-.76,1.25-1.12,2.01-.79l7.79,3.4c.76.33,1.12,1.24.79,2.01-.24.58-.82.91-1.4.91Z"/>
      <path d="M725.84,369.99s-.21,0-.3-.03c-.82-.18-1.34-.97-1.19-1.79l1.55-7.48-3.07-3.52c-.55-.64-.49-1.58.15-2.16.64-.55,1.58-.49,2.16.15l3.56,4.1c.3.36.43.85.34,1.31l-1.7,8.21c-.15.73-.79,1.22-1.49,1.22Z"/>
      <path d="M751.37,371.26s-.21,0-.3-.03c-.82-.18-1.34-.97-1.19-1.79l1.55-7.48-3.07-3.52c-.55-.64-.49-1.58.15-2.16.64-.55,1.58-.49,2.16.15l3.56,4.1c.3.37.43.85.33,1.31l-1.7,8.21c-.15.73-.79,1.21-1.49,1.21Z"/>
      <path d="M730.89,388.52c-.7,0-1.34-.49-1.49-1.21-2.83-13.52,3.71-20.33,3.99-20.6.58-.61,1.55-.61,2.16,0,.61.58.61,1.55,0,2.16-.24.27-5.66,6.05-3.2,17.84.18.82-.36,1.64-1.19,1.79-.09,0-.21.03-.31.03h.03Z"/>
      <path d="M744.65,401.53c-.91,0-3.07-.43-7.58-5.41-.52-.58-.7-1.37-.52-2.1.21-.76.82-1.37,1.61-1.61,10.86-3.25,12.32-2.13,12.96-1.67.55.4,1.37,1.4.76,3.4-.82,2.76-4.29,7.17-6.97,7.35h-.27v.03ZM740.17,395c2.43,2.52,4.17,3.43,4.53,3.46.27-.03,1.28-.61,2.52-2.19,1.07-1.34,1.61-2.52,1.77-3.13-.88.09-3.56.33-8.82,1.82v.03Z"/>
      <path class="cls-21" d="M693.96,488.02c-.15.18-14.7,15.74-11.93,43.73-.88-.55-1.7-1.16-2.56-1.76-.24-.15-.46-.33-.7-.52-1.79-27.78,12.81-43.3,12.99-43.52.58-.61,1.52-.61,2.16-.06.61.58.61,1.55,0,2.16l.03-.03Z"/>
    </g>
  </g>
  <g class="cls-30">
    <path class="cls-37" d="M1268,2052.07l-7.11-32.04c2.91-.65,5.67-1.14,8.36-1.92.78-.22,1.91-1.24,1.9-1.87-.08-3.94-.44-7.87-.73-12.12l-13.1,2.9c-.42-4.53-1.73-8.87-.98-12.82,1.01-5.24,6.83-4.16,11.1-5.96-.72-3.24-1.41-6.58-2.25-9.88-.11-.44-1.13-1.01-1.63-.93-4.32.73-8.85.98-12.86,2.56-7.87,3.09-11.24,10.19-9.59,18.62.72,3.69,1.61,7.33,2.49,11.3l-11.39,2.52,2.94,13.28,11.18-2.48,7.12,32.13c-1.03.28-2.07.64-3.15.85-6.97,1.34-13.93,3.3-20.96,3.78-8.51.6-15.25-4.35-17.33-12.56-4.11-16.23-7.66-32.59-11.38-48.91-.62-2.74-1.08-5.54-1.44-8.34-1.28-10.1,3.61-18.22,13.59-20.67,18.42-4.5,36.94-8.63,55.53-12.31,10.58-2.09,18.94,3.62,21.41,14.12,4.3,18.23,8.31,36.52,12.13,54.85,2,9.58-2.91,18.09-12.18,20.95-6.98,2.14-14.26,3.28-21.69,4.93l.02.02Z"/>
  </g>
  <rect class="cls-17" x="551" y="2508" width="835" height="634" rx="30" ry="30"/>
  <g class="cls-33">
    <g>
      <path class="cls-47" d="M1266.31,3114.69c-12.51,3.44-25.65,5.31-39.09,5.31s-16.89-.62-25.02-2.19c-4.38-.62-8.44-1.56-12.51-2.81-5.63-1.56-10.95-3.43-16.26-5.31l10.32-104.02,56.29-13.43,22.51,6.56,3.76,115.58v.31Z"/>
      <path d="M1191.88,2900.08s-21.27-26.24-15.64-29.99,11.26,1.88,11.26,1.88c0,0,43.78-6.88,59.73-2.5,15.95,4.37,26.58,30.61,26.58,30.61,0,0,8.13-.62,11.26,10,3.44,10.93-20.01,64.35-35.02,61.54-15.02-2.81-58.17-71.85-58.17-71.85v.31Z"/>
      <path class="cls-48" d="M1249.73,2963.18l.63,36.55s-6.26,10.62-27.52,12.81c-15.95,1.56-21.58-1.87-21.58-1.87l1.88-18.43,1.87-18.12,38.47-9.37,6.57-1.57h-.32Z"/>
      <path d="M1243.48,2964.75c0,.93-.31,2.18-.94,3.43-7.82,18.43-30.02,22.81-39.09,23.74l1.88-18.12,38.46-9.37-.31.32Z"/>
      <path class="cls-48" d="M1195.32,2891.34s-18.14,45.92-10.01,71.22c8.13,25.3,31.27,20.3,44.72,14.99,13.76-5.31,20.02-14.05,20.02-14.05,0,0,13.13,4.06,21.26-8.44,8.13-12.49,2.5-25.93-5-29.05-7.51-2.81-16.26,2.81-16.26,2.81l6.56-13.43s-31.58-65.91-61.29-24.05Z"/>
      <path d="M1195.32,2891.34s14.07-5.63,20.33-.63c5.94,5,13.13,47.17,34.4,38.11,21.26-9.06,10.32-36.24,10.32-36.24,0,0-53.48-45.92-65.05-1.24Z"/>
      <path class="cls-26" d="M1203.14,2992.24s-6.57,61.53-13.76,123.07c-39.09-10.3-71.62-36.54-90.38-70.91,11.57-12.18,30.02-32.48,45.97-38.73,27.83-11.25,58.17-13.12,58.17-13.12v-.31Z"/>
      <path class="cls-35" d="M1218.46,3014.41c-9.38,0-16.89-2.18-17.51-2.18-.94,0-1.25-1.25-.94-1.88,0-.93,1.25-1.25,1.88-.93.31,0,31.27,8.74,47.53-10.31.63-.63,1.56-.63,2.19,0,.62.62.62,1.56,0,2.18-9.38,10.94-22.83,13.75-33.46,13.75l.31-.63Z"/>
      <path class="cls-26" d="M1362,3029.72c-16.89,41.24-52.22,73.1-95.69,84.97-3.13.94-5.94,1.56-9.07,2.19-4.38-48.11-6.88-132.14-6.88-132.14,0,0,63.17-3.44,111.64,44.98Z"/>
      <path d="M1251.61,2949.13c-.31,0-.63,0-.94-.32-.62-.62-.62-1.56,0-2.18l11.57-11.87c.63-.63,1.57-.63,2.19,0,.63.62.63,1.56,0,2.18l-11.57,11.87c0,.32-.63.63-1.25.63v-.31Z"/>
      <path d="M1267.25,2946h-.32l-10-2.5c-.94,0-1.26-.93-1.26-1.87s.94-1.25,1.88-1.25l10.01,2.5c.94,0,1.25.94,1.25,1.87,0,.63-.94,1.25-1.56,1.25Z"/>
      <path d="M1192.19,2911.95c-.31,0-.62,0-.94-.31-.62-.62-.93-1.56,0-2.19,0,0,3.13-4.06,10.64-3.12.93,0,1.56.94,1.25,1.87,0,.94-.94,1.57-1.88,1.25-5.63-.93-7.5,1.57-7.82,1.88,0,.31-.62.62-1.25.62Z"/>
      <path d="M1226.59,2912.26c-.31,0-.62,0-.94-.31-4.06-3.43-8.75-2.18-8.75-2.18-.94,0-1.57,0-1.88-.94,0-.94,0-1.56.94-1.88,0,0,6.25-1.56,11.57,2.82.62.62.62,1.56,0,2.18,0,.31-.63.63-1.25.63l.31-.32Z"/>
      <path d="M1193.76,2930.07c-.94,0-1.57-.94-1.57-1.56l.63-8.44c0-.93.94-1.56,1.56-1.56.94,0,1.56.94,1.56,1.56l-.62,8.44c0,.94-.63,1.56-1.56,1.56Z"/>
      <path d="M1218.77,2931.01c-.94,0-1.56-.94-1.56-1.56l.62-8.44c0-.94.94-1.56,1.57-1.56.94,0,1.56.94,1.56,1.56l-.62,8.44c0,.93-.63,1.56-1.57,1.56Z"/>
      <path d="M1199.7,2950.38c-.63,0-1.25-.32-1.57-.94-5.31-11.87,2.82-21.56,3.13-21.87.63-.62,1.56-.62,2.19,0,.62.63.62,1.56,0,2.19,0,.31-6.88,8.43-2.5,18.74.31.94,0,1.56-.94,2.19h-.63l.32-.31Z"/>
      <path d="M1209.7,2957.87c-.93,0-1.56-.62-1.56-1.56s.63-1.56,1.56-1.56c0,0,5.63,0,7.51-4.69.31-.93,1.25-1.25,2.19-.93.94.31,1.25,1.25.94,2.18-2.82,6.56-10.01,6.56-10.32,6.56h-.32Z"/>
    </g>
  </g>
  <g>
    <path class="cls-37" d="M1389,4041c16.57,0,30,13.43,30,30v574c0,16.57-13.43,30-30,30H298v52c0,11.05-8.95,20-20,20H73c-11.05,0-20-8.95-20-20v-76c0-.92.06-1.82.18-2.7-.12-1.08-.18-2.18-.18-3.3v-190c0-16.57,13.43-30,30-30h1054c16.57,0,30-13.43,30-30v-324c0-16.57,13.43-30,30-30h192Z"/>
    <rect class="cls-37" x="34" y="4821" width="1385" height="95" rx="40" ry="40"/>
  </g>
  <path class="cls-18" d="M823,3261c22.64,0,41,18.36,41,41v339c0,22.64-18.36,41-41,41h-321v239h353c22.64,0,41,18.36,41,41v119c0,22.64-18.36,41-41,41H123c-22.64,0-41-18.36-41-41v-119c0-3.64.48-7.16,1.37-10.52-.24-1.79-.37-3.62-.37-5.48v-644c0-22.64,18.36-41,41-41h699Z"/>
  <path class="cls-37" d="M928.16,3739.73c-7.34-18.7-4.8-26.29,1.82-35.32,5.1-6.99,8.65-13.38,5.98-20.18-2.67-6.8-9.78-9-16.42-6.39-6.49,2.54-10.7,9.55-7.82,17.33l-24.57,9.65c-8.61-22.83,4.22-39.65,24.47-47.6,22.41-8.8,42.88-4.35,50.59,15.27,5.1,12.98,1.3,23.75-6.63,34-6.4,8.22-8.6,14.43-4.71,24.32l.85,2.16-22.71,8.93-.85-2.17ZM954.78,3772.98c-7.73,3.03-16.49-.66-19.43-8.6-3.13-7.51.78-16.18,8.51-19.22,7.42-2.91,16.34.72,19.46,8.23,2.94,7.95-1.12,16.68-8.54,19.59Z"/>
  <path class="cls-37" d="M1212.38,3534.74c17.72-30.69,31.01-35.54,50.74-36.33,15.27-.65,27.99-2.78,34.44-13.94,6.45-11.17,1.67-23.4-9.24-29.7-10.66-6.15-24.95-4.25-32.53,8.29l-40.34-23.29c22.04-37,59.37-37.78,92.6-18.59,36.79,21.24,53.18,54.38,34.58,86.6-12.31,21.31-31.34,27.91-54.2,28.25-18.39.21-29.38,4.01-38.76,20.25l-2.05,3.55-37.29-21.53,2.05-3.56ZM1195.77,3608.04c-12.69-7.33-17.23-23.48-9.5-36.27,6.92-12.58,23.18-16.72,35.87-9.4,12.18,7.03,16.97,23.33,10.05,35.91-7.73,12.79-24.24,16.79-36.42,9.76Z"/>
  <rect class="cls-17" x="1000" y="3357" width="66" height="166" rx="10" ry="10"/>
  <g class="cls-32">
    <g>
      <path class="cls-47" d="M385.15,3093.07c-4.08-7.48-10.44-12.47-17.47-13.84-17.01-3.4-40.61-6.12-59.89-4.76-15.2,1.13-28.81,9.53-36.98,22.23-7.03,11.12-16.11,26.55-20.19,38.57.75.89,1.59,1.75,2.45,2.61l1.88,74.14h152.04l-1.88-77.86v-.68c-5.67-14.07-14.07-29.95-19.96-40.38v-.03Z"/>
      <path class="cls-21" d="M353.39,2986.22s-.91-5.9,4.76-3.63c5.67,2.49,3.18,8.39,0,7.71-3.18-.91-4.76-4.08-4.76-4.08Z"/>
      <path d="M364.28,3023.88s-.91,16.11-8.17,16.79c-7.26.68-17.92-8.4-17.92-8.4l4.99-18.15,21.1,9.76Z"/>
      <path class="cls-4" d="M308.93,3019.34s-23.59-7.71-27.22-17.7c-3.63-9.98,41.29,5.22,41.29,5.22l-14.07,12.48Z"/>
      <path class="cls-11" d="M343.18,3053.82l-1.82,25.64s-4.54,7.26-19.51,8.4c-11.12.9-14.97-1.82-14.97-1.82l1.59-12.7,1.59-12.48,26.77-5.67,6.12-1.37h.23Z"/>
      <path d="M337.06,3054.96c0,.68-.45,1.59-.68,2.49-5.67,12.48-21.33,15.2-27.68,15.66l1.59-12.48,26.77-5.67Z"/>
      <path class="cls-11" d="M305.3,3003s-13.61,31.54-8.39,49.24c5.22,17.69,21.1,14.74,30.85,11.34,9.53-3.4,14.07-9.53,14.07-9.53,0,0,9.08,2.95,14.97-5.44,5.9-8.4,2.27-17.93-2.95-20.2-5.22-2.26-11.34,1.59-11.34,1.59l4.76-9.07s-20.42-46.28-41.97-17.93Z"/>
      <path d="M343.18,3043.84c-.45,0-.68,0-.91-.45-.45-.46-.23-1.14.23-1.59l11.57-8.17c.45-.45,1.13-.22,1.59.23.45.45.23,1.13-.23,1.59l-11.57,8.16h-.68v.23Z"/>
      <path d="M353.62,3043.84h-.23l-7.49-2.04c-.68,0-.91-.68-.91-1.36s.68-.91,1.36-.91l7.49,2.04c.68,0,.91.68.91,1.36,0,.46-.68.91-1.13.91Z"/>
      <path d="M326.4,3018.21c-.45,0-.68,0-.91-.46-.91-1.36-2.04-2.04-3.18-2.27-1.82-.22-3.18.91-3.18.91-.45.45-1.14.23-1.59,0-.45-.45-.23-1.13,0-1.59,0,0,2.27-1.81,4.99-1.36,1.82.23,3.4,1.36,4.76,3.18.45.45.23,1.13,0,1.59,0,0-.45.22-.68.22l-.23-.22Z"/>
      <path d="M301.9,3015.94c-.23,0-.68,0-.91-.46-.45-.45-.23-1.13,0-1.59,1.59-1.13,2.95-1.81,4.31-1.58,1.36.22,2.04,1.36,2.04,1.36.23.45,0,1.13-.45,1.59-.45.22-1.13,0-1.59-.46,0,0,0-.22-.45-.22-.23,0-1.14,0-2.27,1.13,0,0-.45.23-.68.23Z"/>
      <path d="M306.21,3042.25c-.45,0-.91-.22-1.14-.9-1.82-6.81.68-13.62.91-13.84,0-.68.91-.91,1.36-.68.68,0,.91.9.68,1.36,0,0-2.27,6.58-.68,12.48,0,.68,0,1.13-.91,1.36h-.23v.22Z"/>
      <path d="M301.9,3027.96h-.23c-.68,0-.91-.91-.68-1.36l1.59-5.67c0-.68.91-.91,1.36-.68.68,0,.91.9.68,1.36l-1.59,5.67c0,.45-.68.91-1.14.91v-.23Z"/>
      <path d="M320.27,3028.64h-.23c-.68,0-.91-.91-.68-1.36l1.59-5.67c0-.68.91-.91,1.36-.68.68,0,.91.91.68,1.36l-1.59,5.67c0,.45-.68.91-1.13.91v-.23Z"/>
      <path d="M303.48,3007.54s1.82-2.49,8.17-2.49,9.98,4.53,9.98,4.53c0,0,.45,11.35,9.07,17.25,8.62,5.67,11.8,3.4,11.8,3.4l6.35-2.27,4.54-9.07-17.92-19.52-21.32-9.07-10.66,11.8v5.67-.23Z"/>
      <path d="M312.56,3049.51h-.68c-.68,0-1.13-.68-.91-1.13,0-.68.68-1.13,1.13-.91,0,0,5.22.46,7.26-4.08.23-.46.91-.91,1.59-.46.45.23.91.91.45,1.59-2.27,4.77-7.03,5.22-8.85,5.22v-.23Z"/>
      <path class="cls-21" d="M302.58,3000.74s8.85-25.41,40.61-19.97c31.76,5.45,21.1,45.6,21.1,45.6l-14.52-4.76-47.19-21.1v.23Z"/>
      <path class="cls-4" d="M293.5,2998.92s11.12.45,39.7,13.61c9.76,4.54,18.38,9.99,18.38,9.99,0,0-32.89-13.84-45.6-13.62-4.99,0-8.17,1.82-8.17,1.82l-4.31-11.8Z"/>
      <path class="cls-39" d="M316.87,3088.54c-5.67,0-9.53-.91-9.98-.91-.68,0-.91-.68-.91-1.36s.68-.91,1.36-.91c0,0,18.83,4.31,33.35-6.35.45-.46,1.13-.23,1.59.22.45.46.23,1.14-.23,1.59-8.62,6.35-18.15,7.72-25.41,7.72h.23Z"/>
      <path class="cls-5" d="M181.37,3015.53s-20.42-13.84-44.46-.46c-24.05,13.39-16.56,38.12-16.56,38.12,0,0-18.83,23.59-9.98,47.19,8.85,23.59,48.09,30.17,65.56,3.63,17.47-26.55-10.21-50.14-10.21-50.14,0,0,22.46,0,15.88-38.57l-.23.23Z"/>
      <path class="cls-48" d="M279.37,3139.45c-2.72,3.4-5.67,6.3-8.85,9.25-6.13,5.9-13.16,11.12-20.65,15.43,0-30.86,8.39-59.06,8.39-59.06.91,1.59,14.52,10.85,20.92,32.95l.18,1.43Z"/>
      <path class="cls-5" d="M237.4,3036.4s8.62-27,7.49-33.8c-1.13-6.81-29.72-15.66-52.4-4.99-22.68,10.66-24.27,40.38-19.06,52.63,13.16,31.76,40.61,17.24,40.61,17.24,0,0,43.56-13.38,23.37-31.08Z"/>
      <path class="cls-26" d="M270.52,3148.48c-6.12,5.89-13.16,11.11-20.64,15.42-15.43,8.85-33.35,13.84-52.4,13.84s-12.48-.45-18.6-1.59c-4.76-.9-9.53-2.04-14.07-3.4,1.13-22.46,2.72-45.6,4.54-61.25,1.13-9.99,2.49-16.79,4.08-18.38,1.36-1.36,4.08-2.72,7.94-3.86,5.9-1.81,14.07-2.95,23.14-2.95s19.51.91,29.04,3.86c8.62,2.49,16.56,6.58,22.69,12.48,2.27,2.27,4.31,5.67,6.12,9.75,3.86,9.08,6.58,22.01,8.17,36.3v-.22Z"/>
      <path class="cls-48" d="M233.32,3071.57v23.14s.91,2.27-9.98,2.04c-14.75-.46-19.74-6.81-19.74-6.81l-1.59-23.14,4.54.68,26.77,4.09Z"/>
      <path d="M233.32,3072.93v11.57c-7.03-.46-19.74-2.95-25.18-13.61-.45-.91-.68-1.59-.91-2.27l25.86,4.08.23.23Z"/>
      <path class="cls-48" d="M235.59,3017.34s14.52,29.72,10.44,46.74c-4.08,17.24-19.51,15.2-29.04,12.25-9.3-2.95-13.84-8.39-13.84-8.39,0,0-8.62,3.4-14.52-4.54-5.9-7.94-2.95-17.24,1.82-19.51,4.76-2.27,10.89.9,10.89.9l-4.99-8.62s17.47-45.37,39.25-19.05v.22Z"/>
      <path d="M235.81,3055.91h-.23c-.68,0-.91-.68-.91-1.36,1.59-5.44-2.72-11.34-2.95-11.34-.45-.46-.23-1.14,0-1.59.45-.46,1.13-.23,1.59,0,0,.23,4.99,6.8,3.18,13.38,0,.46-.68.91-1.13.91h.45Z"/>
      <path d="M200.42,3059.31c-.23,0-.68,0-.91-.22l-8.62-8.4c-.45-.45-.45-1.13,0-1.58.45-.46,1.13-.46,1.59,0l8.62,8.39c.45.45.45,1.13,0,1.59,0,0-.45.22-.91.22h.23Z"/>
      <path d="M191.57,3057.27c-.45,0-.91-.45-1.13-.9,0-.69.23-1.14.91-1.37l5.67-1.13c.68,0,1.14.23,1.36.91,0,.68-.23,1.13-.91,1.36l-5.67,1.13h-.23Z"/>
      <path d="M226.28,3065.44c-.68,0-1.59,0-2.49-.45-4.08-1.82-5.45-6.13-5.45-6.36,0-.45,0-.9.23-1.13s.68-.45,1.13-.23l12.02,3.41c.45,0,.68.45.68.68,0,.45,0,.68-.23,1.13,0,0-2.72,2.95-5.9,2.95ZM221.75,3060.22c.68.91,1.82,2.04,3.18,2.72,1.59.69,3.18,0,4.08-.68l-7.26-2.04Z"/>
      <path d="M216.07,3034.36h-.45c-.45-.23-.91-.91-.45-1.59,2.04-4.08,7.26-3.18,7.49-3.18.68,0,1.13.68.91,1.37,0,.68-.68,1.13-1.36.9,0,0-3.63-.68-4.99,2.04,0,.46-.68.69-1.14.69v-.23Z"/>
      <path d="M232.18,3030.5h-.68c-.45-.23-.68-1.13-.45-1.59.91-1.36,2.04-2.04,3.18-2.27,2.72-.45,5.22,1.59,5.45,1.82.45.45.45,1.13,0,1.59-.45.45-1.14.45-1.59,0-.45-.46-2.27-1.59-3.63-1.36-.68,0-1.13.45-1.59,1.36,0,.45-.68.45-.91.45h.23Z"/>
      <path d="M238.31,3043.21c-.45,0-.91-.46-1.13-.91l-1.13-5.67v-.91l2.04-2.72c.45-.46,1.13-.68,1.59,0,.45.45.68,1.13.23,1.59l-1.82,2.26.91,5c0,.68-.23,1.13-.91,1.36h.23Z"/>
      <path d="M219.25,3045.02c-.45,0-1.13-.45-1.13-.91l-.91-5.67c0-.45,0-.68.23-.91l2.95-3.17c.45-.46,1.13-.46,1.59,0,.45.45.45,1.13,0,1.59l-2.72,2.72.91,4.99c0,.68-.23,1.13-.91,1.36Z"/>
      <path class="cls-5" d="M201.1,3045.02s12.93-7.26,17.47-16.79,4.54-14.52,4.54-14.52c0,0,2.04,6.13,7.03,7.49,4.76,1.36,7.94,1.36,7.94,1.36l3.4,8.85-2.72-21.1s-13.38-6.58-14.97-6.35c-1.59.22-23.59,4.76-24.73,6.12-1.13,1.36-7.49,18.61-7.49,18.61v7.71l9.98,8.62h-.45Z"/>
      <path class="cls-35" d="M222.88,3097.88c-13.16,0-21.55-7.94-21.78-8.16-.45-.46-.45-1.14,0-1.59.45-.46,1.13-.46,1.59,0,.45.45,13.39,12.7,32.44,4.99.68-.23,1.13,0,1.59.68.23.68,0,1.13-.68,1.59-4.76,2.04-9.3,2.72-13.16,2.72v-.23Z"/>
      <path class="cls-48" d="M178.64,3147.52v-9.93c0-12.94-1.36-25.87-4.08-38.35l-1.13-5.67s-13.38,10.67-27,27.91c-.91,1.15-1.84,2.33-2.74,3.56-10.68,14.25-16.31,31.67-16.31,49.48v37.5h151.99v-72.57l-100.72,8.1v-.03Z"/>
      <path class="cls-26" d="M178.64,3147.52s-6.62,60.19-7.69,64.48h93.67s6.6-66.81,4.79-71.76"/>
    </g>
  </g>
  <rect class="cls-16" x="71" y="4675" width="212" height="58" rx="10" ry="10"/>
  <g class="cls-23">
    <g>
      <path class="cls-56" d="M423.02,2686.57c-3.27-6-8.36-10.01-13.99-11.1-13.62-2.73-32.51-4.91-47.95-3.82-12.17.91-23.07,7.64-29.6,17.83-5.63,8.91-12.9,21.28-16.17,30.92.6.71,1.27,1.4,1.96,2.09v34.53h121.73v-38.06c-4.54-11.27-11.26-24.01-15.98-32.37v-.02Z"/>
      <path class="cls-26" d="M136.66,2713.94l-10.64-31.72s-1.83.44-2.56.8c-3.96,1.62-15.93,8.95-32.11,30.94h-.35v43.06h121.76v-43.06h-76.1v-.02Z"/>
      <path d="M206.15,2711.33s-13.8-4.19-9.63-24.38c3.63-17.46,26.52-20.19,26.52-20.19,0,0-7.26-10.73-1.64-23.83,5.27-12.55,12.71-14.91,12.71-14.91,0,0-.54-10.19,7.45-18.19,7.99-8.01,18.89.36,18.89.36,0,0,20.71-4.55,33.42,6.55,12.71,11.09,7.81,30.01,7.81,30.01,0,0,20.34,7.28,25.25,28.92,4.9,21.47-7.81,33.11-7.81,33.11l-112.97,2.73v-.18Z"/>
      <path class="cls-26" d="M221.59,2712.71c0,.14-.36.27-.54.42-.18.14-.54.41-.73.56-15.44,12.01-36.87,19.55-60.48,19.55s-7.26-.14-10.9-.56c-8.72-.84-17.07-2.8-24.7-5.44.73-23.59.36-43.38.36-44.53.36-.56,14.53-3.34,33.42-3.76,29.79-.69,54.85,12.15,63.75,33.78h-.18v-.02Z"/>
      <path d="M160.02,2629.09s19.62.91,20.71-17.83c1.09-20.01-17.26-21.83-25.07-13.82-7.81,8-6.36,16.37-6.36,16.37,0,0-5.45-4.91-11.44,1.09-4.36,4.37-2.18,11.64-2.18,11.64,0,0-10.17-.36-9.08,8.37.91,8.73,7.26,13.28,7.26,13.28l26.34-19.28-.18.18Z"/>
      <path class="cls-48" d="M142.22,2663.65l2,20.74s4.36,5.63,16.53,5.45c9.08,0,12.17-2.54,12.17-2.54l-2.36-10.37-2.18-10.19-22.34-2.73-3.81-.36Z"/>
      <path d="M146.03,2664.2c0,.54.36,1.27.73,2,5.63,10,18.53,10.91,23.79,10.91l-2.18-10.19-22.34-2.72Z"/>
      <path class="cls-48" d="M168.37,2618.9s13.44,25.1,10.54,40.02c-2.91,14.92-16.35,13.64-24.52,11.46-8.17-2.18-12.17-6.73-12.17-6.73,0,0-7.26,3.09-12.71-3.46-5.45-6.54-3.09-14.73.91-16.91,4-2.19,9.45.54,9.45.54l-4.54-7.27s13.44-39.66,33.24-17.83l-.18.18Z"/>
      <path d="M140.04,2655.46h-.36l-8.17-4.73c-.36-.18-.55-.72-.36-1.27.18-.54.73-.54,1.27-.36l8.17,4.73c.36.18.54.72.36,1.27,0,.36-.54.36-.73.36h-.18Z"/>
      <path d="M133.32,2656.01c-.36,0-.73,0-.73-.55-.18-.36,0-.91.36-1.27l4.18-2.18c.36-.18.91,0,1.27.36.18.37,0,.91-.36,1.27l-4.18,2.19h-.36l-.18.18Z"/>
      <path d="M172.01,2628.72h-.54c-2.36-1.63-4.54,0-4.54,0-.36.37-.91.19-1.27-.18-.36-.36-.18-.91.18-1.27,0,0,3.27-2.36,6.54,0,.36.36.54.91.18,1.27,0,.18-.54.37-.73.37l.18-.19Z"/>
      <path d="M169.28,2652.55c-.54,0-.73-.54-.73-1.09,1.45-7.82-2.91-12.73-3.09-12.91-.36-.37-.36-.91,0-1.28.36-.36.91-.36,1.27,0,.18.19,5.09,5.82,3.45,14.37,0,.37-.54.73-.91.73v.18Z"/>
      <path d="M172.01,2641.09c-.54,0-.91-.36-.91-.91v-4.91c-.18-.54,0-.91.73-.91.54,0,.91.37.91.91v4.91c.18.55,0,.91-.73.91Z"/>
      <path d="M158.38,2642.37c-.54,0-.91-.37-.91-.91v-4.91c-.18-.55,0-.91.73-.91.54,0,.91.36.91.91v4.91c.18.54,0,.91-.73.91Z"/>
      <path d="M171.1,2624.72s-2.72-4-7.81-3.45c-5.27.54-7.81,4.36-7.81,4.36,0,0,3.09,8.55-3.45,13.83-6.54,5.27-12.17,4.54-12.17,4.54l-5.27-1.27-4.54-7.09,13.26-17.47,18.16-12,10.53,8-.91,10.55Z"/>
      <path d="M164.92,2657.83c-1.82,0-4.9-.55-6.72-3.82-.18-.36,0-.91.36-1.27.36-.19.91,0,1.27.36,2,3.46,6.18,2.73,6.18,2.73.54,0,.91.18,1.09.73,0,.54-.18.91-.73,1.09h-1.45v.18Z"/>
      <path class="cls-35" d="M177.46,2648.55c-4.9,0-8.9-4.18-8.9-9.09s4-9.1,8.9-9.1,8.9,4.19,8.9,9.1-4,9.09-8.9,9.09ZM177.46,2632.18c-3.81,0-7.08,3.28-7.08,7.28s3.09,7.27,7.08,7.27,7.08-3.27,7.08-7.27-3.09-7.28-7.08-7.28Z"/>
      <path class="cls-35" d="M156.57,2650.55c-5.09,0-9.08-4.18-9.08-9.09s4.18-9.1,9.08-9.1,9.08,4.19,9.08,9.1-4.18,9.09-9.08,9.09ZM156.57,2634.18c-4,0-7.26,3.28-7.26,7.28s3.27,7.27,7.26,7.27,7.26-3.27,7.26-7.27-3.27-7.28-7.26-7.28Z"/>
      <path class="cls-35" d="M163.83,2641.46c-.54,0-.91-.37-.91-.91s.36-.91.91-.91l6.36-.55c.54,0,.91.37.91.91s-.36.91-.91.91l-6.36.55Z"/>
      <path class="cls-35" d="M134.59,2643.64c-.18,0-.36,0-.54-.18-.36-.37-.36-.91,0-1.27,4.9-5.28,14.35-.37,14.89-.19.36.19.54.73.36,1.28-.18.36-.73.54-1.27.36,0,0-8.72-4.36-12.71-.18,0,.18-.36.36-.73.36v-.18Z"/>
      <path class="cls-35" d="M161.11,2690.02c-5.81,0-12.71-1.45-19.25-6.36-.36-.37-.54-.91-.18-1.27.36-.37.91-.55,1.27-.19,15.98,11.83,33.42,2.55,33.6,2.55.36-.18.91,0,1.27.36.36.37,0,.91-.36,1.28,0,0-6.9,3.63-16.17,3.63h-.18Z"/>
      <path d="M152.03,2631.82h-.54c-.36-.18-.54-.91-.36-1.28,2.54-4,6.36-3.63,7.99-2.91.55.19.73.73.55,1.28-.18.54-.73.72-1.27.54,0,0-3.63-1.45-5.81,2.19,0,.18-.55.36-.73.36l.18-.18Z"/>
      <path class="cls-21" d="M397.59,2600.89s-.73-4.72,3.81-2.91c4.54,2,2.54,6.73,0,6.19-2.54-.73-3.81-3.28-3.81-3.28Z"/>
      <path d="M406.31,2631.09s-.73,12.91-6.54,13.46c-5.81.55-14.35-6.73-14.35-6.73l4-14.55,16.89,7.82Z"/>
      <path class="cls-4" d="M361.99,2627.45s-18.89-6.18-21.8-14.19c-2.91-8,33.06,4.19,33.06,4.19l-11.26,10Z"/>
      <path class="cls-11" d="M389.42,2655.1l-1.45,20.55s-3.63,5.83-15.62,6.74c-8.9.72-11.99-1.46-11.99-1.46l1.27-10.19,1.27-10,21.43-4.55,4.9-1.09h.18Z"/>
      <path d="M384.51,2656.01c0,.55-.36,1.27-.54,2-4.54,10.01-17.07,12.19-22.16,12.55l1.27-10,21.43-4.55Z"/>
      <path class="cls-11" d="M359.08,2614.36s-10.9,25.28-6.72,39.47c4.18,14.19,16.89,11.82,24.7,9.09,7.63-2.73,11.26-7.64,11.26-7.64,0,0,7.27,2.37,11.99-4.36,4.72-6.73,1.82-14.37-2.36-16.19-4.18-1.82-9.08,1.27-9.08,1.27l3.82-7.27s-16.35-37.11-33.6-14.37Z"/>
      <path d="M389.42,2647.1c-.36,0-.55,0-.73-.37-.36-.36-.18-.91.18-1.27l9.26-6.55c.36-.36.91-.18,1.27.18.36.37.18.91-.18,1.28l-9.26,6.54h-.54v.19Z"/>
      <path d="M397.77,2647.1h-.18l-5.99-1.64c-.55,0-.73-.55-.73-1.09s.55-.73,1.09-.73l5.99,1.64c.55,0,.73.54.73,1.09,0,.36-.54.73-.91.73Z"/>
      <path d="M375.98,2626.54c-.36,0-.55,0-.73-.36-.73-1.09-1.63-1.64-2.54-1.82-1.45-.18-2.54.73-2.54.73-.36.36-.91.18-1.27,0-.36-.37-.18-.91,0-1.28,0,0,1.82-1.45,4-1.09,1.45.18,2.73,1.09,3.81,2.55.36.36.18.91,0,1.27,0,0-.36.18-.54.18l-.18-.18Z"/>
      <path d="M356.36,2624.72c-.18,0-.55,0-.73-.36-.36-.36-.18-.91,0-1.27,1.27-.91,2.36-1.46,3.45-1.28,1.09.18,1.63,1.09,1.63,1.09.18.37,0,.91-.36,1.28-.36.18-.91,0-1.27-.37,0,0,0-.18-.36-.18-.18,0-.91,0-1.82.91,0,0-.36.18-.54.18Z"/>
      <path d="M359.81,2645.82c-.36,0-.73-.18-.91-.72-1.45-5.46.54-10.92.73-11.1,0-.55.73-.73,1.09-.55.55,0,.73.73.55,1.1,0,0-1.82,5.27-.55,10,0,.55,0,.91-.73,1.09h-.18v.18Z"/>
      <path d="M356.36,2634.36h-.18c-.54,0-.73-.72-.54-1.09l1.27-4.55c0-.54.73-.72,1.09-.54.55,0,.73.73.55,1.09l-1.27,4.55c0,.36-.55.73-.91.73v-.19Z"/>
      <path d="M371.07,2634.91h-.18c-.55,0-.73-.73-.55-1.09l1.27-4.55c0-.55.73-.73,1.09-.55.55,0,.73.73.55,1.1l-1.27,4.54c0,.37-.55.73-.91.73v-.18Z"/>
      <path d="M357.63,2617.99s1.45-2,6.54-2,7.99,3.64,7.99,3.64c0,0,.36,9.1,7.26,13.82,6.9,4.55,9.44,2.73,9.44,2.73l5.09-1.82,3.63-7.27-14.35-15.65-17.07-7.27-8.54,9.46v4.54-.18Z"/>
      <path class="cls-21" d="M330.2,2690.41c-23.07-12.37-45.04-19.1-79.92-16.01-21.27,1.89-38.81,14.64-53.09,32.6-1.6,2-2.49,4.47-2.49,7.04v42.96h146.76v-53.15c0-3.44-1.58-6.69-4.3-8.8-2.43-1.9-4.78-3.5-6.96-4.64Z"/>
      <path d="M364.9,2651.64h-.54c-.55,0-.91-.54-.73-.91,0-.54.55-.9.91-.72,0,0,4.18.36,5.81-3.28.18-.36.73-.72,1.27-.36.36.18.73.73.36,1.27-1.82,3.82-5.63,4.19-7.08,4.19v-.19Z"/>
      <path class="cls-21" d="M356.9,2612.54s7.08-20.38,32.51-16.01c25.43,4.36,16.89,36.56,16.89,36.56l-11.62-3.82-37.78-16.92v.19Z"/>
      <path class="cls-4" d="M349.64,2611.08s8.9.36,31.79,10.91c7.81,3.64,14.71,8.01,14.71,8.01,0,0-26.34-11.1-36.51-10.92-4,0-6.54,1.46-6.54,1.46l-3.45-9.46Z"/>
      <path class="cls-39" d="M368.35,2682.93c-4.54,0-7.63-.73-7.99-.73-.55,0-.73-.54-.73-1.09s.55-.73,1.09-.73c0,0,15.08,3.46,26.7-5.09.36-.36.91-.18,1.27.18.36.37.18.91-.18,1.28-6.9,5.09-14.53,6.18-20.34,6.18h.18Z"/>
      <path class="cls-6" d="M275.9,2663.3l.91,14.19s-5.09,4.91-11.81,5.28c-9.26.72-12.9-4.19-12.9-4.19l-.73-18.73,24.7,3.27-.18.18Z"/>
      <path d="M275.9,2663.12s-3.81,13.83-15.26,10.92c-8.35-2-9.26-12.74-9.26-12.74l24.52,1.82Z"/>
      <path class="cls-6" d="M245.2,2624.38s-3.45,25.65,5.45,37.29c8.9,11.64,19.43,7.45,23.98,3.63,6.17-5.27,7.08-12.36,7.08-12.36,0,0,8.9,1.27,11.62-6.19,2.72-7.82-3.27-13.64-7.63-13.82-4.36-.19-4.9.72-4.9.72l.91-8.18s-28.7-28.56-36.33-1.09h-.18Z"/>
      <path class="cls-6" d="M250.11,2636.02s-13.8-5.09-14.35,5.46c-.54,12.18,13.99,11.46,13.99,11.46l.36-16.92Z"/>
      <path d="M282.8,2634.56s-4.54,2.19-14.89-4.54-7.99-15.46-7.99-15.46c0,0-13.08,9.27-15.62,20-2.54,10.74-5.81-24.73,9.63-24.92,15.44,0,39.05,8.55,28.7,24.74l.18.18Z"/>
      <path d="M243.93,2647.48c-.36,0-.54,0-.73-.37l-4.9-7.45c-.36-.37,0-.91.18-1.28.36-.36.91,0,1.27.19l4.9,7.45c.36.37,0,.91-.18,1.28h-.54v.18Z"/>
      <path d="M282.62,2645.66c-.18,0-.55,0-.73-.36-.36-.37-.36-.91,0-1.28l6.54-6.18c.36-.37.91-.37,1.27,0,.36.36.36.91,0,1.27l-6.54,6.19s-.36.18-.54.18v.18Z"/>
      <path d="M289.16,2646.39h-.55l-4.18-2.91c-.36-.37-.54-.91-.18-1.28.36-.36.91-.54,1.27-.18l4.18,2.91c.36.37.54.91.18,1.28,0,.18-.54.36-.73.36v-.18Z"/>
      <path d="M238.48,2645.48c-.54,0-.91-.37-.91-.91s.36-.91.91-.91l3.82-.37c.54,0,.91.37.91.91s-.36.91-.91.91l-3.82.37Z"/>
      <path d="M259.73,2650.75c-.36,0-.73-.36-.91-.72-1.45-6.92.54-12.56.54-12.74,0-.54.73-.73,1.09-.54.54,0,.73.72.54,1.09,0,0-2,5.46-.54,11.82,0,.55-.18.91-.73,1.09Z"/>
      <path d="M263.18,2657.66c-2.72,0-5.27-2.18-5.27-2.18-.18-.18-.36-.54-.18-.91,0-.36.36-.54.73-.72l8.72-1.28c.36,0,.73,0,.91.37.18.18.18.54,0,.91,0,0-1.82,3.81-4.9,3.81ZM261.19,2655.48c.73.37,1.45.55,2.18.55.91,0,1.64-.55,2-1.09l-4.18.54Z"/>
      <path d="M250.83,2630.38c-.18,0-.54,0-.73-.36-.36-.37-.36-.91,0-1.28,1.82-1.63,5.09-1.82,5.27-1.82.55,0,.91.37.91.91s-.36.91-.91.91c0,0-2.54,0-4,1.28,0,0-.36.18-.55.18v.18Z"/>
      <path d="M270.63,2631.11c-.18,0-.54,0-.54-.18-1.27-1.28-4-1.46-4-1.46-.54,0-.91-.36-.91-.91s.36-.91.91-.91c0,0,3.27,0,5.08,2,.36.37.36.91,0,1.28,0,0-.36.36-.73.36l.18-.18Z"/>
      <path class="cls-39" d="M263.73,2684.22c-11.44,0-13.8-6.73-13.99-7.09,0-.55,0-.91.54-1.09.54,0,.91,0,1.09.54,0,.18,2.18,5.82,12.35,5.82,9.08,0,12.53-4.91,12.53-5.09.36-.36.91-.55,1.27-.18.36.36.54.91.18,1.27,0,.18-4,6-14.17,6l.18-.18Z"/>
      <path d="M244.48,2634.56s-12.17-15.46-3.09-24.92c9.08-9.46,35.42-14.18,47.77,3.64,8.72,12.73-6.36,21.1-6.36,21.1l-16.89-17.28-5.99-2.55-9.99,2.55-5.63,17.46h.18Z"/>
      <path d="M269.9,2639.84c-.54,0-.91-.36-.91-.91v-3.82l-2.36-1.82c-.36-.36-.55-.91-.18-1.27.36-.37.91-.55,1.27-.18l2.73,2c.18,0,.36.54.36.72v4.37c0,.55-.55.91-1.09.91h.18Z"/>
      <path d="M253.92,2639.84c-.54,0-.91-.36-.91-.91v-3.82l-2.36-1.82c-.36-.36-.54-.91-.18-1.27.36-.37.91-.55,1.27-.18l2.72,2c.18,0,.36.54.36.72v4.37c0,.55-.54.91-1.09.91h.18Z"/>
    </g>
  </g>
  <ellipse class="cls-3" cx="280.5" cy="2576" rx="21.5" ry="8"/>
  <ellipse class="cls-3" cx="309" cy="2545.5" rx="38" ry="14.5"/>
  <ellipse class="cls-3" cx="361" cy="2461" rx="155" ry="59"/>
  <path class="cls-37" d="M964.05,4010.21v71.87c0,11.46,8.34,19.89,19.77,19.9,23.76.02,47.52.02,71.29,0,8.61,0,13.93-5.21,13.95-13.86.06-33.4,0-66.8.05-100.2,0-10.41,4.86-18.29,13.11-21.2,2.2-.78,4.64-1.2,6.96-1.21,18.45-.1,36.91-.08,55.36-.03,12.67.03,22.58,10.08,22.58,22.87v98.6c0,10.51,4.54,15.05,14.97,15.05h70.09c11.19,0,19.72-8.27,19.76-19.55.08-48.45.01-96.88.06-145.32,0-3.81-1.83-6.49-4.35-9.02-18.44-18.4-36.86-36.82-55.26-55.25-28.9-28.99-57.78-57.99-86.67-87-6.48-6.5-8.9-6.49-15.47.1-47.49,47.61-94.98,95.23-142.5,142.81-2.62,2.62-3.76,5.48-3.75,9.21.11,24.07.06,48.17.05,72.26v-.03Z"/>
  <path class="cls-37" d="M1222.86,3784.56c-9.93-9.55-20.12-18.99-29.91-28.86-17.79-17.9-35.36-36.01-52.98-54.08-12.5-12.8-28.39-12.8-40.98-.14-61.41,61.8-122.84,123.59-184.34,185.3-7.66,7.67-10.5,16.57-7.45,26.88,2.87,9.69,9.71,15.73,19.62,17.73,9.99,2.03,18.47-1.1,25.64-8.33,37.05-37.34,74.13-74.62,111.19-111.95,16.1-16.21,32.17-32.43,48.26-48.66,5.91-5.96,8.15-5.98,14.09,0,53.06,53.44,106.11,106.88,159.15,160.36,13.15,13.27,33.22,11.84,42.84-3.07,6.4-9.94,5.08-23.37-3.57-32.29-11.37-11.74-22.96-23.25-34.46-34.84-8.99-9.05-18.05-18.01-26.9-27.19-1.29-1.33-2.23-3.61-2.23-5.47-.16-20.75,0-41.51-.18-62.26-.03-3.52-.65-7.2-1.83-10.49-2.28-6.4-7.21-9.64-13.97-9.88-2.64-.1-5.33-.21-7.93.18-8.7,1.31-13.94,8.42-14.03,18.92-.08,9.58-.02,19.15-.02,28.14h-.01Z"/>
  <g class="cls-24">
    <g>
      <path class="cls-7" d="M1366,1547.84c-12.37,46.74-54.92,81.16-105.53,81.16-34.05,0-64.45-15.58-84.47-40,31.94-39.1,66.39-43.27,66.39-43.27,0,0-.82-5.91,0-7.5.59-1.13,2.74-2.16,3.94-2.65.47-.19.77-.3.77-.3,0,0,1.73-.31,4.45-.73,5.46-.87,14.87-2.25,22.18-2.79,2.22-.19,4.26-.28,5.92-.26,1.81.03,3.19.19,3.94.54.91.43,1.97,3.24,1.97,3.24,0,0,13.51-2.09,32.17,0,7.85.89,27.36,4.5,48.27,12.56Z"/>
      <path class="cls-6" d="M1242,1486.54s-19.09-6.14-19.21,8.23c-.12,16.63,19.58,14.94,19.58,14.94l-.4-23.17h.03Z"/>
      <path d="M1234.15,1502.31c-.37,0-.73-.16-.96-.49l-7.12-9.94c-.37-.51-.26-1.26.28-1.64.54-.37,1.27-.25,1.64.28l7.12,9.94c.37.51.26,1.26-.28,1.64-.21.14-.45.21-.68.21Z"/>
      <path d="M1226.73,1499.83c-.59,0-1.1-.45-1.18-1.03-.07-.64.4-1.22,1.04-1.29l5.22-.59c.65-.07,1.22.4,1.29,1.03.07.63-.4,1.22-1.03,1.29l-5.23.59h-.14.03Z"/>
      <path class="cls-6" d="M1278.76,1522.62l1.95,19.29s-7.08,4.71-16.37,5.74c-12.56,1.38-17.47-5.67-17.47-5.67l-2.02-22.61,33.89,3.28.02-.03Z"/>
      <path d="M1278.76,1522.6s-4.56,16.17-19.01,15.37c-11.67-.65-16.47-16.63-16.47-16.63l35.48,1.26Z"/>
      <path class="cls-6" d="M1234.71,1471.31s-4.75,36.06,6.79,50.75c12.42,15.75,29.39,9.12,35.46,3.49,8.17-7.59,9.11-17.17,9.11-17.17,0,0,12.34,1.29,15.46-8.98,3.28-10.77-5.06-18.46-11.15-18.37-6.11.08-6.7,1.25-6.7,1.25l.75-11.25s-40.65-37.51-49.69.3l-.03-.02Z"/>
      <path d="M1287.03,1498.14c-.28,0-.59-.12-.82-.33-.47-.44-.47-1.19-.02-1.66l8.59-8.91c.45-.46,1.2-.46,1.66-.02.47.45.47,1.2.03,1.66l-8.6,8.91c-.23.23-.54.35-.84.35Z"/>
      <path d="M1295.81,1498.82c-.21,0-.42-.05-.61-.17l-5.9-3.63c-.56-.33-.72-1.05-.37-1.61.35-.57,1.05-.73,1.61-.38l5.9,3.63c.57.33.73,1.06.38,1.62-.21.35-.61.56-.98.56l-.03-.02Z"/>
      <path d="M1267.9,1490.08c-.64,0-1.15-.49-1.17-1.13l-.21-5.97c-.03-.66.49-1.2,1.12-1.22.66-.07,1.19.49,1.22,1.13l.21,5.97c.02.66-.49,1.2-1.13,1.22h-.04Z"/>
      <path d="M1245.06,1490.97c-.63,0-1.14-.49-1.17-1.13l-.21-5.97c-.02-.66.49-1.2,1.13-1.22.65-.02,1.19.49,1.21,1.13l.21,5.97c.03.66-.49,1.2-1.12,1.22h-.05Z"/>
      <path d="M1257.03,1505.73c-.51,0-.98-.33-1.12-.84-2.74-9.21-.45-17.13-.35-17.46.18-.61.84-.98,1.45-.8.61.19.98.85.79,1.46,0,.07-2.17,7.59.35,16.12.19.61-.16,1.26-.79,1.45-.12.02-.24.05-.33.05v.02Z"/>
      <path d="M1241.01,1478.76c-.28,0-.58-.12-.82-.33-.47-.44-.49-1.19-.04-1.66,2.36-2.48,6.67-2.86,6.86-2.86.65-.05,1.19.42,1.26,1.08.07.66-.42,1.22-1.08,1.26-.02,0-3.58.31-5.34,2.16-.23.23-.53.38-.84.38v-.03Z"/>
      <path d="M1270.36,1478.29c-.21,0-.4-.04-.59-.16-2.2-1.29-5.69-.59-5.74-.59-.63.12-1.24-.28-1.38-.91s.28-1.24.91-1.38c.19-.03,4.41-.89,7.38.86.56.33.75,1.04.42,1.6-.21.37-.61.58-1,.58Z"/>
      <path d="M1286.47,1482.04s-2.79,11.25-4.24,10.92c-1.45-.3-.68-17.71,3.35-18.77,4.03-1.05.89,7.85.89,7.85Z"/>
      <path d="M1258.79,1515.92c-.64,0-1.15-.49-1.17-1.12-.03-.66.46-1.2,1.12-1.22.23,0,5.97-.3,8.2-5.22.25-.59.96-.85,1.54-.59.59.26.85.96.59,1.55-2.84,6.23-9.93,6.58-10.24,6.58h-.04v.02Z"/>
      <path d="M1284.57,1480.59s-12.29-.49-20.8-6.49c-7.16-5.06-10.18-12.61-10.18-12.61,0,0-5.3-.44-12.6,4.5-7.31,4.95-7.29,19.26-7.29,19.26,0,0-14.94-23.57-8.68-32.43,6.25-8.85,17.35-2.2,17.35-2.2,0,0-2.6-15.72,19.53-10.57,22.16,5.16,27.96,23.83,27.96,23.83,0,0,7.45-.98,8.67,5.91s-1.29,14.03-1.29,14.03c0,0-3.37-2.95-8.29-.86l-4.92,2.06.52-4.43h.02Z"/>
      <path class="cls-7" d="M1247.1,1535.28s4.26,4.03,14.1,4.28c9.84.26,18.48-7.7,18.48-7.7l6.34,11.64-15.69,9.58-26.3-2.2v-11.78l3.05-3.8.02-.02Z"/>
      <path class="cls-13" d="M1257.97,1554.28c-10.63,0-16.47-7.78-16.51-7.87-.38-.52-.26-1.27.25-1.64.52-.38,1.27-.26,1.64.25.31.43,7.54,10.03,21.08,5.91.63-.19,1.27.16,1.45.77.19.61-.16,1.27-.77,1.45-2.58.8-4.96,1.11-7.14,1.11v.02Z"/>
    </g>
  </g>
</svg>