<svg width="426" height="410" viewBox="0 0 426 410" fill="none" xmlns="http://www.w3.org/2000/svg">
<path d="M58.048 318.211C58.048 342.161 58.048 366.112 58.048 390.079C58.048 401.542 66.3883 409.968 77.8223 409.984C101.583 410 125.344 410 149.105 409.984C157.717 409.984 163.043 404.772 163.059 396.122C163.123 362.722 163.059 329.323 163.107 295.923C163.107 285.515 167.971 277.633 176.215 274.723C178.416 273.939 180.856 273.524 183.184 273.508C201.635 273.412 220.085 273.428 238.536 273.476C251.214 273.508 261.117 283.564 261.117 296.355C261.117 329.227 261.117 362.099 261.117 394.955C261.117 405.459 265.662 410 276.091 410C299.453 410 322.816 410 346.178 410C357.373 410 365.904 401.734 365.936 390.446C366.016 342.002 365.952 293.573 366 245.128C366 241.323 364.166 238.637 361.646 236.111C343.212 217.708 324.793 199.29 306.39 180.855C277.494 151.868 248.614 122.865 219.718 93.8625C213.244 87.3553 210.82 87.3713 204.25 93.9585C156.76 141.572 109.27 189.185 61.7477 236.766C59.1324 239.388 57.9842 242.25 58.0002 245.976C58.1118 270.054 58.064 294.148 58.048 318.243V318.211Z" fill="#BF00FF"/>
<path d="M316.857 92.5588C306.934 83.0149 296.741 73.567 286.946 63.7035C269.156 45.7988 251.588 27.6863 233.973 9.62183C221.47 -3.1832 205.575 -3.1832 192.993 9.47795C131.578 71.281 70.1478 133.068 8.65363 194.775C0.992737 202.449 -1.84225 211.353 1.1998 221.664C4.06668 231.352 10.9153 237.395 20.8219 239.393C30.8081 241.423 39.2972 238.29 46.4644 231.064C83.5105 193.72 120.589 156.44 157.651 119.112C173.753 102.902 189.823 86.6758 205.909 70.4497C211.818 64.4868 214.064 64.4708 220.005 70.4497C273.058 123.892 326.11 177.334 379.147 230.808C392.303 244.077 412.371 242.654 421.991 227.739C428.394 217.795 427.072 204.367 418.423 195.447C407.051 183.713 395.457 172.202 383.957 160.612C374.975 151.564 365.912 142.596 357.057 133.42C355.767 132.093 354.827 129.807 354.827 127.952C354.668 107.202 354.827 86.436 354.652 65.6858C354.62 62.1688 353.999 58.4919 352.82 55.1988C350.543 48.8042 345.605 45.559 338.852 45.3192C336.208 45.2233 333.517 45.1114 330.92 45.4951C322.224 46.806 316.984 53.9199 316.889 64.4229C316.809 73.9987 316.873 83.5745 316.873 92.5588H316.857Z" fill="#BF00FF"/>
</svg>
