<svg width="214" height="215" viewBox="0 0 214 215" fill="none" xmlns="http://www.w3.org/2000/svg">
<g filter="url(#filter0_d_116_39)">
<path d="M107 159C137.376 159 162 134.152 162 103.5C162 72.8482 137.376 48 107 48C76.6243 48 52 72.8482 52 103.5C52 134.152 76.6243 159 107 159Z" fill="white"/>
<path d="M107 159C137.376 159 162 134.152 162 103.5C162 72.8482 137.376 48 107 48C76.6243 48 52 72.8482 52 103.5C52 134.152 76.6243 159 107 159Z" stroke="black" stroke-width="3" stroke-miterlimit="10"/>
</g>
<path d="M130.858 121.22C130.858 124.949 130.858 128.678 130.858 132.409C130.858 134.194 129.556 135.506 127.771 135.509C124.062 135.511 120.353 135.511 116.644 135.509C115.3 135.509 114.469 134.697 114.466 133.35C114.456 128.15 114.466 122.95 114.459 117.75C114.459 116.13 113.699 114.903 112.413 114.45C112.069 114.328 111.688 114.263 111.325 114.261C108.445 114.246 105.565 114.248 102.685 114.256C100.706 114.261 99.1599 115.826 99.1599 117.818C99.1599 122.936 99.1599 128.053 99.1599 133.169C99.1599 134.804 98.4505 135.511 96.8225 135.511C93.1758 135.511 89.5291 135.511 85.8824 135.511C84.135 135.511 82.8033 134.224 82.7983 132.467C82.7858 124.924 82.7958 117.385 82.7883 109.842C82.7883 109.25 83.0746 108.832 83.4679 108.438C86.3454 105.573 89.2205 102.706 92.093 99.8356C96.6035 95.3226 101.111 90.8072 105.622 86.2917C106.633 85.2786 107.011 85.2811 108.036 86.3067C115.449 93.7195 122.862 101.132 130.28 108.54C130.688 108.949 130.868 109.394 130.865 109.974C130.848 113.723 130.855 117.474 130.858 121.225V121.22Z" fill="black"/>
<path d="M90.5696 85.966C92.1204 84.4799 93.7135 83.0088 95.2444 81.473C98.0248 78.685 100.77 75.8647 103.524 73.0519C105.478 71.0581 107.962 71.0581 109.928 73.0295C119.527 82.6528 129.128 92.2737 138.739 101.882C139.936 103.077 140.379 104.463 139.903 106.069C139.455 107.577 138.385 108.518 136.837 108.829C135.276 109.146 133.949 108.658 132.829 107.533C127.039 101.718 121.244 95.9129 115.452 90.1006C112.935 87.5765 110.424 85.05 107.91 82.5234C106.986 81.5949 106.635 81.5924 105.707 82.5234C97.415 90.8449 89.1234 99.1663 80.8343 107.493C78.7782 109.559 75.6418 109.337 74.1383 107.015C73.1376 105.467 73.3442 103.376 74.6959 101.987C76.4732 100.16 78.2853 98.3673 80.0825 96.5626C81.4865 95.1537 82.9028 93.7573 84.2868 92.3284C84.4885 92.1218 84.6353 91.7659 84.6353 91.4771C84.6602 88.2461 84.6353 85.0126 84.6627 81.7816C84.6677 81.234 84.7648 80.6615 84.949 80.1487C85.3049 79.153 86.0766 78.6477 87.132 78.6104C87.5452 78.5954 87.9659 78.578 88.3716 78.6377C89.7308 78.8418 90.5497 79.9495 90.5646 81.585C90.5771 83.076 90.5671 84.5671 90.5671 85.966H90.5696Z" fill="black"/>
<defs>
<filter id="filter0_d_116_39" x="0.5" y="0.5" width="213" height="214" filterUnits="userSpaceOnUse" color-interpolation-filters="sRGB">
<feFlood flood-opacity="0" result="BackgroundImageFix"/>
<feColorMatrix in="SourceAlpha" type="matrix" values="0 0 0 0 0 0 0 0 0 0 0 0 0 0 0 0 0 0 127 0" result="hardAlpha"/>
<feOffset dy="4"/>
<feGaussianBlur stdDeviation="25"/>
<feComposite in2="hardAlpha" operator="out"/>
<feColorMatrix type="matrix" values="0 0 0 0 0 0 0 0 0 0 0 0 0 0 0 0 0 0 0.5 0"/>
<feBlend mode="normal" in2="BackgroundImageFix" result="effect1_dropShadow_116_39"/>
<feBlend mode="normal" in="SourceGraphic" in2="effect1_dropShadow_116_39" result="shape"/>
</filter>
</defs>
</svg>
