<svg width="153" height="153" viewBox="0 0 153 153" fill="none" xmlns="http://www.w3.org/2000/svg">
<g clip-path="url(#clip0_11_56)">
<path d="M16.768 59.4875C19.4886 49.7914 22.0446 40.0411 24.9715 30.407C28.8809 17.5419 41.7235 8.07106 55.1714 7.75011C58.7874 7.66518 62.3134 8.11475 65.7953 9.09172C83.9415 14.1992 102.098 19.2697 120.243 24.3687C134.747 28.4424 144.669 41.442 144.599 56.4878C144.587 59.2792 144.228 62.1532 143.49 64.8408C138.344 83.5521 133.1 102.24 127.799 120.908C123.827 134.891 110.37 144.829 95.87 144.671C92.8062 144.639 89.8146 144.207 86.8661 143.38C68.5956 138.245 50.3209 133.126 32.0504 127.992C16.9729 123.753 7.01651 109.864 7.79918 94.1868C7.95999 90.9933 8.71484 87.9186 9.58126 84.8591C11.9703 76.4014 14.3372 67.9375 16.7125 59.4719C16.731 59.4771 16.7495 59.4823 16.7717 59.4886L16.768 59.4875ZM126.865 90.4708C129.395 81.453 131.959 72.4446 134.43 63.4101C134.957 61.4749 135.371 59.4561 135.451 57.4634C135.906 45.988 128.679 36.1838 117.611 33.0783C103.383 29.0862 89.1589 25.083 74.9261 21.1095C70.2652 19.8058 65.6451 18.2855 60.9072 17.356C48.4592 14.9108 36.629 22.3828 33.1918 34.6046C28.0515 52.8817 22.9251 71.1667 17.8144 89.4522C17.4525 90.742 17.1902 92.0758 17.0557 93.4095C15.8559 105.248 23.054 116.007 34.4074 119.221C52.7574 124.414 71.1278 129.548 89.4955 134.678C92.997 135.656 96.5792 135.906 100.149 135.16C109.841 133.13 116.317 127.422 119.137 117.886C121.831 108.782 124.292 99.6126 126.86 90.4735L126.865 90.4708Z" fill="#FFEB3B"/>
<path d="M44.7906 67.3904C49.6529 50.0469 67.705 39.9386 85.0987 44.823C102.334 49.6589 112.417 67.6974 107.56 85.0065C102.684 102.386 84.6644 112.492 67.2829 107.607C50.0829 102.773 39.9538 84.6572 44.7943 67.3915L44.7906 67.3904ZM53.6248 69.8132C50.1047 82.2876 57.3125 95.2772 69.6983 98.7845C82.2433 102.336 95.2637 95.0944 98.7916 82.6062C102.313 70.1402 95.0366 57.1113 82.5969 53.5969C70.1165 50.0711 57.1469 57.3313 53.6248 69.8132Z" fill="#FFEB3B"/>
<path d="M112.348 51.2092C113.576 47.2036 117.596 45.109 121.649 46.3581C125.44 47.5298 127.566 51.6167 126.396 55.4988C125.222 59.3995 121.097 61.5406 117.134 60.3127C113.3 59.1249 111.167 55.0639 112.348 51.2092Z" fill="#FFEB3B"/>
</g>
<defs>
<clipPath id="clip0_11_56">
<rect width="123.603" height="123.603" fill="white" transform="translate(33.3914) rotate(15.6732)"/>
</clipPath>
</defs>
</svg>
