<svg width="177" height="31" viewBox="0 0 177 31" fill="none" xmlns="http://www.w3.org/2000/svg">
<path d="M5.88 8.79C2.45 8.79 0.735 7.46 0.735 4.8C0.735 2.21 2.45 0.949998 5.88 0.949998C9.275 0.949998 10.955 2.21 10.955 4.8C10.955 7.46 9.275 8.755 5.88 8.79ZM1.4 30.07C1.54 28.355 1.61 26.29 1.645 24.4L1.61 15.79C1.61 13.9 1.54 11.835 1.4 10.12H10.36C10.22 11.835 10.15 13.9 10.115 15.79V24.4C10.15 26.29 10.22 28.355 10.36 30.07H1.4ZM32.4086 24.33C32.4436 26.22 32.5136 28.285 32.6536 30H23.8336C23.9736 28.285 24.0436 26.22 24.0786 24.33V18.59C24.0786 17.295 23.8336 16.84 22.9586 16.875C22.5736 16.91 22.1536 17.015 21.7686 17.19L21.7336 24.33C21.7686 26.22 21.8386 28.285 21.9786 30H13.1936C13.3336 28.285 13.4036 26.22 13.4386 24.33L13.4036 14.6C13.4036 12.71 13.3336 10.645 13.1936 8.93H13.4386L21.7686 8.615H22.0136C21.9786 9.315 21.9086 10.12 21.8736 10.89C23.5186 9.245 25.5486 8.475 27.4736 8.475C30.6936 8.475 32.4436 9.98 32.4436 15.055C32.4436 18.17 32.4436 21.25 32.4086 24.33ZM48.4654 22.02C48.5004 24.75 48.6054 27.235 48.8854 29.93C47.4504 30.21 45.1404 30.42 42.4804 30.42C37.8954 30.42 36.2504 29.125 36.2504 24.12L36.2854 15.685L34.2904 15.825V8.65L36.3204 8.755C36.2854 7.11 36.2154 5.395 36.1104 3.925H36.3554L44.9304 3.61L44.7554 8.79L48.6754 8.58V15.825L44.7204 15.65V20.655C44.7204 22.16 45.0704 22.51 46.3304 22.51C47.1354 22.51 47.9404 22.3 48.4654 22.02ZM64.1638 8.475C67.1388 8.475 68.3638 10.4 68.3638 14.705C68.3638 16.49 68.2238 18.905 68.0488 20.69C65.5638 20.76 63.0788 20.9 60.6638 21.145C60.9788 19.815 61.2938 17.575 60.1038 17.575C59.6838 17.575 59.3688 17.855 59.2638 18.345L59.2288 24.33C59.2638 26.22 59.3338 28.285 59.4738 30H50.6888C50.8288 28.285 50.8988 26.22 50.9338 24.33L50.8988 14.6C50.8988 12.71 50.8288 10.645 50.6888 8.93H50.9338L59.2638 8.615H59.5087C59.4038 10.085 59.2988 11.8 59.2638 13.445C60.2788 9.7 62.0638 8.475 64.1638 8.475ZM79.9012 30.42C72.9012 30.42 69.6462 27.2 69.6462 19.43C69.6462 11.695 72.9012 8.475 79.9012 8.475C86.8662 8.475 90.0862 11.695 90.0862 19.43C90.0862 27.2 86.8662 30.42 79.9012 30.42ZM79.9012 23.105C81.0562 23.105 81.5812 22.23 81.5812 19.43C81.5812 16.63 81.0562 15.755 79.9012 15.755C78.7112 15.755 78.1862 16.63 78.1862 19.43C78.1862 22.23 78.7112 23.105 79.9012 23.105ZM111.6 8.265V24.33C111.635 26.22 111.67 28.285 111.845 30H103.27V28.32C102.29 29.475 100.68 30.42 98.3347 30.42C93.9947 30.42 91.9997 27.2 91.9997 19.745C91.9997 11.73 93.9947 8.44 98.8597 8.44C100.82 8.44 102.395 9.315 103.27 10.54V8.58C103.235 6.69 103.2 4.625 103.025 2.91H103.305L111.565 2.595H111.845C111.74 4.31 111.635 6.375 111.6 8.265ZM102.15 22.895C102.57 22.895 102.92 22.79 103.27 22.545V16.56C102.885 16.315 102.535 16.21 102.15 16.175C101.1 16.14 100.575 16.805 100.575 19.64C100.575 21.775 100.82 22.895 102.15 22.895ZM134.023 14.285V24.33C134.058 26.22 134.093 28.285 134.268 30H125.693V28.04C124.293 29.72 122.158 30.42 120.653 30.42C116.628 30.42 114.913 28.88 114.913 23.105V14.565C114.878 12.675 114.878 10.61 114.668 8.895H114.948L123.208 8.755H123.488C123.348 10.47 123.278 12.535 123.243 14.425V19.815C123.243 21.495 123.488 22.195 124.538 22.16C124.958 22.125 125.343 22.02 125.693 21.81V14.6C125.658 12.71 125.623 10.645 125.448 8.93H125.728L134.058 8.615H134.303C134.198 10.33 134.058 12.395 134.023 14.285ZM147.802 30.42C139.997 30.42 136.707 27.795 136.707 19.395C136.707 11.695 140.627 8.475 146.892 8.475C150.042 8.475 152.632 9.14 154.522 11.205C155.537 12.325 155.782 14.53 155.782 15.86C155.782 16.91 155.467 18.695 155.047 19.78L147.382 19.955C147.487 18.975 147.592 18.065 147.592 17.295C147.592 16.42 147.242 15.93 146.367 15.93C145.352 15.93 145.072 16.7 145.072 19.115C145.072 22.02 146.087 22.965 149.062 22.965C151.232 22.965 153.997 22.51 155.887 21.74V28.81C154.312 29.65 150.847 30.42 147.802 30.42ZM166.056 21.705C166.301 23.105 166.966 23.455 168.716 23.49C171.411 23.49 174.456 23.175 176.696 22.44L176.451 29.265C174.491 29.93 171.656 30.42 168.296 30.42C160.806 30.42 157.796 27.655 157.796 19.395C157.796 11.205 161.611 8.475 168.016 8.475C174.036 8.475 176.696 11.975 176.696 16.91C176.696 18.24 176.591 20.375 176.416 21.565C173.371 21.705 168.786 21.775 166.056 21.705ZM167.561 14.95C166.686 14.95 166.196 15.44 165.986 17.225C166.756 17.26 167.946 17.26 168.856 17.225C168.856 15.685 168.541 14.95 167.561 14.95Z" fill="white"/>
</svg>
