<svg width="434" height="328" viewBox="0 0 434 328" fill="none" xmlns="http://www.w3.org/2000/svg">
<path d="M0 179.437L0.0192729 187.025L0.0256972 190.176L0.0385458 196.778L0.0449701 199.595L0.0513944 204.155L0.064243 207.747L0.0770916 216.033L39.5994 232.638L51.9983 237.85L145.787 277.245L158.198 282.464L210.126 304.281L210.537 295.649L210.794 290.232L211 285.909L211.154 282.541L211.462 276.131L211.687 271.296L212.105 262.581L162.496 243.133L147.682 237.332L53.765 200.511L40.2418 195.215L0 179.437Z" fill="#7FBA43"/>
<path d="M280.286 254.391C279.939 252.271 279.791 249.979 279.785 247.616C279.785 245.823 279.862 243.985 280.003 242.147C280.17 239.983 280.421 237.806 280.735 235.686C281.057 233.438 281.449 231.248 281.86 229.186C283.447 221.163 285.367 215.041 285.367 215.041L212.111 262.575L211.694 271.29L211.469 276.125L211.16 282.541L211.006 285.903L210.801 290.232L210.544 295.643L210.132 304.281L280.292 254.391H280.286Z" fill="#63A61F"/>
<path d="M285.355 215.041C216.255 193.909 150.528 164.728 82.4687 140.721C54.4652 152.632 27.2647 165.932 0 179.437C70.5131 207.683 140.795 236.339 212.098 262.587C236.536 246.783 260.319 229.916 285.355 215.047V215.041Z" fill="#AEE677"/>
<path d="M267.251 215.438C205.61 195.856 146.545 170.043 85.803 148.015C63.7676 157.665 42.2719 168.269 20.7634 179.04C84.1327 203.937 147.264 229.257 211.334 252.329C229.984 240.092 248.126 226.939 267.251 215.438Z" fill="#6FA634"/>
<path d="M243.32 225.985C245.511 224.294 246.732 222.418 246.976 220.33C247.31 217.468 245.614 214.119 234.416 210.341C217.835 204.75 201.37 198.814 185.052 192.513C181.93 191.309 191.926 196.784 184.519 203.707C177.452 210.302 168.021 214.1 158.571 215.957C156.226 216.418 154.151 216.834 152.442 217.218C149.969 217.769 148.755 219.511 150.457 220.164C166.434 226.266 182.624 232.792 198.71 237.793C209.548 241.161 222.062 238.465 231.975 233.298C237.05 230.653 240.898 227.861 243.32 225.991V225.985Z" fill="#AEE677"/>
<path d="M147.296 179.488C148.947 179.475 149.815 178.56 148.523 178.041C131.043 171.042 113.498 164.241 95.8634 157.633C86.4582 154.124 78.3058 154.873 69.6266 159.08C62.4121 162.57 54.2917 165.612 47.5077 169.832C43.8073 172.131 36.2587 175.454 54.2918 182.927C70.86 189.792 87.7174 196.157 104.517 202.535C105.808 203.028 108.211 202.215 108.224 201.305C108.243 199.455 108.969 196.669 111.038 193.256C118.734 180.583 134.364 179.597 147.296 179.488Z" fill="#AEE677"/>
<path d="M120.231 189.555C116.151 193.083 112.149 198.648 111.487 203.604C111.301 204.994 111.365 206.492 111.956 207.523C116.742 215.777 131.377 217.948 140.917 217.103C141.123 217.084 141.341 217.058 141.553 217.032C153.862 215.412 172.428 211.051 179.848 200.94C181.441 198.769 183.163 193.672 179.553 189.804C173.077 182.869 161.892 181.685 152.84 180.782C142.44 179.738 128.325 182.543 120.224 189.548L120.231 189.555Z" fill="#8BC94B"/>
<path d="M170.212 202.381C169.73 201.376 169.338 196.605 169.788 194.607C170.231 192.616 166.402 188.12 163.839 187.486C161.276 186.852 150.547 184.874 145.363 186.904C140.185 188.934 133.972 191.175 130.343 190.573C126.713 189.971 119.723 198.007 119.344 200.498C118.965 202.989 124.766 200.991 128.64 200.518C132.52 200.044 143.545 202.906 145.375 203.156C147.206 203.399 146.346 204.84 143.416 206.172C140.487 207.504 138.669 209.521 138.938 210.738C139.208 211.954 138.707 214.112 140.236 214.106C141.765 214.1 146.84 214.714 151.466 212.768C156.091 210.821 157.826 207.85 161.455 207.895C165.085 207.946 171.734 205.557 170.205 202.375L170.212 202.381Z" fill="#5F8F2D"/>
<path d="M111.494 203.611C111.307 205 111.372 206.499 111.963 207.53C116.749 215.784 131.203 217.801 140.923 217.109C140.48 215.188 141.007 211.417 144.174 208.452C148.433 204.462 154.999 201.421 156.759 201.683C158.532 201.952 162.785 200.511 162.188 199.538C161.59 198.558 167.539 195.914 167.507 193.371C167.488 191.988 164.905 189.792 162.297 188.767C159.689 187.743 153.361 187.102 150.033 187.269C146.705 187.435 137.519 190.374 134.685 192.424C130.304 195.6 128.486 199.231 130.336 200.492C133.773 202.842 127.818 206.166 124.053 205.039C122.678 204.629 114.102 203.905 111.487 203.611H111.494Z" fill="#AEE677"/>
<path d="M222.191 218.025C221.24 214.919 216.57 211.756 207.351 210.053C198.132 208.349 192.093 210.789 189.761 213.248C187.429 215.707 186.966 220.189 195.267 223.276C202.16 225.837 210.781 225.447 214.713 224.531C219.396 223.436 223.296 221.617 222.197 218.031L222.191 218.025Z" fill="#5F8F2D"/>
<path d="M115.637 178.137C115.798 175.166 112.335 172.06 102.358 169.941C92.3814 167.821 84.5694 169.845 81.717 172.195C78.8647 174.545 78.5884 179.117 86.9207 182.46C93.8397 185.239 102.204 185.008 106.251 184.201C111.083 183.241 115.445 181.576 115.631 178.137H115.637Z" fill="#5F8F2D"/>
<path d="M136.979 174.346C136.979 174.346 134.923 175.928 134.024 175.832C121.567 174.5 90.5954 163.018 88.3469 158.414C88.257 158.235 90.8074 156.711 91.9638 157.133C106.977 162.641 122.267 167.955 136.979 174.346Z" fill="#76BA32"/>
<path d="M82.1347 184.496C82.1347 184.496 77.0338 187.877 75.614 187.954C69.1319 188.325 47.9767 178.227 47.9574 177.484C47.9574 177.189 54.2147 173.968 54.8571 174.205C63.8126 177.497 73.4876 180.205 82.1282 184.496H82.1347Z" fill="#76BA32"/>
<path d="M205.501 230.512C205.501 230.512 199.185 235.379 197.432 235.609C191.868 236.333 172.627 227.169 172.634 226.19C172.634 225.729 180.311 221.118 180.818 221.304C188.836 224.249 197.721 226.625 205.501 230.512Z" fill="#76BA32"/>
<path d="M127.593 174.711C127.593 174.711 125.537 176.216 124.747 176.152C115.464 175.403 90.6662 165.253 89.8503 162.877C89.8054 162.737 92.343 161.27 93.1974 161.584C104.652 165.817 116.338 169.857 127.593 174.711Z" fill="#76BA32"/>
<path d="M239.376 216.181C239.376 216.181 237.834 217.75 237.037 217.705C227.44 217.199 202.494 208.317 201.312 205.423C201.254 205.275 203.278 203.758 203.984 204.008C215.683 208.183 227.664 211.903 239.382 216.181H239.376Z" fill="#90D14F"/>
<path d="M143.667 237.056L144.277 276.611L147.007 277.764L160.28 283.341L162.869 284.43L165.445 245.445L237.975 199.512C237.519 198.885 236.331 198.161 234.693 197.373C230.151 195.209 222.268 192.705 217.893 191.38C215.979 190.803 214.732 190.451 214.732 190.451L143.673 237.056H143.667Z" fill="#FFE4D4"/>
<path d="M170.482 258.566C179.906 262.543 189.106 267.108 198.581 271.002C202.86 272.763 207.145 274.46 211.456 276.125L211.681 271.29C208.173 270.028 204.659 268.805 201.132 267.595C191.046 264.15 180.728 261.486 170.629 258.195C170.417 258.124 170.263 258.476 170.475 258.566H170.482Z" fill="#69A12F"/>
<path d="M197.701 278.961C201.8 281.267 206.336 283.854 210.993 285.909L211.147 282.547C210.968 282.49 210.788 282.439 210.608 282.381C206.368 281.075 202.134 279.781 197.901 278.494C197.618 278.411 197.444 278.821 197.695 278.961H197.701Z" fill="#69A12F"/>
<path d="M169.987 276.131C176.655 281.331 185.065 284.43 192.716 287.888C196.969 289.803 201.241 291.673 205.526 293.517C207.152 294.215 208.822 295.15 210.544 295.643L210.801 290.232C209.953 289.88 209.072 289.559 208.199 289.201C204.126 287.529 200.053 285.852 195.948 284.244C187.699 281.017 179.129 276.855 170.289 275.638C170.038 275.606 169.736 275.926 170 276.131H169.987Z" fill="#69A12F"/>
<path d="M137.583 245.208C125.126 240.284 112.753 235.327 100.457 230.006C94.2316 227.31 88.0322 224.557 81.8263 221.822C78.7233 220.452 75.6204 219.082 72.5175 217.718C69.6715 216.462 66.2987 215.515 64.0502 213.338C63.6005 212.902 63.9218 212.012 64.5835 212.057C67.4101 212.23 69.8321 213.696 72.4083 214.83C75.2735 216.085 78.1452 217.346 81.0104 218.601C87.4604 221.432 93.9232 224.23 100.354 227.105C112.971 232.747 125.37 238.67 137.795 244.709C138.071 244.843 137.872 245.323 137.583 245.208Z" fill="#69A12F"/>
<path d="M140.48 257.759C135.161 256.53 130.086 254.288 125.088 252.143C120.321 250.1 114.43 248.154 110.569 244.613C110.158 244.241 110.594 243.607 111.089 243.723C116.004 244.888 120.738 248.186 125.274 250.376C130.336 252.822 135.643 254.852 140.57 257.554C140.686 257.618 140.602 257.785 140.487 257.759H140.48Z" fill="#69A12F"/>
<path d="M122.152 256.318C116.595 255.364 111.14 252.969 105.879 250.971C100.27 248.845 94.7071 246.623 89.1372 244.414C83.805 242.294 78.4857 240.124 73.1728 237.959C69.3311 236.397 63.1894 235.289 60.7739 231.741C60.5812 231.46 60.7739 231.005 61.1015 230.935C65.3352 230.057 70.8344 233.669 74.7275 235.231C80.2974 237.466 85.8672 239.707 91.4178 241.987C96.3645 244.023 101.311 246.041 106.219 248.154C111.616 250.472 117.455 252.591 122.319 255.908C122.531 256.056 122.396 256.35 122.152 256.312V256.318Z" fill="#69A12F"/>
<path d="M0.0192871 187.025V190.176C1.34269 190.675 2.6661 191.162 3.98308 191.649C12.2062 194.646 20.4486 198.193 29.025 200.031C29.3591 200.101 29.5839 199.64 29.2691 199.461C22.2474 195.433 14.429 192.756 6.92541 189.747C4.62551 188.825 2.32561 187.922 0.0192871 187.025Z" fill="#69A12F"/>
<path d="M0.0385742 196.778V199.596C2.82672 200.454 5.57632 201.433 8.47368 201.786C8.61501 201.811 8.69211 201.593 8.58932 201.504C6.13523 199.531 3.22503 198.296 0.398335 196.951C0.282698 196.9 0.154212 196.836 0.0385742 196.778Z" fill="#69A12F"/>
<path d="M0.0513916 204.155V207.747C0.507517 207.933 0.944369 208.112 1.3748 208.311C5.13301 209.976 8.89765 211.628 12.6751 213.261C20.0631 216.462 27.9842 220.746 35.9632 222.021C36.2138 222.066 36.3294 221.771 36.1367 221.624C29.3783 216.507 20.4678 213.568 12.7779 210.052C8.81414 208.24 4.86319 206.409 0.905823 204.558C0.623154 204.424 0.334061 204.296 0.0513916 204.155Z" fill="#69A12F"/>
<path d="M223.559 272.007C234.847 264.201 246.912 257.458 258.347 249.857C264.193 245.97 270.11 242.186 276.091 238.51C277.626 237.562 279.174 236.627 280.729 235.692C281.05 233.445 281.442 231.255 281.853 229.193C281.577 229.359 281.307 229.519 281.031 229.686C278.114 231.409 275.211 233.157 272.32 234.937C266.544 238.497 260.82 242.135 255.186 245.893C243.738 253.546 233.658 262.677 223.232 271.578C222.987 271.783 223.309 272.18 223.559 272.007Z" fill="#578724"/>
<path d="M261.353 256.869C266.853 254.128 272.255 251.048 277.844 248.5C278.487 248.211 279.129 247.91 279.785 247.616C279.785 245.823 279.862 243.985 280.003 242.147C278.217 243.39 276.572 244.721 275.3 245.618C270.354 249.114 265.555 252.412 260.981 256.382C260.698 256.626 261.058 257.016 261.36 256.869H261.353Z" fill="#578724"/>
<path d="M215.914 290.379C217.989 287.523 221.112 285.506 223.957 283.476C227.786 280.735 231.731 278.174 235.714 275.657C239.479 273.275 243.314 271.015 247.13 268.709C250.747 266.526 254.332 263.958 258.507 262.984C258.861 262.901 259.073 263.305 258.848 263.567C256.227 266.66 252.571 268.594 249.166 270.707C245.376 273.051 241.605 275.427 237.795 277.726C234.198 279.903 230.613 282.099 227.028 284.302C223.508 286.466 220.039 289.265 216.107 290.622C215.979 290.667 215.837 290.494 215.921 290.379H215.914Z" fill="#578724"/>
<path d="M35.2052 193.916L35.8412 231.056L38.4366 232.151L48.8761 236.544L51.9983 237.857L53.7007 201.882L125.672 156.083C124.67 155.225 123.276 154.425 121.715 153.714C118.464 152.209 114.481 151.063 111.738 150.365C109.785 149.865 108.455 149.596 108.455 149.596L35.1987 193.909L35.2052 193.916Z" fill="#FFE4D4"/>
<path d="M160.28 283.341L162.869 284.43L165.445 245.445L237.975 199.512C237.519 198.885 236.331 198.161 234.693 197.373L162.503 243.133L160.28 283.341Z" fill="#F0AB76"/>
<path d="M143.667 237.056L144.277 276.611L147.007 277.764L147.682 237.332L217.932 191.521L217.887 191.386C215.972 190.81 214.726 190.458 214.726 190.458L143.667 237.063V237.056Z" fill="#F0AB76"/>
<path d="M48.8761 236.551L51.9983 237.863L53.7007 201.888L125.672 156.09C124.67 155.232 123.276 154.431 121.715 153.72L49.6277 200.313L48.8761 236.551Z" fill="#F0AB76"/>
<path d="M35.2051 193.916L35.8411 231.056L38.4366 232.151L39.2075 196.31L111.744 150.378C109.791 149.872 108.461 149.603 108.461 149.603L35.2051 193.916Z" fill="#F0AB76"/>
<g opacity="0.55">
<path d="M165.445 245.445L143.667 237.056L144.277 276.618L162.869 284.43L165.445 245.445Z" fill="#DADADA"/>
</g>
<g opacity="0.55">
<path d="M35.2051 193.916L35.8411 231.056L51.9983 237.863L53.7007 201.888L35.2051 193.916Z" fill="#DADADA"/>
</g>
<path d="M27.6502 141.092L27.6631 148.681L27.6759 151.831L27.6888 158.433L27.6952 161.251L27.7016 165.81L27.7144 169.403L27.7273 177.689L67.2496 194.293L79.6485 199.499L173.437 238.901L185.849 244.119L237.776 265.936L238.187 257.298L238.444 251.887L238.65 247.565L238.804 244.196L239.112 237.786L239.337 232.952L239.755 224.236L190.146 204.789L175.332 198.987L81.4152 162.167L67.892 156.871L27.6502 141.092Z" fill="#7FBA43"/>
<path d="M307.929 216.046C307.583 213.927 307.435 211.634 307.428 209.271C307.428 207.478 307.505 205.64 307.647 203.803C307.814 201.638 308.064 199.461 308.379 197.341C308.7 195.094 309.092 192.904 309.503 190.842C311.09 182.818 313.011 176.696 313.011 176.696L239.755 224.23L239.337 232.945L239.112 237.78L238.804 244.196L238.65 247.558L238.444 251.887L238.187 257.298L237.776 265.936L307.936 216.046H307.929Z" fill="#63A61F"/>
<path d="M313.005 176.696C243.905 155.565 178.178 126.383 110.119 102.376C82.1154 114.281 54.9149 127.581 27.6502 141.086C98.1633 169.332 168.445 197.988 239.748 224.236C264.187 208.432 287.969 191.565 313.005 176.696Z" fill="#AEE677"/>
<path d="M294.901 177.087C233.26 157.505 174.195 131.692 113.453 109.664C91.4178 119.314 69.9221 129.918 48.4136 140.689C111.783 165.586 174.914 190.906 238.984 213.978C257.634 201.741 275.776 188.588 294.901 177.087Z" fill="#6FA634"/>
<path d="M270.971 187.64C273.161 185.95 274.382 184.073 274.626 181.986C274.96 179.117 273.264 175.774 262.066 171.996C245.485 166.406 229.02 160.47 212.702 154.169C209.58 152.965 219.576 158.44 212.169 165.362C205.102 171.958 195.671 175.755 186.221 177.612C183.876 178.073 181.801 178.489 180.092 178.874C177.619 179.424 176.405 181.166 178.107 181.819C194.084 187.922 210.274 194.447 226.36 199.448C237.198 202.817 249.713 200.121 259.625 194.953C264.7 192.308 268.549 189.516 270.971 187.647V187.64Z" fill="#AEE677"/>
<path d="M174.94 141.144C176.591 141.131 177.458 140.215 176.167 139.696C158.687 132.697 141.142 125.897 123.507 119.288C114.102 115.779 105.95 116.528 97.2704 120.735C90.0559 124.225 81.9356 127.267 75.1515 131.487C71.4511 133.786 63.9025 137.109 81.9355 144.582C98.5038 151.447 115.361 157.812 132.161 164.19C133.452 164.683 135.855 163.87 135.868 162.961C135.887 161.11 136.613 158.324 138.681 154.911C146.378 142.239 162.008 141.253 174.94 141.144Z" fill="#AEE677"/>
<path d="M147.881 151.21C143.802 154.738 139.799 160.303 139.138 165.26C138.951 166.649 139.015 168.148 139.606 169.178C144.393 177.433 159.027 179.604 168.567 178.758C168.773 178.739 168.991 178.713 169.203 178.688C181.512 177.068 200.078 172.707 207.498 162.596C209.092 160.425 210.813 155.328 207.203 151.46C200.727 144.525 189.543 143.34 180.491 142.437C170.09 141.4 155.976 144.198 147.875 151.204L147.881 151.21Z" fill="#8BC94B"/>
<path d="M197.862 164.036C197.38 163.031 196.988 158.26 197.438 156.263C197.888 154.265 194.052 149.776 191.489 149.142C188.926 148.508 178.197 146.529 173.013 148.553C167.835 150.583 161.623 152.824 157.993 152.222C154.363 151.62 147.373 159.656 146.994 162.147C146.622 164.645 152.417 162.641 156.29 162.167C160.164 161.693 171.195 164.555 173.026 164.805C174.857 165.055 173.996 166.489 171.066 167.821C168.137 169.153 166.319 171.17 166.589 172.387C166.858 173.603 166.357 175.761 167.886 175.755C169.422 175.749 174.49 176.363 179.116 174.417C183.741 172.47 185.476 169.499 189.106 169.544C192.735 169.595 199.385 167.206 197.856 164.024L197.862 164.036Z" fill="#5F8F2D"/>
<path d="M139.144 165.266C138.958 166.656 139.022 168.154 139.613 169.185C144.399 177.439 158.854 179.456 168.574 178.765C168.13 176.844 168.657 173.072 171.824 170.107C176.084 166.118 182.649 163.076 184.41 163.339C186.183 163.607 190.436 162.167 189.838 161.193C189.241 160.214 195.19 157.575 195.157 155.027C195.138 153.644 192.556 151.454 189.947 150.423C187.339 149.398 181.011 148.758 177.683 148.924C174.356 149.091 165.169 152.03 162.336 154.079C157.954 157.255 156.136 160.886 157.986 162.147C161.423 164.498 155.468 167.821 151.703 166.694C150.329 166.284 141.752 165.561 139.138 165.266H139.144Z" fill="#AEE677"/>
<path d="M249.841 179.68C248.89 176.575 244.22 173.411 235.001 171.708C225.782 170.005 219.743 172.444 217.411 174.903C215.079 177.362 214.617 181.845 222.917 184.931C229.81 187.493 238.431 187.102 242.363 186.18C247.046 185.085 250.946 183.273 249.847 179.68H249.841Z" fill="#5F8F2D"/>
<path d="M143.288 139.793C143.448 136.821 139.986 133.716 130.009 131.596C120.032 129.476 112.22 131.5 109.367 133.85C106.515 136.2 106.239 140.772 114.571 144.115C121.49 146.894 129.854 146.664 133.902 145.857C138.733 144.896 143.095 143.231 143.281 139.793H143.288Z" fill="#5F8F2D"/>
<path d="M164.629 136.002C164.629 136.002 162.573 137.583 161.674 137.487C149.217 136.155 118.246 124.667 115.997 120.07C115.907 119.89 118.458 118.366 119.614 118.789C134.628 124.296 149.918 129.611 164.629 136.002Z" fill="#76BA32"/>
<path d="M109.785 146.151C109.785 146.151 104.678 149.532 103.264 149.609C96.7821 149.981 75.6269 139.882 75.6076 139.139C75.6076 138.845 81.8649 135.624 82.5073 135.861C91.4628 139.152 101.138 141.861 109.778 146.151H109.785Z" fill="#76BA32"/>
<path d="M233.151 192.167C233.151 192.167 226.836 197.034 225.082 197.265C219.518 197.988 200.278 188.825 200.284 187.845C200.284 187.384 207.961 182.773 208.468 182.959C216.486 185.905 225.371 188.28 233.151 192.167Z" fill="#76BA32"/>
<path d="M155.243 136.367C155.243 136.367 153.187 137.871 152.397 137.807C143.114 137.058 118.316 126.909 117.5 124.533C117.455 124.392 119.993 122.926 120.848 123.239C132.302 127.472 143.988 131.513 155.243 136.367Z" fill="#76BA32"/>
<path d="M267.026 177.836C267.026 177.836 265.484 179.405 264.688 179.36C255.09 178.854 230.144 169.973 228.962 167.078C228.904 166.931 230.928 165.413 231.635 165.663C243.333 169.838 255.315 173.559 267.032 177.836H267.026Z" fill="#90D14F"/>
<path d="M171.317 198.712L171.927 238.267L174.657 239.419L187.93 244.997L190.519 246.085L193.095 207.101L265.625 161.168C265.169 160.54 263.981 159.817 262.343 159.035C257.801 156.871 249.918 154.367 245.543 153.042C243.629 152.465 242.382 152.113 242.382 152.113L171.323 198.718L171.317 198.712Z" fill="#FFE4D4"/>
<path d="M198.132 220.221C207.556 224.198 216.756 228.764 226.232 232.657C230.51 234.418 234.795 236.115 239.106 237.78L239.331 232.945C235.823 231.684 232.309 230.454 228.782 229.251C218.696 225.805 208.379 223.142 198.28 219.85C198.068 219.78 197.913 220.132 198.125 220.221H198.132Z" fill="#69A12F"/>
<path d="M225.352 240.617C229.45 242.922 233.986 245.509 238.643 247.565L238.798 244.203C238.618 244.145 238.438 244.094 238.258 244.036C234.018 242.73 229.784 241.436 225.551 240.149C225.268 240.06 225.095 240.476 225.345 240.617H225.352Z" fill="#69A12F"/>
<path d="M197.637 237.786C204.306 242.986 212.715 246.085 220.366 249.543C224.619 251.458 228.891 253.328 233.176 255.172C234.802 255.87 236.472 256.805 238.194 257.298L238.451 251.887C237.603 251.535 236.723 251.215 235.849 250.856C231.776 249.185 227.703 247.507 223.598 245.9C215.349 242.672 206.779 238.51 197.939 237.293C197.689 237.261 197.387 237.582 197.65 237.786H197.637Z" fill="#69A12F"/>
<path d="M165.233 206.864C152.776 201.939 140.403 196.983 128.107 191.661C121.882 188.966 115.682 186.212 109.476 183.471C106.374 182.101 103.271 180.737 100.168 179.367C97.3217 178.112 93.949 177.164 91.7004 174.987C91.2507 174.551 91.572 173.661 92.2337 173.706C95.0604 173.879 97.4823 175.345 100.058 176.479C102.924 177.734 105.795 178.995 108.661 180.25C115.111 183.081 121.573 185.879 128.004 188.754C140.621 194.396 153.02 200.319 165.445 206.358C165.721 206.492 165.522 206.972 165.233 206.857V206.864Z" fill="#69A12F"/>
<path d="M168.13 219.415C162.811 218.185 157.736 215.944 152.738 213.799C147.971 211.756 142.08 209.809 138.219 206.268C137.808 205.897 138.245 205.263 138.739 205.378C143.654 206.543 148.388 209.841 152.924 212.031C157.986 214.477 163.293 216.507 168.22 219.21C168.33 219.274 168.252 219.44 168.137 219.415H168.13Z" fill="#69A12F"/>
<path d="M149.802 217.974C144.245 217.02 138.791 214.625 133.529 212.627C127.921 210.501 122.357 208.279 116.787 206.07C111.455 203.95 106.136 201.779 100.823 199.615C96.9813 198.052 90.8396 196.944 88.4305 193.397C88.2378 193.115 88.4305 192.66 88.7582 192.59C92.9918 191.713 98.491 195.324 102.384 196.887C107.954 199.122 113.524 201.363 119.074 203.643C124.021 205.679 128.968 207.696 133.876 209.809C139.272 212.127 145.112 214.247 149.975 217.564C150.187 217.711 150.052 218.012 149.808 217.967L149.802 217.974Z" fill="#69A12F"/>
<path d="M27.663 148.681V151.831C28.9864 152.331 30.3098 152.817 31.6268 153.304C39.8499 156.301 48.0923 159.848 56.6687 161.693C57.0028 161.763 57.2276 161.302 56.9129 161.123C49.8911 157.095 42.0727 154.418 34.5691 151.409C32.2692 150.486 29.9693 149.584 27.663 148.687V148.681Z" fill="#69A12F"/>
<path d="M27.6887 158.433V161.251C30.4769 162.109 33.2265 163.089 36.1238 163.441C36.2652 163.467 36.3423 163.249 36.2395 163.159C33.7854 161.187 30.8752 159.951 28.0485 158.606C27.9328 158.549 27.8044 158.491 27.6887 158.433Z" fill="#69A12F"/>
<path d="M27.7016 165.81V169.403C28.1577 169.588 28.5946 169.768 29.025 169.966C32.7832 171.631 36.5479 173.283 40.3253 174.916C47.7133 178.118 55.6345 182.402 63.6134 183.676C63.864 183.721 63.9796 183.426 63.7869 183.279C57.0285 178.163 48.118 175.223 40.4281 171.708C36.4643 169.896 32.5134 168.064 28.556 166.214C28.2734 166.079 27.9843 165.945 27.7016 165.804V165.81Z" fill="#69A12F"/>
<path d="M251.209 233.662C262.497 225.856 274.562 219.114 285.997 211.512C291.843 207.626 297.76 203.841 303.741 200.165C305.276 199.218 306.825 198.283 308.379 197.348C308.7 195.1 309.092 192.91 309.503 190.848C309.227 191.015 308.957 191.175 308.681 191.341C305.765 193.064 302.861 194.812 299.97 196.592C294.194 200.153 288.47 203.79 282.836 207.549C271.388 215.201 261.308 224.332 250.882 233.233C250.638 233.438 250.959 233.835 251.209 233.662Z" fill="#578724"/>
<path d="M289.004 218.524C294.503 215.784 299.906 212.704 305.495 210.155C306.137 209.867 306.78 209.566 307.435 209.271C307.435 207.478 307.512 205.64 307.653 203.803C305.867 205.045 304.223 206.377 302.951 207.273C298.004 210.77 293.205 214.068 288.631 218.038C288.348 218.281 288.708 218.672 289.01 218.524H289.004Z" fill="#578724"/>
<path d="M243.564 252.034C245.639 249.178 248.762 247.161 251.608 245.131C255.437 242.391 259.381 239.829 263.364 237.313C267.129 234.93 270.964 232.67 274.78 230.371C278.397 228.187 281.982 225.62 286.158 224.646C286.511 224.563 286.723 224.966 286.498 225.229C283.877 228.322 280.221 230.256 276.817 232.369C273.026 234.713 269.255 237.088 265.446 239.387C261.848 241.564 258.263 243.761 254.678 245.964C251.158 248.128 247.689 250.927 243.757 252.284C243.629 252.329 243.487 252.156 243.571 252.041L243.564 252.034Z" fill="#578724"/>
<path d="M62.8554 155.571L63.4914 192.712L66.0868 193.807L76.5263 198.2L79.6485 199.512L81.3509 163.537L153.322 117.739C152.32 116.881 150.926 116.08 149.365 115.369C146.114 113.864 142.131 112.718 139.388 112.02C137.435 111.521 136.105 111.252 136.105 111.252L62.8489 155.565L62.8554 155.571Z" fill="#FFE4D4"/>
<path d="M187.93 244.997L190.519 246.085L193.095 207.1L265.626 161.168C265.169 160.54 263.981 159.817 262.343 159.035L190.153 204.795L187.93 245.003V244.997Z" fill="#F0AB76"/>
<path d="M171.317 198.712L171.927 238.267L174.657 239.419L175.332 198.987L245.582 153.17L245.537 153.035C243.622 152.459 242.376 152.107 242.376 152.107L171.317 198.712Z" fill="#F0AB76"/>
<path d="M76.5262 198.206L79.6485 199.519L81.3509 163.543L153.322 117.745C152.32 116.887 150.926 116.087 149.365 115.376L77.2779 161.968L76.5262 198.206Z" fill="#F0AB76"/>
<path d="M62.8553 155.571L63.4914 192.712L66.0868 193.807L66.8577 157.966L139.394 112.033C137.441 111.527 136.112 111.258 136.112 111.258L62.8553 155.571Z" fill="#F0AB76"/>
<g opacity="0.55">
<path d="M193.089 207.1L171.317 198.712L171.927 238.267L190.519 246.085L193.089 207.1Z" fill="#DADADA"/>
</g>
<g opacity="0.55">
<path d="M62.8553 155.571L63.4914 192.712L79.6485 199.519L81.3509 163.543L62.8553 155.571Z" fill="#DADADA"/>
</g>
<path d="M25.2475 93.1617L25.2603 100.75L25.2668 103.901L25.286 110.503L25.2925 113.32L25.2989 117.88L25.3117 121.472L25.3246 129.752L64.8469 146.363L77.2458 151.569L171.028 190.97L183.446 196.189L235.374 218.006L235.778 209.367L236.042 203.956L236.241 199.628L236.401 196.266L236.703 189.849L236.935 185.021L237.352 176.306L187.744 156.858L172.929 151.056L79.0125 114.236L65.4893 108.94L25.2475 93.1617Z" fill="#7FBA43"/>
<path d="M305.527 168.116C305.18 165.996 305.032 163.704 305.026 161.341C305.026 159.548 305.103 157.71 305.244 155.872C305.411 153.708 305.662 151.53 305.977 149.411C306.298 147.163 306.69 144.973 307.101 142.911C308.688 134.887 310.609 128.766 310.609 128.766L237.352 176.299L236.935 185.015L236.71 189.849L236.401 196.266L236.247 199.628L236.042 203.956L235.785 209.367L235.374 218.006L305.533 168.116H305.527Z" fill="#63A61F"/>
<path d="M310.602 128.766C241.502 107.634 175.775 78.4527 107.716 54.4457C79.7127 66.3499 52.5122 79.6501 25.2475 93.1553C95.7606 121.401 166.042 150.057 237.346 176.306C261.784 160.502 285.567 143.635 310.602 128.766Z" fill="#AEE677"/>
<path d="M292.498 129.156C230.857 109.574 171.792 83.7612 111.05 61.7329C89.0151 71.3831 67.5194 81.9874 46.0109 92.7582C109.38 117.655 172.512 142.975 236.581 166.047C255.231 153.81 273.373 140.657 292.492 129.156H292.498Z" fill="#6FA634"/>
<path d="M268.568 139.709C270.758 138.019 271.979 136.143 272.223 134.055C272.557 131.186 270.861 127.843 259.664 124.065C243.083 118.475 226.617 112.539 210.299 106.238C207.177 105.034 217.173 110.509 209.766 117.431C202.699 124.027 193.269 127.824 183.818 129.681C181.474 130.142 179.399 130.559 177.69 130.943C175.216 131.494 174.002 133.235 175.705 133.888C191.682 139.991 207.871 146.516 223.957 151.511C234.795 154.879 247.31 152.183 257.222 147.016C262.298 144.371 266.146 141.579 268.568 139.703V139.709Z" fill="#AEE677"/>
<path d="M172.537 93.2129C174.188 93.2001 175.056 92.2844 173.764 91.7657C156.284 84.7666 138.739 77.966 121.104 71.3575C111.699 67.8483 103.547 68.5975 94.8676 72.8047C87.6532 76.2946 79.5328 79.3363 72.7488 83.5563C69.0484 85.8552 61.4998 89.1786 79.5328 96.6516C96.1011 103.516 112.958 109.881 129.758 116.259C131.049 116.752 133.452 115.939 133.465 115.03C133.484 113.179 134.21 110.394 136.279 106.981C143.975 94.3079 159.605 93.3218 172.537 93.2129Z" fill="#AEE677"/>
<path d="M145.478 103.279C141.399 106.808 137.397 112.372 136.735 117.329C136.549 118.718 136.613 120.217 137.204 121.248C141.99 129.502 156.624 131.673 166.165 130.827C166.37 130.808 166.589 130.783 166.801 130.757C179.11 129.137 197.676 124.776 205.096 114.665C206.689 112.494 208.411 107.397 204.8 103.529C198.325 96.5939 187.14 95.4093 178.088 94.5064C167.687 93.469 153.573 96.2674 145.472 103.273L145.478 103.279Z" fill="#8BC94B"/>
<path d="M195.453 116.106C194.971 115.1 194.579 110.33 195.029 108.332C195.472 106.34 191.643 101.845 189.08 101.211C186.517 100.577 175.788 98.5983 170.604 100.622C165.426 102.652 159.213 104.893 155.584 104.291C151.954 103.689 144.964 111.726 144.585 114.217C144.213 116.714 150.007 114.71 153.881 114.236C157.762 113.762 168.786 116.624 170.617 116.874C172.448 117.117 171.587 118.558 168.657 119.89C165.728 121.222 163.91 123.239 164.179 124.456C164.449 125.673 163.948 127.831 165.477 127.824C167.013 127.818 172.081 128.433 176.707 126.486C181.332 124.539 183.067 121.568 186.697 121.613C190.326 121.664 196.976 119.275 195.447 116.093L195.453 116.106Z" fill="#5F8F2D"/>
<path d="M136.741 117.335C136.555 118.725 136.619 120.223 137.21 121.254C141.996 129.508 156.451 131.526 166.171 130.834C165.728 128.913 166.255 125.141 169.422 122.176C173.681 118.187 180.247 115.145 182.007 115.408C183.78 115.677 188.033 114.236 187.435 113.263C186.838 112.283 192.787 109.645 192.755 107.096C192.735 105.713 190.153 103.523 187.545 102.492C184.936 101.467 178.608 100.827 175.281 100.993C171.953 101.16 162.766 104.099 159.933 106.148C155.552 109.324 153.734 112.955 155.584 114.217C159.021 116.567 153.065 119.89 149.301 118.763C147.926 118.353 139.35 117.63 136.735 117.335H136.741Z" fill="#AEE677"/>
<path d="M247.432 131.75C246.481 128.644 241.811 125.48 232.592 123.777C223.373 122.074 217.334 124.514 215.002 126.973C212.67 129.431 212.208 133.914 220.508 137.001C227.401 139.562 236.022 139.171 239.954 138.249C244.637 137.154 248.537 135.342 247.438 131.75H247.432Z" fill="#5F8F2D"/>
<path d="M140.878 91.8618C141.039 88.8905 137.576 85.7848 127.599 83.6652C117.622 81.5456 109.811 83.5692 106.958 85.9193C104.106 88.2694 103.829 92.8416 112.162 96.1842C119.081 98.9634 127.445 98.7328 131.493 97.926C136.324 96.9655 140.686 95.3005 140.872 91.8618H140.878Z" fill="#5F8F2D"/>
<path d="M162.226 88.0709C162.226 88.0709 160.171 89.6525 159.271 89.5565C146.815 88.2245 115.843 76.7365 113.594 72.1388C113.505 71.9595 116.055 70.4354 117.211 70.858C132.225 76.3651 147.515 81.6801 162.226 88.0709Z" fill="#76BA32"/>
<path d="M107.382 98.2205C107.382 98.2205 102.281 101.602 100.862 101.678C94.3794 102.05 73.2242 91.9514 73.2049 91.2086C73.2049 90.914 79.4622 87.693 80.1046 87.9299C89.0601 91.2214 98.7351 93.9301 107.376 98.2205H107.382Z" fill="#76BA32"/>
<path d="M230.748 144.237C230.748 144.237 224.433 149.103 222.679 149.334C217.116 150.057 197.875 140.894 197.881 139.914C197.881 139.453 205.558 134.843 206.066 135.028C214.083 137.974 222.968 140.35 230.748 144.237Z" fill="#76BA32"/>
<path d="M152.841 88.4359C152.841 88.4359 150.785 89.9407 149.995 89.8767C140.711 89.1275 115.914 78.9778 115.098 76.6021C115.053 76.4612 117.59 74.9948 118.445 75.3085C129.899 79.5413 141.585 83.582 152.841 88.4359Z" fill="#76BA32"/>
<path d="M264.623 129.899C264.623 129.899 263.081 131.468 262.285 131.423C252.687 130.917 227.741 122.035 226.559 119.141C226.502 118.994 228.525 117.476 229.232 117.726C240.93 121.901 252.912 125.621 264.63 129.899H264.623Z" fill="#90D14F"/>
<path d="M168.914 150.781L169.524 190.336L172.255 191.489L185.527 197.066L188.116 198.155L190.692 159.17L263.223 113.237C262.767 112.609 261.578 111.886 259.94 111.105C255.398 108.94 247.515 106.436 243.14 105.111C241.226 104.534 239.98 104.182 239.98 104.182L168.92 150.787L168.914 150.781Z" fill="#FFE4D4"/>
<path d="M195.729 172.291C205.154 176.261 214.353 180.833 223.829 184.726C228.108 186.487 232.393 188.184 236.703 189.849L236.928 185.015C233.42 183.753 229.906 182.524 226.379 181.32C216.293 177.875 205.976 175.211 195.877 171.919C195.665 171.849 195.511 172.201 195.723 172.291H195.729Z" fill="#69A12F"/>
<path d="M222.949 192.686C227.048 194.991 231.583 197.578 236.241 199.634L236.395 196.272C236.215 196.214 236.035 196.163 235.855 196.106C231.615 194.799 227.382 193.506 223.148 192.219C222.865 192.135 222.692 192.545 222.942 192.686H222.949Z" fill="#69A12F"/>
<path d="M195.235 189.849C201.903 195.049 210.312 198.148 217.964 201.606C222.217 203.521 226.489 205.391 230.774 207.235C232.399 207.933 234.069 208.868 235.791 209.361L236.048 203.95C235.2 203.598 234.32 203.278 233.446 202.919C229.373 201.248 225.3 199.57 221.195 197.963C212.946 194.735 204.376 190.573 195.536 189.356C195.286 189.324 194.984 189.644 195.247 189.849H195.235Z" fill="#69A12F"/>
<path d="M162.83 158.933C150.374 154.008 138 149.052 125.704 143.731C119.479 141.035 113.28 138.281 107.074 135.541C103.971 134.17 100.868 132.806 97.765 131.436C94.919 130.181 91.5462 129.233 89.2977 127.056C88.848 126.62 89.1693 125.73 89.831 125.775C92.6576 125.948 95.0796 127.414 97.6557 128.548C100.521 129.803 103.393 131.064 106.258 132.32C112.708 135.15 119.171 137.948 125.601 140.823C138.219 146.465 150.618 152.388 163.042 158.427C163.319 158.561 163.119 159.042 162.83 158.926V158.933Z" fill="#69A12F"/>
<path d="M165.721 171.484C160.402 170.254 155.327 168.013 150.329 165.868C145.562 163.825 139.671 161.878 135.81 158.337C135.399 157.966 135.835 157.332 136.33 157.447C141.245 158.613 145.979 161.91 150.515 164.1C155.577 166.547 160.884 168.577 165.811 171.279C165.92 171.343 165.843 171.509 165.728 171.477L165.721 171.484Z" fill="#69A12F"/>
<path d="M147.399 170.043C141.842 169.089 136.388 166.694 131.126 164.696C125.518 162.57 119.955 160.348 114.385 158.139C109.053 156.019 103.733 153.848 98.4203 151.684C94.5786 150.121 88.4369 149.014 86.0278 145.466C85.8351 145.184 86.0278 144.73 86.3554 144.659C90.5891 143.782 96.0883 147.394 99.9814 148.956C105.551 151.191 111.121 153.432 116.672 155.718C121.618 157.755 126.565 159.772 131.473 161.885C136.87 164.203 142.709 166.323 147.573 169.64C147.785 169.787 147.65 170.081 147.406 170.043H147.399Z" fill="#69A12F"/>
<path d="M25.2604 100.75V103.9C26.5838 104.4 27.9072 104.887 29.2242 105.373C37.4473 108.37 45.6896 111.918 54.2661 113.762C54.6002 113.832 54.825 113.371 54.5102 113.192C47.4885 109.164 39.6701 106.487 32.1665 103.478C29.8666 102.556 27.5667 101.653 25.2604 100.756V100.75Z" fill="#69A12F"/>
<path d="M25.2861 110.503V113.32C28.0742 114.178 30.8238 115.158 33.7212 115.51C33.8625 115.536 33.9396 115.318 33.8368 115.228C31.3827 113.256 28.4725 112.02 25.6458 110.675C25.5302 110.618 25.4017 110.56 25.2861 110.503Z" fill="#69A12F"/>
<path d="M25.2989 117.88V121.472C25.755 121.658 26.1919 121.837 26.6223 122.035C30.3805 123.7 34.1451 125.352 37.9226 126.985C45.3106 130.187 53.2317 134.471 61.2107 135.745C61.4613 135.79 61.5769 135.496 61.3842 135.348C54.6258 130.232 45.7153 127.293 38.0254 123.777C34.0616 121.965 30.1107 120.134 26.1533 118.283C25.8707 118.148 25.5816 118.02 25.2989 117.88Z" fill="#69A12F"/>
<path d="M248.807 185.732C260.094 177.926 272.159 171.183 283.594 163.582C289.44 159.695 295.357 155.91 301.338 152.235C302.874 151.287 304.422 150.352 305.977 149.417C306.298 147.169 306.69 144.979 307.101 142.917C306.825 143.084 306.555 143.244 306.279 143.411C303.362 145.133 300.458 146.881 297.567 148.661C291.792 152.222 286.068 155.859 280.434 159.618C268.985 167.27 258.906 176.402 248.479 185.303C248.235 185.508 248.556 185.905 248.807 185.732Z" fill="#578724"/>
<path d="M286.601 170.594C292.1 167.859 297.503 164.773 303.092 162.224C303.734 161.936 304.377 161.635 305.032 161.341C305.032 159.548 305.109 157.71 305.251 155.872C303.465 157.114 301.82 158.446 300.548 159.343C295.601 162.839 290.802 166.137 286.228 170.107C285.946 170.35 286.305 170.741 286.607 170.594H286.601Z" fill="#578724"/>
<path d="M241.162 204.104C243.237 201.248 246.359 199.23 249.205 197.201C253.034 194.46 256.978 191.898 260.961 189.382C264.726 187 268.561 184.739 272.377 182.434C275.994 180.25 279.585 177.682 283.755 176.709C284.108 176.626 284.32 177.029 284.095 177.292C281.474 180.385 277.819 182.319 274.414 184.432C270.624 186.776 266.852 189.151 263.043 191.45C259.445 193.627 255.861 195.824 252.276 198.027C248.755 200.191 245.286 202.989 241.354 204.347C241.226 204.392 241.085 204.219 241.168 204.104H241.162Z" fill="#578724"/>
<path d="M60.4462 107.64L61.0822 144.781L63.6777 145.876L74.1172 150.269L77.2394 151.582L78.9418 115.606L150.913 69.8079C149.911 68.9498 148.517 68.1493 146.956 67.4385C143.705 65.9337 139.722 64.7875 136.979 64.0895C135.026 63.59 133.696 63.321 133.696 63.321L60.4398 107.634L60.4462 107.64Z" fill="#FFE4D4"/>
<path d="M185.521 197.066L188.11 198.155L190.686 159.17L263.216 113.237C262.76 112.609 261.572 111.886 259.934 111.104L187.744 156.864L185.521 197.072V197.066Z" fill="#F0AB76"/>
<path d="M168.914 150.781L169.524 190.336L172.255 191.489L172.929 151.056L243.179 105.239L243.134 105.104C241.22 104.528 239.973 104.176 239.973 104.176L168.914 150.781Z" fill="#F0AB76"/>
<path d="M74.1236 150.269L77.2458 151.581L78.9482 115.606L150.92 69.8078C149.917 68.9497 148.523 68.1493 146.962 67.4385L74.8752 114.031L74.1236 150.269Z" fill="#F0AB76"/>
<path d="M60.4462 107.64L61.0822 144.781L63.6777 145.876L64.4486 110.035L136.985 64.1022C135.032 63.5963 133.703 63.3274 133.703 63.3274L60.4462 107.64Z" fill="#F0AB76"/>
<g opacity="0.55">
<path d="M190.686 159.163L168.914 150.781L169.524 190.336L188.116 198.155L190.686 159.163Z" fill="#DADADA"/>
</g>
<g opacity="0.55">
<path d="M60.4462 107.64L61.0822 144.781L77.2458 151.588L78.9482 115.613L60.4462 107.64Z" fill="#DADADA"/>
</g>
<path d="M12.0198 39.2372L12.0391 46.8254L12.0455 49.976L12.0584 56.5781L12.0712 59.3956L12.0777 63.955L12.0841 67.5474L12.0969 75.8336L51.6192 92.4381L64.0181 97.6442L157.806 137.045L170.218 142.264L222.146 164.081L222.557 155.443L222.814 150.032L223.02 145.709L223.174 142.341L223.482 135.931L223.707 131.096L224.125 122.381L174.523 102.934L159.702 97.1319L65.7848 60.3113L52.2617 55.0156L12.0198 39.2372Z" fill="#7FBA43"/>
<path d="M292.306 114.191C291.959 112.071 291.811 109.779 291.805 107.416C291.805 105.623 291.882 103.785 292.023 101.947C292.19 99.783 292.441 97.6058 292.755 95.4862C293.077 93.2385 293.468 91.0485 293.88 88.9866C295.466 80.9629 297.387 74.8411 297.387 74.8411L224.131 122.375L223.713 131.09L223.489 135.925L223.18 142.341L223.026 145.703L222.82 150.032L222.564 155.443L222.152 164.081L292.306 114.191Z" fill="#63A61F"/>
<path d="M297.381 74.8411C228.275 53.7093 162.548 24.5282 94.4886 0.527588C66.485 12.4318 39.2846 25.7321 12.0198 39.2372C82.533 67.4834 152.815 96.1393 224.118 122.388C248.556 106.584 272.339 89.7166 297.374 74.8475L297.381 74.8411Z" fill="#AEE677"/>
<path d="M279.271 75.2317C217.63 55.6496 158.565 29.8368 97.8228 7.80847C75.7875 17.4587 54.2918 28.063 32.7832 38.8338C96.1525 63.7309 159.284 89.0506 223.354 112.123C242.003 99.8855 260.146 86.7325 279.264 75.2317H279.271Z" fill="#6FA634"/>
<path d="M255.347 85.7848C257.537 84.0942 258.758 82.218 259.002 80.1304C259.336 77.2616 257.64 73.9189 246.443 70.1408C229.861 64.5505 213.396 58.6144 197.078 52.3133C193.956 51.1094 203.952 56.5845 196.545 63.5067C189.478 70.1024 180.047 73.8997 170.597 75.7568C168.252 76.2178 166.177 76.6341 164.468 77.0183C161.995 77.569 160.781 79.3107 162.483 79.9639C178.461 86.0665 194.65 92.5918 210.736 97.5866C221.574 100.955 234.089 98.2589 244.001 93.0912C249.076 90.4466 252.925 87.6546 255.347 85.7784V85.7848Z" fill="#AEE677"/>
<path d="M159.316 39.2884C160.967 39.2756 161.834 38.3599 160.543 37.8412C143.063 30.8421 125.518 24.0415 107.883 17.4331C98.4781 13.9239 90.3256 14.6731 81.6464 18.8803C74.4319 22.3702 66.3116 25.4119 59.5275 29.6319C55.8271 31.9307 48.2786 35.2542 66.3116 42.7272C82.8799 49.5918 99.7372 55.957 116.537 62.3349C117.828 62.828 120.237 62.0147 120.244 61.1054C120.263 59.2548 120.989 56.4692 123.057 53.0561C130.754 40.3835 146.384 39.3973 159.316 39.2884Z" fill="#AEE677"/>
<path d="M132.251 49.3548C128.171 52.8832 124.169 58.4479 123.507 63.4043C123.321 64.7939 123.385 66.2923 123.976 67.3233C128.762 75.5775 143.397 77.7483 152.937 76.903C153.142 76.8838 153.361 76.8582 153.573 76.8326C165.882 75.2125 184.448 70.8516 191.868 60.7404C193.461 58.5696 195.183 53.4723 191.573 49.6046C185.097 42.6695 173.912 41.4849 164.86 40.5819C154.459 39.5446 140.345 42.3429 132.244 49.3484L132.251 49.3548Z" fill="#8BC94B"/>
<path d="M182.232 62.1811C181.75 61.1758 181.358 56.4051 181.808 54.4072C182.251 52.4157 178.422 47.9204 175.859 47.2864C173.295 46.6525 162.567 44.6738 157.382 46.6973C152.204 48.7272 145.992 50.9685 142.362 50.3665C138.733 49.7646 131.743 57.8011 131.364 60.2921C130.985 62.7831 136.786 60.7852 140.66 60.3113C144.54 59.8374 155.564 62.6998 157.395 62.9496C159.226 63.1929 158.365 64.6337 155.436 65.9657C152.506 67.2976 150.688 69.3147 150.958 70.5314C151.228 71.7481 150.727 73.9061 152.256 73.8997C153.791 73.8933 158.86 74.508 163.485 72.5613C168.111 70.6146 169.846 67.6434 173.475 67.6882C177.105 67.7394 183.754 65.3509 182.225 62.1747L182.232 62.1811Z" fill="#5F8F2D"/>
<path d="M123.514 63.4107C123.327 64.8002 123.392 66.2987 123.983 67.3296C128.769 75.5839 143.223 77.601 152.943 76.9094C152.5 74.9883 153.027 71.2166 156.194 68.2518C160.453 64.2623 167.019 61.2206 168.779 61.4832C170.552 61.7521 174.805 60.3113 174.208 59.338C173.61 58.3582 179.559 55.72 179.527 53.1713C179.508 51.7882 176.925 49.5981 174.317 48.5672C171.709 47.5426 165.381 46.9022 162.053 47.0687C158.725 47.2352 149.538 50.1745 146.705 52.2236C142.324 55.3998 140.506 59.0306 142.356 60.2921C145.793 62.6422 139.838 65.9657 136.073 64.8386C134.698 64.4288 126.122 63.7052 123.507 63.4107H123.514Z" fill="#AEE677"/>
<path d="M234.211 77.8251C233.26 74.7194 228.589 71.5561 219.371 69.8527C210.152 68.1494 204.113 70.5891 201.781 73.0481C199.449 75.5071 198.986 79.9896 207.286 83.0761C214.18 85.6375 222.801 85.2469 226.733 84.3248C231.416 83.2298 235.316 81.4176 234.217 77.8251H234.211Z" fill="#5F8F2D"/>
<path d="M127.657 37.9372C127.818 34.966 124.355 31.8603 114.378 29.7407C104.401 27.6211 96.5893 29.6446 93.7369 31.9947C90.8781 34.3448 90.6083 38.917 98.9406 42.2597C105.86 45.0388 114.224 44.8083 118.271 44.0014C123.102 43.0409 127.465 41.376 127.651 37.9372H127.657Z" fill="#5F8F2D"/>
<path d="M149.005 34.1464C149.005 34.1464 146.949 35.7281 146.05 35.632C133.593 34.3001 102.622 22.8121 100.373 18.2143C100.283 18.035 102.834 16.511 103.99 16.9336C119.004 22.4407 134.294 27.7556 149.005 34.1464Z" fill="#76BA32"/>
<path d="M94.1609 44.296C94.1609 44.296 89.06 47.6771 87.6403 47.754C81.1581 48.1254 60.0029 38.0269 59.9836 37.2841C59.9836 36.9896 66.2409 33.7686 66.8833 34.0055C75.8388 37.2969 85.5138 40.0056 94.1545 44.296H94.1609Z" fill="#76BA32"/>
<path d="M217.52 90.3121C217.52 90.3121 211.205 95.1788 209.451 95.4093C203.888 96.1329 184.647 86.9694 184.654 85.9897C184.654 85.5286 192.331 80.918 192.838 81.1037C200.856 84.0494 209.74 86.4251 217.52 90.3121Z" fill="#76BA32"/>
<path d="M139.613 34.5113C139.613 34.5113 137.557 36.0161 136.767 35.9521C127.484 35.2029 102.686 25.0532 101.87 22.6775C101.825 22.5366 104.363 21.0702 105.217 21.384C116.672 25.6167 128.357 29.6574 139.613 34.5113Z" fill="#76BA32"/>
<path d="M251.396 75.9745C251.396 75.9745 249.854 77.5434 249.057 77.505C239.459 76.9991 214.514 68.1173 213.332 65.2229C213.274 65.0756 215.297 63.558 216.004 63.8077C227.703 67.9829 239.684 71.7033 251.402 75.9809L251.396 75.9745Z" fill="#90D14F"/>
<path d="M155.687 96.8565L156.297 136.411L159.027 137.564L172.3 143.142L174.889 144.23L177.465 105.245L249.995 59.3123C249.539 58.6848 248.351 57.9612 246.712 57.18C242.17 55.0155 234.288 52.5117 229.913 51.1862C227.998 50.6099 226.752 50.2577 226.752 50.2577L155.693 96.8629L155.687 96.8565Z" fill="#FFE4D4"/>
<path d="M182.501 118.366C191.926 122.336 201.126 126.908 210.601 130.802C214.88 132.563 219.165 134.26 223.476 135.925L223.7 131.09C220.193 129.829 216.679 128.599 213.152 127.395C203.066 123.95 192.748 121.286 182.649 117.995C182.437 117.924 182.283 118.276 182.495 118.366H182.501Z" fill="#69A12F"/>
<path d="M209.728 138.762C213.826 141.067 218.362 143.654 223.02 145.709L223.174 142.348C222.994 142.296 222.814 142.239 222.634 142.181C218.394 140.875 214.16 139.581 209.927 138.294C209.644 138.211 209.471 138.621 209.721 138.762H209.728Z" fill="#69A12F"/>
<path d="M182.007 135.931C188.675 141.131 197.085 144.23 204.736 147.688C208.989 149.603 213.261 151.473 217.546 153.323C219.171 154.021 220.842 154.956 222.563 155.449L222.82 150.038C221.972 149.686 221.092 149.366 220.219 149.007C216.146 147.336 212.073 145.658 207.967 144.051C199.719 140.817 191.149 136.661 182.309 135.444C182.058 135.412 181.756 135.733 182.02 135.938L182.007 135.931Z" fill="#69A12F"/>
<path d="M149.603 105.008C137.146 100.084 124.773 95.1276 112.477 89.8062C106.251 87.1103 100.052 84.3568 93.8462 81.6161C90.7432 80.2457 87.6403 78.8818 84.5374 77.5114C81.6914 76.2563 78.3186 75.3086 76.0701 73.1313C75.6204 72.6959 75.9416 71.8058 76.6034 71.8506C79.43 72.0235 81.852 73.4899 84.4281 74.6234C87.2934 75.8785 90.165 77.14 93.0303 78.3951C99.4803 81.2255 105.943 84.0238 112.374 86.899C124.991 92.5406 137.39 98.4639 149.815 104.502C150.091 104.637 149.892 105.117 149.603 105.002V105.008Z" fill="#69A12F"/>
<path d="M152.5 117.559C147.181 116.33 142.105 114.089 137.107 111.943C132.341 109.901 126.449 107.954 122.588 104.413C122.177 104.041 122.614 103.407 123.109 103.523C128.023 104.688 132.758 107.986 137.294 110.176C142.356 112.622 147.662 114.652 152.59 117.354C152.699 117.418 152.622 117.585 152.506 117.553L152.5 117.559Z" fill="#69A12F"/>
<path d="M134.172 116.118C128.614 115.164 123.16 112.769 117.899 110.771C112.29 108.645 106.727 106.423 101.157 104.214C95.8249 102.095 90.5055 99.9238 85.1926 97.7594C81.3509 96.1969 75.2093 95.0891 72.7937 91.5416C72.601 91.2598 72.7937 90.8051 73.1214 90.7347C77.355 89.8574 82.8542 93.469 86.7473 95.0315C92.3172 97.2663 97.8871 99.5076 103.438 101.787C108.384 103.824 113.331 105.841 118.239 107.954C123.636 110.272 129.475 112.392 134.339 115.709C134.551 115.856 134.416 116.157 134.172 116.112V116.118Z" fill="#69A12F"/>
<path d="M12.0391 46.8254V49.976C13.3625 50.4755 14.6859 50.9621 16.0029 51.4488C24.226 54.4457 32.4684 57.9933 41.0448 59.8375C41.3789 59.9079 41.6037 59.4469 41.289 59.2676C34.2672 55.2397 26.4488 52.563 18.9452 49.5534C16.6453 48.6312 14.3454 47.7283 12.0391 46.8318V46.8254Z" fill="#69A12F"/>
<path d="M12.0584 56.5781V59.3957C14.8466 60.2538 17.5962 61.2335 20.4935 61.5857C20.6349 61.6113 20.7119 61.3936 20.6092 61.304C18.1551 59.3317 15.2449 58.0958 12.4182 56.751C12.3025 56.6934 12.174 56.6358 12.0584 56.5781Z" fill="#69A12F"/>
<path d="M12.0777 63.955V67.5474C12.5338 67.7331 12.9707 67.9124 13.4011 68.1109C17.1593 69.7758 20.9304 71.4279 24.7014 73.0608C32.0894 76.2626 40.0106 80.5466 47.9895 81.8209C48.2401 81.8657 48.3557 81.5712 48.163 81.4239C41.4046 76.3075 32.4941 73.3682 24.8042 69.8527C20.8404 68.0404 16.8895 66.209 12.9321 64.3584C12.6495 64.2239 12.3604 64.0958 12.0777 63.955Z" fill="#69A12F"/>
<path d="M235.585 131.807C246.873 124.001 258.938 117.258 270.373 109.657C276.219 105.77 282.136 101.986 288.117 98.3101C289.652 97.3624 291.201 96.4275 292.755 95.4925C293.077 93.2449 293.468 91.0549 293.88 88.9929C293.603 89.1594 293.333 89.3195 293.057 89.486C290.141 91.2085 287.237 92.9567 284.346 94.7369C278.57 98.2973 272.846 101.935 267.212 105.693C255.764 113.346 245.684 122.477 235.258 131.378C235.014 131.583 235.335 131.98 235.585 131.807Z" fill="#578724"/>
<path d="M273.38 116.669C278.879 113.935 284.282 110.848 289.871 108.3C290.513 108.012 291.156 107.711 291.811 107.416C291.811 105.623 291.888 103.785 292.029 101.947C290.243 103.19 288.599 104.522 287.327 105.418C282.38 108.914 277.581 112.212 273.007 116.183C272.724 116.426 273.084 116.816 273.386 116.669H273.38Z" fill="#578724"/>
<path d="M227.934 150.179C230.009 147.323 233.131 145.306 235.977 143.276C239.806 140.535 243.751 137.98 247.734 135.457C251.499 133.075 255.334 130.815 259.15 128.509C262.767 126.326 266.351 123.758 270.527 122.785C270.881 122.701 271.093 123.105 270.868 123.367C268.247 126.46 264.591 128.394 261.186 130.507C257.396 132.851 253.625 135.227 249.815 137.526C246.218 139.703 242.633 141.899 239.048 144.102C235.528 146.267 232.059 149.065 228.127 150.423C227.998 150.467 227.857 150.294 227.941 150.179H227.934Z" fill="#578724"/>
<path d="M47.2251 53.7156L47.8611 90.8563L50.4565 91.9514L60.896 96.3442L64.0182 97.6569L65.7206 61.6817L137.692 15.8833C136.69 15.0252 135.296 14.2248 133.735 13.514C130.484 12.0091 126.501 10.8629 123.758 10.1649C121.805 9.66543 120.475 9.39648 120.475 9.39648L47.2186 53.7092L47.2251 53.7156Z" fill="#FFE4D4"/>
<path d="M172.3 143.142L174.889 144.23L177.465 105.245L249.995 59.3124C249.539 58.6849 248.351 57.9613 246.712 57.1801L174.522 102.94L172.3 143.148V143.142Z" fill="#F0AB76"/>
<path d="M155.687 96.8566L156.297 136.411L159.027 137.564L159.702 97.1319L229.951 51.3143L229.906 51.1799C227.992 50.6035 226.746 50.2513 226.746 50.2513L155.687 96.8566Z" fill="#F0AB76"/>
<path d="M60.8959 96.3506L64.0181 97.6633L65.7206 61.6881L137.692 15.8897C136.69 15.0316 135.296 14.2312 133.735 13.5204L61.6476 60.1064L60.8959 96.3442V96.3506Z" fill="#F0AB76"/>
<path d="M47.225 53.7157L47.861 90.8564L50.4565 91.9514L51.2274 56.1106L123.764 10.1778C121.811 9.67191 120.481 9.40295 120.481 9.40295L47.225 53.7157Z" fill="#F0AB76"/>
<g opacity="0.55">
<path d="M177.465 105.245L155.687 96.8566L156.297 136.411L174.889 144.23L177.465 105.245Z" fill="#DADADA"/>
</g>
<g opacity="0.55">
<path d="M47.225 53.7157L47.861 90.8564L64.0182 97.6634L65.7206 61.6881L47.225 53.7157Z" fill="#DADADA"/>
</g>
<path d="M434 155.321C426.593 160.406 412.909 166.374 395.91 172.63C394.645 173.104 393.366 173.565 392.056 174.039C388.786 175.211 385.413 176.395 381.944 177.593C380.498 178.092 379.034 178.585 377.562 179.085C346.501 189.567 309.189 200.287 278.66 208.637C277.639 208.913 276.611 209.194 275.609 209.47C271.202 210.661 266.962 211.813 262.908 212.889C261.334 213.312 259.792 213.722 258.289 214.132C235.457 220.202 219.897 224.07 219.897 224.07L208.513 218.761L205.706 217.449L195.267 212.588L190.474 210.347L187.988 209.188C192.324 208.151 209.214 203.201 231.757 196.458C233.305 196.003 234.872 195.529 236.472 195.049C240.07 193.979 243.783 192.865 247.605 191.713C248.704 191.38 249.828 191.047 250.946 190.707C286.087 180.141 328.686 167.2 359.709 157.748L359.819 157.716C361.348 157.255 362.857 156.788 364.335 156.346C365.343 156.038 366.339 155.737 367.322 155.436C388.182 149.084 402.174 144.8 402.174 144.8C404.249 145.837 407.429 147.054 410.995 148.284C412.967 148.969 415.048 149.648 417.123 150.307C425.61 153.009 433.993 155.315 433.993 155.315L434 155.321Z" fill="#90C758"/>
<path d="M219.679 224.076C291.297 201.92 362.131 177.362 433.788 155.328C432.111 185.341 431.623 215.265 431.623 245.323C360.551 271.943 291.426 303.077 219.679 328.006V224.083V224.076Z" fill="#AEE677"/>
<path d="M231.275 229.916C295.049 210.161 358.161 188.37 421.948 168.647C421.492 192.699 422.025 216.661 422.751 240.7C358.502 265.053 295.743 292.902 230.947 315.878C231.037 287.222 231.133 258.572 231.275 229.916Z" fill="#6FA634"/>
<path d="M236.196 263.58C236.427 258.777 237.628 253.712 239.588 248.736C242.929 240.239 250.059 233.944 258.816 231.274C276.129 225.991 311.039 214.253 311.039 214.253C311.225 214.516 300.638 229.571 299.951 238.587C299.18 248.762 298.293 261.992 305.977 269.823C307.107 270.97 308.18 271.981 308.983 272.833C310.146 274.063 309.208 276.803 307.339 277.552C290.031 284.5 272.153 291.211 254.974 297.429C244.586 301.188 237.282 292.691 236.556 283.111C236.061 276.662 235.939 268.901 236.196 263.593V263.58Z" fill="#AEE677"/>
<path d="M349.437 204.539C348.319 203.911 348.775 201.619 350.137 201.158C368.177 195.139 386.274 189.292 404.403 183.542C415.543 177.791 417.451 189.529 417.265 196.906C417.072 204.725 417.991 214.087 418.081 222.104C418.183 230.954 410.391 236.179 402.707 239.298C387.16 245.599 371.382 251.804 355.707 258.015C354.422 258.521 353.645 257.004 354.493 255.672C356.221 252.963 358.328 248.749 360.14 242.852C364.2 229.628 362.844 212.057 349.431 204.533L349.437 204.539Z" fill="#AEE677"/>
<path d="M357.57 234.277C356.876 242.192 354.313 251.592 350.208 258.521C349.013 260.564 347.657 262.447 346.154 264.06C339.486 271.181 325.879 277.617 317.11 274.229C316.994 274.184 316.853 274.114 316.744 274.043C304.782 266.526 303.786 247.552 305.964 234.617C307.338 226.446 311.501 217.436 317.534 211.109C324.273 204.033 335.927 200.511 344.497 204.699C353.741 209.214 358.495 223.788 357.576 234.277H357.57Z" fill="#8BC94B"/>
<path d="M311.283 241.654C312.607 239.771 317.553 229.923 319.23 225.517C320.907 221.105 328.044 213.498 330.402 213.344C332.76 213.19 341.837 213.978 343.353 220.215C344.869 226.452 346.976 232.868 349.957 232.958C352.938 233.048 350.112 248.583 348.011 252.527C345.91 256.472 343.964 252.271 341.811 250.651C339.653 249.025 329.38 251.17 327.877 251.125C326.374 251.08 325.584 253.879 326.31 256.747C327.035 259.61 326.297 263.093 324.896 264.938C323.502 266.782 321.678 270.112 320.624 269.881C319.577 269.651 315.446 269.977 314.174 265.968C312.902 261.96 314.624 256.229 312.015 255.313C309.414 254.397 307.088 247.616 311.277 241.667L311.283 241.654Z" fill="#5F8F2D"/>
<path d="M350.201 258.521C349.007 260.564 347.651 262.447 346.148 264.06C339.479 271.181 326.849 277.168 317.104 274.229C319.371 271.476 322.815 265.821 323.547 260.34C324.53 252.969 322.873 245.15 321.382 245.08C319.885 245.016 318.305 240.674 319.667 238.926C321.029 237.178 319.468 229.25 322.018 223.91C323.406 221.009 327.357 217.596 330.145 216.642C332.927 215.688 337.803 217.192 339.865 218.953C341.933 220.721 345.332 230.205 345.325 234.918C345.319 242.211 343.141 248.544 340.694 250.209C336.152 253.309 336.961 259.725 340.565 258.636C341.882 258.239 348.223 258.553 350.201 258.515V258.521Z" fill="#AEE677"/>
<path d="M259.06 254.308C262.927 247.616 269.448 242.359 277.6 242.615C285.753 242.871 287.526 250.907 286.691 256.747C285.856 262.587 281.603 270.938 272.57 274.421C265.067 277.316 259.42 274.325 257.608 271.2C255.449 267.48 254.582 262.037 259.06 254.301V254.308Z" fill="#5F8F2D"/>
<path d="M371.106 215.041C373.83 209.367 379.149 204.782 387.27 204.693C395.39 204.597 397.831 211.231 397.253 216.168C396.675 221.105 392.737 228.36 384.783 231.536C378.179 234.175 373.213 231.722 371.402 229.154C369.243 226.087 367.952 221.598 371.1 215.047L371.106 215.041Z" fill="#5F8F2D"/>
<path d="M361.348 198.878C361.348 198.878 361.296 202.912 361.688 203.047C368.408 205.333 400.305 195.119 407.731 188.159C408.316 187.608 408.335 183.811 407.185 184.169C391.979 188.876 376.265 193.089 361.354 198.878H361.348Z" fill="#76BA32"/>
<path d="M385.786 235.795C385.786 235.795 386.12 242 386.473 242.198C388.779 243.505 408.418 236.96 410.834 233.093C411.322 232.311 410.77 226.606 410.204 226.804C402.219 229.596 393.475 231.966 385.779 235.795H385.786Z" fill="#76BA32"/>
<path d="M257.865 284.763C257.865 284.763 257.756 294.087 258.167 294.349C260.448 295.828 282.862 288.323 285.483 283.623C286.138 282.451 285.355 274.101 284.796 274.312C276.091 277.636 266.281 280.287 257.865 284.757V284.763Z" fill="#76BA32"/>
<path d="M366.905 203.585C366.905 203.585 366.943 207.465 367.258 207.594C371.755 209.361 397.022 201.485 401.923 196.189C402.38 195.696 402.251 192.084 401.416 192.347C389.961 195.952 378.173 199.243 366.898 203.585H366.905Z" fill="#76BA32"/>
<path d="M249.179 242.371C249.179 242.371 248.813 246.828 249.154 246.975C253.786 248.961 281.583 240.668 286.549 234.866C287.025 234.309 286.941 230.23 286.19 230.473C273.977 234.418 261.263 237.767 249.179 242.371Z" fill="#90D14F"/>
<path d="M219.672 224.07V328L213.762 324.491L209.188 321.763L205.475 319.56L201.081 316.941L187.782 309.033V209.188L190.326 210.385L195.138 212.62L205.616 217.506L208.34 218.781L219.672 224.07Z" fill="#63A61F"/>
<path d="M278.725 203.931L277.331 306.625L274.343 307.784L262.908 312.234L257.781 314.226L258.295 211.813L231.422 196.266L236.189 194.882L247.413 191.623H247.425L250.805 190.65L278.725 203.931Z" fill="#FFE4D4"/>
<path d="M396.032 167.149L393.983 259.84L391.664 260.794L381.546 264.944L377.428 266.634L377.575 173.059L351.223 160.578L354.846 159.381L364.174 156.275L367.04 155.321L396.032 167.149Z" fill="#FFE4D4"/>
<path d="M262.908 210.277V312.234L257.781 314.226L258.295 211.813L231.422 196.266L236.189 194.882L262.908 210.277Z" fill="#F0AB76"/>
<path d="M278.725 203.931L277.331 306.625L274.343 307.784L275.654 205.903L247.425 191.623L250.805 190.65L278.725 203.931Z" fill="#F0AB76"/>
<path d="M381.976 171.311L381.546 264.944L377.428 266.634L377.575 173.059L351.223 160.578L354.846 159.381L381.976 171.311Z" fill="#F0AB76"/>
<path d="M396.032 167.149L393.983 259.84L391.664 260.794L392.081 168.679L364.174 156.275L367.039 155.321L396.032 167.149Z" fill="#F0AB76"/>
<g opacity="0.55">
<path d="M258.295 211.813L278.725 203.931L277.331 306.625L274.343 307.784L262.908 312.234L257.781 314.226L258.295 211.813Z" fill="#DADADA"/>
</g>
<g opacity="0.55">
<path d="M396.032 167.149L393.983 259.84L391.664 260.794L381.546 264.944L377.428 266.634L377.575 173.059L396.032 167.149Z" fill="#DADADA"/>
</g>
<path d="M267.745 191.796C273.637 192.187 280.536 189.459 286.183 187.877C292.999 185.969 299.751 183.804 306.529 181.774C313.037 179.821 319.551 177.868 326.059 175.915C329.316 174.942 332.579 173.981 335.824 172.976C338.593 172.118 341.304 171.58 343.334 169.441C343.873 168.871 343.681 167.815 342.852 167.629C337.565 166.438 330.768 169.985 325.725 171.522C318.954 173.591 312.182 175.652 305.405 177.721C298.903 179.706 292.383 181.633 285.901 183.67C282.656 184.694 279.463 185.892 276.258 187.032C273.219 188.114 270.09 188.921 267.501 190.893C267.122 191.181 267.238 191.757 267.745 191.789V191.796Z" fill="#77B836"/>
<path d="M302.867 190.112C312.966 188.69 322.949 185.027 332.663 182.024C337.456 180.538 342.184 178.886 346.925 177.234C350.388 176.024 355.9 175.467 357.615 171.919C357.891 171.349 357.814 170.53 357.165 170.216C353.555 168.468 349.154 171.247 345.602 172.47C340.584 174.199 335.586 175.934 330.639 177.843C321.318 181.435 311.354 184.688 302.706 189.753C302.494 189.875 302.649 190.15 302.861 190.118L302.867 190.112Z" fill="#77B836"/>
<path d="M228.082 202.983C221.593 206.799 212.895 208.061 205.635 209.956C202.185 210.859 198.729 211.73 195.279 212.588L190.487 210.347C191.508 210.142 192.536 209.963 193.5 209.719C197.271 208.785 201.029 207.824 204.781 206.844C212.079 204.942 220.116 201.587 227.658 201.401C228.519 201.382 228.795 202.56 228.088 202.977L228.082 202.983Z" fill="#77B836"/>
<path d="M238.277 209.643C233.099 212.281 227.382 213.434 221.825 215.06C217.54 216.328 213.043 218.217 208.513 218.755L205.706 217.442C209.94 214.561 215.298 213.504 220.154 212.102C225.994 210.424 231.847 208.413 237.975 208.516C238.553 208.522 238.836 209.354 238.277 209.643Z" fill="#77B836"/>
<path d="M417.13 150.314C414.92 150.743 412.697 151.063 410.821 151.524C404.769 153.022 398.679 154.284 392.615 155.712C392.403 155.763 392.236 155.436 392.46 155.353C397.992 153.009 403.523 150.704 409.254 148.898C409.812 148.725 410.397 148.521 411.001 148.296C412.973 148.982 415.055 149.66 417.13 150.32V150.314Z" fill="#77B836"/>
<path d="M209.188 321.763C209.156 319.189 209.31 316.608 209.233 314.38C209.021 308.136 208.848 301.899 208.758 295.655C208.584 283.617 208.578 271.719 210.409 259.815C210.479 259.379 211.077 259.552 211.122 259.911C212.509 271.809 212.432 283.681 212.619 295.655C212.715 301.617 212.843 307.566 213.023 313.521C213.126 316.736 213.826 320.783 213.762 324.491L209.188 321.763Z" fill="#568C1F"/>
<path d="M205.475 319.56L201.081 316.941C201.1 314.29 201.106 311.639 201.183 308.994C201.415 300.753 201.948 292.646 202.661 284.443C202.732 283.662 203.798 283.681 203.875 284.443C204.73 292.652 205.301 300.727 205.475 308.994C205.545 312.516 205.5 316.044 205.475 319.56Z" fill="#568C1F"/>
<path d="M193.545 281.516C194.104 272.154 194.843 262.869 195.1 253.481C195.222 248.954 195.389 244.42 195.601 239.893C195.819 235.148 196.539 230.204 196.166 225.472C196.037 223.865 193.526 223.269 193.153 225.069C191.341 233.861 191.913 243.671 191.701 252.636C191.47 262.376 192.087 271.834 192.902 281.523C192.935 281.933 193.519 281.939 193.545 281.523V281.516Z" fill="#568C1F"/>
</svg>
