<svg width="121" height="77" viewBox="0 0 121 77" fill="none" xmlns="http://www.w3.org/2000/svg">
<path d="M119.428 23.45C124.086 34.1055 103.913 53.1498 74.3745 65.9889C73.5265 66.3603 72.6784 66.7189 71.8304 67.0647C64.7958 69.9848 57.909 72.2644 51.4397 73.8845H51.4333C48.0798 74.7362 44.8355 75.4086 41.7455 75.9017C39.0087 76.3371 36.394 76.6317 33.9335 76.7854C31.5501 76.9326 29.3144 76.9454 27.2458 76.8238C23.8217 76.6253 20.8536 76.0618 18.4638 75.114C17.1854 74.6081 16.0611 73.9998 15.1296 73.2762C13.9539 72.3733 13.0609 71.3039 12.4956 70.0552C12.4763 70.0168 12.4571 69.9784 12.4378 69.9399C9.37982 62.9536 17.0055 52.3557 30.9526 42.2637C37.8009 37.3073 46.1654 32.479 55.5384 28.2591C56.1808 27.9709 56.8297 27.6828 57.4914 27.3946C62.7658 25.1021 67.9887 23.1618 73.0254 21.5802C74.4708 21.1255 75.9035 20.7029 77.3232 20.3122C79.4561 19.7167 81.5568 19.1852 83.6062 18.7306L83.6447 18.7178C84.602 18.5064 85.5463 18.3015 86.4843 18.1222C88.7135 17.6804 90.8721 17.3346 92.9535 17.072C97.0137 16.5533 100.753 16.374 104.08 16.5277C111.982 16.8863 117.546 19.166 119.415 23.4308L119.428 23.45Z" fill="#F0B910"/>
<path d="M112.214 6.95435L119.428 23.4436C120.353 25.5503 120.295 27.9965 119.396 30.654C118.888 32.1332 118.117 33.6829 117.096 35.2838C116.055 36.9167 114.758 38.6008 113.229 40.3106C112.278 41.3736 111.243 42.4494 110.119 43.5252C108.128 45.4334 105.873 47.3609 103.374 49.282C102.102 50.2681 100.772 51.2415 99.3778 52.2148C97.3991 53.5916 95.3112 54.9619 93.1141 56.3003C91.7136 57.1584 90.281 57.9972 88.797 58.8297C87.101 59.7902 85.3471 60.7316 83.5483 61.6473C82.2185 62.3325 80.8565 62.9984 79.4817 63.658C77.8178 64.452 76.109 65.2333 74.3744 65.9889L73.8733 66.2066C73.1924 66.4948 72.5114 66.7829 71.8304 67.0647C71.2329 67.3144 70.629 67.5578 70.0316 67.7947C67.7253 68.7168 65.4447 69.5749 63.1833 70.3625C61.7764 70.8492 60.3887 71.3103 59.0011 71.7521C57.0866 72.354 55.1979 72.9048 53.3348 73.3978C52.6924 73.5707 52.0628 73.7372 51.4332 73.8909H51.4268C50.6367 74.0958 49.8529 74.2879 49.0755 74.4672C47.4373 74.845 45.8312 75.178 44.2573 75.4662C43.4093 75.6327 42.5677 75.7736 41.739 75.9016C41.1865 75.9913 40.634 76.0745 40.0944 76.1514C38.1093 76.4331 36.2012 76.6316 34.3767 76.7597C34.229 76.7661 34.0748 76.7853 33.9334 76.7917C32.5522 76.8814 31.216 76.9198 29.9311 76.9134C29.006 76.9134 28.1066 76.8814 27.2393 76.8302C26.2179 76.7661 25.2285 76.6765 24.2906 76.5484C22.9864 76.3755 21.7722 76.1386 20.648 75.8312C19.8771 75.6263 19.1447 75.3893 18.4573 75.1204L12.4891 70.0616H12.4827L5.22327 53.4571L112.214 6.95435Z" fill="#F5BD11"/>
<path d="M24.297 76.5484C22.9929 76.3755 21.7787 76.1385 20.6545 75.8312C19.4531 72.7895 18.2454 69.7414 17.0183 66.7061C16.029 64.2343 15.0332 61.7753 14.076 59.2907C13.4207 57.5938 12.2515 55.8584 12.7719 54.0334C12.804 53.9117 12.9839 53.8413 13.0995 53.8925C14.9047 54.7762 15.4765 57.1071 16.3181 58.8297C17.4295 61.0709 18.4638 63.3442 19.4981 65.6239C21.1363 69.2547 22.7424 72.8855 24.297 76.5484Z" fill="#FFCF43"/>
<path d="M34.3832 76.7597C34.2355 76.7661 34.0813 76.7853 33.9399 76.7917C32.5587 76.8814 31.2225 76.9198 29.9376 76.9134C29.61 75.9592 29.3016 75.0371 28.9804 74.2303C27.8305 71.3615 26.6933 68.4799 25.5562 65.5983C24.3613 62.563 23.2563 59.5085 22.1706 56.4411C21.4447 54.3984 19.6651 51.6641 20.359 49.4933C20.3911 49.4036 20.5132 49.346 20.6031 49.3844C22.7295 50.441 23.5326 53.8925 24.5605 55.9097C26.0316 58.8105 27.4321 61.7369 28.8005 64.6954C30.156 67.6474 31.5052 70.6059 32.835 73.5707C33.2911 74.5953 33.8629 75.6711 34.3832 76.7661V76.7597Z" fill="#FFCF43"/>
<path d="M44.1546 75.2164L44.2638 75.4661C43.4158 75.6326 42.5743 75.7735 41.7455 75.9015C41.193 75.9912 40.6405 76.0744 40.1009 76.1513C38.6747 72.8278 37.2678 69.4916 35.9058 66.1425C34.4347 62.5565 32.9378 58.9897 31.563 55.3717C30.3488 52.1763 28.7877 48.8656 28.1967 45.4974C28.0746 44.825 29.0125 44.4216 29.4301 44.9595C31.5887 47.8027 33.0213 51.3694 34.6017 54.5584C36.2527 57.8883 37.7881 61.2758 39.3621 64.644C40.9939 68.1532 42.5935 71.6752 44.1675 75.2099L44.1546 75.2164Z" fill="#FFCF43"/>
<path d="M53.3414 73.3978C52.6989 73.5707 52.0693 73.7372 51.4398 73.8909H51.4333C50.6431 74.0958 49.8594 74.2879 49.0821 74.4672C47.2897 70.5162 45.6515 66.482 43.9812 62.5438C42.5228 59.0922 41.1224 55.6343 39.8568 52.1059C38.6875 48.8401 37.3191 45.4718 36.7795 42.0459C36.6767 41.4248 37.589 40.9701 37.968 41.5272C39.9146 44.4024 41.2573 47.7195 42.7541 50.8508C44.3602 54.2255 45.8956 57.6322 47.4439 61.0389C49.3198 65.182 51.3884 69.2739 53.3542 73.3978H53.3414Z" fill="#FFCF43"/>
<path d="M63.1898 70.3625C61.7829 70.8491 60.3952 71.3102 59.0076 71.7521C58.802 71.227 58.6028 70.7211 58.3908 70.2344C56.8875 66.7957 55.4292 63.3249 53.9645 59.867C52.4291 56.2682 50.9001 52.663 49.4996 49.0066C48.2662 45.792 46.6472 42.3725 46.2104 38.9401C46.1076 38.1461 47.1226 37.7106 47.6366 38.319C49.9622 41.0853 51.4205 44.7802 53.0008 47.9948C54.6583 51.3695 56.2001 54.8018 57.7355 58.2277C59.3416 61.8009 60.9605 65.3613 62.5281 68.9473C62.7272 69.4083 62.9521 69.8822 63.1898 70.3625Z" fill="#FFCF43"/>
<path d="M73.8734 66.2066C73.1924 66.4947 72.5114 66.7829 71.8304 67.0646C71.233 67.3144 70.6291 67.5577 70.0316 67.7946C68.3099 64.3623 66.6075 60.9172 64.9821 57.4401C61.6993 50.4217 57.6713 43.1601 55.6605 35.6615C55.4806 34.9955 56.5085 34.5921 56.8939 35.1236C59.0653 38.1525 60.7421 41.6681 62.4831 44.9659C64.359 48.5071 66.2284 52.0418 68.1429 55.5702C70.0509 59.0922 71.9332 62.627 73.8412 66.1489C73.8541 66.1681 73.8669 66.1937 73.8734 66.213V66.2066Z" fill="#FFCF43"/>
<path d="M83.5484 61.6536C82.2186 62.3388 80.8566 63.0047 79.4818 63.6643C79.1028 62.8575 78.7302 62.0506 78.3575 61.2374C76.7386 57.7346 75.1261 54.2254 73.5522 50.7035C70.3272 43.4866 67.2692 36.2506 64.8794 28.7136C64.6802 28.0668 65.5732 27.356 66.0036 28.0348C70.218 34.6433 73.7899 41.5656 77.2269 48.6031C78.9935 52.2147 80.7217 55.8391 82.4305 59.47C82.7646 60.1808 83.1501 60.9108 83.542 61.66L83.5484 61.6536Z" fill="#FFCF43"/>
<path d="M93.1142 56.3002C91.7137 57.1583 90.2811 57.9972 88.7971 58.8297C86.6835 53.9181 84.8011 48.8785 82.6811 44.0054C81.1521 40.4834 79.6232 36.9615 78.1263 33.4267C77.349 31.5889 76.5909 29.7446 75.8328 27.894C75.2418 26.4532 74.458 24.9804 74.3103 23.4243C74.2974 23.2706 74.2845 23.1169 74.2845 22.9568C74.2845 22.7071 74.5351 22.4894 74.7728 22.6687C74.927 22.7839 75.0683 22.9056 75.2096 23.0337C76.2697 24.0134 76.9378 25.3582 77.6702 26.5941C78.621 28.1886 79.5717 29.783 80.4711 31.4032C82.4241 34.8931 84.2872 38.4471 86.086 42.0203C88.4309 46.6949 90.9428 51.4399 93.1142 56.2938V56.3002Z" fill="#FFCF43"/>
<path d="M99.3778 52.2147L99.2236 51.8625C98.4591 50.1528 97.6818 48.4558 96.943 46.7397C95.4654 43.3074 94.0842 39.8238 92.7415 36.3403C90.4545 30.4234 87.9811 24.372 86.3686 18.1925C86.0795 17.0783 85.8161 15.9705 85.5848 14.8499C85.4499 14.2031 86.3172 14.1007 86.5934 14.5617C87.1588 15.4902 87.6984 16.4316 88.2188 17.3857C91.3731 23.1041 93.9043 29.2515 96.6603 35.1428C98.3049 38.6712 99.9817 42.1867 101.588 45.7407C102.082 46.8357 102.751 48.0396 103.38 49.2819C102.108 50.2616 100.778 51.235 99.3842 52.2083L99.3778 52.2147Z" fill="#FFCF43"/>
<path d="M113.222 40.3169C112.271 41.3799 111.237 42.4493 110.113 43.5315C108.584 41.7897 107.53 39.1578 106.567 37.4289C104.768 34.2079 103.142 30.8844 101.607 27.5289C99.6734 23.2962 97.5341 18.6472 96.14 13.9405C95.4719 11.6993 94.9772 9.43883 94.7459 7.21039C94.701 6.74933 95.3691 6.35231 95.6646 6.81337C96.8595 8.70882 97.8232 10.7516 98.7418 12.8071C99.2301 13.8893 99.7119 14.9779 100.213 16.0473C101.716 19.2555 103.29 22.4317 104.909 25.5886C106.522 28.752 108.256 31.8385 110.016 34.9251C110.993 36.6284 112.002 38.3125 113.023 39.9967C113.094 40.1055 113.158 40.2144 113.216 40.3233L113.222 40.3169Z" fill="#FFCF43"/>
<path d="M119.396 30.6603C118.888 32.1396 118.118 33.6892 117.096 35.2901C114.918 31.2815 113.119 26.9719 111.263 22.9184C109.278 18.5768 107.498 14.1775 105.944 9.68223C105.352 7.97888 104.8 6.25632 104.28 4.52095C104.055 3.76533 105.025 3.32988 105.41 4.02787C106.284 5.60956 107.145 7.19764 107.986 8.79853C110.151 12.8712 112.239 16.9759 114.295 21.1062C115.875 24.3016 117.694 27.465 119.39 30.6603H119.396Z" fill="#FFCF43"/>
<path d="M112.214 6.9544C116.871 17.6099 96.6989 36.6542 67.16 49.4933C66.312 49.8647 65.464 50.2233 64.616 50.5691C57.5814 53.4892 50.6945 55.7688 44.2253 57.3889H44.2188C40.8653 58.2406 37.6211 58.913 34.531 59.4061C31.7942 59.8415 29.1795 60.1361 26.719 60.2898C24.3356 60.437 22.1 60.4499 20.0314 60.3282C14.7763 60.0208 10.6005 58.849 7.91512 56.787C6.70093 55.8585 5.79509 54.7443 5.22975 53.4507C0.674919 43.0321 19.8579 24.5898 48.3368 11.7763C48.9792 11.4881 49.6281 11.2 50.2898 10.9118C55.5641 8.61933 60.7871 6.67904 65.8237 5.09736C67.2692 4.64271 68.7018 4.22007 70.1216 3.82945C72.2545 3.23392 74.3552 2.70243 76.4046 2.24777L76.4431 2.23496C79.6874 1.51136 82.7968 0.960653 85.7519 0.589246C89.8121 0.0705561 93.551 -0.108744 96.8788 0.0449418C104.781 0.403542 110.344 2.67681 112.214 6.94799V6.9544Z" fill="#F0B910"/>
<path d="M105.147 24.7627C101.524 28.6753 97.2706 32.0372 92.8893 35.1109C76.6807 46.4836 58.1402 54.5521 38.7388 58.58C31.171 60.1489 23.3334 61.1158 15.7077 59.8031C11.0822 59.009 5.98133 56.7358 4.81854 52.202C4.31102 50.2233 4.67077 48.1166 5.33247 46.1891C6.9514 41.4889 10.2792 37.6147 13.7804 34.1824C27.3999 20.8501 44.9511 12.2309 62.8492 6.12192C74.3808 2.19012 86.5421 -0.614643 98.7996 0.24984C101.543 0.441947 104.325 0.832565 106.824 1.9788C109.323 3.12504 111.533 5.12936 112.4 7.73562C113.614 11.3985 111.995 15.3943 109.914 18.6473C108.513 20.8309 106.907 22.8609 105.147 24.7563V24.7627Z" fill="#FFE138"/>
<path d="M65.6456 45.8143C93.303 33.7929 112.425 16.508 108.357 7.20731C104.288 -2.09339 78.5687 0.11212 50.9112 12.1335C23.2538 24.1548 4.1314 41.4397 8.20017 50.7404C12.2689 60.0411 37.9881 57.8356 65.6456 45.8143Z" fill="#FFCB2E"/>
<path d="M63.1154 40.0421C85.7773 30.192 101.753 16.7303 98.797 9.97436C95.8415 3.21847 75.0745 5.72676 52.4126 15.5768C29.7507 25.4268 13.7754 38.8886 16.7309 45.6445C19.6864 52.4004 40.4535 49.8921 63.1154 40.0421Z" fill="#FFE138"/>
<path d="M42.5998 24.609C42.0859 23.8918 40.8524 23.9175 40.0558 23.8342C39.0536 23.7318 38.0643 23.719 37.0557 23.7318C36.0599 23.7382 35.1798 24.481 35.1477 25.5055C35.1155 26.4149 35.925 27.4843 36.9272 27.4074C38.1093 27.3178 44.4179 27.1128 42.6063 24.609H42.5998Z" fill="#EDBB21"/>
<path d="M78.6531 27.0231C73.61 32.511 63.678 37.8644 61.68 38.3126C60.6714 38.5367 59.8555 37.89 59.3544 37.1151C58.8598 36.3595 58.667 35.4694 58.8726 35.1428C59.2966 34.4769 71.8947 29.5781 73.8862 25.7168C74.0918 25.3133 74.2331 24.9547 74.3167 24.6346C75.0426 21.9195 71.5863 22.2012 69.4856 23.0977C67.1407 24.0967 56.7269 28.989 52.4162 31.845C48.4781 34.4577 42.4842 38.684 38.771 37.6786C38.771 37.6786 38.771 37.6786 38.7646 37.6786C38.4177 37.589 38.09 37.4481 37.7881 37.256C34.2354 35.0148 35.1926 30.5771 37.3127 27.7339C39.4327 24.8907 47.2639 19.294 50.9451 17.9044C53.7139 16.8542 55.0373 17.0912 55.6669 17.5522C55.8725 17.7059 56.0074 17.8916 56.0909 18.0581C56.6177 19.1019 56.4635 19.627 54.5619 20.0368C52.6603 20.4466 48.825 22.4574 44.5529 26.7349C41.9831 29.3028 40.5827 30.8717 40.345 31.6785C40.1844 32.21 40.5313 32.4085 41.3857 32.3253C43.5314 32.1267 48.4203 29.3284 52.6154 26.3956C55.0245 24.7178 67.1471 18.2182 71.5799 17.6034C74.7342 17.168 79.5332 19.3452 80.2206 22.611C80.5032 23.9366 80.1049 25.4414 78.6466 27.0231H78.6531Z" fill="#EDBB21"/>
<path d="M47.6494 21.3111C41.1288 25.3261 39.3621 27.9324 38.5205 29.2579C37.6789 30.5835 36.0921 35.2773 38.771 37.6658C38.771 37.6658 38.7732 37.6658 38.7775 37.6658C38.4306 37.5762 38.1029 37.4353 37.7945 37.2432C34.2419 35.0019 35.1991 30.5643 37.3191 27.7211C39.4392 24.8779 47.2704 19.2812 50.9515 17.8916C53.7204 16.8414 55.0438 17.0783 55.6734 17.5394C54.9024 17.6419 52.6539 18.2246 47.6494 21.3111Z" fill="#D4A50F"/>
<path d="M80.227 22.6047L80.1435 22.6559C80.1435 22.6559 78.1391 19.7615 74.2781 19.4157C70.4236 19.0699 62.6887 22.7904 58.9369 24.8331C55.1852 26.8759 47.8679 31.7938 46.1911 32.5878C44.5144 33.3947 41.3344 34.1759 40.4221 33.5932C39.5741 33.0553 39.8953 32.2549 40.3514 31.6593C40.1908 32.1908 40.5378 32.3893 41.3922 32.3061C43.5379 32.1076 48.4268 29.3092 52.6219 26.3764C55.031 24.6986 67.1536 18.199 71.5864 17.5843C74.7407 17.1488 79.5396 19.326 80.227 22.5983V22.6047Z" fill="#D4A50F"/>
<path d="M72.5307 28.7714C69.7425 31.6337 61.9884 36.0266 59.3609 37.1152C58.8662 36.3596 58.6735 35.4695 58.879 35.1429C59.3031 34.4769 71.9011 29.5782 73.8926 25.7168C74.0982 25.3134 74.2395 24.9548 74.323 24.6346C74.5672 25.0381 74.9398 26.2996 72.5307 28.7714Z" fill="#D4A50F"/>
<path d="M73.7962 23.386C72.0295 21.9644 70.1023 22.4382 68.0272 23.0338C64.6545 23.9943 61.4231 25.4671 58.4101 27.2473C55.2686 29.0979 52.2299 31.1407 49.2554 33.2539C45.7542 35.7449 42.7669 38.4023 38.2185 37.8132C37.8909 37.7684 37.7881 38.2102 37.9679 38.4151C39.3235 39.8944 41.27 39.7023 43.0753 39.0363C46.3966 37.8068 49.5895 35.3606 52.5447 33.446C55.6026 31.4673 58.6606 29.5142 61.8342 27.7148C64.5195 26.1907 70.4428 21.9964 73.5393 23.7318C73.7449 23.847 74.0018 23.5525 73.8027 23.3924L73.7962 23.386Z" fill="#FFED87"/>
<path d="M74.0469 29.9816C74.7728 30.5451 75.9741 30.4491 76.8543 30.4619C77.9014 30.4683 78.9486 30.4619 79.9958 30.4427C82.2186 30.3978 81.968 27.0616 79.7131 27.3818C78.6788 27.529 77.6445 27.6891 76.6166 27.862C75.7364 28.0093 74.5801 28.099 73.9441 28.7777C73.5843 29.162 73.6357 29.6614 74.0469 29.9752V29.9816Z" fill="#EDBB21"/>
<path d="M41.3149 30.8268C43.8204 28.8609 46.0561 26.7029 48.8249 25.0764C51.3561 23.5908 54.0415 22.4254 56.6819 21.151C57.5749 20.722 56.9389 19.1723 56.0009 19.5373C50.6174 21.6057 43.6855 25.2045 41.1351 30.6924C41.0773 30.814 41.2122 30.9165 41.3214 30.8333L41.3149 30.8268Z" fill="#FFED87"/>
<g opacity="0.33">
<path d="M105.153 24.7691L20.0699 28.5664C23.674 25.6976 27.824 22.8288 32.4046 20.0753L112.882 10.4635C112.805 14.6194 110.023 19.5822 105.153 24.7691Z" fill="white"/>
</g>
<g opacity="0.33">
<path d="M92.0413 35.8153C87.2359 39.1579 81.7496 42.4238 75.7493 45.4655L11.0502 37.0255C12.2901 35.604 13.697 34.1696 15.2517 32.7159L92.0478 35.8153H92.0413Z" fill="white"/>
</g>
</svg>
