<svg width="29" height="112" viewBox="0 0 29 112" fill="none" xmlns="http://www.w3.org/2000/svg">
<path d="M12.67 30.22C10.78 30.255 8.715 30.325 7 30.465L7 21.645C8.715 21.785 10.78 21.855 12.67 21.89L18.41 21.89C19.705 21.89 20.16 21.645 20.125 20.77C20.09 20.35 19.985 19.895 19.775 19.51L12.67 19.51C10.78 19.545 8.715 19.58 7 19.755L7 10.9C8.715 11.075 10.78 11.11 12.67 11.145L18.41 11.145C19.705 11.145 20.16 10.935 20.125 10.025C20.09 9.71 20.02 9.36 19.88 9.045L12.67 9.01C10.78 9.045 8.715 9.115 7 9.255L7 0.469998C8.715 0.609998 10.78 0.679998 12.67 0.714998L22.4 0.679999C24.29 0.679999 26.355 0.609999 28.07 0.469999L28.07 0.714999L28.385 9.045L28.385 9.29C27.72 9.255 27.02 9.22 26.285 9.15C27.825 10.76 28.525 12.72 28.525 14.575C28.525 16.885 27.755 18.425 25.445 19.09C27.58 20.84 28.525 23.115 28.525 25.285C28.525 28.505 27.02 30.255 21.945 30.255C18.83 30.255 15.75 30.255 12.67 30.22ZM20.72 51.2041L12.705 51.2041C10.815 51.2041 8.75 51.2741 7.035 51.4141L7.035 43.2941L9.065 42.9441C7.63 41.8941 6.58 40.2491 6.545 38.0791C6.475 34.8941 8.82 32.5841 13.37 32.5491C17.675 32.5841 19.11 34.2991 19.495 37.9741C19.635 39.2691 19.635 41.1591 19.6 42.7691C20.79 42.7691 21.455 42.2441 21.42 41.0891C21.315 38.8491 20.86 36.0141 20.37 33.8091L27.965 33.5291C28.21 36.9941 28.525 41.2291 28.525 43.7141C28.455 49.8041 26.495 51.2041 20.72 51.2041ZM13.755 41.4741C13.755 41.9991 13.895 42.3841 14.245 42.7691L16.205 42.7691L16.17 41.9991C16.065 40.8791 15.645 40.4241 14.91 40.4241C14.21 40.4241 13.755 40.6691 13.755 41.4741ZM28.525 67.6071C28.525 70.5821 26.6 71.8071 22.295 71.8071C20.51 71.8071 18.095 71.6671 16.31 71.4921C16.24 69.0071 16.1 66.5221 15.855 64.1071C17.185 64.4221 19.425 64.7371 19.425 63.5471C19.425 63.1271 19.145 62.8121 18.655 62.7071L12.67 62.6721C10.78 62.7071 8.715 62.7771 7 62.9171L7 54.1321C8.715 54.2721 10.78 54.3421 12.67 54.3771L22.4 54.3421C24.29 54.3421 26.355 54.2721 28.07 54.1321L28.07 54.3771L28.385 62.7071L28.385 62.9521C26.915 62.8471 25.2 62.7421 23.555 62.7071C27.3 63.7221 28.525 65.5071 28.525 67.6071ZM28.525 87.0895C28.525 90.0645 26.6 91.2895 22.295 91.2895C20.51 91.2895 18.095 91.1495 16.31 90.9745C16.24 88.4895 16.1 86.0045 15.855 83.5895C17.185 83.9045 19.425 84.2195 19.425 83.0295C19.425 82.6095 19.145 82.2945 18.655 82.1895L12.67 82.1545C10.78 82.1895 8.715 82.2595 7 82.3995L7 73.6145C8.715 73.7545 10.78 73.8245 12.67 73.8595L22.4 73.8245C24.29 73.8245 26.355 73.7545 28.07 73.6145L28.07 73.8595L28.385 82.1895L28.385 82.4345C26.915 82.3295 25.2 82.2245 23.555 82.1895C27.3 83.2045 28.525 84.9895 28.525 87.0895ZM1.05 92.397L7.945 92.642C7.245 95.057 7.735 98.977 9.8 99.747L9.8 95.967C14.7 94.602 23.065 92.677 28.07 91.627L28.07 100.622C25.06 100.972 20.23 101.777 16.695 102.302L16.695 102.407C20.23 103.142 25.06 103.947 28.07 104.332L28.07 111.472C22.89 110.422 11.865 107.657 9.1 106.432C3.92 104.262 1.715 102.092 1.225 98.452C0.979996 96.842 0.944996 94.112 1.05 92.397Z" fill="#BF00FF"/>
</svg>
