<svg width="29" height="117" viewBox="0 0 29 117" fill="none" xmlns="http://www.w3.org/2000/svg">
<path d="M16.33 86.78C18.22 86.745 20.285 86.675 22 86.535L22 95.355C20.285 95.215 18.22 95.145 16.33 95.11L10.59 95.11C9.295 95.11 8.84 95.355 8.875 96.23C8.91 96.65 9.015 97.105 9.225 97.49L16.33 97.49C18.22 97.455 20.285 97.42 22 97.245L22 106.1C20.285 105.925 18.22 105.89 16.33 105.855L10.59 105.855C9.295 105.855 8.84 106.065 8.875 106.975C8.91 107.29 8.98 107.64 9.12 107.955L16.33 107.99C18.22 107.955 20.285 107.885 22 107.745L22 116.53C20.285 116.39 18.22 116.32 16.33 116.285L6.6 116.32C4.71 116.32 2.645 116.39 0.929998 116.53L0.929998 116.285L0.615 107.955L0.615 107.71C1.28 107.745 1.98 107.78 2.715 107.85C1.175 106.24 0.474999 104.28 0.474999 102.425C0.474999 100.115 1.245 98.575 3.555 97.91C1.42 96.16 0.474999 93.885 0.474999 91.715C0.474998 88.495 1.98 86.745 7.055 86.745C10.17 86.745 13.25 86.745 16.33 86.78ZM22.42 74.0559C22.42 81.0559 19.2 84.3109 11.43 84.3109C3.695 84.3109 0.474998 81.0559 0.474998 74.0559C0.474997 67.0909 3.695 63.8709 11.43 63.8709C19.2 63.8709 22.42 67.0909 22.42 74.0559ZM15.105 74.0559C15.105 72.9009 14.23 72.3759 11.43 72.3759C8.63 72.3759 7.755 72.9009 7.755 74.0559C7.755 75.2459 8.63 75.7709 11.43 75.7709C14.23 75.7709 15.105 75.2459 15.105 74.0559ZM16.33 42.2173C18.22 42.1823 20.285 42.1123 22 41.9723L22 50.7923C20.285 50.6523 18.22 50.5823 16.33 50.5473L10.59 50.5473C9.295 50.5473 8.84 50.7923 8.875 51.6673C8.91 52.0523 9.015 52.4723 9.19 52.8573L16.33 52.8923C18.22 52.8573 20.285 52.7873 22 52.6473L22 61.4323C20.285 61.2923 18.22 61.2223 16.33 61.1873L6.6 61.2223C4.71 61.2223 2.645 61.2923 0.929996 61.4323L0.929995 61.1873L0.614997 52.8573L0.614997 52.6123C1.315 52.6473 2.12 52.7173 2.89 52.7523C1.245 51.1073 0.474997 49.0773 0.474997 47.1523C0.474996 43.9323 1.98 42.1823 7.055 42.1823C10.17 42.1823 13.25 42.1823 16.33 42.2173ZM13.705 31.4805C15.105 31.2355 15.455 30.5705 15.49 28.8205C15.49 26.1255 15.175 23.0805 14.44 20.8405L21.265 21.0855C21.93 23.0455 22.42 25.8805 22.42 29.2405C22.42 36.7305 19.655 39.7405 11.395 39.7405C3.205 39.7405 0.474996 35.9255 0.474996 29.5205C0.474996 23.5005 3.97499 20.8405 8.91 20.8405C10.24 20.8405 12.375 20.9455 13.565 21.1205C13.705 24.1655 13.775 28.7505 13.705 31.4805ZM6.95 29.9755C6.95 30.8505 7.44 31.3405 9.225 31.5505C9.26 30.7805 9.26 29.5905 9.225 28.6805C7.685 28.6805 6.95 28.9955 6.95 29.9755ZM27.95 19.1001L21.055 18.8551C21.755 16.4401 21.265 12.5201 19.2 11.7501L19.2 15.5301C14.3 16.8951 5.93499 18.8201 0.929994 19.8701L0.929993 10.8751C3.93999 10.5251 8.76999 9.72012 12.305 9.19512L12.305 9.09011C8.76999 8.35512 3.93999 7.55012 0.929993 7.16512L0.929993 0.0251152C6.10999 1.07512 17.135 3.84011 19.9 5.06512C25.08 7.23511 27.285 9.40511 27.775 13.0451C28.02 14.6551 28.055 17.3851 27.95 19.1001Z" fill="white"/>
</svg>
