<svg width="297" height="57" viewBox="0 0 297 57" fill="none" xmlns="http://www.w3.org/2000/svg">
<path d="M49.34 50H35.3C35.18 42.44 34.82 30.38 34.64 24.38H34.46C33.62 30.38 32 42.44 30.62 50H16.7C15.44 42.68 13.64 30.38 12.68 24.38H12.5C12.44 30.38 12.2 42.74 12.2 50H0.2C1.22 35.12 2.24 20.24 3.32 5.36H22.16C23.18 13.22 23.9 20.24 24.86 28.94H24.98C26.12 20.24 27.08 13.22 28.1 5.36H46.46C47.54 20.24 48.38 35.12 49.34 50ZM52.5425 5.36H83.6225L83.5625 17.96C79.4225 23.72 73.4225 31.58 68.4425 37.76C74.0225 37.64 78.8825 37.34 82.7825 37.04C82.7825 41.3 82.9625 45.68 83.3225 50H51.7025V37.46C56.9825 30.86 62.0225 24.02 66.5825 17.36C61.8425 17.54 57.4625 17.78 53.0825 18.14C53.0825 13.82 52.8425 9.62 52.5425 5.36ZM121.589 5.12V15.26C112.529 13.52 104.009 13.52 94.9489 15.26V5.12L102.269 5.48L101.369 1.64L115.409 1.04L114.509 5.48L121.589 5.12ZM139.049 40.94H126.269V32.66L122.369 32.9V22.16L126.269 22.4V19.94L122.369 20.18V9.5L126.209 9.74L126.029 1.82H139.949L139.049 5.66V40.94ZM121.769 25.64C121.769 32.42 117.089 36.14 108.509 36.14C99.9289 36.14 95.2489 32.42 95.2489 25.64C95.2489 18.86 99.9289 15.14 108.509 15.14C117.089 15.14 121.769 18.86 121.769 25.64ZM106.109 25.64C106.109 27.44 106.889 28.28 108.509 28.28C110.129 28.28 110.909 27.44 110.909 25.64C110.909 23.78 110.129 22.94 108.509 22.94C106.889 22.94 106.109 23.78 106.109 25.64ZM139.529 42.8L140.249 55.7C138.629 55.52 135.869 55.58 134.429 55.58H105.029C102.509 55.58 102.029 55.34 102.029 52.52L102.089 43.04L101.489 37.28H115.169V45.56C123.509 45.68 134.009 44.3 139.529 42.8ZM188.023 29.96H175.483V12.14L175.243 1.82H188.923L188.023 5.24V29.96ZM161.263 18.74C158.563 24.74 154.183 29.66 148.843 31.94L143.023 21.5C147.343 19.22 150.043 13.46 150.043 5.9L149.263 2.96L165.043 3.14L164.383 5.24C164.323 7.4 164.023 9.56 163.603 11.66C164.623 11.42 165.763 11.24 166.843 10.94C170.443 13.1 173.503 18.14 173.503 23.06C173.503 26.6 171.823 29.24 168.343 29.24C165.463 29.3 163.663 28.04 162.583 26.18C162.403 24.32 161.863 20.96 161.263 18.74ZM187.903 46.34L188.983 56.06C187.423 56 184.723 56 183.343 56H154.243C151.723 56 151.303 55.76 151.303 52.94V45.2L150.763 40.22H173.443V38.06L150.823 38.78L150.643 31.28H188.143L187.123 45.68L165.823 45.74V48.02C172.903 48.26 182.143 47.48 187.903 46.34ZM245.37 5.3V13.82L249.87 13.52V26.18L245.37 25.94V33.2H233.01V30.8C224.79 32 214.83 32.72 206.13 32.84C203.61 32.9 203.25 32.66 203.25 29.78V11.24L202.71 3.56H229.41V12.38H215.55V14.6L228.51 14.24V22.04L215.55 21.56V23.9C221.19 23.9 228.09 23.48 233.01 22.4V12.14L232.77 1.82H246.27L245.37 5.3ZM208.47 40.82L207.93 34.94L220.29 35.3H245.73L245.31 39.5V56.6H233.91V55.76H219.75L208.47 56.72V40.82ZM232.41 43.22H221.31V46.4H232.41V43.22ZM278.864 4.7V14.3C269.684 12.62 260.984 12.62 251.804 14.3V4.7L259.184 5L258.284 1.52L272.504 0.919999L271.604 5.06L278.864 4.7ZM296.024 33.86H283.544V27.26L280.004 27.5V14.72L283.544 14.96V12.14L283.304 1.82H296.924L296.024 5.3V33.86ZM279.044 23.84C279.044 30.08 274.304 33.56 265.544 33.56C256.724 33.56 252.104 30.08 252.104 23.84C252.104 17.66 256.724 14.18 265.544 14.18C274.304 14.18 279.044 17.66 279.044 23.84ZM263.024 23.84C263.024 25.52 263.804 26.24 265.544 26.24C267.284 26.24 268.064 25.52 268.064 23.84C268.064 22.22 267.284 21.44 265.544 21.44C263.804 21.44 263.024 22.22 263.024 23.84ZM259.004 40.82L258.524 34.94L270.824 35.3H296.324L295.844 39.5V56.6H284.444V55.76H270.284L259.004 56.72V40.82ZM283.004 43.22H271.904V46.4H283.004V43.22Z" fill="black"/>
</svg>
