<svg width="459" height="467" viewBox="0 0 459 467" fill="none" xmlns="http://www.w3.org/2000/svg">
<g filter="url(#filter0_d_200_1620)">
<path d="M383 349C383 365.569 369.569 379 353 379H80C63.4315 379 50 365.569 50 349V76C50 59.4315 63.4315 46 80 46H353C369.569 46 383 59.4315 383 76V349Z" fill="#FFEB3B"/>
</g>
<g clip-path="url(#clip0_200_1620)">
<path d="M198.601 93.2888C198.601 93.2888 168.935 73.1636 133.994 92.6289C99.054 112.094 109.932 148.056 109.932 148.056C109.932 148.056 82.5727 182.367 95.4281 216.679C108.284 250.991 165.309 260.558 190.69 221.958C216.071 183.357 175.857 149.045 175.857 149.045C175.857 149.045 208.49 149.045 198.931 92.9589L198.601 93.2888Z" fill="#E56445"/>
<path d="M341 273.459C337.045 278.407 332.759 282.63 328.145 286.919C319.245 295.497 309.026 303.085 298.149 309.354C298.149 264.485 310.345 223.476 310.345 223.476C311.663 225.785 331.441 239.246 340.736 271.38L341 273.459Z" fill="#FCA397"/>
<path d="M280.019 123.642C280.019 123.642 292.545 84.3811 290.897 74.4835C289.249 64.5859 247.716 51.719 214.753 67.2252C181.79 82.7315 179.483 125.951 187.064 143.767C206.183 189.956 246.068 168.841 246.068 168.841C246.068 168.841 309.356 149.375 280.019 123.642Z" fill="#E56445"/>
<path d="M328.145 286.622C319.245 295.2 309.026 302.788 298.149 309.057C275.734 321.924 249.693 329.182 222.005 329.182C194.316 329.182 203.875 328.522 194.975 326.873C188.053 325.553 181.131 323.903 174.539 321.924C176.187 289.262 178.494 255.61 181.131 232.845C182.779 218.329 184.757 208.431 187.064 206.122C189.042 204.142 192.998 202.163 198.601 200.513C207.172 197.874 219.038 196.224 232.223 196.224C245.408 196.224 260.571 197.544 274.415 201.833C286.941 205.462 298.478 211.4 307.378 219.978C310.674 223.278 313.641 228.226 316.278 234.165C321.882 247.362 325.837 266.167 328.145 286.952V286.622Z" fill="#507849"/>
<path d="M274.086 174.779V208.431C274.086 208.431 275.404 211.73 259.582 211.401C238.156 210.741 230.905 201.503 230.905 201.503L228.597 167.851L235.19 168.841L274.086 174.779Z" fill="#FCA397"/>
<path d="M274.086 176.759V193.585C263.867 192.925 245.408 189.296 237.497 173.789C236.838 172.47 236.508 171.48 236.179 170.49L273.756 176.429L274.086 176.759Z" fill="black"/>
<path d="M277.382 95.9283C277.382 95.9283 298.478 139.148 292.545 163.892C286.612 188.966 264.197 185.997 250.353 181.708C236.838 177.419 230.245 169.501 230.245 169.501C230.245 169.501 217.72 174.449 209.149 162.902C200.579 151.355 204.864 137.828 211.786 134.529C218.708 131.23 227.608 135.849 227.608 135.849L220.357 123.312C220.357 123.312 245.738 57.3276 277.382 95.5984V95.9283Z" fill="#FCA397"/>
<path d="M277.712 152.015H277.382C276.393 152.015 276.064 151.025 276.064 150.035C278.371 142.117 272.108 133.539 271.778 133.539C271.119 132.879 271.449 131.889 271.778 131.23C272.438 130.57 273.427 130.9 274.086 131.23C274.086 131.56 281.338 141.127 278.701 150.695C278.701 151.355 277.712 152.015 277.052 152.015H277.712Z" fill="black"/>
<path d="M226.29 156.963C225.96 156.963 225.301 156.963 224.971 156.633L212.446 144.426C211.786 143.767 211.786 142.777 212.446 142.117C213.105 141.457 214.094 141.457 214.753 142.117L227.279 154.324C227.938 154.984 227.938 155.974 227.279 156.633C227.279 156.633 226.62 156.963 225.96 156.963H226.29Z" fill="black"/>
<path d="M213.434 153.994C212.775 153.994 212.116 153.334 211.786 152.675C211.786 151.685 212.116 151.025 213.105 150.695L221.345 149.045C222.334 149.045 222.994 149.375 223.323 150.365C223.323 151.355 222.994 152.015 222.005 152.345L213.764 153.994H213.434Z" fill="black"/>
<path d="M263.867 165.871C262.878 165.871 261.56 165.871 260.241 165.211C254.308 162.572 252.33 156.304 252.33 155.974C252.33 155.314 252.33 154.654 252.66 154.324C252.99 153.994 253.649 153.664 254.308 153.994L271.778 158.943C272.438 158.943 272.767 159.603 272.767 159.933C272.767 160.592 272.767 160.922 272.438 161.582C272.438 161.582 268.482 165.871 263.867 165.871ZM257.275 158.283C258.264 159.603 259.912 161.252 261.89 162.242C264.197 163.232 266.504 162.242 267.823 161.252L257.275 158.283Z" fill="black"/>
<path d="M249.034 120.672H248.375C247.716 120.342 247.056 119.353 247.716 118.363C250.682 112.424 258.264 113.744 258.593 113.744C259.582 113.744 260.241 114.734 259.912 115.724C259.912 116.713 258.923 117.373 257.934 117.043C257.934 117.043 252.66 116.054 250.682 120.013C250.682 120.672 249.693 121.002 249.034 121.002V120.672Z" fill="black"/>
<path d="M272.438 115.064H271.449C270.79 114.734 270.46 113.414 270.79 112.754C272.108 110.775 273.756 109.785 275.404 109.455C279.36 108.795 282.986 111.765 283.315 112.095C283.975 112.754 283.975 113.744 283.315 114.404C282.656 115.064 281.667 115.064 281.008 114.404C280.349 113.744 277.712 112.095 275.734 112.424C274.745 112.424 274.086 113.084 273.427 114.404C273.427 115.064 272.438 115.064 272.108 115.064H272.438Z" fill="black"/>
<path d="M281.338 133.539C280.678 133.539 280.019 132.88 279.689 132.22L278.041 123.972V122.652L281.008 118.693C281.667 118.033 282.656 117.703 283.315 118.693C283.975 119.353 284.304 120.343 283.645 121.002L281.008 124.302L282.326 131.56C282.326 132.55 281.997 133.21 281.008 133.539H281.338Z" fill="black"/>
<path d="M253.649 136.178C252.99 136.178 252.001 135.519 252.001 134.859L250.682 126.611C250.682 125.951 250.682 125.621 251.012 125.291L255.297 120.672C255.956 120.012 256.945 120.012 257.604 120.672C258.264 121.332 258.264 122.322 257.604 122.982L253.649 126.941L254.967 134.199C254.967 135.189 254.638 135.848 253.649 136.178Z" fill="black"/>
<path d="M227.279 136.179C227.279 136.179 246.067 125.621 252.66 111.764C259.253 97.9078 259.253 90.6495 259.253 90.6495C259.253 90.6495 262.219 99.5574 269.471 101.537C276.393 103.516 281.008 103.516 281.008 103.516L285.952 116.383L281.997 85.7007C281.997 85.7007 262.549 76.133 260.241 76.4629C257.934 76.7929 225.96 83.3913 224.312 85.3708C222.664 87.3503 213.434 112.424 213.434 112.424V123.642L227.938 136.179H227.279Z" fill="#E56445"/>
<path d="M258.923 213.05C239.805 213.05 227.608 201.503 227.279 201.173C226.62 200.513 226.62 199.523 227.279 198.864C227.938 198.204 228.927 198.204 229.586 198.864C230.245 199.523 249.034 217.339 276.723 206.122C277.712 205.792 278.371 206.122 279.03 207.112C279.36 208.101 279.03 208.761 278.041 209.421C271.119 212.39 264.527 213.38 258.923 213.38V213.05Z" fill="white"/>
<path d="M194.646 285.237V270.786C194.646 251.981 192.668 233.175 188.713 215.03L187.064 206.782C187.064 206.782 167.616 222.288 147.839 247.362C146.52 249.045 145.169 250.76 143.85 252.542C128.325 273.261 120.15 298.599 120.15 324.497V379.033H341V273.492L194.646 285.27V285.237Z" fill="#FCA397"/>
<path d="M194.646 285.236C194.646 285.236 185.021 372.764 183.471 379H319.574C319.574 379 329.166 281.838 326.529 274.646" fill="#507849"/>
</g>
<g clip-path="url(#clip1_200_1620)" filter="url(#filter1_d_200_1620)">
<path d="M311.271 306H398.729C403.849 306 408 310.151 408 315.271V402.729C408 407.849 403.849 412 398.729 412H311.271C306.151 412 302 407.849 302 402.729V315.271C302 310.151 306.151 306 311.271 306Z" fill="white" stroke="#FFEB3B" stroke-width="2"/>
<path d="M375.293 362.449C375.149 362.425 375.063 362.398 374.974 362.398C374.731 362.391 374.488 362.394 374.245 362.394C358.477 362.394 342.711 362.394 326.943 362.391C326.508 362.391 326.067 362.374 325.646 362.288C324.078 361.96 322.985 360.58 322.989 358.991C322.996 357.403 324.098 356.044 325.663 355.708C325.923 355.654 326.19 355.63 326.453 355.612C326.697 355.595 326.94 355.609 327.183 355.609C342.903 355.609 358.62 355.609 374.341 355.609C374.628 355.609 374.916 355.609 375.18 355.609C375.286 355.417 375.169 355.342 375.091 355.263C374.94 355.106 374.782 354.952 374.628 354.798C371.455 351.624 368.281 348.451 365.108 345.277C364.937 345.106 364.759 344.938 364.601 344.757C362.91 342.812 363.848 339.827 366.35 339.224C367.456 338.957 368.466 339.218 369.343 339.954C369.51 340.094 369.658 340.255 369.812 340.409C375.111 345.708 380.411 351.008 385.714 356.311C385.868 356.465 386.029 356.616 386.169 356.78C387.285 358.064 387.278 359.967 386.159 361.244C386.08 361.337 385.991 361.419 385.905 361.508C380.486 366.927 375.063 372.346 369.647 377.769C369.247 378.17 368.802 378.495 368.268 378.687C366.847 379.197 365.265 378.7 364.382 377.475C363.502 376.256 363.533 374.599 364.471 373.411C364.649 373.185 364.861 372.98 365.067 372.774C368.292 369.549 371.516 366.324 374.738 363.096C374.919 362.915 375.135 362.757 375.286 362.453L375.293 362.449Z" fill="#FFEB3B"/>
</g>
<defs>
<filter id="filter0_d_200_1620" x="0" y="0" width="433" height="433" filterUnits="userSpaceOnUse" color-interpolation-filters="sRGB">
<feFlood flood-opacity="0" result="BackgroundImageFix"/>
<feColorMatrix in="SourceAlpha" type="matrix" values="0 0 0 0 0 0 0 0 0 0 0 0 0 0 0 0 0 0 127 0" result="hardAlpha"/>
<feOffset dy="4"/>
<feGaussianBlur stdDeviation="25"/>
<feComposite in2="hardAlpha" operator="out"/>
<feColorMatrix type="matrix" values="0 0 0 0 0 0 0 0 0 0 0 0 0 0 0 0 0 0 0.5 0"/>
<feBlend mode="normal" in2="BackgroundImageFix" result="effect1_dropShadow_200_1620"/>
<feBlend mode="normal" in="SourceGraphic" in2="effect1_dropShadow_200_1620" result="shape"/>
</filter>
<filter id="filter1_d_200_1620" x="251" y="259" width="208" height="208" filterUnits="userSpaceOnUse" color-interpolation-filters="sRGB">
<feFlood flood-opacity="0" result="BackgroundImageFix"/>
<feColorMatrix in="SourceAlpha" type="matrix" values="0 0 0 0 0 0 0 0 0 0 0 0 0 0 0 0 0 0 127 0" result="hardAlpha"/>
<feOffset dy="4"/>
<feGaussianBlur stdDeviation="25"/>
<feComposite in2="hardAlpha" operator="out"/>
<feColorMatrix type="matrix" values="0 0 0 0 0 0 0 0 0 0 0 0 0 0 0 0 0 0 0.5 0"/>
<feBlend mode="normal" in2="BackgroundImageFix" result="effect1_dropShadow_200_1620"/>
<feBlend mode="normal" in="SourceGraphic" in2="effect1_dropShadow_200_1620" result="shape"/>
</filter>
<clipPath id="clip0_200_1620">
<rect width="249" height="319" fill="white" transform="translate(92 60)"/>
</clipPath>
<clipPath id="clip1_200_1620">
<rect width="108" height="108" fill="white" transform="translate(301 305)"/>
</clipPath>
</defs>
</svg>
