<svg width="459" height="467" viewBox="0 0 459 467" fill="none" xmlns="http://www.w3.org/2000/svg">
<g filter="url(#filter0_d_200_1621)">
<path d="M383 349C383 365.569 369.569 379 353 379H80C63.4315 379 50 365.569 50 349V76C50 59.4315 63.4315 46 80 46H353C369.569 46 383 59.4315 383 76V349Z" fill="#FFEB3B"/>
</g>
<g clip-path="url(#clip0_200_1621)">
<path d="M302.357 215.493C302.102 215.015 301.847 214.602 301.592 214.602C293.301 209.83 273.532 205.695 255.038 202.832C234.312 199.651 215.18 197.743 215.18 197.743H209.122C202.426 198.061 189.991 199.015 177.555 202.196C167.351 204.741 156.829 208.558 149.176 214.602C147.263 216.192 145.669 217.783 144.075 219.373C139.387 224.781 126.282 239.923 116.461 260.822C111.519 271.319 109 282.771 109 294.349V381H344V280.067C344 272.846 341.959 265.784 338.229 259.645C322.604 233.911 308.001 220.264 302.357 215.556V215.493Z" fill="#46467F"/>
<path d="M177.236 129.669C177.236 129.669 178.512 151.936 188.396 152.891C198.281 153.845 213.267 141.121 213.267 141.121L206.252 115.991L177.236 129.351V129.669Z" fill="black"/>
<path d="M206.252 171.341V206.332C206.571 206.332 213.586 216.193 234.95 217.783C250.893 219.056 256.632 215.557 256.632 215.557L254.081 197.743L251.531 180.566L212.63 172.613L206.252 171.341Z" fill="#FCA397"/>
<path d="M214.862 172.931C214.862 173.885 215.18 175.158 215.818 176.43C223.79 193.926 245.153 197.425 254.081 198.061L251.849 180.884L214.862 173.249V172.931Z" fill="black"/>
<path d="M259.183 101.041C259.183 101.041 277.996 144.62 270.981 169.114C263.966 193.608 241.646 189.472 228.254 184.701C214.862 179.929 208.803 171.659 208.803 171.659C208.803 171.659 196.368 175.794 188.077 164.024C179.787 152.255 184.889 139.213 192.223 136.032C199.237 133.169 207.847 138.258 207.847 138.258L201.151 125.534C201.151 125.534 229.529 61.5964 259.183 100.723V101.041Z" fill="#FCA397"/>
<path d="M206.571 157.344H205.615L189.672 146.211C189.034 145.575 188.715 144.62 189.353 143.984C189.99 143.348 190.947 143.03 191.585 143.666L207.528 154.8C208.165 155.436 208.484 156.39 207.847 157.026C207.847 157.344 206.89 157.662 206.571 157.662V157.344Z" fill="black"/>
<path d="M192.222 157.344C191.585 157.344 190.947 157.026 190.628 156.072C190.628 155.117 190.628 154.481 191.904 154.163L202.107 151.3C203.064 151.3 203.701 151.3 204.02 152.573C204.339 153.845 204.02 154.163 202.745 154.481L192.541 157.344H192.222Z" fill="black"/>
<path d="M228.892 122.035H227.935C227.297 121.717 226.978 120.763 227.297 119.809C231.442 113.129 237.82 113.447 240.689 114.401C241.646 114.719 241.965 115.673 241.646 116.31C241.327 117.264 240.37 117.582 239.733 117.264C239.733 117.264 233.674 115.037 230.167 121.081C230.167 121.717 229.21 121.717 228.892 121.717V122.035Z" fill="black"/>
<path d="M263.966 117.9C263.647 117.9 263.328 117.9 263.01 117.582C259.502 114.719 255.676 116.946 255.357 116.946C254.719 117.264 253.763 116.946 253.125 116.309C252.806 115.673 253.125 114.719 253.763 114.083C253.763 114.083 259.502 110.584 264.923 115.037C265.56 115.673 265.56 116.627 264.923 117.264C264.923 117.582 264.285 117.9 263.647 117.9H263.966Z" fill="black"/>
<path d="M257.589 155.118H257.27C256.313 155.118 255.995 154.163 255.995 153.209C258.227 144.939 252.487 132.533 252.487 132.533C252.168 131.896 252.487 130.942 253.125 130.306C253.763 129.988 254.719 130.306 255.357 130.942C255.357 131.578 261.734 144.62 259.183 153.845C259.183 154.482 258.227 155.118 257.589 155.118Z" fill="black"/>
<path d="M260.777 134.759C260.14 134.759 259.502 134.441 259.183 133.487L256.951 125.535C256.951 124.58 256.951 123.944 257.908 123.626C258.864 123.626 259.502 123.626 259.821 124.58L262.053 132.533C262.053 133.487 262.053 134.123 261.096 134.441H260.777V134.759Z" fill="black"/>
<path d="M236.863 135.395C236.225 135.395 235.587 135.077 235.269 134.123L233.037 126.17C233.037 125.216 233.037 124.58 233.993 124.262C234.95 124.262 235.587 124.262 235.906 125.216L238.138 133.169C238.138 134.123 238.138 134.759 237.182 135.077H236.863V135.395Z" fill="black"/>
<path d="M261.415 107.403C261.415 107.403 258.864 103.904 250.255 103.904C241.646 103.904 236.544 109.947 236.544 109.947C236.544 109.947 235.906 125.852 224.109 133.487C212.311 141.439 207.847 138.258 207.847 138.258L199.237 135.395L192.86 122.989L217.412 95.951L247.066 83.2271L261.734 99.4501V107.085L261.415 107.403Z" fill="black"/>
<path d="M248.98 164.979C246.429 164.979 240.052 164.343 236.863 157.663C236.544 157.026 236.863 156.072 237.501 155.436C238.138 154.8 239.095 155.436 239.733 156.072C242.602 162.116 249.299 161.48 249.617 161.48C250.574 161.48 251.212 162.116 251.212 162.752C251.212 163.706 250.574 164.343 249.936 164.343H248.98V164.979Z" fill="black"/>
<path d="M182.338 150.346C176.279 143.984 171.178 128.715 172.453 120.127V118.536C172.453 118.536 162.568 117.582 166.076 103.904C169.583 90.5434 186.802 72.4118 213.586 65.7317C240.37 59.0516 261.734 99.7683 261.734 99.7683C261.734 99.7683 239.095 98.4959 222.195 111.22C205.296 123.944 198.919 135.395 198.919 135.395L182.019 150.346H182.338Z" fill="#7C6053"/>
<path d="M241.646 218.737C220.282 218.737 204.339 207.922 203.702 207.604C203.064 206.968 202.745 206.013 203.383 205.377C204.02 204.741 204.977 204.423 205.615 205.059C205.615 205.059 229.529 220.964 256.313 213.966C257.27 213.966 257.908 213.966 258.227 215.238C258.227 216.193 258.227 216.829 256.951 217.147C251.531 218.419 246.429 219.056 241.646 219.056V218.737Z" fill="#F7734F"/>
<path d="M172.134 121.399H171.497C170.859 121.081 170.54 120.126 170.859 119.172L175.961 110.265C176.279 109.629 177.236 109.311 178.193 109.629C178.83 109.947 179.149 110.902 178.83 111.856L173.729 120.763C173.729 121.399 172.772 121.717 172.453 121.717L172.134 121.399Z" fill="#FFBF69"/>
<path d="M310.201 335.702C309.244 336.816 308.607 337.961 307.65 339.074L299.36 266.961C299.36 265.275 299.678 264.13 300.635 263.589C301.592 263.589 302.229 264.162 302.548 265.848L310.52 335.162L310.201 335.734V335.702Z" fill="#F7734F"/>
</g>
<g clip-path="url(#clip1_200_1621)" filter="url(#filter1_d_200_1621)">
<path d="M311.271 306H398.729C403.849 306 408 310.151 408 315.271V402.729C408 407.849 403.849 412 398.729 412H311.271C306.151 412 302 407.849 302 402.729V315.271C302 310.151 306.151 306 311.271 306Z" fill="white" stroke="#FFEB3B" stroke-width="2"/>
<path d="M375.293 362.449C375.149 362.425 375.063 362.398 374.974 362.398C374.731 362.391 374.488 362.394 374.245 362.394C358.477 362.394 342.711 362.394 326.943 362.391C326.508 362.391 326.067 362.374 325.646 362.288C324.078 361.96 322.985 360.58 322.989 358.991C322.996 357.403 324.098 356.044 325.663 355.708C325.923 355.654 326.19 355.63 326.453 355.612C326.697 355.595 326.94 355.609 327.183 355.609C342.903 355.609 358.62 355.609 374.341 355.609C374.628 355.609 374.916 355.609 375.18 355.609C375.286 355.417 375.169 355.342 375.091 355.263C374.94 355.106 374.782 354.952 374.628 354.798C371.455 351.624 368.281 348.451 365.108 345.277C364.937 345.106 364.759 344.938 364.601 344.757C362.91 342.812 363.848 339.827 366.35 339.224C367.456 338.957 368.466 339.218 369.343 339.954C369.51 340.094 369.658 340.255 369.812 340.409C375.111 345.708 380.411 351.008 385.714 356.311C385.868 356.465 386.029 356.616 386.169 356.78C387.285 358.064 387.278 359.967 386.159 361.244C386.08 361.337 385.991 361.419 385.905 361.508C380.486 366.927 375.063 372.346 369.647 377.769C369.247 378.17 368.802 378.495 368.268 378.687C366.847 379.197 365.265 378.7 364.382 377.475C363.502 376.256 363.533 374.599 364.471 373.411C364.649 373.185 364.861 372.98 365.067 372.774C368.292 369.549 371.516 366.324 374.738 363.096C374.919 362.915 375.135 362.757 375.286 362.453L375.293 362.449Z" fill="#FFEB3B"/>
</g>
<defs>
<filter id="filter0_d_200_1621" x="0" y="0" width="433" height="433" filterUnits="userSpaceOnUse" color-interpolation-filters="sRGB">
<feFlood flood-opacity="0" result="BackgroundImageFix"/>
<feColorMatrix in="SourceAlpha" type="matrix" values="0 0 0 0 0 0 0 0 0 0 0 0 0 0 0 0 0 0 127 0" result="hardAlpha"/>
<feOffset dy="4"/>
<feGaussianBlur stdDeviation="25"/>
<feComposite in2="hardAlpha" operator="out"/>
<feColorMatrix type="matrix" values="0 0 0 0 0 0 0 0 0 0 0 0 0 0 0 0 0 0 0.5 0"/>
<feBlend mode="normal" in2="BackgroundImageFix" result="effect1_dropShadow_200_1621"/>
<feBlend mode="normal" in="SourceGraphic" in2="effect1_dropShadow_200_1621" result="shape"/>
</filter>
<filter id="filter1_d_200_1621" x="251" y="259" width="208" height="208" filterUnits="userSpaceOnUse" color-interpolation-filters="sRGB">
<feFlood flood-opacity="0" result="BackgroundImageFix"/>
<feColorMatrix in="SourceAlpha" type="matrix" values="0 0 0 0 0 0 0 0 0 0 0 0 0 0 0 0 0 0 127 0" result="hardAlpha"/>
<feOffset dy="4"/>
<feGaussianBlur stdDeviation="25"/>
<feComposite in2="hardAlpha" operator="out"/>
<feColorMatrix type="matrix" values="0 0 0 0 0 0 0 0 0 0 0 0 0 0 0 0 0 0 0.5 0"/>
<feBlend mode="normal" in2="BackgroundImageFix" result="effect1_dropShadow_200_1621"/>
<feBlend mode="normal" in="SourceGraphic" in2="effect1_dropShadow_200_1621" result="shape"/>
</filter>
<clipPath id="clip0_200_1621">
<rect width="235" height="316" fill="white" transform="translate(109 65)"/>
</clipPath>
<clipPath id="clip1_200_1621">
<rect width="108" height="108" fill="white" transform="translate(301 305)"/>
</clipPath>
</defs>
</svg>
