<svg width="459" height="467" viewBox="0 0 459 467" fill="none" xmlns="http://www.w3.org/2000/svg">
<g filter="url(#filter0_d_200_1622)">
<path d="M383 349C383 365.569 369.569 379 353 379H80C63.4315 379 50 365.569 50 349V76C50 59.4315 63.4315 46 80 46H353C369.569 46 383 59.4315 383 76V349Z" fill="#FFEB3B"/>
</g>
<g clip-path="url(#clip0_200_1622)">
<path d="M89 280.74V380H344V312.182C344 299.136 340.54 286.366 334.035 275.045C319.988 250.714 297.014 220.998 265.113 212.439C264.767 212.439 264.075 212.439 263.729 212.094C215.981 200.014 151.279 211.403 138.478 221.067C138.339 221.171 134.187 223.897 132.423 225.105C131.869 225.485 131.315 225.83 130.762 226.175C126.61 228.66 108.791 240.222 93.6363 264.174C90.5224 269.109 89 274.873 89 280.671V280.74Z" fill="#7C6053"/>
<path d="M254.041 126.191C254.041 126.191 280.682 93.0584 269.611 79.9435C258.539 66.8285 240.893 79.9435 240.893 79.9435C240.893 79.9435 239.855 64.4126 222.555 66.1382C205.255 67.8639 194.875 86.1558 194.875 86.1558C194.875 86.1558 179.651 70.9701 169.271 86.1558C158.891 101.342 166.157 126.191 166.157 126.191C166.157 126.191 154.047 124.465 157.161 138.616C160.275 152.766 179.305 167.262 179.305 167.262L254.041 126.191Z" fill="black"/>
<path d="M195.221 178.306V215.58C194.875 215.58 201.449 226.279 223.247 228.35C239.509 229.73 245.391 226.279 245.391 226.279L243.315 207.297L241.239 189.005L201.795 179.686L195.221 178.306Z" fill="#FCA397"/>
<path d="M201.795 180.031C201.795 181.067 202.141 182.102 202.833 183.483C210.791 202.12 233.627 206.606 243.315 207.642L241.239 189.35L201.795 180.031Z" fill="black"/>
<path d="M250.581 104.102C250.581 104.102 269.611 151.04 261.653 176.925C253.695 202.81 229.821 197.978 215.635 192.456C201.449 186.934 195.221 177.96 195.221 177.96C195.221 177.96 181.727 182.102 173.077 169.332C164.427 156.562 170.309 142.757 178.267 139.651C186.225 136.545 194.875 142.412 194.875 142.412L188.301 128.607C188.301 128.607 220.133 60.961 250.927 103.757L250.581 104.102Z" fill="#FCA397"/>
<path d="M193.145 163.465C193.837 163.465 194.183 163.465 194.529 162.775C195.221 162.084 194.875 161.049 194.183 160.359L179.997 150.005C179.305 149.314 178.267 149.66 177.575 150.35C176.883 151.04 177.229 152.075 177.921 152.766L192.107 163.12H193.145V163.465Z" fill="black"/>
<path d="M177.921 162.775H178.267L189.339 160.014C190.377 160.014 190.723 158.978 190.723 157.943C190.723 156.908 189.685 156.562 188.647 156.562L177.575 159.324C176.537 159.324 176.191 160.359 176.191 161.394C176.191 162.085 177.229 162.775 177.921 162.775Z" fill="black"/>
<path d="M220.479 126.191C221.171 126.191 221.863 125.845 222.209 125.155C224.631 117.907 231.205 118.943 231.551 118.943C232.589 118.943 233.281 118.598 233.627 117.562C233.973 116.527 233.281 115.837 232.243 115.492C229.129 114.801 221.863 115.837 219.095 123.775C219.095 124.81 219.095 125.5 220.133 125.845H220.825L220.479 126.191Z" fill="black"/>
<path d="M255.425 122.395C255.771 122.395 256.463 122.395 256.809 121.704C257.501 121.014 257.501 119.979 256.809 119.288C255.079 117.908 250.581 114.111 248.851 116.527C248.159 117.218 248.159 118.253 248.851 118.943C249.197 119.288 249.889 119.633 250.581 119.288C250.927 119.288 251.965 119.979 254.733 122.049C254.733 122.049 255.425 122.395 255.771 122.395H255.425Z" fill="black"/>
<path d="M248.505 157.943C248.851 157.943 249.543 157.943 249.889 157.253C256.117 149.315 244.353 136.89 243.661 136.2C242.969 135.51 241.931 135.51 241.239 136.2C240.547 136.89 240.547 137.925 241.239 138.616C244.007 141.722 250.581 150.35 247.121 155.182C246.429 155.872 246.775 156.908 247.121 157.598C247.121 157.598 247.813 157.943 248.159 157.943H248.505Z" fill="black"/>
<path d="M251.619 141.376C252.657 141.376 253.349 140.341 253.003 139.306L251.619 130.677C251.619 129.642 250.581 128.952 249.543 129.297C248.505 129.297 247.813 130.332 248.159 131.368L249.543 139.996C249.543 141.031 250.581 141.376 251.273 141.376H251.619Z" fill="black"/>
<path d="M226.015 141.376C227.053 141.376 227.745 140.341 227.745 139.651L227.053 130.677C227.053 129.642 226.361 128.952 225.323 128.952C224.285 128.952 223.593 129.987 223.593 130.677L224.285 139.651C224.285 140.686 224.977 141.376 226.015 141.376Z" fill="black"/>
<path d="M254.387 114.802C254.387 114.802 250.581 107.209 241.239 107.209C231.897 107.209 226.361 113.421 226.361 113.421C226.361 113.421 230.167 129.297 217.365 137.235C204.563 145.173 194.875 142.757 194.875 142.757L185.879 139.306L179.305 125.846L206.293 97.545L240.893 79.9434L258.193 96.1645L254.387 114.802Z" fill="black"/>
<path d="M238.471 172.783H239.163C240.201 172.783 240.893 171.748 240.893 171.058C240.893 170.022 239.855 169.332 239.163 169.332C239.163 169.332 231.551 169.677 228.783 163.12C228.437 162.084 227.399 161.739 226.361 162.429C225.323 162.775 224.977 163.81 225.669 164.845C229.129 172.438 236.395 173.128 238.817 173.128L238.471 172.783Z" fill="black"/>
<path d="M228.783 230.421C240.547 230.421 249.889 227.659 250.235 227.659C251.273 227.659 251.619 226.279 251.273 225.589C251.273 224.553 249.889 224.208 249.197 224.553C249.197 224.553 237.087 228.005 223.247 226.969C207.331 225.934 192.107 214.545 192.107 214.545C191.415 213.854 190.377 214.199 189.685 214.545C188.993 215.235 189.339 216.27 189.685 216.96C190.377 217.306 205.601 229.04 222.555 230.075H228.091L228.783 230.421Z" fill="#FFBF69"/>
</g>
<g clip-path="url(#clip1_200_1622)" filter="url(#filter1_d_200_1622)">
<path d="M311.271 306H398.729C403.849 306 408 310.151 408 315.271V402.729C408 407.849 403.849 412 398.729 412H311.271C306.151 412 302 407.849 302 402.729V315.271C302 310.151 306.151 306 311.271 306Z" fill="white" stroke="#FFEB3B" stroke-width="2"/>
<path d="M375.293 362.449C375.149 362.425 375.063 362.398 374.974 362.398C374.731 362.391 374.488 362.394 374.245 362.394C358.477 362.394 342.711 362.394 326.943 362.391C326.508 362.391 326.067 362.374 325.646 362.288C324.078 361.96 322.985 360.58 322.989 358.991C322.996 357.403 324.098 356.044 325.663 355.708C325.923 355.654 326.19 355.63 326.453 355.612C326.697 355.595 326.94 355.609 327.183 355.609C342.903 355.609 358.62 355.609 374.341 355.609C374.628 355.609 374.916 355.609 375.18 355.609C375.286 355.417 375.169 355.342 375.091 355.263C374.94 355.106 374.782 354.952 374.628 354.798C371.455 351.624 368.281 348.451 365.108 345.277C364.937 345.106 364.759 344.938 364.601 344.757C362.91 342.812 363.848 339.827 366.35 339.224C367.456 338.957 368.466 339.218 369.343 339.954C369.51 340.094 369.658 340.255 369.812 340.409C375.111 345.708 380.411 351.008 385.714 356.311C385.868 356.465 386.029 356.616 386.169 356.78C387.285 358.064 387.278 359.967 386.159 361.244C386.08 361.337 385.991 361.419 385.905 361.508C380.486 366.927 375.063 372.346 369.647 377.769C369.247 378.17 368.802 378.495 368.268 378.687C366.847 379.197 365.265 378.7 364.382 377.475C363.502 376.256 363.533 374.599 364.471 373.411C364.649 373.185 364.861 372.98 365.067 372.774C368.292 369.549 371.516 366.324 374.738 363.096C374.919 362.915 375.135 362.757 375.286 362.453L375.293 362.449Z" fill="#FFEB3B"/>
</g>
<defs>
<filter id="filter0_d_200_1622" x="0" y="0" width="433" height="433" filterUnits="userSpaceOnUse" color-interpolation-filters="sRGB">
<feFlood flood-opacity="0" result="BackgroundImageFix"/>
<feColorMatrix in="SourceAlpha" type="matrix" values="0 0 0 0 0 0 0 0 0 0 0 0 0 0 0 0 0 0 127 0" result="hardAlpha"/>
<feOffset dy="4"/>
<feGaussianBlur stdDeviation="25"/>
<feComposite in2="hardAlpha" operator="out"/>
<feColorMatrix type="matrix" values="0 0 0 0 0 0 0 0 0 0 0 0 0 0 0 0 0 0 0.5 0"/>
<feBlend mode="normal" in2="BackgroundImageFix" result="effect1_dropShadow_200_1622"/>
<feBlend mode="normal" in="SourceGraphic" in2="effect1_dropShadow_200_1622" result="shape"/>
</filter>
<filter id="filter1_d_200_1622" x="251" y="259" width="208" height="208" filterUnits="userSpaceOnUse" color-interpolation-filters="sRGB">
<feFlood flood-opacity="0" result="BackgroundImageFix"/>
<feColorMatrix in="SourceAlpha" type="matrix" values="0 0 0 0 0 0 0 0 0 0 0 0 0 0 0 0 0 0 127 0" result="hardAlpha"/>
<feOffset dy="4"/>
<feGaussianBlur stdDeviation="25"/>
<feComposite in2="hardAlpha" operator="out"/>
<feColorMatrix type="matrix" values="0 0 0 0 0 0 0 0 0 0 0 0 0 0 0 0 0 0 0.5 0"/>
<feBlend mode="normal" in2="BackgroundImageFix" result="effect1_dropShadow_200_1622"/>
<feBlend mode="normal" in="SourceGraphic" in2="effect1_dropShadow_200_1622" result="shape"/>
</filter>
<clipPath id="clip0_200_1622">
<rect width="255" height="314" fill="white" transform="matrix(-1 0 0 1 344 66)"/>
</clipPath>
<clipPath id="clip1_200_1622">
<rect width="108" height="108" fill="white" transform="translate(301 305)"/>
</clipPath>
</defs>
</svg>
