<svg width="186" height="31" viewBox="0 0 186 31" fill="none" xmlns="http://www.w3.org/2000/svg">
<path d="M13.945 8.475C16.92 8.475 18.145 10.4 18.145 14.705C18.145 16.49 18.005 18.905 17.83 20.69C15.345 20.76 12.86 20.9 10.445 21.145C10.76 19.815 11.075 17.575 9.885 17.575C9.465 17.575 9.15 17.855 9.045 18.345L9.01 24.33C9.045 26.22 9.115 28.285 9.255 30H0.47C0.61 28.285 0.68 26.22 0.715 24.33L0.68 14.6C0.68 12.71 0.61 10.645 0.47 8.93H0.715L9.045 8.615H9.29C9.185 10.085 9.08 11.8 9.045 13.445C10.06 9.7 11.845 8.475 13.945 8.475ZM27.6874 21.705C27.9324 23.105 28.5974 23.455 30.3474 23.49C33.0424 23.49 36.0874 23.175 38.3274 22.44L38.0824 29.265C36.1224 29.93 33.2874 30.42 29.9274 30.42C22.4374 30.42 19.4274 27.655 19.4274 19.395C19.4274 11.205 23.2424 8.475 29.6474 8.475C35.6674 8.475 38.3274 11.975 38.3274 16.91C38.3274 18.24 38.2224 20.375 38.0474 21.565C35.0024 21.705 30.4174 21.775 27.6874 21.705ZM29.1924 14.95C28.3174 14.95 27.8274 15.44 27.6174 17.225C28.3874 17.26 29.5774 17.26 30.4874 17.225C30.4874 15.685 30.1724 14.95 29.1924 14.95ZM40.4529 29.93L41.0129 21.53C42.9379 22.44 46.5779 23.28 48.9929 23.28C50.1479 23.28 50.1479 21.81 49.1329 21.705L45.3529 21.215C41.8179 20.76 40.5929 18.59 40.5929 15.3C40.5929 10.61 42.8329 8.58 48.1529 8.51C50.6379 8.475 54.3479 8.79 57.3579 9.07L56.7979 17.33C54.8379 16.735 51.3029 15.93 50.0779 15.93C48.9929 15.93 48.8529 17.4 50.0079 17.575L52.9479 17.89C56.6229 18.38 57.9179 20.165 57.9179 23.7C57.9179 28.95 54.7679 30.385 50.5329 30.42C46.8229 30.455 43.4979 30.28 40.4529 29.93ZM70.0145 30.42C63.0145 30.42 59.7595 27.2 59.7595 19.43C59.7595 11.695 63.0145 8.475 70.0145 8.475C76.9795 8.475 80.1995 11.695 80.1995 19.43C80.1995 27.2 76.9795 30.42 70.0145 30.42ZM70.0145 23.105C71.1695 23.105 71.6945 22.23 71.6945 19.43C71.6945 16.63 71.1695 15.755 70.0145 15.755C68.8245 15.755 68.2995 16.63 68.2995 19.43C68.2995 22.23 68.8245 23.105 70.0145 23.105ZM82.638 30C82.813 28.285 82.848 26.22 82.883 24.33V8.265C82.848 6.375 82.813 4.31 82.638 2.595H82.918L91.353 2.28H91.633C91.528 3.995 91.423 6.06 91.388 7.95V24.33C91.423 26.22 91.458 28.285 91.633 30H82.638ZM113.814 14.285V24.33C113.849 26.22 113.884 28.285 114.059 30H105.484V28.04C104.084 29.72 101.949 30.42 100.444 30.42C96.4192 30.42 94.7042 28.88 94.7042 23.105V14.565C94.6692 12.675 94.6692 10.61 94.4592 8.895H94.7392L102.999 8.755H103.279C103.139 10.47 103.069 12.535 103.034 14.425V19.815C103.034 21.495 103.279 22.195 104.329 22.16C104.749 22.125 105.134 22.02 105.484 21.81V14.6C105.449 12.71 105.414 10.645 105.239 8.93H105.519L113.849 8.615H114.094C113.989 10.33 113.849 12.395 113.814 14.285ZM130.078 22.02C130.113 24.75 130.218 27.235 130.498 29.93C129.063 30.21 126.753 30.42 124.093 30.42C119.508 30.42 117.863 29.125 117.863 24.12L117.898 15.685L115.903 15.825V8.65L117.933 8.755C117.898 7.11 117.828 5.395 117.723 3.925H117.968L126.543 3.61L126.368 8.79L130.288 8.58V15.825L126.333 15.65V20.655C126.333 22.16 126.683 22.51 127.943 22.51C128.748 22.51 129.553 22.3 130.078 22.02ZM136.711 8.79C133.281 8.79 131.566 7.46 131.566 4.8C131.566 2.21 133.281 0.949998 136.711 0.949998C140.106 0.949998 141.786 2.21 141.786 4.8C141.786 7.46 140.106 8.755 136.711 8.79ZM132.231 30.07C132.371 28.355 132.441 26.29 132.476 24.4L132.441 15.79C132.441 13.9 132.371 11.835 132.231 10.12H141.191C141.051 11.835 140.981 13.9 140.946 15.79V24.4C140.981 26.29 141.051 28.355 141.191 30.07H132.231ZM153.755 30.42C146.755 30.42 143.5 27.2 143.5 19.43C143.5 11.695 146.755 8.475 153.755 8.475C160.72 8.475 163.94 11.695 163.94 19.43C163.94 27.2 160.72 30.42 153.755 30.42ZM153.755 23.105C154.91 23.105 155.435 22.23 155.435 19.43C155.435 16.63 154.91 15.755 153.755 15.755C152.565 15.755 152.04 16.63 152.04 19.43C152.04 22.23 152.565 23.105 153.755 23.105ZM185.593 24.33C185.628 26.22 185.698 28.285 185.838 30H177.018C177.158 28.285 177.228 26.22 177.263 24.33V18.59C177.263 17.295 177.018 16.84 176.143 16.875C175.758 16.91 175.338 17.015 174.953 17.19L174.918 24.33C174.953 26.22 175.023 28.285 175.163 30H166.378C166.518 28.285 166.588 26.22 166.623 24.33L166.588 14.6C166.588 12.71 166.518 10.645 166.378 8.93H166.623L174.953 8.615H175.198C175.163 9.315 175.093 10.12 175.058 10.89C176.703 9.245 178.733 8.475 180.658 8.475C183.878 8.475 185.628 9.98 185.628 15.055C185.628 18.17 185.628 21.25 185.593 24.33Z" fill="white"/>
</svg>
