<svg width="23" height="60" viewBox="0 0 23 60" fill="none" xmlns="http://www.w3.org/2000/svg">
<path d="M21.93 59.845L13.53 59.285C14.44 57.36 15.28 53.72 15.28 51.305C15.28 50.15 13.81 50.15 13.705 51.165L13.215 54.945C12.76 58.48 10.59 59.705 7.3 59.705C2.61 59.705 0.579998 57.465 0.509999 52.145C0.474999 49.66 0.789999 45.95 1.07 42.94L9.33 43.5C8.735 45.46 7.93 48.995 7.93 50.22C7.93 51.305 9.4 51.445 9.575 50.29L9.89 47.35C10.38 43.675 12.165 42.38 15.7 42.38C20.95 42.38 22.385 45.53 22.42 49.765C22.455 53.475 22.28 56.8 21.93 59.845ZM16.33 20.7984C18.22 20.7634 20.285 20.6934 22 20.5534L22 29.3734C20.285 29.2334 18.22 29.1634 16.33 29.1284L10.59 29.1284C9.295 29.1284 8.84 29.3734 8.875 30.2484C8.91 30.6334 9.015 31.0534 9.19 31.4384L16.33 31.4734C18.22 31.4384 20.285 31.3684 22 31.2284L22 40.0134C20.285 39.8734 18.22 39.8034 16.33 39.7684L6.6 39.8034C4.71 39.8034 2.645 39.8734 0.929997 40.0134L0.929997 39.7684L0.614999 31.4384L0.614999 31.1934C1.315 31.2284 2.12 31.2984 2.89 31.3334C1.245 29.6884 0.474998 27.6584 0.474998 25.7334C0.474998 22.5134 1.98 20.7634 7.055 20.7634C10.17 20.7634 13.25 20.7634 16.33 20.7984ZM21.93 18.1116L13.53 17.5516C14.44 15.6266 15.28 11.9866 15.28 9.5716C15.28 8.4166 13.81 8.4166 13.705 9.4316L13.215 13.2116C12.76 16.7466 10.59 17.9716 7.3 17.9716C2.61 17.9716 0.579997 15.7316 0.509997 10.4116C0.474998 7.9266 0.789998 4.2166 1.07 1.2066L9.33 1.7666C8.735 3.7266 7.93 7.2616 7.93 8.4866C7.93 9.5716 9.4 9.7116 9.575 8.5566L9.89 5.6166C10.38 1.9416 12.165 0.6466 15.7 0.646599C20.95 0.646599 22.385 3.7966 22.42 8.0316C22.455 11.7416 22.28 15.0666 21.93 18.1116Z" fill="#BF00FF"/>
</svg>
